<?xml version="1.0" standalone="no"?>
<!DOCTYPE svg PUBLIC "-//W3C//DTD SVG 1.1//EN" "http://www.w3.org/Graphics/SVG/1.1/DTD/svg11.dtd" >
<svg xmlns="http://www.w3.org/2000/svg" xmlns:xlink="http://www.w3.org/1999/xlink" version="1.1">
<metadata></metadata>
<defs>
<font id="pridimedium" horiz-adv-x="1357" >
<font-face units-per-em="2048" ascent="1536" descent="-512" />
<missing-glyph horiz-adv-x="665" />
<glyph unicode="&#xfb01;" horiz-adv-x="1181" d="M35 805v178h155v57q0 164 111 255t317 91q252 0 396 -118v-170h-254v78q-45 37 -137 36q-78 0 -121 -35.5t-43 -107.5v-86h555v-725q0 -76 78 -76h55v-182h-408v805h-280v-551q0 -39 17.5 -57.5t58.5 -18.5h53v-178h-531v178h54q43 0 61 19.5t18 60.5v547h-155z" />
<glyph unicode="&#xfb02;" horiz-adv-x="1181" d="M35 805v178h155v57q0 164 111 255t317 91q129 0 229.5 -31.5t166.5 -86.5v-1010q0 -76 78 -76h55v-182h-408v805h-280v-551q0 -39 17.5 -57.5t58.5 -18.5h53v-178h-531v178h54q43 0 61 19.5t18 60.5v547h-155zM459 983h280v199q-18 14 -50 22t-66 8q-84 0 -124 -34.5 t-40 -108.5v-86z" />
<glyph horiz-adv-x="0" />
<glyph unicode="&#xd;" horiz-adv-x="665" />
<glyph unicode=" "  horiz-adv-x="665" />
<glyph unicode="&#x09;" horiz-adv-x="665" />
<glyph unicode="&#xa0;" horiz-adv-x="665" />
<glyph unicode="!" horiz-adv-x="446" d="M76 0v215h295v-215h-295zM80 1325h289l-15 -924h-260z" />
<glyph unicode="&#x22;" horiz-adv-x="765" d="M76 1477h246l-25 -420h-195zM442 1477h248l-26 -420h-193z" />
<glyph unicode="#" horiz-adv-x="1533" d="M76 348v180h258l69 306h-270v180h309l68 311h235l-69 -311h342l69 311h234l-70 -311h207v-180h-248l-67 -306h256v-180h-297l-76 -348h-231l73 348h-342l-73 -348h-236l78 348h-219zM567 528h342l68 306h-342z" />
<glyph unicode="$" horiz-adv-x="1148" d="M76 129v219h272v-141q47 -27 110.5 -42t133.5 -15q106 0 161.5 44t55.5 132q0 59 -33 99t-89 70.5t-167 75.5q-152 61 -243 116.5t-140 129.5t-49 178q0 145 96.5 232.5t255.5 113.5v230h248v-223q203 -20 363 -148v-203h-273v131q-84 47 -207 48q-102 0 -160.5 -41 t-58.5 -131q0 -57 34 -98.5t83 -68t131 -59.5l43 -18q172 -74 253 -119t129 -116.5t48 -186.5q0 -143 -100.5 -242.5t-284.5 -118.5v-223h-248v228q-104 14 -198.5 53t-165.5 94z" />
<glyph unicode="%" horiz-adv-x="1574" d="M76 1040q0 86 42 159t114.5 115t158.5 42t159 -42t115 -115t42 -159t-42 -158.5t-115 -114.5t-159 -42t-158.5 42t-114.5 114.5t-42 158.5zM252 1040q0 -57 41 -98t98 -41q60 0 99.5 41t39.5 98q0 59 -39.5 99.5t-99.5 40.5q-57 0 -98 -40t-41 -100zM272 0l772 1325h273 l-772 -1325h-273zM868 285q0 86 42 158.5t115 114.5t159 42t158.5 -42t114.5 -114.5t42 -158.5t-42 -159t-114.5 -115t-158.5 -42t-159 42t-115 115t-42 159zM1042 285q0 -57 41 -98.5t101 -41.5q59 0 99 41t40 99q0 59 -40 99t-99 40t-100.5 -41t-41.5 -98z" />
<glyph unicode="&#x26;" horiz-adv-x="1419" d="M76 338q0 135 64.5 228t201.5 171q-78 76 -124 150t-46 155q0 152 100.5 233t276.5 81q186 0 283.5 -89t97.5 -231v-57h-271v84q0 55 -28.5 86t-79.5 31q-55 0 -85 -32t-30 -106q0 -55 32 -101t107 -122l39 -41l320 -338q25 66 24 172v164h363v-176h-66q-33 0 -45 -13.5 t-12 -45.5q0 -190 -74 -314l219 -227h-303l-79 84q-82 -66 -170.5 -90.5t-219.5 -24.5q-225 0 -360 97.5t-135 271.5zM344 338q0 -92 66.5 -142.5t160.5 -50.5q86 0 144.5 17.5t111.5 60.5l-333 357q-80 -47 -115 -101.5t-35 -140.5z" />
<glyph unicode="'" horiz-adv-x="423" d="M76 1477h272l-26 -420h-220z" />
<glyph unicode="(" horiz-adv-x="751" d="M76 647q0 506 293 801h307q-170 -154 -253 -356.5t-83 -444.5q0 -248 80 -447.5t256 -353.5h-307q-293 295 -293 801z" />
<glyph unicode=")" horiz-adv-x="751" d="M76 -154q170 154 253 357t83 444q0 248 -80 447.5t-256 353.5h307q293 -295 293 -801t-293 -801h-307z" />
<glyph unicode="*" horiz-adv-x="874" d="M76 1157l69 199l181 -80l-7 201h238l-10 -201l182 78l70 -197l-211 -55l139 -172l-178 -121l-113 178l-110 -178l-179 121l138 172z" />
<glyph unicode="+" horiz-adv-x="845" d="M76 541v178h235v213h217v-213h242v-178h-242v-213h-217v213h-235z" />
<glyph unicode="," horiz-adv-x="485" d="M76 -244l69 443h265l-138 -443h-196z" />
<glyph unicode="-" horiz-adv-x="761" d="M76 528v179h610v-179h-610z" />
<glyph unicode="." horiz-adv-x="366" d="M76 0v199h215v-199h-215z" />
<glyph unicode="/" horiz-adv-x="937" d="M76 0l514 1384h272l-512 -1384h-274z" />
<glyph unicode="0" horiz-adv-x="1280" d="M55 664q0 346 143.5 519t440.5 173q299 0 442.5 -173t143.5 -519q0 -348 -143.5 -521.5t-442.5 -173.5q-297 0 -440.5 173t-143.5 522zM322 664q0 -272 81.5 -392t235.5 -120q156 0 237.5 119.5t81.5 392.5q0 270 -81.5 390t-237.5 120q-154 0 -235.5 -120t-81.5 -390z " />
<glyph unicode="1" horiz-adv-x="856" d="M55 1120l324 205h223v-1067q0 -41 19.5 -60.5t64.5 -19.5h115v-178h-664v178h115q45 0 63.5 19.5t18.5 60.5v807l-178 -109z" />
<glyph unicode="2" horiz-adv-x="1112" d="M76 0v117q0 186 113.5 320t332.5 243q131 66 189.5 131.5t58.5 177.5q0 94 -57.5 139.5t-161.5 45.5q-109 0 -203 -41v-123h-264v209q92 61 215 99t250 38q223 0 355 -91t132 -276q0 -150 -89 -253t-298 -220q-111 -61 -172 -104t-98 -99.5t-37 -134.5h678v-178h-944z " />
<glyph unicode="3" horiz-adv-x="1144" d="M76 129v209h268v-129q100 -57 221 -57q127 0 183.5 54t56.5 189q0 207 -217 207h-172v180h176q199 0 199 209q0 92 -59.5 137.5t-160.5 45.5q-111 0 -200 -37v-127h-269v207q86 63 211 101t256 38q219 0 353.5 -89t134.5 -268q0 -195 -172 -305q184 -92 184 -291 q0 -225 -124 -329.5t-386 -104.5q-147 0 -271 41t-212 119z" />
<glyph unicode="4" horiz-adv-x="1124" d="M35 350v162l598 813h241v-795h216v-180h-216v-92q0 -41 19.5 -60.5t64.5 -19.5h91v-178h-609v178h90q45 0 63.5 19.5t18.5 60.5v92h-577zM301 530h330v449z" />
<glyph unicode="5" horiz-adv-x="1150" d="M76 129v209h268v-131q96 -55 236 -55q121 0 176 75.5t55 221.5q0 141 -67.5 201.5t-211.5 60.5h-411v127l41 487h872v-178h-624l-23 -252h178q510 0 510 -446q0 -229 -125 -354.5t-379 -125.5q-298 0 -495 160z" />
<glyph unicode="6" horiz-adv-x="1167" d="M76 575q0 285 82 459t214 248t290 74q127 0 211.5 -29t170.5 -92l-98 -158q-106 96 -260 97q-152 0 -238 -88.5t-114 -264.5q119 117 344 117q455 0 455 -465q0 -248 -135.5 -376t-399.5 -128q-244 0 -383 147.5t-139 458.5zM342 492q0 -182 66.5 -261t189.5 -79 q143 0 205.5 72.5t62.5 248.5q0 150 -62.5 221.5t-199.5 71.5q-113 0 -187.5 -71.5t-74.5 -202.5z" />
<glyph unicode="7" horiz-adv-x="1058" d="M35 1004v321h989v-119l-485 -1206h-273l463 1147h-424v-143h-270z" />
<glyph unicode="8" horiz-adv-x="1202" d="M76 375q0 109 48 187.5t136 127.5q-84 57 -123 130t-39 165q0 180 138.5 275.5t365.5 95.5q229 0 367.5 -95.5t138.5 -275.5q0 -92 -38 -164.5t-126 -130.5q88 -49 135 -128t47 -187q0 -207 -135 -306.5t-389 -99.5q-256 0 -391 99.5t-135 306.5zM342 387 q0 -123 63.5 -179t196.5 -56t195.5 56t62.5 179q0 215 -239 215h-35q-119 0 -181.5 -55t-62.5 -160zM365 985q0 -111 54 -159t165 -48h39q113 0 166 48t53 159q0 96 -62.5 142.5t-177.5 46.5q-113 0 -175 -46.5t-62 -142.5z" />
<glyph unicode="9" horiz-adv-x="1208" d="M76 858q0 244 139 371t399 127q242 0 380.5 -147.5t138.5 -458.5q0 -416 -161 -598.5t-409 -182.5q-127 0 -222 25.5t-177 83.5l102 166q113 -92 258 -92q147 0 228.5 87t124.5 269q-66 -66 -143 -93.5t-183 -27.5q-231 0 -353 122t-122 349zM342 852q0 -150 63.5 -221.5 t200.5 -71.5q117 0 187.5 73t70.5 208q0 182 -63.5 258t-186.5 76q-143 0 -207.5 -73t-64.5 -249z" />
<glyph unicode=":" horiz-adv-x="368" d="M76 0v229h217v-229h-217zM76 788v228h217v-228h-217z" />
<glyph unicode=";" horiz-adv-x="471" d="M76 -244l67 443h252l-135 -443h-184zM139 788v228h242v-228h-242z" />
<glyph unicode="&#x3c;" horiz-adv-x="1273" d="M76 598v135l1122 500v-221l-813 -344l813 -349v-221z" />
<glyph unicode="=" horiz-adv-x="858" d="M76 362v183h706v-183h-706zM76 694v180h706v-180h-706z" />
<glyph unicode="&#x3e;" horiz-adv-x="1273" d="M76 98v221l813 349l-813 344v221l1122 -500v-135z" />
<glyph unicode="?" horiz-adv-x="1112" d="M76 999v215q86 63 209 102.5t264 39.5q231 0 359 -89t128 -266q0 -88 -29.5 -149t-89 -109.5t-165.5 -109.5q-61 -33 -91 -67t-40.5 -75.5t-10.5 -115.5v-47h-270v59q0 131 56.5 223t189.5 164q98 49 141 97.5t43 129.5q0 174 -229 175q-113 0 -224 -54v-123h-241zM324 0 v221h301v-221h-301z" />
<glyph unicode="@" horiz-adv-x="1765" d="M76 569q0 229 101.5 403.5t286.5 268.5t431 94q393 0 594 -189.5t201 -533.5q0 -479 -342 -479q-72 0 -132.5 38t-76.5 93q-47 -68 -131 -103.5t-197 -35.5q-150 0 -226.5 62.5t-76.5 174.5q0 117 69.5 182.5t198.5 73.5l244 17v55q0 61 -25.5 88t-87.5 27 q-68 0 -114 -25v-57h-230v135q139 100 346 100q182 0 267.5 -71.5t85.5 -214.5v-271q0 -88 67 -88q63 0 94 73t31 232q0 260 -128 382t-431 122q-281 0 -431.5 -138t-150.5 -415q0 -307 147.5 -448t434.5 -141q121 0 245 17t230 56v-200q-125 -41 -233.5 -59.5t-241.5 -18.5 q-418 0 -618.5 213t-200.5 581zM733 365q0 -86 111 -86q80 0 128 36.5t48 110.5v53l-176 -12q-55 -4 -83 -26.5t-28 -75.5z" />
<glyph unicode="A" horiz-adv-x="1468" d="M55 0v178h60q49 0 73.5 15.5t38.5 58.5l379 1073h260l373 -1073q14 -43 40 -58.5t77 -15.5h57v-178h-512v178h94l-73 225h-373l-76 -225h94v-178h-512zM594 551h283l-140 424z" />
<glyph unicode="B" horiz-adv-x="1226" d="M55 0v178h58q43 0 60 18.5t17 61.5v813q0 39 -17 57.5t-60 18.5h-58v178h725q174 0 271.5 -92t97.5 -264q0 -96 -48 -174t-136 -121q206 -80 206 -301q0 -168 -99 -270.5t-267 -102.5h-750zM459 178h262q84 0 134 51.5t50 149.5q0 104 -54 149t-155 45h-237v-395z M459 758h227q90 0 143.5 50t53.5 146q0 193 -191 193h-233v-389z" />
<glyph unicode="C" horiz-adv-x="1234" d="M55 653q0 205 72 364t220.5 249t369.5 90q150 0 254 -29t205 -92v-234h-269v142q-39 16 -77.5 23.5t-98.5 7.5q-199 0 -304 -137.5t-105 -383.5q0 -240 113.5 -370.5t324.5 -130.5q92 0 168 20.5t155 65.5l97 -152q-98 -66 -195.5 -91.5t-236.5 -25.5q-224 0 -379.5 86 t-234.5 241t-79 357z" />
<glyph unicode="D" horiz-adv-x="1292" d="M55 0v178h54q43 0 61 19.5t18 60.5v813q0 39 -18 57.5t-61 18.5h-54v178h615q287 0 427 -173t140 -495q0 -295 -144.5 -476t-422.5 -181h-615zM451 178h180q184 0 263 119t79 360q0 248 -78 369t-264 121h-180v-969z" />
<glyph unicode="E" horiz-adv-x="1118" d="M55 0v178h54q43 0 61 19.5t18 60.5v813q0 39 -18 57.5t-61 18.5h-54v178h1008v-291h-246v37q0 76 -80 76h-278v-393h315v-181h-315v-395h278q41 0 60.5 18.5t19.5 59.5v37h246v-293h-1008z" />
<glyph unicode="F" horiz-adv-x="1118" d="M55 0v178h54q43 0 61 19.5t18 60.5v813q0 39 -18 57.5t-61 18.5h-54v178h1008v-291h-246v37q0 76 -80 76h-278v-393h315v-181h-315v-319q0 -39 18.5 -57.5t57.5 -18.5h55v-178h-535z" />
<glyph unicode="G" horiz-adv-x="1280" d="M55 653q0 205 72 364t220.5 249t369.5 90q150 0 254 -29t205 -92v-234h-269v142q-39 16 -77.5 23.5t-98.5 7.5q-199 0 -304 -137.5t-105 -383.5q0 -238 109.5 -369.5t307.5 -131.5q123 0 215 32v351h-268v180h539v-609q-102 -72 -224 -104.5t-274 -32.5q-215 0 -365.5 87 t-228.5 241t-78 356z" />
<glyph unicode="H" horiz-adv-x="1402" d="M55 0v178h54q43 0 60 18.5t17 61.5v813q0 39 -17 57.5t-60 18.5h-54v178h520v-178h-40q-41 0 -58.5 -18.5t-17.5 -57.5v-317h485v315q0 41 -17.5 59.5t-58.5 18.5h-43v178h523v-178h-54q-43 0 -61.5 -18.5t-18.5 -57.5v-813q0 -41 18.5 -60.5t61.5 -19.5h54v-178h-523 v178h43q39 0 57.5 19.5t18.5 60.5v317h-485v-317q0 -41 18.5 -60.5t57.5 -19.5h40v-178h-520z" />
<glyph unicode="I" horiz-adv-x="641" d="M55 0v178h54q43 0 61 19.5t18 60.5v813q0 39 -18 57.5t-61 18.5h-54v178h531v-178h-54q-41 0 -58 -18.5t-17 -57.5v-817q0 -39 17.5 -57.5t57.5 -18.5h54v-178h-531z" />
<glyph unicode="J" horiz-adv-x="1030" d="M-6 133v180h242v-102q57 -59 163 -59q90 0 131 44t41 140v735q0 39 -18 57.5t-59 18.5h-56v178h537v-178h-55q-78 0 -78 -76v-694q0 -193 -109.5 -300.5t-316.5 -107.5q-140 0 -247.5 42t-174.5 122z" />
<glyph unicode="K" horiz-adv-x="1341" d="M55 0v178h54q41 0 59 18.5t18 57.5v817q0 39 -17 57.5t-60 18.5h-54v178h508v-180h-37q-68 0 -67 -74v-373l418 449h-95v178h486v-178h-74q-39 0 -59.5 -12.5t-49.5 -42.5l-313 -334l344 -525q18 -29 43 -42t62 -13h65v-178h-512v178h113l-273 418l-155 -166v-176 q0 -37 15 -56.5t52 -19.5h37v-178h-508z" />
<glyph unicode="L" horiz-adv-x="1056" d="M55 0v178h51q43 0 62.5 18.5t19.5 59.5v815q0 39 -18 57.5t-61 18.5h-54v178h537v-178h-53q-43 0 -61.5 -18.5t-18.5 -57.5v-893h278q41 0 60.5 18.5t19.5 59.5v72h246v-328h-1008z" />
<glyph unicode="M" horiz-adv-x="1585" d="M55 0v178h54q43 0 61 19.5t18 60.5v809q0 41 -18 60.5t-61 19.5h-54v178h410l330 -760l327 760h408v-178h-55q-39 0 -57.5 -19.5t-18.5 -60.5v-809q0 -41 18.5 -60.5t57.5 -19.5h55v-178h-531v178h56q39 0 57 18.5t18 57.5v643l-245 -573h-185l-247 573v-643 q0 -76 79 -76h56v-178h-533z" />
<glyph unicode="N" horiz-adv-x="1419" d="M55 0v178h54q80 0 79 76v817q0 39 -18 57.5t-61 18.5h-54v178h338l572 -887v633q0 76 -80 76h-56v178h535v-178h-55q-39 0 -57.5 -18.5t-18.5 -57.5v-1071h-207l-567 883v-629q0 -39 17.5 -57.5t58.5 -18.5h53v-178h-533z" />
<glyph unicode="O" d="M55 657q0 350 149.5 524.5t475.5 174.5q322 0 472.5 -174t150.5 -525q0 -346 -154 -517t-469 -171q-318 0 -471.5 171t-153.5 517zM322 657q0 -274 85 -389.5t273 -115.5q186 0 271 116.5t85 388.5q0 279 -85 398t-271 119q-127 0 -205 -50.5t-115.5 -164t-37.5 -302.5z " />
<glyph unicode="P" horiz-adv-x="1282" d="M55 0v178h51q82 0 82 76v817q0 39 -19 57.5t-63 18.5h-51v178h713q215 0 337 -106.5t122 -309.5q0 -201 -124 -315.5t-337 -114.5h-315v-225q0 -76 79 -76h58v-178h-533zM451 657h280q117 0 174.5 62.5t57.5 189.5q0 131 -55.5 184.5t-176.5 53.5h-280v-490z" />
<glyph unicode="Q" d="M55 657q0 336 151.5 517.5t473.5 181.5q317 0 470 -181.5t153 -517.5q0 -305 -130.5 -481t-390.5 -203q10 -55 51 -74.5t101 -19.5q68 0 115 35v55h208v-125q-49 -66 -133 -103.5t-194 -37.5q-156 0 -244 75t-111 195q-260 27 -390 203t-130 481zM322 657 q0 -260 87 -382.5t271 -122.5q182 0 269 122.5t87 382.5q0 266 -87 391.5t-269 125.5q-186 0 -272 -125t-86 -392z" />
<glyph unicode="R" horiz-adv-x="1288" d="M55 0v178h51q82 0 82 76v817q0 39 -19 57.5t-63 18.5h-51v178h693q215 0 335.5 -103.5t120.5 -299.5q0 -147 -76.5 -248t-220.5 -139l160 -293q20 -35 47 -49.5t70 -14.5h49v-178h-479v178h82l-172 326h-213v-256q0 -37 14 -53.5t53 -16.5h49v-178h-512zM451 682h256 q233 0 233 240q0 121 -55.5 173t-177.5 52h-256v-465z" />
<glyph unicode="S" horiz-adv-x="1110" d="M55 129v219h273v-141q98 -55 243 -55q217 0 217 174q0 59 -32.5 99t-88 68.5t-167.5 75.5q-152 61 -243 116.5t-141 130.5t-50 179q0 178 140 269.5t359 91.5q270 0 465 -156v-203h-274v131q-78 45 -205 46q-219 0 -219 -170q0 -59 41 -103.5t97 -73t153 -67.5 q166 -68 250.5 -115t133 -118.5t48.5 -188.5q0 -106 -56.5 -189t-166 -131.5t-263.5 -48.5q-153 0 -286 43t-228 117z" />
<glyph unicode="T" horiz-adv-x="1208" d="M35 995v330h1139v-330h-195v76q0 41 -18.5 58.5t-61.5 17.5h-160v-893q0 -39 19.5 -57.5t62.5 -18.5h51v-178h-534v178h51q43 0 61.5 18.5t18.5 57.5v893h-160q-43 0 -61.5 -17.5t-18.5 -58.5v-76h-194z" />
<glyph unicode="U" horiz-adv-x="1363" d="M35 1147v178h508v-178h-45q-41 0 -59.5 -17.5t-18.5 -56.5v-706q0 -215 262 -215t262 215v706q0 39 -17.5 56.5t-60.5 17.5h-45v178h508v-178h-45q-41 0 -59.5 -17.5t-18.5 -56.5v-694q0 -190 -132 -300t-392 -110q-262 0 -393 109.5t-131 300.5v694q0 39 -17.5 56.5 t-60.5 17.5h-45z" />
<glyph unicode="V" horiz-adv-x="1452" d="M55 1147v178h367l305 -975l299 975h371v-178h-35q-63 0 -90 -17.5t-47 -70.5l-367 -1059h-260l-373 1059q-18 53 -45.5 70.5t-89.5 17.5h-35z" />
<glyph unicode="W" horiz-adv-x="1767" d="M55 1147v178h355l178 -852l194 629h201l197 -629l180 852h352v-178h-35q-63 0 -89.5 -18.5t-39.5 -71.5l-233 -1057h-219l-213 651l-209 -651h-221l-236 1057q-12 53 -38.5 71.5t-90.5 18.5h-33z" />
<glyph unicode="X" horiz-adv-x="1394" d="M55 0v178h60q59 0 92 16.5t63 61.5l285 408l-281 407q-31 45 -63.5 60.5t-91.5 15.5h-47v178h503v-178h-81l202 -324l205 324h-84v178h504v-178h-47q-57 0 -90 -16.5t-64 -59.5l-282 -407l286 -408q29 -45 63 -61.5t91 -16.5h61v-178h-518v178h84l-209 326l-207 -326h82 v-178h-516z" />
<glyph unicode="Y" horiz-adv-x="1370" d="M55 1147v178h496v-178h-29q-35 0 -35 -23q0 -16 17 -49l182 -366l180 366q16 33 17 49q0 23 -35 23h-29v178h496v-178h-47q-53 0 -81 -17.5t-54 -66.5l-314 -574v-235q0 -39 19.5 -57.5t62.5 -18.5h51v-178h-534v178h51q43 0 61.5 19.5t18.5 58.5v233l-311 574 q-27 49 -54.5 66.5t-81.5 17.5h-47z" />
<glyph unicode="Z" horiz-adv-x="1157" d="M55 0v147l707 1000h-363q-43 0 -61.5 -17.5t-18.5 -58.5v-35h-245v289h995v-145l-692 -1002h399q43 0 61.5 18.5t18.5 59.5v33h246v-289h-1047z" />
<glyph unicode="[" horiz-adv-x="632" d="M96 -170v1706h461v-178h-190v-1350h190v-178h-461z" />
<glyph unicode="\" horiz-adv-x="933" d="M76 1384h272l510 -1384h-270z" />
<glyph unicode="]" horiz-adv-x="632" d="M76 8h190v1350h-190v178h461v-1706h-461v178z" />
<glyph unicode="^" horiz-adv-x="1251" d="M76 739l440 734h219l441 -734h-279l-270 480l-273 -480h-278z" />
<glyph unicode="_" horiz-adv-x="972" d="M76 -20h821v-183h-821v183z" />
<glyph unicode="`" horiz-adv-x="630" d="M76 1452h303l176 -395h-229z" />
<glyph unicode="a" horiz-adv-x="1075" d="M35 246q0 150 97 222.5t282 82.5l252 16v121q0 78 -35 110.5t-117 32.5q-94 0 -160 -36v-80h-231v188q178 111 399 111q215 0 314.5 -94.5t99.5 -257.5v-408q0 -39 15.5 -57.5t49.5 -18.5h39v-178h-254l-26 123q-72 -86 -156 -120t-225 -34q-170 0 -257 72t-87 205z M287 264q0 -121 153 -121q107 0 166.5 47.5t59.5 139.5v84l-228 -17q-86 -6 -118.5 -35.5t-32.5 -97.5z" />
<glyph unicode="b" horiz-adv-x="1226" d="M35 1176v180h375v-473q66 70 146.5 100.5t186.5 30.5q211 0 319.5 -135.5t108.5 -391.5q0 -244 -122.5 -381t-327.5 -137q-123 0 -208 44t-144 139l-17 -152h-205v1090q0 45 -15 65.5t-60 20.5h-37zM422 432q0 -127 69.5 -215t180.5 -88q123 0 179 88t56 272t-56 267.5 t-187 83.5q-109 0 -175.5 -78t-66.5 -215v-115z" />
<glyph unicode="c" horiz-adv-x="1064" d="M55 481q0 254 143.5 393.5t393.5 139.5q139 0 231 -31t181 -98v-215h-232v118q-41 23 -81 33t-99 10q-119 0 -194.5 -88t-75.5 -262q0 -166 88 -247.5t233 -81.5q84 0 150.5 20.5t126.5 60.5l90 -147q-92 -66 -182.5 -91.5t-233.5 -25.5q-156 0 -277.5 58.5t-191.5 174 t-70 279.5z" />
<glyph unicode="d" horiz-adv-x="1216" d="M55 471q0 260 116 401.5t333 141.5q113 0 182.5 -29t128.5 -98v203q0 45 -15.5 65.5t-60.5 20.5h-37v180h377v-1108q0 -45 15.5 -61.5t54.5 -16.5h33v-170h-308l-16 137q-66 -86 -151.5 -126t-212.5 -40q-205 0 -322 129t-117 371zM319 475q0 -180 56.5 -261t183.5 -81 q115 0 180.5 88t65.5 221v101q0 141 -61.5 221t-178.5 80q-129 0 -187.5 -91t-58.5 -278z" />
<glyph unicode="e" horiz-adv-x="1107" d="M55 481q0 266 133.5 399.5t378.5 133.5q238 0 362 -132t124 -358v-96h-731q0 -143 67.5 -209.5t194.5 -66.5t202 32v72h232v-156q-156 -131 -436 -131q-246 0 -386.5 130t-140.5 382zM322 582h464q0 127 -55 188t-168 61q-117 0 -179 -64.5t-62 -184.5z" />
<glyph unicode="f" horiz-adv-x="876" d="M35 805v178h155v66q0 168 99.5 261t292.5 93q223 0 358 -113v-176h-231v82q-39 33 -107 33t-105.5 -41t-37.5 -123v-82h280v-178h-280v-551q0 -39 17.5 -57.5t58.5 -18.5h53v-178h-531v178h54q43 0 61 19.5t18 60.5v547h-155z" />
<glyph unicode="g" horiz-adv-x="1214" d="M55 506q0 162 59.5 276.5t165 173t242.5 58.5q121 0 198 -40t138 -130l19 139h303v-172h-35q-39 0 -52.5 -19.5t-13.5 -66.5v-723q0 -188 -112.5 -300t-319.5 -112q-256 1 -414 140v161h232v-84q35 -20 75 -27t99 -7q178 0 178 184v158q-57 -66 -131 -95.5t-182 -29.5 q-213 0 -331 131t-118 385zM319 506q0 -184 58.5 -268t189.5 -84q117 0 177.5 79.5t60.5 221.5v84q0 137 -61.5 225t-178.5 88q-129 0 -187.5 -84t-58.5 -262z" />
<glyph unicode="h" horiz-adv-x="1247" d="M55 0v178h54q43 0 61 19.5t18 60.5v834q0 45 -15 65.5t-60 20.5h-58v178h375v-465q78 70 152.5 96.5t185.5 26.5q164 0 239.5 -87t75.5 -255v-418q0 -39 17.5 -57.5t58.5 -18.5h53v-178h-397v670q0 90 -38 130t-120 40q-88 0 -144 -50.5t-56 -140.5v-395 q0 -39 17.5 -57.5t57.5 -18.5h54v-178h-531z" />
<glyph unicode="i" horiz-adv-x="600" d="M35 0v178h53q43 0 61.5 19.5t18.5 60.5v461q0 45 -15.5 65.5t-60.5 20.5h-57v178h401v-729q0 -39 17.5 -57.5t58.5 -18.5h53v-178h-530zM158 1130v218h282v-218h-282z" />
<glyph unicode="j" horiz-adv-x="798" d="M-68 -39h224v-84q47 -41 131 -41q72 0 107.5 32t35.5 109v742q0 45 -15.5 65.5t-60.5 20.5h-57v178h401v-973q0 -176 -100 -266t-297 -90q-232 0 -369 119v188zM420 1130v218h282v-218h-282z" />
<glyph unicode="k" horiz-adv-x="1206" d="M55 0v178h54q43 0 61 19.5t18 60.5v834q0 45 -15 65.5t-60 20.5h-58v178h402v-766l245 215h-84v178h510v-178h-102q-33 0 -49 -7t-41 -28l-170 -149l229 -394q18 -31 35 -40t55 -9h86v-178h-305l-280 479l-129 -112v-113q0 -39 17.5 -57.5t57.5 -18.5h54v-178h-531z" />
<glyph unicode="l" horiz-adv-x="620" d="M55 0v178h54q43 0 61 19.5t18 60.5v834q0 45 -15 65.5t-60 20.5h-58v178h402v-1102q0 -39 17.5 -57.5t57.5 -18.5h54v-178h-531z" />
<glyph unicode="m" horiz-adv-x="1779" d="M55 0v178h54q43 0 61 19.5t18 60.5v471q0 39 -17 57.5t-58 18.5h-58v178h301l15 -139q115 170 352 170q88 0 153.5 -39t104.5 -109q53 76 128 112t179 36q174 0 251 -85t77 -255v-420q0 -39 17.5 -57.5t58.5 -18.5h53v-178h-397v674q0 90 -35 128t-113 38q-84 0 -128 -45 t-44 -136v-405q0 -39 17.5 -57.5t58.5 -18.5h63v-178h-391v670q0 88 -34.5 129t-108.5 41q-88 0 -134 -47.5t-46 -143.5v-395q0 -39 17 -57.5t58 -18.5h58v-178h-531z" />
<glyph unicode="n" horiz-adv-x="1243" d="M55 0v178h54q43 0 61 19.5t18 60.5v471q0 39 -17 57.5t-58 18.5h-58v178h305l13 -135q68 84 159 125t216 41q172 0 251.5 -87t79.5 -255v-418q0 -39 17.5 -57.5t58.5 -18.5h53v-178h-397v670q0 90 -37 130t-121 40q-88 0 -142 -50.5t-54 -140.5v-395q0 -39 17.5 -57.5 t57.5 -18.5h54v-178h-531z" />
<glyph unicode="o" horiz-adv-x="1142" d="M55 489q0 252 131 388.5t385 136.5q256 0 386 -136.5t130 -388.5q0 -250 -132 -385t-384 -135t-384 135.5t-132 384.5zM322 489q0 -174 60 -255.5t189 -81.5t189.5 81.5t60.5 255.5q0 176 -60.5 259t-189.5 83t-189 -82.5t-60 -259.5z" />
<glyph unicode="p" horiz-adv-x="1255" d="M35 -248h53q43 0 61.5 19.5t18.5 60.5v893q0 41 -18.5 60.5t-59.5 19.5h-35v178h322l20 -143q123 174 355 174q209 0 328.5 -132t119.5 -382q0 -254 -115.5 -392.5t-328.5 -138.5q-106 0 -180 29t-140 96v-266q0 -39 17.5 -57.5t58.5 -18.5h53v-178h-530v178zM436 432 q0 -135 72 -215t180 -80q129 0 187.5 88t58.5 275q0 182 -55.5 267t-184.5 85q-113 0 -185.5 -88t-72.5 -217v-115z" />
<glyph unicode="q" horiz-adv-x="1255" d="M55 500q0 250 120 382t329 132q231 0 354 -174l21 143h321v-178h-35q-41 0 -59.5 -19.5t-18.5 -60.5v-893q0 -41 18.5 -60.5t61.5 -19.5h54v-178h-402v520q-66 -68 -139.5 -96.5t-179.5 -28.5q-213 0 -329 138.5t-116 392.5zM322 500q0 -186 58 -274.5t187 -88.5 q109 0 180.5 80t71.5 215v115q0 129 -72.5 217t-185.5 88q-129 0 -184 -85t-55 -267z" />
<glyph unicode="r" horiz-adv-x="823" d="M55 0v178h54q43 0 61 19.5t18 60.5v471q0 39 -16 57.5t-57 18.5h-60v178h351l26 -109q70 109 250 109h106v-178h-139q-102 0 -147 -47t-45 -144v-360q0 -39 17.5 -57.5t57.5 -18.5h54v-178h-531z" />
<glyph unicode="s" horiz-adv-x="964" d="M55 94v172h248v-78q56 -36 164 -36h6q88 0 129 20.5t41 73.5q0 47 -34 71.5t-134 63.5l-94 37q-109 45 -173.5 83t-103 94t-38.5 138q0 139 108.5 210t296.5 71q123 0 229.5 -31t186.5 -92v-172h-240v74q-52 38 -144 38h-5q-78 0 -122 -21.5t-44 -76.5q0 -51 49 -80.5 t156 -68.5l65 -25q104 -39 168 -77t101.5 -94t37.5 -142q0 -135 -107.5 -206t-316.5 -71q-120 0 -233 31t-197 94z" />
<glyph unicode="t" horiz-adv-x="917" d="M35 805v178h155v211l269 80v-291h280v-178h-280v-516q0 -76 31.5 -111t95.5 -35q78 0 121 37v88h217v-172q-127 -127 -355 -127q-188 0 -283.5 87t-95.5 253v496h-155z" />
<glyph unicode="u" horiz-adv-x="1222" d="M35 805v178h397v-670q0 -90 40 -130t124 -40q86 0 138 49.5t52 141.5v395q0 39 -17 57.5t-58 18.5h-54v178h531v-178h-53q-43 0 -61.5 -19.5t-18.5 -60.5v-471q0 -39 17.5 -57.5t57.5 -18.5h58v-178h-305l-13 135q-68 -88 -147.5 -127t-208.5 -39q-174 0 -262 88t-88 254 v418q0 39 -17.5 57.5t-58.5 18.5h-53z" />
<glyph unicode="v" horiz-adv-x="1167" d="M35 805v178h325l224 -704l223 704h326v-178h-39q-53 0 -75 -12.5t-36 -49.5l-268 -743h-262l-271 743q-12 37 -33.5 49.5t-76.5 12.5h-37z" />
<glyph unicode="w" horiz-adv-x="1562" d="M35 805v178h323l152 -657l176 569h188l177 -569l155 657h322v-178h-49q-43 0 -64.5 -13.5t-30.5 -50.5l-180 -741h-248l-174 561l-178 -561h-246l-180 741q-8 37 -29.5 50.5t-64.5 13.5h-49z" />
<glyph unicode="x" horiz-adv-x="1130" d="M35 0v178h63q47 0 74 13.5t53 48.5l195 254l-195 249q-27 35 -53.5 48.5t-73.5 13.5h-63v178h448v-178h-51l133 -178l133 178h-51v178h449v-178h-64q-47 0 -73.5 -13.5t-53.5 -48.5l-196 -249l196 -254q27 -35 53.5 -48.5t73.5 -13.5h64v-178h-449v178h51l-133 180 l-133 -180h51v-178h-448z" />
<glyph unicode="y" horiz-adv-x="1177" d="M35 805v178h403v-629q0 -170 174 -170q90 0 142.5 51.5t52.5 147.5v346q0 76 -78 76h-53v178h405v-950q0 -201 -117.5 -322t-318.5 -121q-131 0 -237.5 37t-180.5 107v153h232v-71q31 -29 72.5 -40.5t105.5 -11.5q188 0 188 222v110q-111 -86 -264 -86 q-184 0 -289.5 93.5t-105.5 261.5v364q0 76 -78 76h-53z" />
<glyph unicode="z" horiz-adv-x="1028" d="M55 0v131l568 672h-299q-80 0 -80 -76v-37h-172v293h880v-133l-565 -670h332q43 0 62.5 18.5t19.5 57.5v35h172v-291h-918z" />
<glyph unicode="{" horiz-adv-x="704" d="M35 596v182q74 0 111.5 29t37.5 102v273q0 178 76 266t258 88h111v-178h-43q-68 0 -99.5 -34t-31.5 -103v-332q0 -61 -33 -115.5t-90 -89.5q57 -33 90 -86t33 -115v-338q0 -70 31.5 -103.5t99.5 -33.5h43v-178h-111q-182 0 -258 89t-76 267v277q0 74 -37.5 103.5 t-111.5 29.5z" />
<glyph unicode="|" horiz-adv-x="421" d="M76 -246v1817h270v-1817h-270z" />
<glyph unicode="}" horiz-adv-x="704" d="M76 8h43q68 0 99.5 34t31.5 103v338q0 61 32.5 114.5t90.5 86.5q-57 35 -90 89t-33 116v332q0 70 -32 103.5t-99 33.5h-43v178h110q182 0 258 -88t76 -266v-273q0 -74 38 -102.5t112 -28.5v-182q-74 0 -112 -29.5t-38 -103.5v-277q0 -178 -75.5 -267t-258.5 -89h-110v178 z" />
<glyph unicode="~" horiz-adv-x="1146" d="M76 471q0 330 276 330q63 0 110.5 -16.5t112.5 -49.5q53 -27 92.5 -41t82.5 -14q61 0 86.5 30.5t25.5 90.5h209q0 -166 -65.5 -248t-204.5 -82q-72 0 -125 17.5t-121 52.5q-51 27 -84 39t-70 12q-61 0 -87.5 -31t-26.5 -90h-211z" />
<glyph unicode="&#xa1;" horiz-adv-x="446" d="M76 799v215h295v-215h-295zM80 -311l14 923h260l15 -923h-289z" />
<glyph unicode="&#xa2;" horiz-adv-x="1067" d="M55 481q0 219 105.5 352.5t294.5 165.5v168h245v-161q94 -8 168 -38t144 -83v-215h-232v112q-39 23 -81 32t-103 9q-121 0 -196.5 -84t-75.5 -258q0 -164 86 -241.5t233 -77.5q88 0 154.5 16.5t122.5 54.5l90 -147q-76 -51 -146.5 -77.5t-163.5 -35.5v-157h-245v170 q-180 33 -290 161.5t-110 333.5z" />
<glyph unicode="&#xa3;" horiz-adv-x="1044" d="M76 698v179h157v112q0 164 115 265.5t314 101.5q113 0 192.5 -29t146.5 -84v-180h-219v80q-47 31 -114 31q-78 0 -122 -44.5t-44 -136.5v-116h329v-179h-329v-374q0 -96 -43 -146h551v-178h-930v178h53q51 0 75.5 32t24.5 97v391h-157z" />
<glyph unicode="&#xa4;" horiz-adv-x="1288" d="M76 1075l153 158l179 -164q109 70 237 70q125 0 238 -70l176 164l153 -158l-176 -162q68 -106 68 -235q0 -145 -84 -262l176 -158l-156 -160l-188 172q-88 -51 -207 -51q-117 0 -209 51l-188 -172l-152 160l172 158q-82 119 -82 262q0 129 66 235zM406 678 q0 -102 68.5 -174t170.5 -72q103 0 172.5 71.5t69.5 174.5q0 102 -69.5 173t-172.5 71q-102 0 -170.5 -71t-68.5 -173z" />
<glyph unicode="&#xa5;" horiz-adv-x="1370" d="M55 1147v178h496v-178h-29q-35 0 -35 -23q0 -16 17 -49l182 -373l180 373q16 33 17 49q0 23 -35 23h-29v178h496v-178h-47q-53 0 -81 -17.5t-54 -66.5l-195 -356h190v-179h-288l-21 -39v-24h309v-178h-309v-33q0 -39 19.5 -57.5t62.5 -18.5h51v-178h-534v178h51 q43 0 61.5 19.5t18.5 58.5v31h-309v178h309v24l-23 39h-286v179h190l-192 356q-27 49 -54.5 66.5t-81.5 17.5h-47z" />
<glyph unicode="&#xa6;" horiz-adv-x="419" d="M76 -246v729h268v-729h-268zM76 840v731h268v-731h-268z" />
<glyph unicode="&#xa7;" horiz-adv-x="1067" d="M35 59h272v-141q98 -55 244 -55q217 0 217 176q0 66 -33 105.5t-83 64t-173 74.5q-160 63 -251 117.5t-136 127t-45 179.5q0 119 66 192q-66 80 -66 199q0 178 139.5 269t358.5 91q281 0 465 -155v-203h-273v131q-82 45 -207 45q-98 0 -158.5 -41t-60.5 -129 q0 -63 38 -106.5t86 -66t167 -71.5q164 -66 249 -114t133 -119.5t48 -188.5q0 -111 -61 -190q61 -76 61 -201q0 -106 -56 -189t-165 -131t-262 -48q-154 0 -287 43t-227 116v219zM293 700q0 -63 56.5 -109t168.5 -97q16 -8 38 -16.5t46 -20.5q127 -51 174 -74q8 18 10 31.5 t2 34.5q0 57 -46 99t-148 85q-37 16 -55 22q-158 66 -232 107q-14 -20 -14 -62z" />
<glyph unicode="&#xa8;" horiz-adv-x="847" d="M76 1114v223h207v-223h-207zM561 1114v223h211v-223h-211z" />
<glyph unicode="&#xa9;" horiz-adv-x="1617" d="M76 705q0 199 98 367.5t266 267t369 98.5q199 0 368 -98.5t267 -267.5t98 -367q0 -199 -98 -367t-267 -266.5t-368 -98.5q-201 0 -369 98.5t-266 266.5t-98 367zM254 705q0 -160 69.5 -291t195.5 -206t290 -75t291 75t196.5 206t69.5 291t-69.5 290.5t-196.5 206.5 t-291 76t-290 -76t-195.5 -207t-69.5 -290zM338 690q0 233 126 364.5t341 131.5q125 0 202.5 -26.5t157.5 -90.5v-184h-194v98q-37 23 -74 32t-92 9q-109 0 -176.5 -84t-67.5 -250q0 -156 76 -237.5t203 -81.5q145 0 250 90l75 -123q-121 -129 -358 -129q-129 0 -236.5 59.5 t-170 168t-62.5 253.5z" />
<glyph unicode="&#xaa;" horiz-adv-x="800" d="M76 866q0 96 63.5 146.5t179.5 60.5l154 10v64q0 47 -21.5 65.5t-70.5 18.5q-31 0 -51.5 -6t-44.5 -23v-47h-154v129q115 72 258 72q135 0 202.5 -61.5t67.5 -164.5v-258q0 -27 9.5 -38t31.5 -11h25v-116h-168l-22 75q-45 -53 -99.5 -74.5t-142.5 -21.5q-107 0 -162 47 t-55 133zM254 877q0 -66 88 -66q131 0 131 111v47l-131 -11q-47 -4 -67.5 -23.5t-20.5 -57.5z" />
<glyph unicode="&#xab;" horiz-adv-x="1267" d="M76 610v111l624 526v-270l-356 -311l356 -310v-272zM567 610v111l625 526v-270l-358 -311l358 -310v-272z" />
<glyph unicode="&#xac;" horiz-adv-x="1028" d="M76 539v180h876v-447h-219v267h-657z" />
<glyph unicode="&#xad;" horiz-adv-x="761" d="M76 528v179h610v-179h-610z" />
<glyph unicode="&#xae;" horiz-adv-x="1617" d="M76 705q0 199 98 367.5t266 267t369 98.5q199 0 368 -98.5t267 -267.5t98 -367q0 -199 -98 -367t-267 -266.5t-368 -98.5q-201 0 -369 98.5t-266 266.5t-98 367zM254 705q0 -160 69.5 -291t195.5 -206t290 -75t291 75t196.5 206t69.5 291t-69.5 290.5t-196.5 206.5 t-291 76t-290 -76t-195.5 -207t-69.5 -290zM440 301v131h23q37 0 45 18.5t8 75.5v400q0 31 -11 43t-42 12h-23v139h426q141 0 221 -64.5t80 -174.5q0 -90 -46 -152.5t-134 -81.5l80 -151q18 -33 38.5 -48.5t49.5 -15.5h39v-131h-377v131h84l-98 197h-109v-137 q0 -33 10.5 -46.5t38.5 -13.5h25v-131h-328zM719 762h133q117 0 117 115q0 55 -29 79.5t-88 24.5h-133v-219z" />
<glyph unicode="&#xaf;" horiz-adv-x="872" d="M76 1130v166h721v-166h-721z" />
<glyph unicode="&#xb0;" horiz-adv-x="698" d="M76 1102q0 76 37 138.5t98 99t135 36.5q76 0 139.5 -36.5t100.5 -99t37 -138.5q0 -74 -38 -135.5t-101.5 -98.5t-137.5 -37q-72 0 -134 37t-99 98.5t-37 135.5zM238 1102q0 -47 31.5 -79t78.5 -32q49 0 80 32t31 79q0 49 -31 82t-80 33q-47 0 -78.5 -33t-31.5 -82z" />
<glyph unicode="&#xb1;" horiz-adv-x="845" d="M76 47v180h694v-180h-694zM76 565v178h235v213h217v-213h242v-178h-242v-213h-217v213h-235z" />
<glyph unicode="&#xb2;" horiz-adv-x="675" d="M76 707v65q0 82 46 134t154 116q80 47 108 73.5t28 69.5q0 72 -88 72q-51 0 -84 -18v-60h-164v125q45 31 119.5 51.5t140.5 20.5q123 0 191.5 -48t68.5 -139q0 -72 -35 -113.5t-135 -99.5q-14 -10 -55 -34.5t-59.5 -45t-18.5 -40.5h307v-129h-524z" />
<glyph unicode="&#xb3;" horiz-adv-x="698" d="M76 772v119h162v-62q35 -25 96 -24q55 0 81.5 19.5t26.5 66.5t-23.5 64.5t-78.5 17.5h-72v117h74q51 0 71.5 15t20.5 60q0 37 -22.5 54.5t-71.5 17.5q-53 0 -90 -20v-58h-162v123q39 31 106.5 52.5t139.5 21.5q139 0 207.5 -47t68.5 -131q0 -109 -82 -148q94 -33 95 -137 q0 -207 -287 -207q-80 0 -147.5 23.5t-112.5 62.5z" />
<glyph unicode="&#xb4;" horiz-adv-x="632" d="M76 1057l176 395h305l-250 -395h-231z" />
<glyph unicode="&#xb6;" horiz-adv-x="1380" d="M76 961q0 365 438 364h786v-178h-43q-45 0 -63 -19.5t-18 -60.5v-1133q0 -39 17 -57t58 -18h54v-178h-398v1466h-184v-1466h-397v178h53q41 0 58.5 18.5t17.5 56.5v678q-180 0 -279.5 95.5t-99.5 253.5z" />
<glyph unicode="&#xb7;" horiz-adv-x="366" d="M76 528v201h215v-201h-215z" />
<glyph unicode="&#xb8;" horiz-adv-x="626" d="M76 -287q70 -31 145 -30q100 0 101 61q0 49 -39 70.5t-148 21.5l23 164h245l-12 -88q84 -14 122 -58t38 -120q0 -201 -299 -201q-98 0 -176 31v149z" />
<glyph unicode="&#xb9;" horiz-adv-x="561" d="M55 1227l189 119h147v-463q0 -27 9.5 -37t39.5 -10h66v-129h-402v129h66q31 0 41 10t10 37v297l-96 -64z" />
<glyph unicode="&#xba;" horiz-adv-x="815" d="M76 1020q0 162 85 249t247 87t246.5 -87t84.5 -249q0 -160 -87 -247t-244 -87q-160 0 -246 87t-86 247zM262 1020q0 -106 34 -154.5t112 -48.5q75 0 110 49t35 154q0 106 -35 155.5t-110 49.5q-78 0 -112 -48.5t-34 -156.5z" />
<glyph unicode="&#xbb;" horiz-adv-x="1267" d="M76 84v272l356 310l-356 311v270l624 -526v-111zM567 84v272l359 310l-359 311v270l625 -526v-111z" />
<glyph unicode="&#xbc;" horiz-adv-x="1318" d="M76 1227l188 119h148v-463q0 -27 9 -37t40 -10h65v-129h-401v129h65q31 0 41.5 10t10.5 37v297l-97 -64zM172 0l801 1325h248l-801 -1325h-248zM684 176v107l277 356h180v-346h102v-117h-102v-31q0 -20 8 -29.5t33 -9.5h39v-106h-326v106h39q23 0 32 9.5t9 29.5v31h-291z M852 293h143v182z" />
<glyph unicode="&#xbd;" horiz-adv-x="1423" d="M76 1227l188 119h148v-463q0 -27 9 -37t40 -10h65v-129h-401v129h65q31 0 41.5 10t10.5 37v297l-97 -64zM172 0l801 1325h248l-801 -1325h-248zM823 0v66q0 82 46 134t153 115q80 47 107.5 74t27.5 70q0 37 -21.5 54t-66.5 17q-51 0 -80 -18v-59h-166v125q45 31 121 51 t141 20q121 0 189.5 -48t68.5 -138q0 -70 -34.5 -112t-132.5 -101q-14 -8 -55.5 -34t-61 -46t-19.5 -41h308v-129h-525z" />
<glyph unicode="&#xbe;" horiz-adv-x="1341" d="M76 772v119h162v-62q35 -25 96 -24q55 0 81.5 19.5t26.5 66.5t-23.5 64.5t-78.5 17.5h-72v117h74q51 0 71.5 17t20.5 64q0 66 -94 66q-53 0 -90 -20v-58h-162v123q39 31 106.5 52.5t139.5 21.5q139 0 207.5 -47t68.5 -131q0 -109 -82 -148q94 -33 95 -137 q0 -207 -287 -207q-80 0 -147.5 23.5t-112.5 62.5zM195 0l798 1325h250l-801 -1325h-247zM705 176v107l278 356h180v-346h103v-117h-103v-31q0 -20 8.5 -29.5t30.5 -9.5h41v-106h-328v106h41q41 0 41 39v31h-292zM872 293h144v182z" />
<glyph unicode="&#xbf;" horiz-adv-x="1112" d="M76 12q0 90 29.5 151.5t89 110t165.5 107.5q61 35 91 67.5t40.5 74.5t10.5 116v47h270v-59q0 -133 -56.5 -225.5t-189.5 -161.5q-98 -51 -141 -98.5t-43 -129.5q0 -174 229 -174q113 0 224 53v123h241v-215q-86 -63 -208.5 -102t-264.5 -39q-231 0 -359 89t-128 265z M487 793v221h301v-221h-301z" />
<glyph unicode="&#xc0;" horiz-adv-x="1468" d="M55 0v178h60q49 0 73.5 15.5t38.5 58.5l379 1073h260l373 -1073q14 -43 40 -58.5t77 -15.5h57v-178h-512v178h94l-73 225h-373l-76 -225h94v-178h-512zM395 1800h305l160 -368h-233zM594 551h283l-140 424z" />
<glyph unicode="&#xc1;" horiz-adv-x="1468" d="M55 0v178h60q49 0 73.5 15.5t38.5 58.5l379 1073h260l373 -1073q14 -43 40 -58.5t77 -15.5h57v-178h-512v178h94l-73 225h-373l-76 -225h94v-178h-512zM594 551h283l-140 424zM618 1432l158 368h303l-231 -368h-230z" />
<glyph unicode="&#xc2;" horiz-adv-x="1468" d="M55 0v178h60q49 0 73.5 15.5t38.5 58.5l379 1073h260l373 -1073q14 -43 40 -58.5t77 -15.5h57v-178h-512v178h94l-73 225h-373l-76 -225h94v-178h-512zM348 1434l268 395h246l266 -395h-247l-144 245l-143 -245h-246zM594 551h283l-140 424z" />
<glyph unicode="&#xc3;" horiz-adv-x="1468" d="M55 0v178h60q49 0 73.5 15.5t38.5 58.5l379 1073h260l373 -1073q14 -43 40 -58.5t77 -15.5h57v-178h-512v178h94l-73 225h-373l-76 -225h94v-178h-512zM317 1434q0 159 58.5 236t183.5 77q55 0 96 -15.5t99 -45.5q41 -23 67.5 -34.5t55.5 -11.5q45 0 67.5 26t22.5 81h190 q0 -164 -55 -238.5t-178 -74.5q-55 0 -99.5 15t-97.5 44q-43 23 -69.5 33t-55.5 10q-47 0 -69.5 -23.5t-22.5 -78.5h-193zM594 551h283l-140 424z" />
<glyph unicode="&#xc4;" horiz-adv-x="1468" d="M55 0v178h60q49 0 73.5 15.5t38.5 58.5l379 1073h260l373 -1073q14 -43 40 -58.5t77 -15.5h57v-178h-512v178h94l-73 225h-373l-76 -225h94v-178h-512zM399 1473v223h213v-223h-213zM594 551h283l-140 424zM860 1473v223h215v-223h-215z" />
<glyph unicode="&#xc5;" horiz-adv-x="1468" d="M55 0v178h60q49 0 73.5 15.5t38.5 58.5l363 1026q-43 33 -66.5 82t-23.5 106q0 98 68.5 168t168.5 70t170 -69.5t70 -168.5q0 -57 -25.5 -106t-68.5 -82l356 -1026q14 -43 40 -58.5t77 -15.5h57v-178h-512v178h94l-73 225h-373l-76 -225h94v-178h-512zM594 551h283 l-140 424zM641 1466q0 -41 27.5 -69.5t68.5 -28.5t69 28.5t28 69.5t-28 70t-69 29t-68.5 -29t-27.5 -70z" />
<glyph unicode="&#xc6;" horiz-adv-x="1703" d="M55 0v178h60q49 0 72.5 15.5t39.5 58.5l396 1073h1026v-291h-246v35q0 51 -30 64.5t-107 13.5h-201v-393h295v-181h-295v-395h258q41 0 60.5 18.5t19.5 59.5v37h246v-293h-951v178h31q41 0 53.5 17.5t12.5 62.5v145h-242l-80 -225h94v-178h-512zM602 565h193v582h-7z" />
<glyph unicode="&#xc7;" horiz-adv-x="1234" d="M55 653q0 205 72 364t220.5 249t369.5 90q150 0 254 -29t205 -92v-234h-269v142q-39 16 -77.5 23.5t-98.5 7.5q-199 0 -304 -137.5t-105 -383.5q0 -240 113.5 -370.5t324.5 -130.5q92 0 168 20.5t155 65.5l97 -152q-94 -61 -153.5 -80.5t-197.5 -34.5l-10 -59 q84 -14 123 -58t39 -120q0 -201 -299 -201q-100 0 -176 31v149q68 -31 147 -30q98 0 99 61q0 49 -39 70.5t-150 21.5l23 146q-258 45 -394.5 224t-136.5 447z" />
<glyph unicode="&#xc8;" horiz-adv-x="1118" d="M55 0v178h54q43 0 61 19.5t18 60.5v813q0 39 -18 57.5t-61 18.5h-54v178h1008v-291h-246v37q0 76 -80 76h-278v-393h315v-181h-315v-395h278q41 0 60.5 18.5t19.5 59.5v37h246v-293h-1008zM262 1800h305l160 -368h-233z" />
<glyph unicode="&#xc9;" horiz-adv-x="1118" d="M55 0v178h54q43 0 61 19.5t18 60.5v813q0 39 -18 57.5t-61 18.5h-54v178h1008v-291h-246v37q0 76 -80 76h-278v-393h315v-181h-315v-395h278q41 0 60.5 18.5t19.5 59.5v37h246v-293h-1008zM389 1432l158 368h303l-232 -368h-229z" />
<glyph unicode="&#xca;" horiz-adv-x="1118" d="M55 0v178h54q43 0 61 19.5t18 60.5v813q0 39 -18 57.5t-61 18.5h-54v178h1008v-291h-246v37q0 76 -80 76h-278v-393h315v-181h-315v-395h278q41 0 60.5 18.5t19.5 59.5v37h246v-293h-1008zM158 1434l268 395h246l266 -395h-248l-143 245l-144 -245h-245z" />
<glyph unicode="&#xcb;" horiz-adv-x="1118" d="M55 0v178h54q43 0 61 19.5t18 60.5v813q0 39 -18 57.5t-61 18.5h-54v178h1008v-291h-246v37q0 76 -80 76h-278v-393h315v-181h-315v-395h278q41 0 60.5 18.5t19.5 59.5v37h246v-293h-1008zM231 1473v223h213v-223h-213zM692 1473v223h215v-223h-215z" />
<glyph unicode="&#xcc;" horiz-adv-x="641" d="M-14 1800h305l160 -368h-234zM55 0v178h54q43 0 61 19.5t18 60.5v813q0 39 -18 57.5t-61 18.5h-54v178h531v-178h-54q-41 0 -58 -18.5t-17 -57.5v-817q0 -39 17.5 -57.5t57.5 -18.5h54v-178h-531z" />
<glyph unicode="&#xcd;" horiz-adv-x="641" d="M55 0v178h54q43 0 61 19.5t18 60.5v813q0 39 -18 57.5t-61 18.5h-54v178h531v-178h-54q-41 0 -58 -18.5t-17 -57.5v-817q0 -39 17.5 -57.5t57.5 -18.5h54v-178h-531zM180 1432l158 368h303l-231 -368h-230z" />
<glyph unicode="&#xce;" horiz-adv-x="641" d="M-70 1432l269 395h245l267 -395h-248l-144 245l-143 -245h-246zM55 0v178h54q43 0 61 19.5t18 60.5v813q0 39 -18 57.5t-61 18.5h-54v178h531v-178h-54q-41 0 -58 -18.5t-17 -57.5v-817q0 -39 17.5 -57.5t57.5 -18.5h54v-178h-531z" />
<glyph unicode="&#xcf;" horiz-adv-x="641" d="M-18 1473v223h213v-223h-213zM55 0v178h54q43 0 61 19.5t18 60.5v813q0 39 -18 57.5t-61 18.5h-54v178h531v-178h-54q-41 0 -58 -18.5t-17 -57.5v-817q0 -39 17.5 -57.5t57.5 -18.5h54v-178h-531zM442 1473v223h215v-223h-215z" />
<glyph unicode="&#xd0;" horiz-adv-x="1292" d="M55 0v178h54q43 0 61 19.5t18 60.5v311h-133v183h133v319q0 39 -18 57.5t-61 18.5h-54v178h615q287 0 427 -173t140 -495q0 -295 -144.5 -476t-422.5 -181h-615zM451 178h180q184 0 263 119t79 360q0 248 -78 369t-264 121h-180v-395h258v-183h-258v-391z" />
<glyph unicode="&#xd1;" horiz-adv-x="1419" d="M55 0v178h54q80 0 79 76v817q0 39 -18 57.5t-61 18.5h-54v178h338l572 -887v633q0 76 -80 76h-56v178h535v-178h-55q-39 0 -57.5 -18.5t-18.5 -57.5v-1071h-207l-567 883v-629q0 -39 17.5 -57.5t58.5 -18.5h53v-178h-533zM272 1434q0 159 58.5 236t183.5 77 q55 0 96 -15.5t99 -45.5q41 -23 67.5 -34.5t54.5 -11.5q45 0 68 26t23 81h190q0 -164 -55.5 -238.5t-177.5 -74.5q-55 0 -99.5 15t-97.5 44q-43 23 -69.5 33t-55.5 10q-47 0 -69.5 -23.5t-22.5 -78.5h-193z" />
<glyph unicode="&#xd2;" d="M55 657q0 350 149.5 524.5t475.5 174.5q322 0 472.5 -174t150.5 -525q0 -346 -154 -517t-469 -171q-318 0 -471.5 171t-153.5 517zM322 657q0 -274 85 -389.5t273 -115.5q186 0 271 116.5t85 388.5q0 279 -85 398t-271 119q-127 0 -205 -50.5t-115.5 -164t-37.5 -302.5z M365 1800h305l159 -368h-233z" />
<glyph unicode="&#xd3;" d="M55 657q0 350 149.5 524.5t475.5 174.5q322 0 472.5 -174t150.5 -525q0 -346 -154 -517t-469 -171q-318 0 -471.5 171t-153.5 517zM322 657q0 -274 85 -389.5t273 -115.5q186 0 271 116.5t85 388.5q0 279 -85 398t-271 119q-127 0 -205 -50.5t-115.5 -164t-37.5 -302.5z M539 1432l157 368h303l-231 -368h-229z" />
<glyph unicode="&#xd4;" d="M55 657q0 350 149.5 524.5t475.5 174.5q322 0 472.5 -174t150.5 -525q0 -346 -154 -517t-469 -171q-318 0 -471.5 171t-153.5 517zM289 1434l268 395h246l266 -395h-248l-143 245l-143 -245h-246zM322 657q0 -274 85 -389.5t273 -115.5q186 0 271 116.5t85 388.5 q0 279 -85 398t-271 119q-127 0 -205 -50.5t-115.5 -164t-37.5 -302.5z" />
<glyph unicode="&#xd5;" d="M55 657q0 350 149.5 524.5t475.5 174.5q322 0 472.5 -174t150.5 -525q0 -346 -154 -517t-469 -171q-318 0 -471.5 171t-153.5 517zM258 1434q0 159 58.5 236t183.5 77q55 0 96 -15.5t98 -45.5q41 -23 67.5 -34.5t55.5 -11.5q45 0 67.5 26t22.5 81h191 q0 -164 -55.5 -238.5t-178.5 -74.5q-55 0 -99 15t-97 44q-43 23 -70 33t-55 10q-47 0 -69.5 -23.5t-22.5 -78.5h-193zM322 657q0 -274 85 -389.5t273 -115.5q186 0 271 116.5t85 388.5q0 279 -85 398t-271 119q-127 0 -205 -50.5t-115.5 -164t-37.5 -302.5z" />
<glyph unicode="&#xd6;" d="M55 657q0 350 149.5 524.5t475.5 174.5q322 0 472.5 -174t150.5 -525q0 -346 -154 -517t-469 -171q-318 0 -471.5 171t-153.5 517zM322 657q0 -274 85 -389.5t273 -115.5q186 0 271 116.5t85 388.5q0 279 -85 398t-271 119q-127 0 -205 -50.5t-115.5 -164t-37.5 -302.5z M340 1473v223h213v-223h-213zM801 1473v223h215v-223h-215z" />
<glyph unicode="&#xd7;" horiz-adv-x="768" d="M76 797l145 139l162 -164l166 164l143 -139l-164 -168l164 -162l-143 -143l-164 161l-164 -163l-143 145l162 162z" />
<glyph unicode="&#xd8;" d="M55 657q0 350 149.5 524.5t475.5 174.5q88 0 174 -17l29 72h114l-39 -100q176 -66 260.5 -228.5t84.5 -425.5q0 -346 -154 -517t-469 -171q-113 0 -209 23l-29 -80h-114l41 115q-313 135 -314 630zM322 657q0 -162 29.5 -265t92.5 -161l347 930q-49 12 -111 13 q-127 0 -205 -50.5t-115.5 -164t-37.5 -302.5zM537 172q51 -20 143 -20q186 0 271 116.5t85 388.5q0 182 -36.5 295t-112.5 166z" />
<glyph unicode="&#xd9;" horiz-adv-x="1363" d="M35 1147v178h508v-178h-45q-41 0 -59.5 -17.5t-18.5 -56.5v-706q0 -215 262 -215t262 215v706q0 39 -17.5 56.5t-60.5 17.5h-45v178h508v-178h-45q-41 0 -59.5 -17.5t-18.5 -56.5v-694q0 -190 -132 -300t-392 -110q-262 0 -393 109.5t-131 300.5v694q0 39 -17.5 56.5 t-60.5 17.5h-45zM348 1800h305l160 -368h-233z" />
<glyph unicode="&#xda;" horiz-adv-x="1363" d="M35 1147v178h508v-178h-45q-41 0 -59.5 -17.5t-18.5 -56.5v-706q0 -215 262 -215t262 215v706q0 39 -17.5 56.5t-60.5 17.5h-45v178h508v-178h-45q-41 0 -59.5 -17.5t-18.5 -56.5v-694q0 -190 -132 -300t-392 -110q-262 0 -393 109.5t-131 300.5v694q0 39 -17.5 56.5 t-60.5 17.5h-45zM514 1432l158 368h303l-232 -368h-229z" />
<glyph unicode="&#xdb;" horiz-adv-x="1363" d="M35 1147v178h508v-178h-45q-41 0 -59.5 -17.5t-18.5 -56.5v-706q0 -215 262 -215t262 215v706q0 39 -17.5 56.5t-60.5 17.5h-45v178h508v-178h-45q-41 0 -59.5 -17.5t-18.5 -56.5v-694q0 -190 -132 -300t-392 -110q-262 0 -393 109.5t-131 300.5v694q0 39 -17.5 56.5 t-60.5 17.5h-45zM293 1434l268 395h246l266 -395h-248l-143 245l-143 -245h-246z" />
<glyph unicode="&#xdc;" horiz-adv-x="1363" d="M35 1147v178h508v-178h-45q-41 0 -59.5 -17.5t-18.5 -56.5v-706q0 -215 262 -215t262 215v706q0 39 -17.5 56.5t-60.5 17.5h-45v178h508v-178h-45q-41 0 -59.5 -17.5t-18.5 -56.5v-694q0 -190 -132 -300t-392 -110q-262 0 -393 109.5t-131 300.5v694q0 39 -17.5 56.5 t-60.5 17.5h-45zM342 1473v223h213v-223h-213zM803 1473v223h215v-223h-215z" />
<glyph unicode="&#xdd;" horiz-adv-x="1370" d="M55 1147v178h496v-178h-29q-35 0 -35 -23q0 -16 17 -49l182 -366l180 366q16 33 17 49q0 23 -35 23h-29v178h496v-178h-47q-53 0 -81 -17.5t-54 -66.5l-314 -574v-235q0 -39 19.5 -57.5t62.5 -18.5h51v-178h-534v178h51q43 0 61.5 19.5t18.5 58.5v233l-311 574 q-27 49 -54.5 66.5t-81.5 17.5h-47zM559 1432l158 368h303l-232 -368h-229z" />
<glyph unicode="&#xde;" horiz-adv-x="1282" d="M55 0v178h51q82 0 82 76v817q0 76 -79 76h-54v178h396v-182h317q215 0 337 -106.5t122 -309.5q0 -201 -124 -315.5t-337 -114.5h-315v-43q0 -76 79 -76h58v-178h-533zM451 475h280q117 0 174.5 62.5t57.5 189.5q0 131 -55.5 184.5t-176.5 53.5h-280v-490z" />
<glyph unicode="&#xdf;" horiz-adv-x="1316" d="M55 0v178h58q43 0 60 18.5t17 61.5v762q0 201 129.5 319.5t387.5 118.5q262 0 394 -112.5t132 -298.5q0 -109 -43 -200t-129 -128q109 -45 155 -129t46 -203q0 -193 -106.5 -305.5t-319.5 -112.5q-76 0 -151 16.5t-130 53.5l86 162q78 -49 176 -49q178 0 178 237 q0 123 -54 181.5t-183 58.5h-113v184h100q117 0 168.5 57.5t51.5 176.5t-64.5 174t-189.5 55q-252 0 -252 -238v-1038h-404z" />
<glyph unicode="&#xe0;" horiz-adv-x="1075" d="M35 246q0 150 97 222.5t282 82.5l252 16v121q0 78 -35 110.5t-117 32.5q-94 0 -160 -36v-80h-231v188q178 111 399 111q215 0 314.5 -94.5t99.5 -257.5v-408q0 -39 15.5 -57.5t49.5 -18.5h39v-178h-254l-26 123q-72 -86 -156 -120t-225 -34q-170 0 -257 72t-87 205z M190 1442h306l159 -369h-233zM287 264q0 -121 153 -121q107 0 166.5 47.5t59.5 139.5v84l-228 -17q-86 -6 -118.5 -35.5t-32.5 -97.5z" />
<glyph unicode="&#xe1;" horiz-adv-x="1075" d="M35 246q0 150 97 222.5t282 82.5l252 16v121q0 78 -35 110.5t-117 32.5q-94 0 -160 -36v-80h-231v188q178 111 399 111q215 0 314.5 -94.5t99.5 -257.5v-408q0 -39 15.5 -57.5t49.5 -18.5h39v-178h-254l-26 123q-72 -86 -156 -120t-225 -34q-170 0 -257 72t-87 205z M287 264q0 -121 153 -121q107 0 166.5 47.5t59.5 139.5v84l-228 -17q-86 -6 -118.5 -35.5t-32.5 -97.5zM401 1073l158 369h303l-231 -369h-230z" />
<glyph unicode="&#xe2;" horiz-adv-x="1075" d="M35 246q0 150 97 222.5t282 82.5l252 16v121q0 78 -35 110.5t-117 32.5q-94 0 -160 -36v-80h-231v188q178 111 399 111q215 0 314.5 -94.5t99.5 -257.5v-408q0 -39 15.5 -57.5t49.5 -18.5h39v-178h-254l-26 123q-72 -86 -156 -120t-225 -34q-170 0 -257 72t-87 205z M139 1071l269 395h245l267 -395h-248l-144 246l-143 -246h-246zM287 264q0 -121 153 -121q107 0 166.5 47.5t59.5 139.5v84l-228 -17q-86 -6 -118.5 -35.5t-32.5 -97.5z" />
<glyph unicode="&#xe3;" horiz-adv-x="1075" d="M35 246q0 150 97 222.5t282 82.5l252 16v121q0 78 -35 110.5t-117 32.5q-94 0 -160 -36v-80h-231v188q178 111 399 111q215 0 314.5 -94.5t99.5 -257.5v-408q0 -39 15.5 -57.5t49.5 -18.5h39v-178h-254l-26 123q-72 -86 -156 -120t-225 -34q-170 0 -257 72t-87 205z M109 1073q0 160 58 236.5t183 76.5q55 0 96 -15t99 -46q41 -23 67.5 -34t55.5 -11q45 0 67.5 25.5t22.5 80.5h190q0 -164 -55 -238.5t-178 -74.5q-55 0 -99.5 15.5t-97.5 44.5q-43 23 -69.5 33t-55.5 10q-47 0 -69.5 -24t-22.5 -79h-192zM287 264q0 -121 153 -121 q107 0 166.5 47.5t59.5 139.5v84l-228 -17q-86 -6 -118.5 -35.5t-32.5 -97.5z" />
<glyph unicode="&#xe4;" horiz-adv-x="1075" d="M35 246q0 150 97 222.5t282 82.5l252 16v121q0 78 -35 110.5t-117 32.5q-94 0 -160 -36v-80h-231v188q178 111 399 111q215 0 314.5 -94.5t99.5 -257.5v-408q0 -39 15.5 -57.5t49.5 -18.5h39v-178h-254l-26 123q-72 -86 -156 -120t-225 -34q-170 0 -257 72t-87 205z M178 1114v223h213v-223h-213zM287 264q0 -121 153 -121q107 0 166.5 47.5t59.5 139.5v84l-228 -17q-86 -6 -118.5 -35.5t-32.5 -97.5zM639 1114v223h215v-223h-215z" />
<glyph unicode="&#xe5;" horiz-adv-x="1075" d="M35 246q0 150 97 222.5t282 82.5l252 16v121q0 78 -35 110.5t-117 32.5q-94 0 -160 -36v-80h-231v188q178 111 399 111q215 0 314.5 -94.5t99.5 -257.5v-408q0 -39 15.5 -57.5t49.5 -18.5h39v-178h-254l-26 123q-72 -86 -156 -120t-225 -34q-170 0 -257 72t-87 205z M287 264q0 -121 153 -121q107 0 166.5 47.5t59.5 139.5v84l-228 -17q-86 -6 -118.5 -35.5t-32.5 -97.5zM293 1311q0 98 68.5 167.5t168.5 69.5t170 -69.5t70 -167.5q0 -100 -69.5 -169t-170.5 -69q-100 0 -168.5 68.5t-68.5 169.5zM434 1311q0 -41 27.5 -70t68.5 -29t69 29 t28 70t-28 69.5t-69 28.5t-68.5 -28.5t-27.5 -69.5z" />
<glyph unicode="&#xe6;" horiz-adv-x="1703" d="M35 246q0 150 97 222.5t282 82.5l252 16v121q0 78 -35 110.5t-117 32.5q-94 0 -160 -36v-80h-231v188q178 111 399 111q203 0 295 -113q59 51 148.5 82t197.5 31q238 0 362 -132t124 -358v-96h-713v-14q2 -139 61.5 -200.5t182.5 -61.5q127 0 202 32v72h232v-156 q-156 -131 -436 -131q-256 0 -361 160q-74 -86 -178 -123t-260 -37q-170 0 -257 72t-87 205zM287 264q0 -121 153 -121q107 0 166.5 47.5t59.5 139.5v84l-228 -17q-86 -6 -118.5 -35.5t-32.5 -97.5zM936 582h446q0 127 -55 188t-168 61q-213 0 -223 -227v-22z" />
<glyph unicode="&#xe7;" horiz-adv-x="1064" d="M55 481q0 254 143.5 393.5t393.5 139.5q139 0 231 -31t181 -98v-215h-232v118q-41 23 -81 33t-99 10q-119 0 -194.5 -88t-75.5 -262q0 -166 88 -247.5t233 -81.5q84 0 150.5 20.5t126.5 60.5l90 -147q-72 -51 -139.5 -76.5t-155.5 -34.5l-10 -63q84 -14 122.5 -58 t38.5 -120q0 -201 -299 -201q-100 0 -176 31v149q68 -31 148 -30q98 0 98 61q0 49 -39 70.5t-149 21.5l22 144q-188 33 -302 161.5t-114 339.5z" />
<glyph unicode="&#xe8;" horiz-adv-x="1107" d="M55 481q0 266 133.5 399.5t378.5 133.5q238 0 362 -132t124 -358v-96h-731q0 -143 67.5 -209.5t194.5 -66.5t202 32v72h232v-156q-156 -131 -436 -131q-246 0 -386.5 130t-140.5 382zM276 1442h306l159 -369h-233zM322 582h464q0 127 -55 188t-168 61q-117 0 -179 -64.5 t-62 -184.5z" />
<glyph unicode="&#xe9;" horiz-adv-x="1107" d="M55 481q0 266 133.5 399.5t378.5 133.5q238 0 362 -132t124 -358v-96h-731q0 -143 67.5 -209.5t194.5 -66.5t202 32v72h232v-156q-156 -131 -436 -131q-246 0 -386.5 130t-140.5 382zM322 582h464q0 127 -55 188t-168 61q-117 0 -179 -64.5t-62 -184.5zM453 1073l157 369 h303l-231 -369h-229z" />
<glyph unicode="&#xea;" horiz-adv-x="1107" d="M55 481q0 266 133.5 399.5t378.5 133.5q238 0 362 -132t124 -358v-96h-731q0 -143 67.5 -209.5t194.5 -66.5t202 32v72h232v-156q-156 -131 -436 -131q-246 0 -386.5 130t-140.5 382zM182 1071l269 395h245l267 -395h-248l-144 246l-143 -246h-246zM322 582h464 q0 127 -55 188t-168 61q-117 0 -179 -64.5t-62 -184.5z" />
<glyph unicode="&#xeb;" horiz-adv-x="1107" d="M55 481q0 266 133.5 399.5t378.5 133.5q238 0 362 -132t124 -358v-96h-731q0 -143 67.5 -209.5t194.5 -66.5t202 32v72h232v-156q-156 -131 -436 -131q-246 0 -386.5 130t-140.5 382zM238 1090v223h213v-223h-213zM322 582h464q0 127 -55 188t-168 61q-117 0 -179 -64.5 t-62 -184.5zM698 1090v223h215v-223h-215z" />
<glyph unicode="&#xec;" horiz-adv-x="600" d="M-41 1436h305l160 -369h-234zM35 0v178h53q43 0 61.5 19.5t18.5 60.5v461q0 45 -15.5 65.5t-60.5 20.5h-57v178h401v-729q0 -39 17.5 -57.5t58.5 -18.5h53v-178h-530z" />
<glyph unicode="&#xed;" horiz-adv-x="600" d="M35 0v178h53q43 0 61.5 19.5t18.5 60.5v461q0 45 -15.5 65.5t-60.5 20.5h-57v178h401v-729q0 -39 17.5 -57.5t58.5 -18.5h53v-178h-530zM137 1067l158 369h303l-231 -369h-230z" />
<glyph unicode="&#xee;" horiz-adv-x="600" d="M-113 1040l269 396h245l267 -396h-248l-144 246l-143 -246h-246zM35 0v178h53q43 0 61.5 19.5t18.5 60.5v461q0 45 -15.5 65.5t-60.5 20.5h-57v178h401v-729q0 -39 17.5 -57.5t58.5 -18.5h53v-178h-530z" />
<glyph unicode="&#xef;" horiz-adv-x="600" d="M-76 1122v224h213v-224h-213zM35 0v178h53q43 0 61.5 19.5t18.5 60.5v461q0 45 -15.5 65.5t-60.5 20.5h-57v178h401v-729q0 -39 17.5 -57.5t58.5 -18.5h53v-178h-530zM385 1122v224h215v-224h-215z" />
<glyph unicode="&#xf0;" horiz-adv-x="1193" d="M57 416q0 170 69 295t193.5 192.5t294.5 67.5q80 0 146.5 -25.5t109.5 -75.5q-2 88 -21.5 145.5t-60.5 96.5l-180 -100l-22 90l114 63q-37 6 -82 6q-174 0 -303 -75l-55 164q162 96 399 96q152 0 259 -64l157 90l23 -94l-103 -57q143 -147 144 -479q0 -367 -147.5 -575 t-450.5 -208q-226 0 -355 108.5t-129 338.5zM322 379q0 -117 51 -173t178 -56q133 0 210 97t85 294q6 129 -53.5 188t-165.5 59q-305 0 -305 -409z" />
<glyph unicode="&#xf1;" horiz-adv-x="1243" d="M55 0v178h54q43 0 61 19.5t18 60.5v471q0 39 -17 57.5t-58 18.5h-58v178h305l13 -135q68 84 159 125t216 41q172 0 251.5 -87t79.5 -255v-418q0 -39 17.5 -57.5t58.5 -18.5h53v-178h-397v670q0 90 -37 130t-121 40q-88 0 -142 -50.5t-54 -140.5v-395q0 -39 17.5 -57.5 t57.5 -18.5h54v-178h-531zM190 1073q0 160 58.5 236.5t183.5 76.5q55 0 96 -15t99 -46q41 -23 67.5 -34t55.5 -11q45 0 67.5 25.5t22.5 80.5h190q0 -164 -55 -238.5t-178 -74.5q-55 0 -99.5 15.5t-97.5 44.5q-43 23 -69.5 33t-55.5 10q-47 0 -69.5 -24t-22.5 -79h-193z" />
<glyph unicode="&#xf2;" horiz-adv-x="1142" d="M55 489q0 252 131 388.5t385 136.5q256 0 386 -136.5t130 -388.5q0 -250 -132 -385t-384 -135t-384 135.5t-132 384.5zM231 1442h306l159 -369h-233zM322 489q0 -174 60 -255.5t189 -81.5t189.5 81.5t60.5 255.5q0 176 -60.5 259t-189.5 83t-189 -82.5t-60 -259.5z" />
<glyph unicode="&#xf3;" horiz-adv-x="1142" d="M55 489q0 252 131 388.5t385 136.5q256 0 386 -136.5t130 -388.5q0 -250 -132 -385t-384 -135t-384 135.5t-132 384.5zM322 489q0 -174 60 -255.5t189 -81.5t189.5 81.5t60.5 255.5q0 176 -60.5 259t-189.5 83t-189 -82.5t-60 -259.5zM412 1073l157 369h303l-231 -369 h-229z" />
<glyph unicode="&#xf4;" horiz-adv-x="1142" d="M55 489q0 252 131 388.5t385 136.5q256 0 386 -136.5t130 -388.5q0 -250 -132 -385t-384 -135t-384 135.5t-132 384.5zM182 1071l269 395h245l267 -395h-248l-144 246l-143 -246h-246zM322 489q0 -174 60 -255.5t189 -81.5t189.5 81.5t60.5 255.5q0 176 -60.5 259 t-189.5 83t-189 -82.5t-60 -259.5z" />
<glyph unicode="&#xf5;" horiz-adv-x="1142" d="M55 489q0 252 131 388.5t385 136.5q256 0 386 -136.5t130 -388.5q0 -250 -132 -385t-384 -135t-384 135.5t-132 384.5zM152 1073q0 160 58 236.5t183 76.5q55 0 96 -15t99 -46q41 -23 67.5 -34t55.5 -11q45 0 67.5 25.5t22.5 80.5h190q0 -164 -55 -238.5t-178 -74.5 q-55 0 -99.5 15.5t-97.5 44.5q-43 23 -69.5 33t-55.5 10q-47 0 -69.5 -24t-22.5 -79h-192zM322 489q0 -174 60 -255.5t189 -81.5t189.5 81.5t60.5 255.5q0 176 -60.5 259t-189.5 83t-189 -82.5t-60 -259.5z" />
<glyph unicode="&#xf6;" horiz-adv-x="1142" d="M55 489q0 252 131 388.5t385 136.5q256 0 386 -136.5t130 -388.5q0 -250 -132 -385t-384 -135t-384 135.5t-132 384.5zM233 1114v223h213v-223h-213zM322 489q0 -174 60 -255.5t189 -81.5t189.5 81.5t60.5 255.5q0 176 -60.5 259t-189.5 83t-189 -82.5t-60 -259.5z M694 1114v223h215v-223h-215z" />
<glyph unicode="&#xf7;" horiz-adv-x="845" d="M76 547v166h694v-166h-694zM332 299v174h180v-174h-180zM332 788v173h180v-173h-180z" />
<glyph unicode="&#xf8;" horiz-adv-x="1142" d="M55 489q0 252 131 388.5t385 136.5q51 0 134 -13l32 95h113l-43 -121q139 -53 209.5 -177t70.5 -309q0 -250 -132 -385t-384 -135q-57 0 -125 11l-30 -86h-115l43 110q-141 51 -215 176t-74 309zM322 489q0 -197 94 -278l223 612q-41 8 -68 8q-129 0 -189 -82.5 t-60 -259.5zM510 158q27 -6 61 -6q129 0 189.5 81.5t60.5 255.5q0 197 -90 277z" />
<glyph unicode="&#xf9;" horiz-adv-x="1222" d="M35 805v178h397v-670q0 -90 40 -130t124 -40q86 0 138 49.5t52 141.5v395q0 39 -17 57.5t-58 18.5h-54v178h531v-178h-53q-43 0 -61.5 -19.5t-18.5 -60.5v-471q0 -39 17.5 -57.5t57.5 -18.5h58v-178h-305l-13 135q-68 -88 -147.5 -127t-208.5 -39q-174 0 -262 88t-88 254 v418q0 39 -17.5 57.5t-58.5 18.5h-53zM272 1442h306l159 -369h-233z" />
<glyph unicode="&#xfa;" horiz-adv-x="1222" d="M35 805v178h397v-670q0 -90 40 -130t124 -40q86 0 138 49.5t52 141.5v395q0 39 -17 57.5t-58 18.5h-54v178h531v-178h-53q-43 0 -61.5 -19.5t-18.5 -60.5v-471q0 -39 17.5 -57.5t57.5 -18.5h58v-178h-305l-13 135q-68 -88 -147.5 -127t-208.5 -39q-174 0 -262 88t-88 254 v418q0 39 -17.5 57.5t-58.5 18.5h-53zM455 1073l157 369h303l-231 -369h-229z" />
<glyph unicode="&#xfb;" horiz-adv-x="1222" d="M35 805v178h397v-670q0 -90 40 -130t124 -40q86 0 138 49.5t52 141.5v395q0 39 -17 57.5t-58 18.5h-54v178h531v-178h-53q-43 0 -61.5 -19.5t-18.5 -60.5v-471q0 -39 17.5 -57.5t57.5 -18.5h58v-178h-305l-13 135q-68 -88 -147.5 -127t-208.5 -39q-174 0 -262 88t-88 254 v418q0 39 -17.5 57.5t-58.5 18.5h-53zM207 1071l268 395h246l266 -395h-248l-143 246l-143 -246h-246z" />
<glyph unicode="&#xfc;" horiz-adv-x="1222" d="M35 805v178h397v-670q0 -90 40 -130t124 -40q86 0 138 49.5t52 141.5v395q0 39 -17 57.5t-58 18.5h-54v178h531v-178h-53q-43 0 -61.5 -19.5t-18.5 -60.5v-471q0 -39 17.5 -57.5t57.5 -18.5h58v-178h-305l-13 135q-68 -88 -147.5 -127t-208.5 -39q-174 0 -262 88t-88 254 v418q0 39 -17.5 57.5t-58.5 18.5h-53zM260 1114v223h213v-223h-213zM721 1114v223h215v-223h-215z" />
<glyph unicode="&#xfd;" horiz-adv-x="1177" d="M35 805v178h403v-629q0 -170 174 -170q90 0 142.5 51.5t52.5 147.5v346q0 76 -78 76h-53v178h405v-950q0 -201 -117.5 -322t-318.5 -121q-131 0 -237.5 37t-180.5 107v153h232v-71q31 -29 72.5 -40.5t105.5 -11.5q188 0 188 222v110q-111 -86 -264 -86 q-184 0 -289.5 93.5t-105.5 261.5v364q0 76 -78 76h-53zM444 1073l158 369h303l-231 -369h-230z" />
<glyph unicode="&#xfe;" horiz-adv-x="1275" d="M55 -248h54q43 0 61 19.5t18 60.5v1266q0 41 -18 60.5t-59 19.5h-35v178h381v-457q61 63 131.5 89t183.5 26q209 0 329 -132t120 -382q0 -254 -116 -392.5t-329 -138.5q-106 0 -180 29t-139 96v-266q0 -39 17.5 -57.5t57.5 -18.5h54v-178h-531v178zM457 432 q0 -135 71.5 -215t180.5 -80q129 0 187 88t58 275q0 182 -55 267t-184 85q-113 0 -185.5 -88t-72.5 -217v-115z" />
<glyph unicode="&#xff;" horiz-adv-x="1177" d="M35 805v178h403v-629q0 -170 174 -170q90 0 142.5 51.5t52.5 147.5v346q0 76 -78 76h-53v178h405v-950q0 -201 -117.5 -322t-318.5 -121q-131 0 -237.5 37t-180.5 107v153h232v-71q31 -29 72.5 -40.5t105.5 -11.5q188 0 188 222v110q-111 -86 -264 -86 q-184 0 -289.5 93.5t-105.5 261.5v364q0 76 -78 76h-53zM221 1114v223h213v-223h-213zM682 1114v223h215v-223h-215z" />
<glyph unicode="&#x152;" horiz-adv-x="1648" d="M55 657q0 342 165 505t499 163h874v-291h-245v37q0 76 -80 76h-279v-393h316v-181h-316v-395h279q41 0 60.5 18.5t19.5 59.5v37h245v-293h-874q-328 0 -496 159.5t-168 497.5zM322 657q0 -242 89 -360.5t242 -118.5h92v969h-88q-154 0 -244.5 -122t-90.5 -368z" />
<glyph unicode="&#x153;" horiz-adv-x="1873" d="M55 489q0 252 131 388.5t385 136.5q244 0 383 -140q135 139 379 140q238 0 362 -132t124 -358v-96h-732q0 -143 68 -209.5t195 -66.5t202 32v72h232v-156q-156 -131 -436 -131q-123 0 -223.5 37t-170.5 105q-66 -68 -163 -105t-220 -37q-252 0 -384 135.5t-132 384.5z M322 489q0 -174 60 -255.5t189 -81.5t189.5 81.5t60.5 255.5q0 176 -60.5 259t-189.5 83t-189 -82.5t-60 -259.5zM1087 582h465q0 127 -55 188t-168 61q-117 0 -179.5 -64.5t-62.5 -184.5z" />
<glyph unicode="&#x178;" horiz-adv-x="1370" d="M55 1147v178h496v-178h-29q-35 0 -35 -23q0 -16 17 -49l182 -366l180 366q16 33 17 49q0 23 -35 23h-29v178h496v-178h-47q-53 0 -81 -17.5t-54 -66.5l-314 -574v-235q0 -39 19.5 -57.5t62.5 -18.5h51v-178h-534v178h51q43 0 61.5 19.5t18.5 58.5v233l-311 574 q-27 49 -54.5 66.5t-81.5 17.5h-47zM348 1473v223h213v-223h-213zM809 1473v223h215v-223h-215z" />
<glyph unicode="&#x2c6;" horiz-adv-x="987" d="M76 1077l284 424h269l282 -424h-295l-124 209l-125 -209h-291z" />
<glyph unicode="&#x2dc;" horiz-adv-x="993" d="M76 1112q0 160 58.5 236.5t180.5 76.5q53 0 96.5 -15t98.5 -46q39 -23 67.5 -34t57.5 -11q47 0 67.5 24.5t20.5 81.5h195q0 -164 -56.5 -238.5t-181.5 -74.5q-53 0 -95 15.5t-96 41.5q-43 23 -70.5 34t-60.5 11q-45 0 -67.5 -23.5t-22.5 -78.5h-192z" />
<glyph unicode="&#x2000;" horiz-adv-x="914" />
<glyph unicode="&#x2001;" horiz-adv-x="1829" />
<glyph unicode="&#x2002;" horiz-adv-x="914" />
<glyph unicode="&#x2003;" horiz-adv-x="1829" />
<glyph unicode="&#x2004;" horiz-adv-x="609" />
<glyph unicode="&#x2005;" horiz-adv-x="457" />
<glyph unicode="&#x2006;" horiz-adv-x="304" />
<glyph unicode="&#x2007;" horiz-adv-x="304" />
<glyph unicode="&#x2008;" horiz-adv-x="228" />
<glyph unicode="&#x2009;" horiz-adv-x="365" />
<glyph unicode="&#x200a;" horiz-adv-x="101" />
<glyph unicode="&#x2010;" horiz-adv-x="761" d="M76 528v179h610v-179h-610z" />
<glyph unicode="&#x2011;" horiz-adv-x="761" d="M76 528v179h610v-179h-610z" />
<glyph unicode="&#x2012;" horiz-adv-x="761" d="M76 528v179h610v-179h-610z" />
<glyph unicode="&#x2013;" horiz-adv-x="1107" d="M76 528v179h956v-179h-956z" />
<glyph unicode="&#x2014;" horiz-adv-x="1415" d="M76 528v179h1263v-179h-1263z" />
<glyph unicode="&#x2018;" horiz-adv-x="567" d="M76 911l182 445h234l-115 -445h-301z" />
<glyph unicode="&#x2019;" horiz-adv-x="567" d="M76 911l117 445h299l-183 -445h-233z" />
<glyph unicode="&#x201a;" horiz-adv-x="567" d="M76 -238l117 445h299l-183 -445h-233z" />
<glyph unicode="&#x201c;" horiz-adv-x="886" d="M76 911l182 445h201l-117 -445h-266zM428 911l182 445h201l-117 -445h-266z" />
<glyph unicode="&#x201d;" horiz-adv-x="886" d="M76 911l117 445h266l-183 -445h-200zM428 911l117 445h266l-182 -445h-201z" />
<glyph unicode="&#x201e;" horiz-adv-x="935" d="M76 -238l117 445h286l-182 -445h-221zM455 -238l114 445h291l-184 -445h-221z" />
<glyph unicode="&#x2022;" horiz-adv-x="647" d="M76 690q0 102 72.5 174t173.5 72q104 0 176.5 -71.5t72.5 -174.5q0 -104 -72.5 -176t-176.5 -72q-103 0 -174.5 72t-71.5 176z" />
<glyph unicode="&#x2026;" horiz-adv-x="1310" d="M76 0v199h213v-199h-213zM559 0v199h215v-199h-215zM1022 0v199h213v-199h-213z" />
<glyph unicode="&#x202f;" horiz-adv-x="365" />
<glyph unicode="&#x2039;" horiz-adv-x="753" d="M76 610v111l602 485v-274l-334 -266l334 -265v-276z" />
<glyph unicode="&#x203a;" horiz-adv-x="753" d="M76 125v276l336 265l-336 266v274l602 -485v-111z" />
<glyph unicode="&#x205f;" horiz-adv-x="457" />
<glyph unicode="&#x20ac;" horiz-adv-x="1294" d="M76 430v170h106v117h-106v170h125q90 469 563 469q152 0 258 -29t192 -92v-234h-268v142q-78 31 -182 31q-129 0 -202 -73t-97 -214h336v-170h-352v-117h352v-170h-334q57 -279 336 -278q100 0 175 18t146 68l95 -152q-98 -66 -192.5 -91.5t-235.5 -25.5 q-250 0 -395.5 122t-192.5 339h-127z" />
<glyph unicode="&#x2122;" horiz-adv-x="1810" d="M76 1079v246h715v-246h-138v27q0 29 -11 39t-44 10h-55v-301q0 -35 15 -50.5t56 -15.5h58v-145h-477v145h57q41 0 56.5 15.5t15.5 50.5v301h-56q-33 0 -44 -10t-11 -39v-27h-137zM838 643v145h51q31 0 41 10.5t10 39.5v274q0 29 -10 39t-41 10h-51v164h325l123 -244 l123 244h326v-164h-52q-31 0 -41 -10t-10 -39v-274q0 -29 10.5 -39.5t40.5 -10.5h52v-145h-394v145h43q31 0 44.5 11.5t13.5 38.5v247l-117 -215h-78l-117 215v-247q0 -27 13.5 -38.5t44.5 -11.5h43v-145h-393z" />
<glyph unicode="&#x25fc;" horiz-adv-x="983" d="M0 0v983h983v-983h-983z" />
</font>
</defs>
</svg>
