<?xml version="1.0" standalone="no"?>
<!DOCTYPE svg PUBLIC "-//W3C//DTD SVG 1.1//EN" "http://www.w3.org/Graphics/SVG/1.1/DTD/svg11.dtd" >
<svg xmlns="http://www.w3.org/2000/svg" xmlns:xlink="http://www.w3.org/1999/xlink" version="1.1">
<metadata></metadata>
<defs>
<font id="pridibold" horiz-adv-x="1372" >
<font-face units-per-em="2048" ascent="1536" descent="-512" />
<missing-glyph horiz-adv-x="573" />
<glyph unicode="&#xfb01;" horiz-adv-x="1216" d="M10 745v238h146v43q0 360 485 360q150 0 253 -36.5t185 -98.5v-215h-354v80q-39 43 -92 43q-47 0 -70.5 -19.5t-23.5 -64.5v-92h540v-664q0 -78 84 -77h43v-242h-512v745h-155v-426q0 -39 17 -58t60 -19h19v-242h-586v242h21q86 0 86 77v426h-146z" />
<glyph unicode="&#xfb02;" horiz-adv-x="1216" d="M10 745v238h146v43q0 360 485 360q150 0 253 -36.5t185 -98.5v-932q0 -78 84 -77h43v-242h-512v745h-155v-426q0 -39 17 -58t60 -19h19v-242h-586v242h21q86 0 86 77v426h-146zM539 983h155v160q-29 16 -61 16q-47 0 -70.5 -19.5t-23.5 -64.5v-92z" />
<glyph horiz-adv-x="0" />
<glyph unicode="&#xd;" horiz-adv-x="573" />
<glyph unicode=" "  horiz-adv-x="573" />
<glyph unicode="&#x09;" horiz-adv-x="573" />
<glyph unicode="&#xa0;" horiz-adv-x="573" />
<glyph unicode="!" horiz-adv-x="509" d="M51 0v272h408v-272h-408zM57 1325h396l-15 -860h-366z" />
<glyph unicode="&#x22;" horiz-adv-x="882" d="M51 1477h322l-29 -459h-264zM510 1477h321l-28 -459h-264z" />
<glyph unicode="#" horiz-adv-x="1536" d="M51 334v237h250l51 224h-246v239h300l65 291h317l-65 -291h260l66 291h315l-66 -291h187v-239h-240l-51 -224h236v-237h-289l-74 -334h-315l73 334h-260l-73 -334h-318l74 334h-197zM618 571h261l51 224h-260z" />
<glyph unicode="$" horiz-adv-x="1179" d="M51 147v256h381v-157q68 -37 172 -37q76 0 113 29.5t37 95.5q0 45 -28 75.5t-75 54t-162 73.5q-152 66 -241.5 124t-138 133.5t-48.5 184.5q0 141 92.5 231t247.5 123v238h338v-225q117 -16 204 -61.5t163 -113.5v-229h-381v139q-59 35 -141 35q-147 0 -148 -123 q0 -51 36 -89t80 -59.5t128 -56.5q184 -76 270 -124t132 -119.5t46 -190.5q0 -143 -101 -245.5t-288 -128.5v-226h-338v234q-205 39 -350 159z" />
<glyph unicode="%" horiz-adv-x="1564" d="M51 1040q0 86 42 159t115 115t159 42t158.5 -42t114.5 -115t42 -159t-42 -158.5t-114.5 -114.5t-158.5 -42t-159 42t-115 114.5t-42 158.5zM217 0l772 1325h383l-772 -1325h-383zM279 1040q0 -37 25.5 -62.5t62.5 -25.5q36 0 62 26t26 62q0 37 -26 62.5t-62 25.5 q-37 0 -62.5 -25.5t-25.5 -62.5zM883 285q0 86 42 158.5t114.5 114.5t158.5 42t159 -42t114.5 -114.5t41.5 -158.5t-41.5 -159t-114.5 -115t-159 -42t-158.5 42t-114.5 115t-42 159zM1110 285q0 -37 25.5 -62.5t62.5 -25.5t62.5 25.5t25.5 62.5t-25.5 62.5t-62.5 25.5 t-62.5 -25.5t-25.5 -62.5z" />
<glyph unicode="&#x26;" horiz-adv-x="1470" d="M51 352q0 129 61.5 223.5t186.5 163.5q-78 74 -116 143.5t-38 141.5q0 156 110 244t320 88q209 0 320 -94.5t111 -243.5v-39h-377v86q0 27 -14.5 43t-36.5 16q-25 0 -41.5 -23.5t-16.5 -76.5q0 -45 26.5 -84t60.5 -75t46 -48l250 -260v246h445v-230h-62q-29 0 -39 -11 t-10 -42q0 -84 -14.5 -145.5t-51.5 -122.5l248 -252h-418l-57 57q-74 -51 -153.5 -69.5t-200.5 -18.5q-246 0 -392.5 101.5t-146.5 281.5zM428 352q0 -72 47 -111.5t115 -39.5q55 0 95 9t81 32l-262 282q-41 -37 -58.5 -74.5t-17.5 -97.5z" />
<glyph unicode="'" horiz-adv-x="466" d="M51 1477h365l-29 -459h-307z" />
<glyph unicode="(" horiz-adv-x="817" d="M51 647q0 496 299 801h416q-342 -330 -342 -801q0 -242 77 -435.5t265 -365.5h-416q-299 305 -299 801z" />
<glyph unicode=")" horiz-adv-x="817" d="M51 -154q342 330 342 801q0 242 -76.5 435.5t-265.5 365.5h416q299 -305 299 -801t-299 -801h-416z" />
<glyph unicode="*" horiz-adv-x="917" d="M51 1118l92 256l158 -71l-4 174h324l-9 -177l160 72l94 -254l-196 -51l121 -147l-234 -158l-98 156l-99 -158l-231 160l117 147z" />
<glyph unicode="+" horiz-adv-x="847" d="M51 516v238h225v202h291v-202h230v-238h-230v-203h-291v203h-225z" />
<glyph unicode="," horiz-adv-x="528" d="M51 -248l76 486h350l-149 -486h-277z" />
<glyph unicode="-" horiz-adv-x="749" d="M51 494v239h647v-239h-647z" />
<glyph unicode="." horiz-adv-x="364" d="M51 0v238h262v-238h-262z" />
<glyph unicode="/" horiz-adv-x="997" d="M51 0l512 1384h383l-512 -1384h-383z" />
<glyph unicode="0" horiz-adv-x="1298" d="M31 664q0 348 151.5 518t466.5 170t467 -170t152 -518q0 -350 -151.5 -523.5t-467.5 -173.5q-315 0 -466.5 173t-151.5 524zM406 664q0 -244 62 -350.5t181 -106.5t181.5 106.5t62.5 350.5q0 240 -62.5 344t-181.5 104t-181 -104.5t-62 -343.5z" />
<glyph unicode="1" horiz-adv-x="903" d="M31 1102l354 223h297v-1006q0 -82 84 -81h106v-238h-757v238h106q84 0 84 81v642l-137 -84z" />
<glyph unicode="2" horiz-adv-x="1138" d="M51 0v135q0 188 119 328.5t342 247.5q78 37 120 68.5t61.5 75.5t19.5 114q0 147 -148 147q-35 0 -63.5 -3t-69.5 -17v-138h-371v242q236 156 502 156q246 0 385 -95.5t139 -289.5q0 -109 -40.5 -185.5t-128 -140t-244.5 -147.5q-109 -57 -173.5 -116.5t-64.5 -143.5h635 v-238h-1020z" />
<glyph unicode="3" horiz-adv-x="1171" d="M51 143v246h377v-141q72 -39 152 -39q90 0 129 42t39 152q0 82 -37 127t-111 45h-188v234h188q133 0 133 160q0 72 -40 109.5t-107 37.5q-70 0 -131 -18v-140h-379v240q96 72 230 115t278 43q233 0 378.5 -94.5t145.5 -280.5q0 -162 -162 -285q174 -106 174 -278 q0 -233 -133 -341t-414 -108q-161 0 -298.5 44t-223.5 130z" />
<glyph unicode="4" horiz-adv-x="1101" d="M10 348v211l570 766h321v-739h191v-238h-191v-29q0 -82 84 -81h66v-238h-666v238h66q84 0 84 81v29h-525zM381 586h184v248z" />
<glyph unicode="5" horiz-adv-x="1177" d="M51 145v244h377v-145q78 -35 164 -35q84 0 122 62.5t38 187.5q0 113 -53.5 165t-163.5 52h-441v155l41 494h950v-240h-596l-18 -167h107q549 0 548 -459q0 -236 -134 -363t-408 -127q-326 0 -533 176z" />
<glyph unicode="6" horiz-adv-x="1189" d="M51 582q0 272 87 446t228.5 251t309.5 77q143 0 236.5 -33t189.5 -109l-129 -210q-51 43 -108.5 61t-143.5 18q-127 0 -196.5 -56t-121.5 -179q76 55 136.5 75.5t150.5 20.5q489 0 490 -469q0 -246 -144.5 -376t-425.5 -130q-258 0 -408.5 151.5t-150.5 461.5zM426 492 q0 -156 47 -219.5t137 -63.5q107 0 152 57.5t45 208.5q0 125 -47 184.5t-150 59.5q-90 0 -137 -57.5t-47 -169.5z" />
<glyph unicode="7" horiz-adv-x="1085" d="M10 952v373h1065v-145l-477 -1180h-381l442 1085h-270v-133h-379z" />
<glyph unicode="8" horiz-adv-x="1224" d="M51 379q0 203 160 309q-141 121 -141 281q0 188 148.5 287.5t391.5 99.5q246 0 394.5 -99.5t148.5 -287.5q0 -80 -33 -147.5t-110 -131.5q164 -115 164 -311q0 -211 -146.5 -311.5t-417.5 -100.5q-268 0 -413.5 100.5t-145.5 311.5zM424 401q0 -100 45 -147t141 -47 q99 0 144 46t45 148q0 84 -43 129t-127 45h-33q-84 0 -128 -45t-44 -129zM444 969q0 -88 37 -128t113 -40h37q76 0 112.5 40t36.5 128q0 76 -45 111.5t-125 35.5q-166 0 -166 -147z" />
<glyph unicode="9" horiz-adv-x="1230" d="M51 860q0 242 148.5 369t421.5 127q258 0 408.5 -151.5t150.5 -461.5q0 -274 -84 -447t-221.5 -251t-305.5 -78q-143 0 -250.5 29t-197.5 92l139 231q53 -43 111.5 -62t134.5 -19q129 0 198.5 50t124.5 173q-66 -47 -133 -63.5t-155 -16.5q-244 0 -367 123t-123 356z M424 850q0 -125 47 -184.5t150 -59.5q98 0 141 58.5t43 177.5q0 156 -46 215t-138 59q-104 0 -150.5 -57.5t-46.5 -208.5z" />
<glyph unicode=":" horiz-adv-x="364" d="M51 0v281h262v-281h-262zM51 745v281h262v-281h-262z" />
<glyph unicode=";" horiz-adv-x="505" d="M51 -248l74 486h330l-150 -486h-254zM123 745v281h303v-281h-303z" />
<glyph unicode="&#x3c;" horiz-adv-x="1267" d="M51 590v158l1166 528v-291l-732 -315l732 -318v-291z" />
<glyph unicode="=" horiz-adv-x="897" d="M51 315v240h795v-240h-795zM51 680v238h795v-238h-795z" />
<glyph unicode="&#x3e;" horiz-adv-x="1267" d="M51 61v291l731 318l-731 315v291l1166 -528v-158z" />
<glyph unicode="?" horiz-adv-x="1140" d="M51 950v250q96 72 225.5 114t286.5 42q258 0 392.5 -93.5t134.5 -279.5q0 -86 -31 -146.5t-87.5 -107.5t-156.5 -108q-57 -35 -83.5 -67t-36 -70t-9.5 -103v-37h-379v55q0 127 57.5 221.5t190.5 172.5q82 47 122 88t40 102q0 133 -166 133q-78 0 -170 -37v-129h-330z M293 0v272h407v-272h-407z" />
<glyph unicode="@" horiz-adv-x="1773" d="M51 567q0 227 108.5 401.5t303 270.5t444.5 96q252 0 435.5 -82t281.5 -237.5t98 -372.5q0 -244 -86 -373t-278 -129q-68 0 -133.5 33t-81.5 88q-90 -135 -330 -135q-166 0 -247 67.5t-81 186.5q0 121 69 192.5t191 79.5l224 15v37q0 66 -66 65q-18 0 -31.5 -4t-25.5 -10 v-56h-309v148q154 117 370 117q203 0 297 -72t94 -219v-250q0 -23 6.5 -34t22.5 -11q37 0 54.5 64.5t17.5 207.5q0 207 -115 299t-377 92q-256 0 -393 -110.5t-137 -364.5q0 -285 132 -400.5t400 -115.5q119 0 250 16.5t238 49.5v-267q-139 -43 -242.5 -59t-249.5 -16 q-450 0 -652 211t-202 581zM791 387q0 -31 21.5 -48t49.5 -17q49 0 78 25.5t29 76.5v43l-111 -8q-68 -4 -67 -72z" />
<glyph unicode="A" horiz-adv-x="1458" d="M31 0v238h49q57 0 78.5 12t38.5 57l350 1018h371l344 -1018q16 -45 37.5 -57t78.5 -12h49v-238h-598v238h78l-43 149h-266l-45 -149h78v-238h-600zM653 573h158l-76 273z" />
<glyph unicode="B" horiz-adv-x="1257" d="M31 0v238h43q43 0 62.5 20.5t19.5 60.5v691q0 75 -80 75h-2h-43v240h796q176 0 278.5 -93t102.5 -274q0 -86 -49 -162.5t-135 -123.5q100 -45 151.5 -114t51.5 -181q0 -176 -106.5 -276.5t-280.5 -100.5h-809zM535 238h170q66 0 107.5 37.5t41.5 117.5q0 82 -46 115 t-110 33h-163v-303zM535 784h157q57 0 99.5 38t42.5 114q0 70 -39 110.5t-105 40.5h-155v-303z" />
<glyph unicode="C" horiz-adv-x="1257" d="M31 651q0 317 169 511t511 194q172 0 287.5 -31t211.5 -100v-283h-379v162q-53 12 -120 12q-152 0 -230 -122t-78 -343q0 -217 89.5 -329.5t281.5 -112.5q96 0 172 20.5t156 75.5l125 -201q-115 -80 -214.5 -107.5t-258.5 -27.5q-238 0 -399.5 86t-242.5 240t-81 356z " />
<glyph unicode="D" horiz-adv-x="1310" d="M31 0v238h43q84 0 84 81v691q0 75 -82 75h-2h-43v240h663q293 0 439.5 -170t146.5 -498q0 -186 -65.5 -334.5t-197.5 -235.5t-323 -87h-663zM537 238h100q152 0 210 103t58 316q0 219 -58.5 324.5t-209.5 105.5h-100v-849z" />
<glyph unicode="E" horiz-adv-x="1122" d="M31 0v238h43q84 0 84 81v691q0 75 -82 75h-2h-43v240h1061v-344h-344v27q0 79 -82 79h-2h-127v-307h235v-237h-235v-305h127q84 0 84 81v25h344v-344h-1061z" />
<glyph unicode="F" horiz-adv-x="1122" d="M31 0v238h43q84 0 84 81v691q0 75 -82 75h-2h-43v240h1061v-344h-344v27q0 79 -82 79h-2h-127v-307h235v-237h-235v-230q0 -75 79 -75h2h44v-238h-631z" />
<glyph unicode="G" horiz-adv-x="1310" d="M31 651q0 205 75.5 364t232.5 250t386 91q172 0 288.5 -31t213.5 -100v-283h-379v152q-49 22 -117 22h-6q-152 0 -235.5 -123t-83.5 -342q0 -215 89 -329.5t261 -114.5q78 0 145 16v285h-237v237h616v-620q-217 -158 -543 -158q-225 0 -383.5 87t-240.5 242t-82 355z" />
<glyph unicode="H" horiz-adv-x="1415" d="M31 0v238h43q43 0 62.5 20.5t19.5 60.5v691q0 75 -80 75h-2h-43v240h608v-240h-23q-82 0 -81 -75v-228h344v222q0 41 -19.5 61t-62.5 20h-23v240h610v-240h-43q-84 0 -84 -75v-691q0 -81 82 -81h2h43v-238h-610v238h23q43 0 62.5 20.5t19.5 60.5v226h-344v-226 q0 -81 81 -81h2h21v-238h-608z" />
<glyph unicode="I" horiz-adv-x="690" d="M31 0v238h41q45 0 64.5 20.5t19.5 60.5v691q0 75 -82 75h-2h-41v240h628v-240h-41q-84 0 -83 -75v-697q0 -75 81 -75h2h41v-238h-628z" />
<glyph unicode="J" horiz-adv-x="1056" d="M-31 152v208h334v-110q20 -18 50 -30.5t57 -12.5q59 0 85.5 27.5t26.5 91.5v684q0 75 -82 75h-2h-43v240h631v-240h-43q-82 0 -82 -75v-619q0 -199 -121 -311.5t-346 -112.5q-151 0 -272 47t-193 138z" />
<glyph unicode="K" d="M31 0v240h43q41 0 62.5 20.5t21.5 54.5v695q0 75 -82 75h-2h-43v240h585v-240h-14q-33 0 -50 -21.5t-17 -53.5v-252l317 348h-82v219h557v-240h-70q-43 0 -64.5 -8t-39.5 -28l-276 -297l307 -471q14 -23 37.5 -33t58.5 -10h61v-238h-593v238h106l-192 299l-127 -138v-84 q0 -33 15 -54t48 -21h18v-240h-585z" />
<glyph unicode="L" horiz-adv-x="1060" d="M31 0v238h43q84 0 84 81v691q0 75 -82 75h-2h-43v240h631v-240h-44q-82 0 -81 -75v-772h127q84 0 84 81v89h344v-408h-1061z" />
<glyph unicode="M" horiz-adv-x="1583" d="M31 0v238h43q84 0 84 81v689q0 79 -82 79h-2h-43v238h493l269 -614l266 614h493v-238h-43q-82 0 -82 -79v-689q0 -41 19.5 -61t62.5 -20h43v-238h-624v238h43q84 0 84 75v447l-154 -357h-219l-154 357v-447q0 -75 82 -75h2h43v-238h-624z" />
<glyph unicode="N" horiz-adv-x="1429" d="M31 0v240h43q82 0 82 75v695q0 75 -80 75h-2h-43v240h401l465 -725v410q0 75 -82 75h-2h-43v240h629v-240h-43q-84 0 -84 -75v-1010h-277l-463 717v-402q0 -35 21.5 -55t62.5 -20h43v-240h-628z" />
<glyph unicode="O" d="M31 657q0 352 157.5 525.5t497.5 173.5t497.5 -173t157.5 -526q0 -346 -161.5 -517t-493.5 -171t-493.5 171t-161.5 517zM406 657q0 -166 27.5 -263t88 -141t164.5 -44q105 0 165 44t88 141.5t28 262.5q0 172 -28 271.5t-88 143.5t-165 44q-104 0 -164.5 -44t-88 -143.5 t-27.5 -271.5z" />
<glyph unicode="P" horiz-adv-x="1296" d="M31 0v238h41q84 0 84 75v697q0 75 -82 75h-2h-41v240h735q236 0 368 -108.5t132 -321.5t-134.5 -328.5t-367.5 -115.5h-229v-138q0 -75 81 -75h2h41v-238h-628zM535 690h178q94 0 136 49t42 156q0 106 -41 148t-137 42h-178v-395z" />
<glyph unicode="Q" d="M31 655q0 350 157.5 523.5t497.5 173.5t497.5 -173t157.5 -524q0 -311 -129 -479t-395 -201q16 -43 53 -63.5t82 -20.5t68.5 6.5t42.5 20.5v55h254v-133q-53 -66 -148.5 -101.5t-224.5 -35.5q-174 0 -268 70.5t-129 201.5q-262 33 -389 202t-127 478zM406 655 q0 -166 27.5 -263t88 -141t164.5 -44q105 0 165 44t88 141t28 263q0 172 -28 270.5t-88 142.5t-165 44q-104 0 -164.5 -44t-88 -142.5t-27.5 -270.5z" />
<glyph unicode="R" horiz-adv-x="1314" d="M31 0v238h43q84 0 84 75v697q0 75 -82 75h-2h-43v240h735q236 0 369 -108.5t133 -321.5q0 -272 -252 -395l123 -207q16 -31 41.5 -43t70.5 -12h33v-238h-536v238h65l-127 215h-149v-150q0 -37 13 -51t48 -14h25v-238h-592zM537 690h176q96 0 138 49t42 156q0 106 -42 148 t-138 42h-176v-395z" />
<glyph unicode="S" horiz-adv-x="1138" d="M31 147v256h381v-157q68 -37 172 -37q76 0 112.5 29.5t36.5 95.5q0 45 -27.5 75.5t-74.5 54t-162 73.5q-152 66 -242 124t-138 133.5t-48 184.5q0 184 153.5 280.5t389.5 96.5q174 0 290.5 -50t210.5 -135v-229h-380v139q-59 35 -142 35q-147 0 -147 -123q0 -51 35.5 -89 t79.5 -59.5t128 -56.5q184 -76 270.5 -124t132.5 -119.5t46 -190.5q0 -111 -60.5 -197.5t-179 -137t-284.5 -50.5q-338 0 -553 178z" />
<glyph unicode="T" horiz-adv-x="1296" d="M10 911v408h1276v-408h-258v90q0 80 -84 80h-106v-766q0 -35 21.5 -55t62.5 -20h43v-240h-631v240h43q82 0 82 75v766h-107q-84 0 -84 -80v-90h-258z" />
<glyph unicode="U" horiz-adv-x="1392" d="M10 1085v240h608v-240h-20q-43 0 -63.5 -19t-20.5 -62v-627q0 -90 45 -129t137 -39t136.5 39t44.5 129v627q0 41 -19.5 61t-62.5 20h-23v240h610v-240h-43q-84 0 -84 -75v-621q0 -197 -140 -308.5t-419 -111.5q-280 0 -420.5 112t-140.5 308v621q0 75 -82 75h-2h-41z" />
<glyph unicode="V" horiz-adv-x="1458" d="M31 1087v238h469l233 -846l221 846h473v-238h-18q-70 0 -104.5 -20t-53.5 -78l-333 -989h-371l-340 989q-20 57 -54 77.5t-102 20.5h-20z" />
<glyph unicode="W" horiz-adv-x="1732" d="M31 1085v240h430l135 -653l139 430h262l140 -430l135 653h430v-240h-14q-72 0 -102 -19t-44 -83l-217 -983h-301l-158 446l-157 -446h-301l-218 983q-14 63 -43.5 82.5t-101.5 19.5h-14z" />
<glyph unicode="X" horiz-adv-x="1421" d="M31 0v240h53q63 0 102 16t74 63l252 340l-252 349q-33 45 -71.5 61t-104.5 16h-33v240h588v-240h-61l133 -219l131 219h-62v240h588v-240h-33q-66 0 -104.5 -16t-71.5 -61l-254 -349l254 -340q35 -47 74 -63t102 -16h56v-240h-611v238h62l-131 213l-133 -213h61v-238 h-608z" />
<glyph unicode="Y" d="M31 1090v235h592v-235h-58l125 -291l117 291h-57v235h591v-235h-45q-61 0 -91.5 -20.5t-61.5 -76.5l-269 -497v-183q0 -75 82 -75h2h43v-238h-630v238h43q84 0 84 81v179l-271 497q-31 55 -60.5 75t-90.5 20h-45z" />
<glyph unicode="Z" horiz-adv-x="1171" d="M31 0v186l639 901h-203q-84 0 -84 -79v-27h-344v344h1061v-184l-615 -903h228q84 0 84 81v25h344v-344h-1110z" />
<glyph unicode="[" horiz-adv-x="684" d="M72 -170v1706h561v-240h-182v-1228h182v-238h-561z" />
<glyph unicode="\" horiz-adv-x="993" d="M51 1384h381l510 -1384h-381z" />
<glyph unicode="]" horiz-adv-x="684" d="M51 68h182v1228h-182v240h561v-1706h-561v238z" />
<glyph unicode="^" horiz-adv-x="1314" d="M51 725l459 748h293l461 -748h-390l-217 397l-219 -397h-387z" />
<glyph unicode="_" horiz-adv-x="1005" d="M51 -63h903v-240h-903v240z" />
<glyph unicode="`" horiz-adv-x="677" d="M51 1438h400l176 -416h-318z" />
<glyph unicode="a" horiz-adv-x="1085" d="M10 252q0 154 103.5 230.5t308.5 90.5l180 13v108q0 90 -94 90q-53 0 -92 -41v-67h-316v217q195 121 428 121q227 0 342 -98.5t115 -262.5v-352q0 -72 66 -72h24v-229h-293l-30 137q-78 -92 -160 -130t-217 -38q-182 0 -273.5 75t-91.5 208zM354 287q0 -41 28 -64.5 t79 -23.5q141 0 141 127v69l-137 -12q-111 -8 -111 -96z" />
<glyph unicode="b" horiz-adv-x="1218" d="M10 1112v244h439v-434q66 47 135 69.5t166 22.5q217 0 327.5 -139.5t110.5 -399.5q0 -244 -125 -376t-334 -132q-125 0 -210 33t-142 121l-15 -121h-245v1034q0 39 -16.5 58.5t-57.5 19.5h-33zM473 432q0 -111 42 -181.5t124 -70.5q100 0 136 68.5t36 230.5 q0 164 -36 234.5t-136 70.5q-166 0 -166 -243v-109z" />
<glyph unicode="c" horiz-adv-x="1081" d="M31 477q0 268 150.5 402.5t418.5 134.5q145 0 243.5 -34t194.5 -110v-254h-313v111q-25 18 -54.5 25.5t-72.5 7.5q-88 0 -139 -71t-51 -212q0 -133 64.5 -192.5t201.5 -59.5q162 0 260 74l117 -193q-102 -78 -196.5 -107.5t-258.5 -29.5q-160 0 -288 57.5t-202.5 172 t-74.5 278.5z" />
<glyph unicode="d" horiz-adv-x="1200" d="M31 463q0 266 117.5 408.5t347.5 142.5q88 0 149.5 -20.5t124.5 -67.5v108q0 78 -84 78h-22v244h438v-1049q0 -45 14 -61.5t58 -16.5h16v-229h-332l-16 125q-70 -78 -156 -116t-205 -38q-209 0 -329.5 125t-120.5 367zM408 469q0 -109 14 -169t51 -88t107 -28 q88 0 128 73t40 187v88q0 125 -39 190.5t-129 65.5q-98 0 -135 -76.5t-37 -242.5z" />
<glyph unicode="e" horiz-adv-x="1118" d="M31 485q0 268 139 398.5t399 130.5q254 0 386 -136.5t132 -363.5v-98h-677q0 -123 43 -174.5t151 -51.5q76 0 135 27v82h314v-182q-80 -74 -188.5 -112t-266.5 -38q-268 0 -417.5 131t-149.5 387zM410 612h301q0 84 -40 130t-110 46q-74 0 -112.5 -46t-38.5 -130z" />
<glyph unicode="f" horiz-adv-x="929" d="M10 745v238h146v43q0 174 112.5 267t343.5 93q129 0 231.5 -31.5t174.5 -86.5v-217h-293v65q-31 43 -92 43q-47 0 -70.5 -19.5t-23.5 -64.5v-92h256v-238h-256v-426q0 -39 17 -58t60 -19h19v-242h-586v242h21q86 0 86 77v426h-146z" />
<glyph unicode="g" horiz-adv-x="1198" d="M31 508q0 242 128 374t339 132q125 0 203.5 -39t138.5 -125l16 133h332v-235h-21q-39 0 -53 -20.5t-14 -65.5v-652q0 -193 -116 -306.5t-331 -113.5q-151 0 -256.5 38t-189.5 112v158h313v-56q47 -39 129 -39q63 0 92 37t29 99v147q-59 -45 -122.5 -65.5t-153.5 -20.5 q-225 0 -344 125t-119 383zM408 508q0 -109 14 -171.5t51 -91t107 -28.5q90 0 127.5 66.5t37.5 189.5v64q0 117 -37.5 190.5t-127.5 73.5q-100 0 -136 -65.5t-36 -227.5z" />
<glyph unicode="h" horiz-adv-x="1255" d="M31 0v242h20q86 0 86 77v717q0 37 -21.5 57.5t-64.5 20.5h-20v242h438v-447q78 63 151.5 84t174.5 21q172 0 249.5 -88t77.5 -260v-347q0 -77 82 -77h2h39v-242h-508v664q0 63 -26.5 91.5t-79.5 28.5q-57 0 -84 -27.5t-27 -92.5v-345q0 -77 66 -77h2h28v-242h-585z" />
<glyph unicode="i" horiz-adv-x="659" d="M10 0v242h43q45 0 64.5 20.5t19.5 61.5v338q0 77 -82 77h-2h-43v244h512v-664q0 -77 82 -77h2h43v-242h-639zM137 1114v277h385v-277h-385z" />
<glyph unicode="j" horiz-adv-x="854" d="M-92 -20h303v-86q41 -33 94 -33q45 0 68.5 19.5t23.5 62.5v719q0 37 -21.5 57t-62.5 20h-43v244h512v-989q0 -174 -112.5 -267.5t-345.5 -93.5q-131 0 -239 32t-177 87v228zM397 1114v277h385v-277h-385z" />
<glyph unicode="k" horiz-adv-x="1206" d="M31 0v223h43q35 0 48 15.5t13 52.5v778q0 37 -13 52.5t-48 15.5h-43v219h573v-219h-63q-35 0 -48.5 -15.5t-13.5 -52.5v-432l146 125h-68v221h594v-221h-117q-33 0 -51 -6t-35 -21l-135 -110l205 -365q23 -37 74 -37h104v-223h-371l-247 432l-99 -80v-61 q0 -37 13.5 -52.5t48.5 -15.5h63v-223h-573z" />
<glyph unicode="l" horiz-adv-x="679" d="M31 0v242h43q45 0 64.5 20.5t19.5 61.5v710q0 78 -84 78h-43v244h512v-1037q0 -77 82 -77h2h43v-242h-639z" />
<glyph unicode="m" horiz-adv-x="1798" d="M31 0v242h22q84 0 84 77v343q0 37 -21.5 57t-62.5 20h-22v244h331l17 -137q66 84 161 126t214 42q160 0 268 -125q55 68 129 96.5t168 28.5q182 0 264 -88t82 -260v-347q0 -77 82 -77h2h39v-242h-496v664q0 63 -26.5 91.5t-79.5 28.5q-57 0 -84 -27.5t-27 -90.5v-347 q0 -39 15.5 -58t54.5 -19h31v-242h-451v664q0 63 -26.5 91.5t-80.5 28.5q-57 0 -83.5 -27.5t-26.5 -92.5v-345q0 -77 65 -77h2h29v-242h-573z" />
<glyph unicode="n" horiz-adv-x="1255" d="M31 0v242h20q86 0 86 77v340q0 78 -80 78h-26v246h344l14 -131q133 162 377 162q184 0 270 -89t86 -259v-347q0 -77 82 -77h2h39v-242h-508v664q0 63 -26.5 91.5t-79.5 28.5q-57 0 -84 -27.5t-27 -92.5v-345q0 -39 15.5 -58t54.5 -19h26v-242h-585z" />
<glyph unicode="o" horiz-adv-x="1142" d="M31 492q0 258 139 390t403 132q262 0 400.5 -132t138.5 -390q0 -256 -141.5 -389.5t-397.5 -133.5q-258 0 -400 133.5t-142 389.5zM412 492q0 -152 34.5 -215.5t126.5 -63.5q91 0 126.5 64.5t35.5 214.5q0 152 -35.5 215t-126.5 63q-92 0 -126.5 -62.5t-34.5 -215.5z" />
<glyph unicode="p" horiz-adv-x="1218" d="M10 -184h21q43 0 64.5 20.5t21.5 57.5v765q0 37 -21.5 57.5t-64.5 20.5h-21v246h350l19 -133q61 80 146 122t202 42q209 0 335 -132t126 -376q0 -258 -118 -398.5t-337 -140.5q-96 0 -156.5 19.5t-127.5 66.5v-159q0 -78 83 -78h23v-242h-545v242zM471 436 q0 -119 42 -182.5t126 -63.5q100 0 136 74t36 238q0 162 -36 230.5t-136 68.5q-82 0 -125 -72t-43 -180v-113z" />
<glyph unicode="q" horiz-adv-x="1218" d="M31 506q0 244 125 376t333 132q127 0 208 -43t143 -135l16 147h352v-246h-22q-41 0 -62.5 -20.5t-21.5 -57.5v-765q0 -37 21.5 -57.5t62.5 -20.5h22v-242h-438v481q-127 -86 -301 -86q-219 0 -328.5 138.5t-109.5 398.5zM408 502q0 -164 35.5 -236.5t136.5 -72.5h1 q164 0 164 243v123q0 119 -37.5 180.5t-127.5 61.5q-100 0 -136 -68.5t-36 -230.5z" />
<glyph unicode="r" horiz-adv-x="854" d="M31 0v242h22q84 0 84 77v345q0 37 -17.5 57t-60.5 20h-24v242h422l22 -98q35 51 101.5 74.5t130.5 23.5h133v-242h-193q-70 0 -99.5 -32.5t-29.5 -102.5v-287q0 -39 17.5 -58t58.5 -19h20v-242h-587z" />
<glyph unicode="s" horiz-adv-x="999" d="M31 106v183h340v-64q40 -28 98 -28h4q96 0 96 61q0 35 -22.5 52.5t-95.5 47.5q-37 14 -123 54q-100 47 -157.5 82.5t-94.5 90t-37 134.5q0 145 118.5 220t323.5 75q137 0 258 -35t211 -105v-169h-329v49q-42 30 -94 30h-3q-86 0 -86 -65q0 -31 32 -55.5t89 -48t119 -46.5 q156 -59 223.5 -125.5t67.5 -185.5q0 -289 -469 -289q-150 0 -262.5 32t-206.5 105z" />
<glyph unicode="t" horiz-adv-x="999" d="M10 754v229h146v193l383 100v-293h256v-229h-256v-459q0 -53 23.5 -75.5t70.5 -22.5q57 0 92 34v86h305v-206q-180 -141 -418 -142q-231 0 -343.5 93.5t-112.5 267.5v424h-146z" />
<glyph unicode="u" horiz-adv-x="1234" d="M10 741v242h508v-666q0 -66 26.5 -94t80.5 -28q57 0 83.5 28.5t26.5 93.5v347q0 39 -13 58t-50 19h-33v242h479v-661q0 -78 86 -78h21v-244h-344l-15 125q-80 -86 -166 -122t-211 -36q-184 0 -270 89t-86 259v349q0 77 -82 77h-2h-39z" />
<glyph unicode="v" horiz-adv-x="1157" d="M10 760v223h410l162 -575l159 575h406v-223h-27q-61 0 -86.5 -14.5t-40.5 -55.5l-243 -690h-340l-246 690q-14 41 -40 55.5t-87 14.5h-27z" />
<glyph unicode="w" horiz-adv-x="1544" d="M10 760v223h400l114 -500l123 412h250l123 -412l115 500h399v-223h-43q-43 0 -67.5 -15.5t-34.5 -56.5l-166 -688h-314l-137 432l-137 -432h-313l-166 688q-10 41 -34 56.5t-69 15.5h-43z" />
<glyph unicode="x" horiz-adv-x="1153" d="M10 0v178h39q47 0 77 12.5t54 47.5l195 254l-195 256q-25 33 -54.5 45t-76.5 12h-24v178h499v-178h-45l96 -141l99 141h-47v178h499v-178h-24q-47 0 -77 -12.5t-54 -44.5l-195 -256l195 -254q25 -35 54.5 -47.5t76.5 -12.5h41v-178h-516v176h47l-99 139l-96 -139h45v-176 h-514z" />
<glyph unicode="y" horiz-adv-x="1212" d="M10 741v242h508v-625q0 -125 121 -125q61 0 90 28t29 91v312q0 41 -13.5 59t-54.5 18h-28v242h479v-924q0 -141 -58.5 -246.5t-166 -164t-254.5 -58.5q-148 0 -264.5 39t-192.5 111v166h313v-53q27 -27 58.5 -38.5t78.5 -11.5q135 0 136 156v92q-53 -18 -114 -29.5 t-102 -11.5q-205 0 -322.5 96.5t-117.5 268.5v289q0 37 -21.5 57t-64.5 20h-39z" />
<glyph unicode="z" horiz-adv-x="1050" d="M31 0v158l501 583h-190q-84 0 -84 -82v-24h-221v348h962v-164l-495 -577h209q86 0 86 82v22h221v-346h-989z" />
<glyph unicode="{" horiz-adv-x="710" d="M10 569v240h2q59 0 90 26.5t31 84.5v292q0 158 92 243t275 85h159v-237h-28q-53 0 -87 -28t-34 -85v-307q0 -51 -28.5 -103.5t-82.5 -95.5q53 -39 82 -90t29 -100v-322q0 -57 34 -85t87 -28h28v-237h-159q-183 0 -275 85t-92 243v307q0 113 -121 112h-2z" />
<glyph unicode="|" horiz-adv-x="481" d="M51 -246v1817h379v-1817h-379z" />
<glyph unicode="}" horiz-adv-x="712" d="M51 68h29q53 0 87 27.5t34 84.5v279q0 164 112 229q-113 66 -112 230v268q0 57 -34 84.5t-87 27.5h-29v238h162q182 0 273.5 -85t91.5 -243v-286q0 -61 22.5 -86t81.5 -25h20v-236h-20q-59 0 -81.5 -25.5t-22.5 -86.5v-305q0 -158 -91.5 -243t-273.5 -85h-162v238z" />
<glyph unicode="~" horiz-adv-x="1136" d="M51 451q0 378 295 378q61 0 106.5 -13t110.5 -40q45 -20 78 -30.5t70 -10.5q88 0 88 94h286q0 -195 -69.5 -286.5t-216.5 -91.5q-76 0 -130.5 15t-113.5 42q-43 18 -69.5 27.5t-57.5 9.5q-43 0 -66.5 -24.5t-23.5 -69.5h-287z" />
<glyph unicode="&#xa1;" horiz-adv-x="509" d="M51 741v273h408v-273h-408zM57 -311l15 860h366l15 -860h-396z" />
<glyph unicode="&#xa2;" horiz-adv-x="1081" d="M31 477q0 211 96 340t272 174v176h338v-163q88 -12 158 -44t143 -90v-254h-313v111q-25 18 -54.5 25.5t-72.5 7.5q-88 0 -139 -71t-51 -212q0 -133 64.5 -192.5t201.5 -59.5q162 0 260 74l117 -193q-78 -61 -147.5 -90.5t-166.5 -40.5v-159h-338v178q-170 45 -269 168 t-99 315z" />
<glyph unicode="&#xa3;" horiz-adv-x="1075" d="M51 666v237h152v92q0 174 112.5 267.5t343.5 93.5q129 0 231.5 -32t174.5 -87v-217h-293v65q-29 43 -86 43q-100 0 -100 -96v-129h317v-237h-317v-312q0 -76 -39 -112h518v-242h-1010v242h60q47 0 67.5 19.5t20.5 66.5v338h-152z" />
<glyph unicode="&#xa4;" horiz-adv-x="1323" d="M51 1057l213 219l187 -172q102 49 211 49t210 -49l189 172l211 -219l-185 -170q47 -94 48 -207q0 -123 -62 -234l182 -163l-213 -222l-200 183q-86 -35 -180 -35q-96 0 -183 35l-198 -183l-211 222l180 163q-59 106 -60 234q0 106 46 207zM485 680q0 -74 51.5 -125 t125.5 -51q73 0 125.5 51t52.5 125t-52.5 126t-125.5 52q-74 0 -125.5 -52t-51.5 -126z" />
<glyph unicode="&#xa5;" d="M31 1090v235h592v-235h-58l125 -308l117 308h-57v235h591v-235h-45q-61 0 -91.5 -20.5t-61.5 -76.5l-115 -211h74v-204h-832v204h72l-115 213q-31 55 -60.5 75t-90.5 20h-45zM270 313v205h832v-205h-228q0 -76 84 -75h43v-238h-630v238h43q82 0 84 75h-228z" />
<glyph unicode="&#xa6;" horiz-adv-x="479" d="M51 -246v760h377v-760h-377zM51 809v762h377v-762h-377z" />
<glyph unicode="&#xa7;" horiz-adv-x="1097" d="M10 115h381v-158q68 -37 172 -37q76 0 113 30t37 95q0 45 -28 76t-75 54.5t-161 72.5q-152 66 -242 124t-138.5 134t-48.5 184q0 117 68 191q-68 80 -68 200q0 184 154 280.5t389 96.5q174 0 291 -49t211 -135v-230h-381v140q-59 35 -141 35q-147 0 -148 -123 q0 -53 33 -89t75 -56.5t136 -59.5q186 -78 271 -125t131 -119t46 -190q0 -111 -65 -189q35 -39 50 -88t15 -114q0 -111 -60 -198t-179 -137t-285 -50q-338 0 -553 178v256zM365 682q0 -39 17 -62.5t53 -42t132 -63.5q37 -16 92.5 -37.5t88.5 -32.5q2 43 -40 72t-161 84 q-23 8 -39 18q-66 31 -143 64z" />
<glyph unicode="&#xa8;" horiz-adv-x="911" d="M51 1047v280h254v-280h-254zM604 1047v280h256v-280h-256z" />
<glyph unicode="&#xa9;" horiz-adv-x="1566" d="M51 707q0 199 98.5 367.5t266.5 267t366 98.5q199 0 368 -98.5t267.5 -267.5t98.5 -367q0 -199 -98.5 -367t-267.5 -266.5t-368 -98.5q-198 0 -366 98.5t-266.5 266.5t-98.5 367zM276 707q0 -147 61.5 -267.5t176.5 -190t268 -69.5q154 0 268.5 69.5t177 189.5t62.5 268 q0 147 -62.5 268t-177 190.5t-268.5 69.5t-268.5 -69.5t-176 -190.5t-61.5 -268zM332 692q0 221 123 348t325 127q123 0 195 -27.5t155 -97.5v-204h-253v90q-25 16 -46.5 24.5t-52.5 8.5q-68 0 -104.5 -70t-36.5 -199q0 -121 46 -185.5t151 -64.5q61 0 120.5 29t96.5 74 l92 -156q-133 -156 -363 -156q-123 0 -225 58.5t-162.5 163t-60.5 237.5z" />
<glyph unicode="&#xaa;" horiz-adv-x="784" d="M51 868q0 197 264 215l115 9v59q0 59 -59 59q-35 0 -60 -26v-45h-202v139q123 78 274 78q145 0 219 -63.5t74 -168.5v-225q0 -45 41 -45h16v-147h-186l-23 73q-49 -55 -99 -74.5t-140 -19.5q-115 0 -174.5 48t-59.5 134zM272 891q0 -27 17.5 -42t50.5 -15q90 -1 90 81v46 l-88 -9q-70 -6 -70 -61z" />
<glyph unicode="&#xab;" horiz-adv-x="1351" d="M51 610v117l703 584v-373l-314 -270l314 -269v-374zM598 610v117l702 584v-373l-313 -270l313 -269v-374z" />
<glyph unicode="&#xac;" horiz-adv-x="1013" d="M51 512v238h912v-488h-291v250h-621z" />
<glyph unicode="&#xad;" horiz-adv-x="749" d="M51 494v239h647v-239h-647z" />
<glyph unicode="&#xae;" horiz-adv-x="1566" d="M51 707q0 199 98.5 367.5t266.5 267t366 98.5q199 0 368 -98.5t267.5 -267.5t98.5 -367q0 -199 -98.5 -367t-267.5 -266.5t-368 -98.5q-198 0 -366 98.5t-266.5 266.5t-98.5 367zM276 707q0 -147 61.5 -267.5t176.5 -190t268 -69.5q154 0 268.5 69.5t177 189.5t62.5 268 q0 147 -62.5 268t-177 190.5t-268.5 69.5t-268.5 -69.5t-176 -190.5t-61.5 -268zM424 340v172h10q29 0 40 12.5t11 46.5v279q0 35 -11 47t-40 12h-10v176h407q143 0 226.5 -61t83.5 -170q0 -152 -115 -207l51 -96q16 -25 28.5 -32t33.5 -7h16v-172h-352v172h37l-56 106h-59 v-47q0 -35 8 -47t33 -12h14v-172h-356zM764 784h57q43 0 43 62q0 63 -43 63h-57v-125z" />
<glyph unicode="&#xaf;" horiz-adv-x="866" d="M51 1071v215h764v-215h-764z" />
<glyph unicode="&#xb0;" horiz-adv-x="675" d="M51 1102q0 78 39 144.5t104.5 105.5t141.5 39q78 0 144.5 -39t105.5 -105.5t39 -144.5q0 -76 -39 -141.5t-105.5 -104.5t-144.5 -39q-76 0 -141.5 39t-104.5 104.5t-39 141.5zM260 1104q0 -33 22.5 -55.5t55.5 -22.5q35 0 56.5 22.5t21.5 55.5q0 35 -21.5 56.5 t-56.5 21.5q-33 0 -55.5 -21.5t-22.5 -56.5z" />
<glyph unicode="&#xb1;" horiz-adv-x="847" d="M51 25v237h746v-237h-746zM51 557v238h225v202h291v-202h230v-238h-230v-203h-291v203h-225z" />
<glyph unicode="&#xb2;" horiz-adv-x="669" d="M51 707v63q0 90 40 142.5t147 115.5q70 41 98.5 67.5t28.5 63.5q0 51 -52 51q-27 0 -43 -10v-65h-219v147q49 33 132 53.5t155 20.5q127 0 202.5 -47t75.5 -142q0 -72 -29.5 -112.5t-113.5 -91.5l-49 -28t-52.5 -36t-17.5 -29h264v-163h-567z" />
<glyph unicode="&#xb3;" horiz-adv-x="692" d="M51 770v143h213v-69q25 -12 64 -13q37 0 53 14.5t16 47.5q0 37 -16 51t-55 14h-68v146h68q35 0 50 12t15 47q0 25 -13 36t-48 11q-29 0 -54 -10v-59h-213v139q41 31 113 53.5t152 22.5q158 0 231.5 -48t73.5 -132q0 -106 -78 -144q86 -37 86 -133q0 -104 -68.5 -158.5 t-238.5 -54.5q-174 0 -283 84z" />
<glyph unicode="&#xb4;" horiz-adv-x="679" d="M51 1022l178 416h400l-258 -416h-320z" />
<glyph unicode="&#xb6;" horiz-adv-x="1456" d="M51 934q0 186 111.5 288.5t333.5 102.5h909v-233h-43q-82 0 -82 -82v-1008q0 -82 82 -82h43v-239h-504v1411h-113v-1411h-501v239h43q82 0 82 82v584q-109 0 -191 48t-126 127t-44 173z" />
<glyph unicode="&#xb7;" horiz-adv-x="364" d="M51 510v238h262v-238h-262z" />
<glyph unicode="&#xb8;" horiz-adv-x="661" d="M51 -231q76 -41 172 -41q63 0 64 39q0 39 -39 57t-148 18l23 158h348l-12 -74q152 -33 151 -178q0 -215 -340 -215q-67 0 -117.5 9t-101.5 32v195z" />
<glyph unicode="&#xb9;" horiz-adv-x="536" d="M31 1227l190 119h185v-437q0 -20 9 -29.5t29 -9.5h62v-163h-426v163h61q41 0 41 39v219l-67 -41z" />
<glyph unicode="&#xba;" horiz-adv-x="796" d="M51 1020q0 166 90 251t258 85t257 -85t89 -251q0 -164 -91 -249t-255 -85q-166 0 -257 85t-91 249zM295 1020q0 -96 22.5 -137t81.5 -41q58 0 81.5 41t23.5 137q0 98 -23.5 139t-81.5 41q-59 0 -81.5 -41t-22.5 -139z" />
<glyph unicode="&#xbb;" horiz-adv-x="1351" d="M51 25v374l314 269l-314 270v373l703 -584v-117zM598 25v374l313 269l-313 270v373l702 -584v-117z" />
<glyph unicode="&#xbc;" horiz-adv-x="1366" d="M51 1227l191 119h184v-437q0 -20 9 -29.5t30 -9.5h61v-163h-426v163h62q41 0 41 39v219l-68 -41zM166 0l772 1325h342l-772 -1325h-342zM733 182v127l254 330h238v-315h90v-142h-90v-14q0 -39 41 -39h26v-129h-354v129h27q41 0 41 39v14h-273zM950 324h88v112z" />
<glyph unicode="&#xbd;" horiz-adv-x="1497" d="M51 1227l191 119h184v-437q0 -20 9 -29.5t30 -9.5h61v-163h-426v163h62q41 0 41 39v219l-68 -41zM166 0l772 1325h342l-772 -1325h-342zM879 0v63q0 90 39.5 142.5t146.5 116.5q70 41 98.5 67.5t28.5 63.5q0 51 -51 51q-27 0 -43 -10v-66h-219v147q49 33 132 53.5 t154 20.5q127 0 203 -47t76 -141q0 -72 -30 -113t-114 -92q-14 -8 -48.5 -27.5t-52 -36t-17.5 -28.5h264v-164h-567z" />
<glyph unicode="&#xbe;" horiz-adv-x="1392" d="M51 770v143h213v-69q25 -12 64 -13q37 0 53 14.5t16 47.5q0 37 -16 51t-55 14h-68v146h68q35 0 50 12t15 47q0 25 -13 36t-48 11q-29 0 -54 -10v-59h-213v139q41 31 113 53.5t152 22.5q158 0 231.5 -48t73.5 -132q0 -106 -78 -144q86 -37 86 -133q0 -104 -68.5 -158.5 t-238.5 -54.5q-174 0 -283 84zM193 0l772 1325h342l-772 -1325h-342zM760 182v127l254 330h237v-315h90v-142h-90v-14q0 -39 41 -39h27v-129h-354v129h26q41 0 41 39v14h-272zM977 324h88v112z" />
<glyph unicode="&#xbf;" horiz-adv-x="1140" d="M51 31q0 86 31 146.5t87 107.5t157 108q57 35 83.5 67t36 69.5t9.5 103.5v37h379v-56q0 -127 -57.5 -221t-190.5 -172q-82 -47 -122 -88t-40 -102q0 -133 166 -133q78 0 170 36v129h330v-249q-96 -72 -225.5 -114t-286.5 -42q-259 0 -393 93t-134 280zM440 741v273h408 v-273h-408z" />
<glyph unicode="&#xc0;" horiz-adv-x="1458" d="M31 0v238h49q57 0 78.5 12t38.5 57l350 1018h371l344 -1018q16 -45 37.5 -57t78.5 -12h49v-238h-598v238h78l-43 149h-266l-45 -149h78v-238h-600zM344 1800h401l148 -373h-320zM653 573h158l-76 273z" />
<glyph unicode="&#xc1;" horiz-adv-x="1458" d="M31 0v238h49q57 0 78.5 12t38.5 57l350 1018h371l344 -1018q16 -45 37.5 -57t78.5 -12h49v-238h-598v238h78l-43 149h-266l-45 -149h78v-238h-600zM555 1427l145 373h402l-230 -373h-317zM653 573h158l-76 273z" />
<glyph unicode="&#xc2;" horiz-adv-x="1458" d="M31 0v238h49q57 0 78.5 12t38.5 57l350 1018h371l344 -1018q16 -45 37.5 -57t78.5 -12h49v-238h-598v238h78l-43 149h-266l-45 -149h78v-238h-600zM293 1427l289 416h315l287 -416h-334l-113 220l-116 -220h-328zM653 573h158l-76 273z" />
<glyph unicode="&#xc3;" horiz-adv-x="1458" d="M31 0v238h49q57 0 78.5 12t38.5 57l350 1018h371l344 -1018q16 -45 37.5 -57t78.5 -12h49v-238h-598v238h78l-43 149h-266l-45 -149h78v-238h-600zM276 1427q0 195 65 287t210 92q57 0 99 -15t93 -42q6 -4 30 -15.5t43.5 -16.5t37.5 -5q88 0 88 94h256q0 -199 -60.5 -289 t-205.5 -90q-61 0 -105.5 15.5t-97.5 42.5q-33 18 -57.5 27.5t-48.5 9.5q-43 0 -67 -24.5t-24 -70.5h-256zM653 573h158l-76 273z" />
<glyph unicode="&#xc4;" horiz-adv-x="1458" d="M31 0v238h49q57 0 78.5 12t38.5 57l350 1018h371l344 -1018q16 -45 37.5 -57t78.5 -12h49v-238h-598v238h78l-43 149h-266l-45 -149h78v-238h-600zM348 1468v281h262v-281h-262zM653 573h158l-76 273zM860 1468v281h264v-281h-264z" />
<glyph unicode="&#xc5;" horiz-adv-x="1458" d="M31 0v238h49q57 0 78.5 12t38.5 57l346 1004q-57 68 -58 159q0 104 73 177t177 73t177 -72.5t73 -177.5q0 -96 -61 -163l338 -1000q16 -45 37.5 -57t78.5 -12h49v-238h-598v238h78l-43 149h-266l-45 -149h78v-238h-600zM653 573h158l-76 273zM662 1470q0 -31 21.5 -52 t51.5 -21q31 0 52.5 21.5t21.5 51.5q0 31 -21.5 52.5t-52.5 21.5q-30 0 -51.5 -21.5t-21.5 -52.5z" />
<glyph unicode="&#xc6;" horiz-adv-x="1679" d="M31 0v238h49q57 0 78.5 12t38.5 57l350 1018h1102v-344h-344v27q0 80 -84 79h-127v-307h235v-237h-235v-305h127q84 0 84 81v25h344v-344h-914v387h-137l-45 -149h78v-238h-600zM653 573h82v316z" />
<glyph unicode="&#xc7;" horiz-adv-x="1257" d="M31 651q0 317 169 511t511 194q172 0 287.5 -31t211.5 -100v-283h-379v162q-53 12 -120 12q-152 0 -230 -122t-78 -343q0 -217 89.5 -329.5t281.5 -112.5q96 0 172 20.5t156 75.5l125 -201q-90 -63 -170 -91.5t-183 -39.5l-8 -47q152 -33 152 -178q0 -215 -340 -215 q-68 0 -118 9t-101 32v195q78 -41 172 -41q63 0 63 39t-39 57t-147 18l20 150q-244 55 -370.5 229t-126.5 430z" />
<glyph unicode="&#xc8;" horiz-adv-x="1122" d="M31 0v238h43q84 0 84 81v691q0 76 -84 75h-43v240h1061v-344h-344v27q0 80 -84 79h-127v-307h235v-237h-235v-305h127q84 0 84 81v25h344v-344h-1061zM180 1800h402l147 -373h-319z" />
<glyph unicode="&#xc9;" horiz-adv-x="1122" d="M31 0v238h43q84 0 84 81v691q0 76 -84 75h-43v240h1061v-344h-344v27q0 80 -84 79h-127v-307h235v-237h-235v-305h127q84 0 84 81v25h344v-344h-1061zM360 1427l146 373h401l-229 -373h-318z" />
<glyph unicode="&#xca;" horiz-adv-x="1122" d="M31 0v238h43q84 0 84 81v691q0 76 -84 75h-43v240h1061v-344h-344v27q0 80 -84 79h-127v-307h235v-237h-235v-305h127q84 0 84 81v25h344v-344h-1061zM72 1427l288 416h316l287 -416h-334l-113 220l-117 -220h-327z" />
<glyph unicode="&#xcb;" horiz-adv-x="1122" d="M31 0v238h43q84 0 84 81v691q0 76 -84 75h-43v240h1061v-344h-344v27q0 80 -84 79h-127v-307h235v-237h-235v-305h127q84 0 84 81v25h344v-344h-1061zM133 1468v281h262v-281h-262zM645 1468v281h264v-281h-264z" />
<glyph unicode="&#xcc;" horiz-adv-x="690" d="M-31 1798h402l147 -373h-319zM31 0v238h41q45 0 64.5 20.5t19.5 60.5v691q0 76 -84 75h-41v240h628v-240h-41q-84 0 -83 -75v-697q0 -76 83 -75h41v-238h-628z" />
<glyph unicode="&#xcd;" horiz-adv-x="690" d="M31 0v238h41q45 0 64.5 20.5t19.5 60.5v691q0 76 -84 75h-41v240h628v-240h-41q-84 0 -83 -75v-697q0 -76 83 -75h41v-238h-628zM184 1427l146 373h401l-229 -373h-318z" />
<glyph unicode="&#xce;" horiz-adv-x="690" d="M-98 1427l288 416h316l287 -416h-334l-113 220l-117 -220h-327zM31 0v238h41q45 0 64.5 20.5t19.5 60.5v691q0 76 -84 75h-41v240h628v-240h-41q-84 0 -83 -75v-697q0 -76 83 -75h41v-238h-628z" />
<glyph unicode="&#xcf;" horiz-adv-x="690" d="M-43 1468v281h262v-281h-262zM31 0v238h41q45 0 64.5 20.5t19.5 60.5v691q0 76 -84 75h-41v240h628v-240h-41q-84 0 -83 -75v-697q0 -76 83 -75h41v-238h-628zM469 1468v281h264v-281h-264z" />
<glyph unicode="&#xd0;" horiz-adv-x="1310" d="M31 0v238h43q84 0 84 81v220h-127v239h127v232q0 76 -84 75h-43v240h663q293 0 439.5 -170t146.5 -498q0 -186 -65.5 -334.5t-197.5 -235.5t-323 -87h-663zM537 238h100q152 0 210 103t58 316q0 219 -58.5 324.5t-209.5 105.5h-100v-309h211v-239h-211v-301z" />
<glyph unicode="&#xd1;" horiz-adv-x="1429" d="M31 0v240h43q82 0 82 75v695q0 76 -82 75h-43v240h401l465 -725v410q0 76 -84 75h-43v240h629v-240h-43q-84 0 -84 -75v-1010h-277l-463 717v-402q0 -35 21.5 -55t62.5 -20h43v-240h-628zM227 1427q0 195 64.5 287t210.5 92q57 0 99 -15t93 -42q6 -4 30 -15.5t43 -16.5 t38 -5q88 0 88 94h256q0 -199 -60.5 -289t-205.5 -90q-61 0 -105.5 15.5t-97.5 42.5q-33 18 -57.5 27.5t-49.5 9.5q-43 0 -66.5 -24.5t-23.5 -70.5h-256z" />
<glyph unicode="&#xd2;" d="M31 657q0 352 157.5 525.5t497.5 173.5t497.5 -173t157.5 -526q0 -346 -161.5 -517t-493.5 -171t-493.5 171t-161.5 517zM317 1800h402l147 -373h-319zM406 657q0 -166 27.5 -263t88 -141t164.5 -44q105 0 165 44t88 141.5t28 262.5q0 172 -28 271.5t-88 143.5t-165 44 q-104 0 -164.5 -44t-88 -143.5t-27.5 -271.5z" />
<glyph unicode="&#xd3;" d="M31 657q0 352 157.5 525.5t497.5 173.5t497.5 -173t157.5 -526q0 -346 -161.5 -517t-493.5 -171t-493.5 171t-161.5 517zM406 657q0 -166 27.5 -263t88 -141t164.5 -44q105 0 165 44t88 141.5t28 262.5q0 172 -28 271.5t-88 143.5t-165 44q-104 0 -164.5 -44t-88 -143.5 t-27.5 -271.5zM510 1427l145 373h402l-230 -373h-317z" />
<glyph unicode="&#xd4;" d="M31 657q0 352 157.5 525.5t497.5 173.5t497.5 -173t157.5 -526q0 -346 -161.5 -517t-493.5 -171t-493.5 171t-161.5 517zM242 1427l288 416h316l287 -416h-334l-113 220l-117 -220h-327zM406 657q0 -166 27.5 -263t88 -141t164.5 -44q105 0 165 44t88 141.5t28 262.5 q0 172 -28 271.5t-88 143.5t-165 44q-104 0 -164.5 -44t-88 -143.5t-27.5 -271.5z" />
<glyph unicode="&#xd5;" d="M31 657q0 352 157.5 525.5t497.5 173.5t497.5 -173t157.5 -526q0 -346 -161.5 -517t-493.5 -171t-493.5 171t-161.5 517zM225 1427q0 195 64.5 287t210.5 92q57 0 99 -15t93 -42q6 -4 29.5 -15.5t43 -16.5t38.5 -5q88 0 88 94h256q0 -199 -60.5 -289t-205.5 -90 q-61 0 -105.5 15.5t-97.5 42.5q-33 18 -57.5 27.5t-49.5 9.5q-43 0 -66.5 -24.5t-23.5 -70.5h-256zM406 657q0 -166 27.5 -263t88 -141t164.5 -44q105 0 165 44t88 141.5t28 262.5q0 172 -28 271.5t-88 143.5t-165 44q-104 0 -164.5 -44t-88 -143.5t-27.5 -271.5z" />
<glyph unicode="&#xd6;" d="M31 657q0 352 157.5 525.5t497.5 173.5t497.5 -173t157.5 -526q0 -346 -161.5 -517t-493.5 -171t-493.5 171t-161.5 517zM297 1468v281h262v-281h-262zM406 657q0 -166 27.5 -263t88 -141t164.5 -44q105 0 165 44t88 141.5t28 262.5q0 172 -28 271.5t-88 143.5t-165 44 q-104 0 -164.5 -44t-88 -143.5t-27.5 -271.5zM809 1468v281h264v-281h-264z" />
<glyph unicode="&#xd7;" horiz-adv-x="802" d="M51 473l162 162l-162 164l189 184l161 -162l162 162l189 -184l-164 -164l164 -162l-189 -188l-162 161l-161 -161z" />
<glyph unicode="&#xd8;" d="M31 657q0 352 157.5 525.5t497.5 173.5q82 0 174 -15l27 70h117l-35 -94q190 -63 281 -227t91 -433q0 -346 -161.5 -517t-493.5 -171q-121 0 -209 21l-28 -78h-119l41 108q-172 70 -256 228t-84 409zM406 657q0 -133 15 -219t52 -137l301 805q-45 10 -88 10 q-104 0 -164.5 -44t-88 -143.5t-27.5 -271.5zM565 227q53 -18 121 -18q105 0 165 44t88 141.5t28 262.5q0 156 -22.5 252.5t-74.5 145.5z" />
<glyph unicode="&#xd9;" horiz-adv-x="1392" d="M10 1085v240h608v-240h-20q-43 0 -63.5 -19t-20.5 -62v-627q0 -90 45 -129t137 -39t136.5 39t44.5 129v627q0 41 -19.5 61t-62.5 20h-23v240h610v-240h-43q-84 0 -84 -75v-621q0 -197 -140 -308.5t-419 -111.5q-280 0 -420.5 112t-140.5 308v621q0 76 -84 75h-41z M274 1800h402l147 -373h-319z" />
<glyph unicode="&#xda;" horiz-adv-x="1392" d="M10 1085v240h608v-240h-20q-43 0 -63.5 -19t-20.5 -62v-627q0 -90 45 -129t137 -39t136.5 39t44.5 129v627q0 41 -19.5 61t-62.5 20h-23v240h610v-240h-43q-84 0 -84 -75v-621q0 -197 -140 -308.5t-419 -111.5q-280 0 -420.5 112t-140.5 308v621q0 76 -84 75h-41z M514 1427l145 373h402l-230 -373h-317z" />
<glyph unicode="&#xdb;" horiz-adv-x="1392" d="M10 1085v240h608v-240h-20q-43 0 -63.5 -19t-20.5 -62v-627q0 -90 45 -129t137 -39t136.5 39t44.5 129v627q0 41 -19.5 61t-62.5 20h-23v240h610v-240h-43q-84 0 -84 -75v-621q0 -197 -140 -308.5t-419 -111.5q-280 0 -420.5 112t-140.5 308v621q0 76 -84 75h-41z M250 1427l289 416h315l287 -416h-334l-113 220l-116 -220h-328z" />
<glyph unicode="&#xdc;" horiz-adv-x="1392" d="M10 1085v240h608v-240h-20q-43 0 -63.5 -19t-20.5 -62v-627q0 -90 45 -129t137 -39t136.5 39t44.5 129v627q0 41 -19.5 61t-62.5 20h-23v240h610v-240h-43q-84 0 -84 -75v-621q0 -197 -140 -308.5t-419 -111.5q-280 0 -420.5 112t-140.5 308v621q0 76 -84 75h-41z M309 1468v281h262v-281h-262zM821 1468v281h264v-281h-264z" />
<glyph unicode="&#xdd;" d="M31 1090v235h592v-235h-58l125 -291l117 291h-57v235h591v-235h-45q-61 0 -91.5 -20.5t-61.5 -76.5l-269 -497v-183q0 -76 84 -75h43v-238h-630v238h43q84 0 84 81v179l-271 497q-31 55 -60.5 75t-90.5 20h-45zM494 1427l145 373h401l-229 -373h-317z" />
<glyph unicode="&#xde;" horiz-adv-x="1296" d="M31 0v238h41q84 0 84 75v699q0 76 -84 75h-41v238h504v-143h231q236 0 368 -108.5t132 -321.5t-134.5 -329t-367.5 -116h-229q0 -35 19 -52t64 -17h41v-238h-628zM535 547h178q94 0 136 49t42 156q0 106 -41 148t-137 42h-178v-395z" />
<glyph unicode="&#xdf;" horiz-adv-x="1343" d="M31 0v238h43q84 0 84 81v695q0 203 141 323.5t418 120.5q289 0 428 -115.5t139 -314.5q0 -106 -37 -192t-114 -127q98 -51 139 -128t41 -184q0 -199 -113 -313.5t-344 -114.5q-70 0 -140.5 17.5t-117.5 50.5l117 192q47 -35 108 -34q53 0 84 50t31 154q0 100 -46 147.5 t-153 47.5h-100v223h94q96 0 136 49t40 162q0 102 -47 146.5t-137 44.5q-80 0 -135 -42t-55 -133v-1044h-504z" />
<glyph unicode="&#xe0;" horiz-adv-x="1085" d="M10 252q0 154 103.5 230.5t308.5 90.5l180 13v108q0 90 -94 90q-53 0 -92 -41v-67h-316v217q195 121 428 121q227 0 342 -98.5t115 -262.5v-352q0 -72 66 -72h24v-229h-293l-30 137q-78 -92 -160 -130t-217 -38q-182 0 -273.5 75t-91.5 208zM160 1438h401l148 -373h-320z M354 287q0 -41 28 -64.5t79 -23.5q141 0 141 127v69l-137 -12q-111 -8 -111 -96z" />
<glyph unicode="&#xe1;" horiz-adv-x="1085" d="M10 252q0 154 103.5 230.5t308.5 90.5l180 13v108q0 90 -94 90q-53 0 -92 -41v-67h-316v217q195 121 428 121q227 0 342 -98.5t115 -262.5v-352q0 -72 66 -72h24v-229h-293l-30 137q-78 -92 -160 -130t-217 -38q-182 0 -273.5 75t-91.5 208zM338 1065l145 373h402 l-230 -373h-317zM354 287q0 -41 28 -64.5t79 -23.5q141 0 141 127v69l-137 -12q-111 -8 -111 -96z" />
<glyph unicode="&#xe2;" horiz-adv-x="1085" d="M10 252q0 154 103.5 230.5t308.5 90.5l180 13v108q0 90 -94 90q-53 0 -92 -41v-67h-316v217q195 121 428 121q227 0 342 -98.5t115 -262.5v-352q0 -72 66 -72h24v-229h-293l-30 137q-78 -92 -160 -130t-217 -38q-182 0 -273.5 75t-91.5 208zM66 1065l288 416h316 l286 -416h-333l-113 219l-117 -219h-327zM354 287q0 -41 28 -64.5t79 -23.5q141 0 141 127v69l-137 -12q-111 -8 -111 -96z" />
<glyph unicode="&#xe3;" horiz-adv-x="1085" d="M10 252q0 154 103.5 230.5t308.5 90.5l180 13v108q0 90 -94 90q-53 0 -92 -41v-67h-316v217q195 121 428 121q227 0 342 -98.5t115 -262.5v-352q0 -72 66 -72h24v-229h-293l-30 137q-78 -92 -160 -130t-217 -38q-182 0 -273.5 75t-91.5 208zM94 1065q0 195 64.5 287 t210.5 92q57 0 99 -15.5t93 -42.5q6 -4 29.5 -15t43 -16t38.5 -5q88 0 88 94h256q0 -199 -60.5 -289t-205.5 -90q-61 0 -105.5 15.5t-97.5 41.5q-33 18 -57.5 27.5t-49.5 9.5q-43 0 -66.5 -24.5t-23.5 -69.5h-256zM354 287q0 -41 28 -64.5t79 -23.5q141 0 141 127v69 l-137 -12q-111 -8 -111 -96z" />
<glyph unicode="&#xe4;" horiz-adv-x="1085" d="M10 252q0 154 103.5 230.5t308.5 90.5l180 13v108q0 90 -94 90q-53 0 -92 -41v-67h-316v217q195 121 428 121q227 0 342 -98.5t115 -262.5v-352q0 -72 66 -72h24v-229h-293l-30 137q-78 -92 -160 -130t-217 -38q-182 0 -273.5 75t-91.5 208zM158 1106v280h262v-280h-262z M354 287q0 -41 28 -64.5t79 -23.5q141 0 141 127v69l-137 -12q-111 -8 -111 -96zM670 1106v280h264v-280h-264z" />
<glyph unicode="&#xe5;" horiz-adv-x="1085" d="M10 252q0 154 103.5 230.5t308.5 90.5l180 13v108q0 90 -94 90q-53 0 -92 -41v-67h-316v217q195 121 428 121q227 0 342 -98.5t115 -262.5v-352q0 -72 66 -72h24v-229h-293l-30 137q-78 -92 -160 -130t-217 -38q-182 0 -273.5 75t-91.5 208zM301 1315q0 104 72.5 177 t177.5 73q104 0 177 -73t73 -177t-73 -177t-177 -73q-105 0 -177.5 72.5t-72.5 177.5zM354 287q0 -41 28 -64.5t79 -23.5q141 0 141 127v69l-137 -12q-111 -8 -111 -96zM477 1315q0 -31 21.5 -52.5t52.5 -21.5t52.5 21.5t21.5 52.5t-21.5 52.5t-52.5 21.5t-52.5 -21.5 t-21.5 -52.5z" />
<glyph unicode="&#xe6;" horiz-adv-x="1693" d="M10 252q0 154 103.5 230.5t308.5 90.5l180 13v108q0 90 -94 90q-53 0 -92 -41v-67h-316v217q195 121 418 121q100 0 173 -25.5t126 -85.5q51 51 146.5 81t193.5 30q252 0 379 -135.5t127 -364.5v-98h-666q0 -121 46.5 -172t148.5 -51q76 0 135 26v82h301v-182 q-137 -150 -442 -150q-270 0 -369 150q-72 -78 -176 -114t-266 -36q-182 0 -273.5 75t-91.5 208zM354 287q0 -41 28 -64.5t79 -23.5q141 0 141 127v69l-137 -12q-111 -8 -111 -96zM997 612h301q0 176 -149 176q-76 0 -114 -43t-38 -133z" />
<glyph unicode="&#xe7;" horiz-adv-x="1081" d="M31 477q0 268 150.5 402.5t418.5 134.5q145 0 243.5 -34t194.5 -110v-254h-313v111q-25 18 -54.5 25.5t-72.5 7.5q-88 0 -139 -71t-51 -212q0 -133 64.5 -192.5t201.5 -59.5q162 0 260 74l117 -193q-72 -55 -136.5 -83.5t-146.5 -42.5l-8 -54q151 -33 151 -178 q0 -215 -340 -215q-68 0 -118 9t-101 32v195q78 -41 172 -41q63 0 64 39q0 39 -39 57t-148 18l21 146q-178 41 -284.5 167t-106.5 322z" />
<glyph unicode="&#xe8;" horiz-adv-x="1118" d="M31 485q0 268 139 398.5t399 130.5q254 0 386 -136.5t132 -363.5v-98h-677q0 -123 43 -174.5t151 -51.5q76 0 135 27v82h314v-182q-80 -74 -188.5 -112t-266.5 -38q-268 0 -417.5 131t-149.5 387zM254 1438h401l148 -373h-320zM410 612h301q0 84 -40 130t-110 46 q-74 0 -112.5 -46t-38.5 -130z" />
<glyph unicode="&#xe9;" horiz-adv-x="1118" d="M31 485q0 268 139 398.5t399 130.5q254 0 386 -136.5t132 -363.5v-98h-677q0 -123 43 -174.5t151 -51.5q76 0 135 27v82h314v-182q-80 -74 -188.5 -112t-266.5 -38q-268 0 -417.5 131t-149.5 387zM379 1065l145 373h402l-230 -373h-317zM410 612h301q0 84 -40 130 t-110 46q-74 0 -112.5 -46t-38.5 -130z" />
<glyph unicode="&#xea;" horiz-adv-x="1118" d="M31 485q0 268 139 398.5t399 130.5q254 0 386 -136.5t132 -363.5v-98h-677q0 -123 43 -174.5t151 -51.5q76 0 135 27v82h314v-182q-80 -74 -188.5 -112t-266.5 -38q-268 0 -417.5 131t-149.5 387zM125 1065l289 416h315l287 -416h-334l-113 219l-116 -219h-328zM410 612 h301q0 84 -40 130t-110 46q-74 0 -112.5 -46t-38.5 -130z" />
<glyph unicode="&#xeb;" horiz-adv-x="1118" d="M31 485q0 268 139 398.5t399 130.5q254 0 386 -136.5t132 -363.5v-98h-677q0 -123 43 -174.5t151 -51.5q76 0 135 27v82h314v-182q-80 -74 -188.5 -112t-266.5 -38q-268 0 -417.5 131t-149.5 387zM182 1065v281h262v-281h-262zM410 612h301q0 84 -40 130t-110 46 q-74 0 -112.5 -46t-38.5 -130zM694 1065v281h264v-281h-264z" />
<glyph unicode="&#xec;" horiz-adv-x="659" d="M-23 1438h402l147 -373h-319zM10 0v242h43q45 0 64.5 20.5t19.5 61.5v338q0 78 -84 77h-43v244h512v-664q0 -78 84 -77h43v-242h-639z" />
<glyph unicode="&#xed;" horiz-adv-x="659" d="M10 0v242h43q45 0 64.5 20.5t19.5 61.5v338q0 78 -84 77h-43v244h512v-664q0 -78 84 -77h43v-242h-639zM84 1065l145 373h402l-230 -373h-317z" />
<glyph unicode="&#xee;" horiz-adv-x="659" d="M-145 1065l288 416h316l286 -416h-333l-113 219l-117 -219h-327zM10 0v242h43q45 0 64.5 20.5t19.5 61.5v338q0 78 -84 77h-43v244h512v-664q0 -78 84 -77h43v-242h-639z" />
<glyph unicode="&#xef;" horiz-adv-x="659" d="M-88 1106v280h262v-280h-262zM10 0v242h43q45 0 64.5 20.5t19.5 61.5v338q0 78 -84 77h-43v244h512v-664q0 -78 84 -77h43v-242h-639zM424 1106v280h264v-280h-264z" />
<glyph unicode="&#xf0;" horiz-adv-x="1220" d="M31 444q0 166 72.5 289t203.5 189.5t305 66.5q141 0 197 -35q-14 92 -76 131l-147 -84l-39 82l57 33q-80 0 -141.5 -17.5t-140.5 -62.5l-101 205q197 115 445 115q150 0 262 -53l164 94l36 -86l-112 -64q174 -150 174 -489q0 -346 -146.5 -567.5t-490.5 -221.5 q-240 0 -381 113t-141 362zM406 399q0 -66 9 -104.5t44 -62t104 -23.5q107 0 163 92t56 272q0 74 -16 112t-48 51.5t-87 13.5q-225 0 -225 -351z" />
<glyph unicode="&#xf1;" horiz-adv-x="1255" d="M31 0v242h20q86 0 86 77v340q0 78 -80 78h-26v246h344l14 -131q133 162 377 162q184 0 270 -89t86 -259v-347q0 -78 84 -77h39v-242h-508v664q0 63 -26.5 91.5t-79.5 28.5q-57 0 -84 -27.5t-27 -92.5v-345q0 -39 15.5 -58t54.5 -19h26v-242h-585zM117 1065 q0 195 64.5 287t209.5 92q57 0 99 -15.5t94 -42.5q6 -4 29.5 -15t43 -16t37.5 -5q88 0 88 94h256q0 -199 -60 -289t-206 -90q-61 0 -105 15.5t-98 41.5q-33 18 -57.5 27.5t-48.5 9.5q-43 0 -66.5 -24.5t-23.5 -69.5h-256z" />
<glyph unicode="&#xf2;" horiz-adv-x="1142" d="M31 492q0 258 139 390t403 132q262 0 400.5 -132t138.5 -390q0 -256 -141.5 -389.5t-397.5 -133.5q-258 0 -400 133.5t-142 389.5zM217 1438h401l148 -373h-320zM412 492q0 -152 34.5 -215.5t126.5 -63.5q91 0 126.5 64.5t35.5 214.5q0 152 -35.5 215t-126.5 63 q-92 0 -126.5 -62.5t-34.5 -215.5z" />
<glyph unicode="&#xf3;" horiz-adv-x="1142" d="M31 492q0 258 139 390t403 132q262 0 400.5 -132t138.5 -390q0 -256 -141.5 -389.5t-397.5 -133.5q-258 0 -400 133.5t-142 389.5zM399 1065l146 373h401l-229 -373h-318zM412 492q0 -152 34.5 -215.5t126.5 -63.5q91 0 126.5 64.5t35.5 214.5q0 152 -35.5 215t-126.5 63 q-92 0 -126.5 -62.5t-34.5 -215.5z" />
<glyph unicode="&#xf4;" horiz-adv-x="1142" d="M31 492q0 258 139 390t403 132q262 0 400.5 -132t138.5 -390q0 -256 -141.5 -389.5t-397.5 -133.5q-258 0 -400 133.5t-142 389.5zM129 1065l289 416h315l287 -416h-334l-113 219l-116 -219h-328zM412 492q0 -152 34.5 -215.5t126.5 -63.5q91 0 126.5 64.5t35.5 214.5 q0 152 -35.5 215t-126.5 63q-92 0 -126.5 -62.5t-34.5 -215.5z" />
<glyph unicode="&#xf5;" horiz-adv-x="1142" d="M31 492q0 258 139 390t403 132q262 0 400.5 -132t138.5 -390q0 -256 -141.5 -389.5t-397.5 -133.5q-258 0 -400 133.5t-142 389.5zM113 1065q0 195 64.5 287t209.5 92q57 0 99 -15.5t94 -42.5q6 -4 29.5 -15t43 -16t37.5 -5q88 0 88 94h256q0 -199 -60.5 -289t-205.5 -90 q-61 0 -105.5 15.5t-97.5 41.5q-33 18 -57.5 27.5t-48.5 9.5q-43 0 -66.5 -24.5t-23.5 -69.5h-256zM412 492q0 -152 34.5 -215.5t126.5 -63.5q91 0 126.5 64.5t35.5 214.5q0 152 -35.5 215t-126.5 63q-92 0 -126.5 -62.5t-34.5 -215.5z" />
<glyph unicode="&#xf6;" horiz-adv-x="1142" d="M31 492q0 258 139 390t403 132q262 0 400.5 -132t138.5 -390q0 -256 -141.5 -389.5t-397.5 -133.5q-258 0 -400 133.5t-142 389.5zM186 1106v280h263v-280h-263zM412 492q0 -152 34.5 -215.5t126.5 -63.5q91 0 126.5 64.5t35.5 214.5q0 152 -35.5 215t-126.5 63 q-92 0 -126.5 -62.5t-34.5 -215.5zM698 1106v280h265v-280h-265z" />
<glyph unicode="&#xf7;" horiz-adv-x="847" d="M51 537v196h746v-196h-746zM313 281v206h222v-206h-222zM313 782v207h222v-207h-222z" />
<glyph unicode="&#xf8;" horiz-adv-x="1142" d="M31 492q0 258 139 390t403 132q61 0 129 -10l33 92h117l-43 -117q150 -51 226.5 -174t76.5 -313q0 -256 -141.5 -389.5t-397.5 -133.5q-45 0 -122 8l-29 -83h-119l39 108q-152 49 -231.5 173t-79.5 317zM412 492q0 -147 30 -209l174 483q-25 4 -43 4q-92 0 -126.5 -62.5 t-34.5 -215.5zM537 215q10 -2 36 -2q91 0 126.5 64.5t35.5 214.5q0 135 -28 198z" />
<glyph unicode="&#xf9;" horiz-adv-x="1234" d="M10 741v242h508v-666q0 -66 26.5 -94t80.5 -28q57 0 83.5 28.5t26.5 93.5v347q0 39 -13 58t-50 19h-33v242h479v-661q0 -78 86 -78h21v-244h-344l-15 125q-80 -86 -166 -122t-211 -36q-184 0 -270 89t-86 259v349q0 78 -84 77h-39zM195 1438h401l147 -373h-319z" />
<glyph unicode="&#xfa;" horiz-adv-x="1234" d="M10 741v242h508v-666q0 -66 26.5 -94t80.5 -28q57 0 83.5 28.5t26.5 93.5v347q0 39 -13 58t-50 19h-33v242h479v-661q0 -78 86 -78h21v-244h-344l-15 125q-80 -86 -166 -122t-211 -36q-184 0 -270 89t-86 259v349q0 78 -84 77h-39zM391 1065l146 373h401l-229 -373h-318z " />
<glyph unicode="&#xfb;" horiz-adv-x="1234" d="M10 741v242h508v-666q0 -66 26.5 -94t80.5 -28q57 0 83.5 28.5t26.5 93.5v347q0 39 -13 58t-50 19h-33v242h479v-661q0 -78 86 -78h21v-244h-344l-15 125q-80 -86 -166 -122t-211 -36q-184 0 -270 89t-86 259v349q0 78 -84 77h-39zM135 1065l289 416h315l287 -416h-334 l-112 219l-117 -219h-328z" />
<glyph unicode="&#xfc;" horiz-adv-x="1234" d="M10 741v242h508v-666q0 -66 26.5 -94t80.5 -28q57 0 83.5 28.5t26.5 93.5v347q0 39 -13 58t-50 19h-33v242h479v-661q0 -78 86 -78h21v-244h-344l-15 125q-80 -86 -166 -122t-211 -36q-184 0 -270 89t-86 259v349q0 78 -84 77h-39zM203 1106v280h262v-280h-262zM715 1106 v280h264v-280h-264z" />
<glyph unicode="&#xfd;" horiz-adv-x="1212" d="M10 741v242h508v-625q0 -125 121 -125q61 0 90 28t29 91v312q0 41 -13.5 59t-54.5 18h-28v242h479v-924q0 -141 -58.5 -246.5t-166 -164t-254.5 -58.5q-148 0 -264.5 39t-192.5 111v166h313v-53q27 -27 58.5 -38.5t78.5 -11.5q135 0 136 156v92q-53 -18 -114 -29.5 t-102 -11.5q-205 0 -322.5 96.5t-117.5 268.5v289q0 37 -21.5 57t-64.5 20h-39zM389 1065l146 373h401l-229 -373h-318z" />
<glyph unicode="&#xfe;" horiz-adv-x="1239" d="M31 -184h20q43 0 64.5 20.5t21.5 57.5v1138q0 37 -21.5 57.5t-64.5 20.5h-20v246h438v-422q61 43 124.5 61.5t154.5 18.5q217 0 338.5 -131t121.5 -377q0 -258 -117.5 -398.5t-336.5 -140.5q-96 0 -156.5 19.5t-128.5 66.5v-159q0 -78 84 -78h22v-242h-544v242zM492 436 q0 -119 41.5 -182.5t125.5 -63.5q101 0 136.5 74t35.5 238q0 162 -35.5 230.5t-136.5 68.5q-82 0 -124.5 -72t-42.5 -180v-113z" />
<glyph unicode="&#xff;" horiz-adv-x="1212" d="M10 741v242h508v-625q0 -125 121 -125q61 0 90 28t29 91v312q0 41 -13.5 59t-54.5 18h-28v242h479v-924q0 -141 -58.5 -246.5t-166 -164t-254.5 -58.5q-148 0 -264.5 39t-192.5 111v166h313v-53q27 -27 58.5 -38.5t78.5 -11.5q135 0 136 156v92q-53 -18 -114 -29.5 t-102 -11.5q-205 0 -322.5 96.5t-117.5 268.5v289q0 37 -21.5 57t-64.5 20h-39zM211 1106v280h262v-280h-262zM723 1106v280h264v-280h-264z" />
<glyph unicode="&#x152;" horiz-adv-x="1634" d="M31 659q0 342 176 504t530 162h867v-344h-344v27q0 80 -84 79h-107v-307h215v-237h-215v-305h107q84 0 84 81v25h344v-344h-867q-346 0 -526 159.5t-180 499.5zM406 659q0 -227 73.5 -325t210.5 -105v863q-139 -6 -211.5 -103.5t-72.5 -329.5z" />
<glyph unicode="&#x153;" horiz-adv-x="1818" d="M31 492q0 258 139 390t403 132q209 0 349 -113q141 113 348 113q254 0 386 -136.5t132 -363.5v-98h-678q0 -123 43 -174.5t152 -51.5q76 0 135 27v82h313v-182q-80 -74 -188.5 -112t-266.5 -38q-220 0 -372 119q-139 -117 -353 -117q-258 0 -400 133.5t-142 389.5z M412 492q0 -152 34.5 -215.5t126.5 -63.5q89 0 125.5 62.5t36.5 216.5q0 152 -36.5 215t-125.5 63q-92 0 -126.5 -62.5t-34.5 -215.5zM1110 612h301q0 84 -40 130t-109 46q-74 0 -113 -46t-39 -130z" />
<glyph unicode="&#x178;" d="M31 1090v235h592v-235h-58l125 -291l117 291h-57v235h591v-235h-45q-61 0 -91.5 -20.5t-61.5 -76.5l-269 -497v-183q0 -76 84 -75h43v-238h-630v238h43q84 0 84 81v179l-271 497q-31 55 -60.5 75t-90.5 20h-45zM303 1468v281h262v-281h-262zM815 1468v281h264v-281h-264z " />
<glyph unicode="&#x2c6;" horiz-adv-x="1087" d="M51 1055l318 461h352l315 -461h-413l-80 157l-84 -157h-408z" />
<glyph unicode="&#x2dc;" horiz-adv-x="1024" d="M51 1065q0 195 64.5 287t210.5 92q57 0 99 -15.5t93 -42.5q6 -4 29.5 -15t43 -16t38.5 -5q88 0 88 94h256q0 -199 -60.5 -289t-205.5 -90q-61 0 -105.5 15.5t-97.5 41.5q-33 18 -57.5 27.5t-49.5 9.5q-43 0 -66.5 -24.5t-23.5 -69.5h-256z" />
<glyph unicode="&#x2000;" horiz-adv-x="921" />
<glyph unicode="&#x2001;" horiz-adv-x="1843" />
<glyph unicode="&#x2002;" horiz-adv-x="921" />
<glyph unicode="&#x2003;" horiz-adv-x="1843" />
<glyph unicode="&#x2004;" horiz-adv-x="614" />
<glyph unicode="&#x2005;" horiz-adv-x="460" />
<glyph unicode="&#x2006;" horiz-adv-x="307" />
<glyph unicode="&#x2007;" horiz-adv-x="307" />
<glyph unicode="&#x2008;" horiz-adv-x="230" />
<glyph unicode="&#x2009;" horiz-adv-x="368" />
<glyph unicode="&#x200a;" horiz-adv-x="102" />
<glyph unicode="&#x2010;" horiz-adv-x="749" d="M51 494v239h647v-239h-647z" />
<glyph unicode="&#x2011;" horiz-adv-x="749" d="M51 494v239h647v-239h-647z" />
<glyph unicode="&#x2012;" horiz-adv-x="749" d="M51 494v239h647v-239h-647z" />
<glyph unicode="&#x2013;" horiz-adv-x="1134" d="M51 494v239h1032v-239h-1032z" />
<glyph unicode="&#x2014;" horiz-adv-x="1429" d="M51 494v239h1327v-239h-1327z" />
<glyph unicode="&#x2018;" horiz-adv-x="638" d="M51 868l201 488h336l-127 -488h-410z" />
<glyph unicode="&#x2019;" horiz-adv-x="638" d="M51 868l127 488h410l-201 -488h-336z" />
<glyph unicode="&#x201a;" horiz-adv-x="638" d="M51 -238l127 488h410l-201 -488h-336z" />
<glyph unicode="&#x201c;" horiz-adv-x="980" d="M51 868l201 488h280l-126 -488h-355zM449 868l200 488h281l-127 -488h-354z" />
<glyph unicode="&#x201d;" horiz-adv-x="980" d="M51 868l127 488h354l-200 -488h-281zM449 868l126 488h355l-201 -488h-280z" />
<glyph unicode="&#x201e;" horiz-adv-x="1060" d="M51 -238l127 488h389l-200 -488h-316zM494 -238l127 488h389l-201 -488h-315z" />
<glyph unicode="&#x2022;" horiz-adv-x="649" d="M51 688q0 74 37 137.5t99.5 100.5t136.5 37t137 -37t100 -100.5t37 -137.5t-37 -136.5t-100.5 -99t-136.5 -36.5q-74 0 -136.5 36.5t-99.5 99t-37 136.5z" />
<glyph unicode="&#x2026;" horiz-adv-x="1275" d="M51 0v238h260v-238h-260zM518 0v238h262v-238h-262zM963 0v238h262v-238h-262z" />
<glyph unicode="&#x202f;" horiz-adv-x="368" />
<glyph unicode="&#x2039;" horiz-adv-x="804" d="M51 610v117l703 563v-372l-314 -250l314 -248v-375z" />
<glyph unicode="&#x203a;" horiz-adv-x="804" d="M51 45v375l316 248l-316 250v372l703 -563v-117z" />
<glyph unicode="&#x205f;" horiz-adv-x="460" />
<glyph unicode="&#x20ac;" horiz-adv-x="1325" d="M51 399v219h88v80h-88v220h115q100 438 592 438q172 0 287.5 -31t211.5 -100v-283h-378v162q-51 12 -121 12q-96 0 -149.5 -50t-76.5 -148h283v-220h-303v-80h303v-219h-278q27 -96 93 -143t191 -47q96 0 172 20.5t156 75.5l125 -201q-115 -80 -214 -107.5t-259 -27.5 q-524 0 -633 430h-117z" />
<glyph unicode="&#x2122;" horiz-adv-x="1794" d="M51 1040v285h764v-285h-170v19q0 23 -9 31t-36 8h-16v-203q0 -35 15 -50.5t56 -15.5h58v-186h-559v186h57q41 0 56.5 15.5t15.5 50.5v203h-17q-27 0 -36 -8.5t-9 -30.5v-19h-170zM846 643v186h41q27 0 36 8.5t9 30.5v201q0 23 -9.5 31t-35.5 8h-41v217h375l73 -145 l74 145h375v-217h-41q-27 0 -36 -8t-9 -31v-201q0 -23 9 -31t36 -8h41v-186h-420v186h31q29 0 40 9.5t11 29.5v156l-76 -123h-69l-76 123v-156q0 -20 11 -29.5t40 -9.5h31v-186h-420z" />
<glyph unicode="&#x25fc;" horiz-adv-x="983" d="M0 0v983h983v-983h-983z" />
</font>
</defs>
</svg>
