<svg xmlns="http://www.w3.org/2000/svg" xmlns:xlink="http://www.w3.org/1999/xlink" width="1920" height="1080" viewBox="0 0 1920 1080"><defs><style>.a,.g{fill:#fff;}.a{stroke:#707070;}.b{clip-path:url(#a);}.c{fill:url(#b);}.d{opacity:0.1;}.e{fill:#35819b;}.f{fill:url(#c);}</style><clipPath id="a"><rect class="a" width="1920" height="1080"/></clipPath><linearGradient id="b" x1="0.5" x2="0.5" y2="0.308" gradientUnits="objectBoundingBox"><stop offset="0" stop-color="#d4eeff"/><stop offset="1" stop-color="#fff"/></linearGradient><linearGradient id="c" x1="0.5" y1="0.688" x2="0.5" y2="-0.034" gradientUnits="objectBoundingBox"><stop offset="0.052" stop-color="#134c5e"/><stop offset="0.488" stop-color="#266e86"/></linearGradient></defs><g class="b"><path class="c" d="M0,0H1920V1080H0Z"/><g class="d" transform="translate(-240.641 787.299)"><path class="e" d="M2294.647,281.271c-42.207-6.363-86.972-.522-124.731,16.28-6.029,2.681-11.982,5.665-18.629,7.017-4.682.952-9.555,1.062-14.3,1.757-24.769,3.638-48.709,22.92-71.3,13.792.392,9.609-15.44,12.629-27.1,12.644-.434,0-.869.01-1.3.01V321.946l16.9-15.766a12.725,12.725,0,0,0,2.836-.672,5.85,5.85,0,0,1,1.717-.433c1.753-.071,3.666,1.423,5.033.491.953-.652.673-1.971,1.355-2.831a3.408,3.408,0,0,1,2.77-.927c1.041.041,2.055.3,3.1.321,3.244.066,8.527-5.66,4.2-5.915a4.637,4.637,0,0,0-1.608.39,4.685,4.685,0,0,1-4.366-.912,2.755,2.755,0,0,0-1.029-.771c-1-.306-2.245.715-3.09.16a2.494,2.494,0,0,1-.573-.715,2.576,2.576,0,0,0-3.292-.438,5.263,5.263,0,0,1-.821.606c-.733.344-1.632-.018-2.474-.036-2.381-.048-3.992,2.648-6.357,2.411a5.116,5.116,0,0,0-1.916-.168,2.744,2.744,0,0,0-1.071.825c-1.044,1.031-2.613,1.632-3.555,2.735s-.676,3.116.921,3.279c.73.074,1.458-.283,2.181-.183,1.141.16,1.633,1.286,2.453,1.976a3.669,3.669,0,0,0,1.717.756l-15.023,10.307V298.412a3.378,3.378,0,0,0,2.887-.94q-.262-.523-.525-1.049a12.38,12.38,0,0,0,3.91.346,3.571,3.571,0,0,0,2.993-1.907,2.759,2.759,0,0,1,.35-.873c.625-.777,2.037-.339,3.147-.42a2.474,2.474,0,0,0,2.26-1.724,2.249,2.249,0,0,0-1.252-2.3c5.29-1.444.953-5.449-2.767-3.119a5.352,5.352,0,0,1-1.488.843c-1.874.481-3.717-1.9-5.477-1.171-.685.288-1.029.968-1.681,1.3a3.432,3.432,0,0,1-2.36.048V276.816c.048.031.067.064.045.1,1.309.56-.021,2.485.911,3.44a2.631,2.631,0,0,0,2.429.272,4.134,4.134,0,0,1,2.529-.16c.779.328.779,1.591-.09,1.594a12,12,0,0,0,6.569-.372c1.216-.433,2.583-1.069,3.76-.565.881.377,1.409,1.337,2.393,1.4a10.47,10.47,0,0,0,1.741-.346c2.552-.262,3.418,3.924,5.95,3.539.625-.094,1.149-.481,1.777-.555a3.99,3.99,0,0,1,2.079.57,17.945,17.945,0,0,0,12.748.715c1.6-.519,3.331-1.938,2.444-3.173,1.793-.764,4.116-.066,5.872-.889,1.615-.756,2.845-2.74,4.584-2.21a8.3,8.3,0,0,1-.218-7.475,5.466,5.466,0,0,0-2.51-.059c.827-1.314-1.279-3.06-2.824-2.34a9.009,9.009,0,0,1-1.137.6c-1.18.362-2.266-.662-2.9-1.574s-1.548-2-2.782-1.81c-1.141.171-1.97,1.416-3.084,1.146-.6-.145-.914-.672-1.295-1.087a4.582,4.582,0,0,0-5.011-.876,9.547,9.547,0,0,1-1.24.588,5.447,5.447,0,0,1-2.7-.165,28.494,28.494,0,0,0-11.919-.01c-.012-.662-.021-1.324-.03-1.986,1.647.624,3.729-1.041,3.081-2.465l5.688-.616c.682-.071,1.569-.354,1.481-.929-.045-.288-.344-.5-.419-.787-.205-.756,1.074-1.067,1.977-1.2a6.309,6.309,0,0,0,4.266-2.541,7.745,7.745,0,0,0-6-2.266,22.606,22.606,0,0,1-3.12.237c-1.319-.107-2.513-.754-3.832-.845-1.641-.117-3.183.629-4.78.952a4.517,4.517,0,0,1-4.529-1.991c-.64-1.181-1.291-2.437-2.61-2.207-1.264.219-2.525,1.4-3.569.764-.377-.229-.546-.634-.875-.909-1.177-.978-3.014.229-4.616.563-1.488.311-3.021-.214-4.541-.374s-3.433.311-3.72,1.581c-1.011.563-2.3-.117-3.349-.619s-2.794-.6-3.087.384c-.133.451.141.932,0,1.38-.311.957-1.928.83-3.1.71-2.746-.278-5.425.708-7.945,1.67-.567.216-1.188.481-1.4.975-.2.471.03,1.046-.3,1.459a1.993,1.993,0,0,1-1.506.456l-4.487.115c-.782.54.283,1.566.187,2.414-.1.889-1.427,1.255-2.483,1.2a6.207,6.207,0,0,0-3.105.171c-1.05.54-1.27,1.805-2.26,2.416-.944.583-2.245.392-3.394.563s-2.354,1.232-1.666,2.027c-2.046-.165-4.321-.275-5.935.8a5.032,5.032,0,0,0-1.958,4.453,70.566,70.566,0,0,1,13.756.723c3.844-.848,8.011-1.683,11.689-.418,1.551.535,3.141,1.444,4.752,1.057a6.052,6.052,0,0,1-5.115,2.011c-1.234-.107-2.541-.558-3.663-.1a11.2,11.2,0,0,0-1.491.968c-2.173,1.306-5.308.125-7.812.906-1.267.4-2.369,1.3-3.72,1.281-1.668-.023-3.259-1.454-4.773-.855-.908.359-1.307,1.332-2.218,1.683-.606.234-1.364.163-1.889.507-.784.514-.486,1.658.317,2.154a5.662,5.662,0,0,0,2.858.542l2.257.031c-.5.94-1.976,1.184-3.174,1a31.015,31.015,0,0,0-3.545-.721c-1.219-.048-2.634.593-2.649,1.622-.006.367.166.751,0,1.09-.311.652-1.406.55-2.23.647a2.693,2.693,0,0,0-2.329,1.848,2.272,2.272,0,0,0,1.3,2.465c1.089.542,2.785.614,3.084,1.652.278.957-.981,2.073-.256,2.844a1.509,1.509,0,0,0,.764.384c2.184.527,4.266-1.22,6.538-1.26,1.847-.033,3.757,1.059,5.431.4,1.131-.448,1.72-1.568,2.842-2.027,1.291-.527,2.8-.025,4.209.171s3.3-.255,3.382-1.461a9.5,9.5,0,0,0,4.173.372,17.046,17.046,0,0,0,4.9-1.68q3.617-1.7,7.229-3.4a9.841,9.841,0,0,0,3.039-1.879,3.355,3.355,0,0,1,.73-.682,3.646,3.646,0,0,1,1.98-.191,10.019,10.019,0,0,0,5.989-1.548,2.388,2.388,0,0,1-2.3-1.983,2.28,2.28,0,0,1,2.04-2.174c.939-.145,2,.125,2.906.061l-.142,9.3a6.523,6.523,0,0,1-3.413,1.026c-1.252-.1-2.513-.914-3.654-.463-1.466.578-1.427,2.808-3.026,3.017-1,.132-2.073-.7-2.939-.26-.368.186-.549.547-.845.81-1.385,1.23-4.6-.064-5.491,1.454a1.332,1.332,0,0,1,1.261,1.283,11.108,11.108,0,0,0-9.034,3.6q7.432,1.092,14.944,1.726a2.7,2.7,0,0,0,1.138,2.426,2.09,2.09,0,0,0,2.755-.407c.241-.453.139-.988.308-1.464.012-.033.051-.053.063-.087l7.585,10.192-.335,21.973q-34.968.321-69.779,3.448A97.555,97.555,0,0,0,1956,325.788l.284-.588c.045-.092.208-.069.211.031l.046,1.115c0,.107.181.122.214.02l.29-.934a.117.117,0,0,1,.214,0l.371,1.512a.113.113,0,0,0,.214-.005l.242-1.472.111,1.759a.114.114,0,0,0,.218.015l.19-.751a.113.113,0,0,1,.214.013l.163,1.4c.012.1.178.112.214.018l.347-.932c.033-.094.2-.079.211.02l.178,1.658a.114.114,0,0,0,.208.025l.54-1.069c.049-.092.211-.064.211.038l-.015,1.342c0,.1.166.13.211.036l.477-1.008c.042-.092.2-.071.208.028l.136,1.729c.006.094.16.12.208.031l.434-.827a.115.115,0,0,1,.208.033l.172,2.174c.006.092.154.117.205.036l.531-.873c.051-.084.2-.056.208.038l.066,1.449c0,.1.175.122.211.025a4.848,4.848,0,0,0,.429-2.174c-.018-.087.1-.143.175-.087l.721.517c.1.069.229-.031.163-.12l-.984-1.306c-.06-.079.039-.173.139-.132l.8.323c.115.043.215-.081.121-.153l-1.367-1.036c-.079-.059-.019-.168.087-.158l1.334.127c.124.013.172-.132.057-.176l-1.88-.7c-.112-.043-.069-.183.051-.178l1.687.1c.127.005.166-.143.045-.178-1.044-.321-2.833-.873-2.7-.873.106,0,1.147-.158,1.979-.288.13-.02.115-.181-.018-.183l-1.925-.031c-.108,0-.148-.122-.054-.171l1.144-.586c.1-.053.046-.183-.069-.171l-1.928.219c-.115.013-.169-.115-.073-.168l1.575-.868c.1-.056.036-.191-.085-.168-.742.148-1.946.392-2.365.5a17.552,17.552,0,0,0,1.5-1.057c.082-.061.015-.176-.09-.158l-2.818.423c-.112.015-.175-.1-.087-.163l1.2-.8c.091-.061.021-.186-.094-.163l-2.061.412c-.115.023-.184-.1-.09-.163l.827-.532c.093-.061.024-.186-.091-.163l-2.362.476c-.106.02-.178-.089-.1-.155l.751-.642c.079-.066,0-.178-.105-.155l-1.536.334c-.109.025-.184-.089-.1-.155l.688-.555c.078-.064.012-.176-.1-.158l-1.8.3c-.112.018-.178-.1-.091-.163l.712-.489c.142.069.29.127.419.2.111.069.26-.033.2-.143l-.272-.5c-.06-.11.094-.214.208-.14l1.47.929c.112.069.263-.028.211-.137l-.263-.54c-.051-.107.1-.206.208-.137l1.213.733c.13.076.286-.061.19-.165l-.205-.221c-.1-.107.06-.244.19-.166l1.675,1.016c.121.074.272-.043.2-.153l-.335-.489c-.081-.117.1-.237.214-.14l1.138.942c.105.087.277-.01.223-.125l-.429-.927c-.051-.117.121-.211.226-.125l1.189.985c.112.092.292-.023.214-.14l-.694-1.067c-.072-.107.078-.221.2-.15l1.895,1.108c.127.074.281-.056.19-.163l-1.294-1.518,1.913,1.523c.118.092.3-.031.211-.145l-.594-.825c-.085-.112.087-.234.2-.148l1.587,1.156c.115.081.281-.026.214-.14l-.643-1.1c-.067-.112.1-.221.214-.137l1.868,1.38c.106.081.269-.013.218-.127l-.607-1.37c-.051-.12.127-.211.229-.12l1.37,1.235c.1.092.284-.005.226-.122l-.6-1.271c-.054-.115.115-.211.22-.127l1.9,1.479c.106.081.271-.01.223-.125l-.452-1.072c-.048-.115.115-.206.22-.125l2.393,1.859c.1.079.265-.005.226-.117l-.41-1.186c-.042-.115.124-.2.226-.115l1.551,1.273c.112.089.286-.018.22-.135a7.191,7.191,0,0,0-1.849-2.3c-.1-.066-.054-.2.072-.209l1.189-.056c.157-.008.178-.2.027-.227l-2.242-.471a.113.113,0,0,1-.009-.224l1.062-.3c.151-.041.112-.229-.045-.224l-2.311.054c-.133.005-.193-.14-.084-.206l1.348-.861c.127-.081.021-.247-.13-.2l-2.429.741c-.145.043-.254-.115-.136-.2l1.639-1.148c.121-.087,0-.25-.142-.2-1.285.474-3.485,1.281-3.367,1.186.1-.076.887-.985,1.512-1.714.1-.112-.082-.247-.206-.153l-1.789,1.383c-.1.079-.26,0-.224-.115l.441-1.375c.039-.122-.148-.2-.241-.1l-1.53,1.609c-.093.1-.275.023-.241-.1l.543-1.945c.036-.127-.163-.2-.247-.094-.525.68-1.373,1.785-1.642,2.2a16.478,16.478,0,0,0,.281-2.065c.009-.115-.166-.171-.248-.076l-2.136,2.449c-.084.1-.265.033-.247-.087l.266-1.609c.018-.122-.172-.183-.251-.079l-1.457,1.884c-.082.1-.275.043-.251-.081l.205-1.092c.024-.125-.169-.186-.25-.081l-1.666,2.164c-.075.1-.256.051-.253-.066l.027-1.136c0-.12-.181-.165-.253-.064l-1.062,1.431c-.075.1-.259.051-.254-.066l.021-.339a.145.145,0,0,0,.009-.181l.027-.494c.006-.115-.169-.168-.248-.074l-.3.357-.447-.153c-.193-.064-.157-.3.048-.321l2.646-.265a.164.164,0,0,0,.057-.321l-.911-.346c-.184-.069-.145-.3.054-.318l2.14-.255a.166.166,0,1,0,0-.331l-.477-.061a.167.167,0,1,1,0-.334l2.96-.344a.165.165,0,0,0,.03-.328l-.932-.232c-.224-.053-.172-.331.06-.328l2.309.031c.214,0,.281-.244.087-.321l-1.545-.611c-.193-.076-.127-.323.088-.321l2.414.033c.229,0,.281-.27.063-.328l-1.994-.532a.164.164,0,0,1,.03-.326l3.3-.433a.166.166,0,0,0,.009-.331l-3.156-.5,3.811-.013c.232,0,.275-.28.048-.331l-1.6-.362a.167.167,0,1,1,.042-.331l3.035-.125c.214-.008.263-.262.058-.326l-1.976-.616c-.205-.064-.157-.316.06-.323l3.594-.125c.208-.008.266-.242.079-.318l-2.26-.927c-.2-.081-.118-.331.1-.318l2.9.14c.221.01.3-.242.1-.321l-2.136-.822c-.193-.074-.133-.318.079-.321l3.747-.048c.208,0,.271-.237.084-.316l-1.744-.743c-.184-.079-.121-.316.087-.318l4.71-.066c.2,0,.272-.229.1-.313l-1.835-.9c-.178-.087-.1-.313.1-.313l3.132.031c.223,0,.281-.26.076-.326a14.153,14.153,0,0,0-4.659-.853c-.187.015-.3-.165-.172-.283l1.183-1.059c.157-.14-.045-.357-.244-.26L1971,298.259c-.175.084-.368-.076-.274-.224l.769-1.207c.109-.171-.154-.336-.317-.2l-2.36,2.006c-.136.115-.368.015-.338-.148l.4-2.039c.036-.191-.275-.275-.374-.1l-1.678,2.826c-.1.168-.4.092-.374-.1l.359-2.584c.024-.191-.292-.262-.383-.084-.784,1.579-2.142,4.277-2.127,4.079.012-.163-.239-1.78-.444-3.071a.2.2,0,0,0-.4.013l-.241,2.959c-.012.168-.278.216-.371.069l-1.168-1.815c-.1-.16-.389-.087-.371.094l.3,2.982c.018.178-.263.252-.368.1l-1.732-2.5c-.112-.16-.407-.071-.368.112.25,1.156.667,3.03.875,3.687a28.272,28.272,0,0,0-2.148-2.4c-.127-.132-.377-.041-.353.127l.658,4.369c.024.173-.238.26-.359.12l-1.63-1.915c-.124-.145-.4-.046-.356.13l.7,3.2c.036.178-.239.275-.362.127l-1.077-1.321c-.121-.15-.4-.051-.359.127l.812,3.674c.036.165-.205.267-.341.145l-1.319-1.215c-.136-.127-.383-.02-.341.145l.579,2.4c.042.171-.211.275-.344.145l-1.138-1.113c-.13-.125-.377-.031-.35.135l.477,2.8c.03.173-.236.265-.359.125l-1.026-1.184c-.027-.028-.066-.023-.1-.033l.887-.9c.13-.132-.027-.323-.217-.265l-.944.278c-.187.056-.347-.13-.22-.262l1.343-1.428c.142-.153-.081-.354-.269-.244l-.395.234c-.19.112-.413-.092-.272-.242l1.865-1.973c.133-.14-.054-.336-.248-.255l-.863.374c-.2.089-.4-.14-.226-.272l1.7-1.321c.157-.122.006-.339-.2-.283l-1.617.456c-.205.059-.356-.16-.2-.283l1.774-1.38c.169-.13-.015-.359-.22-.275l-1.88.774c-.19.079-.374-.112-.247-.252l2.04-2.233c.136-.15-.078-.346-.266-.244l-2.7,1.472,2.752-2.228c.166-.135-.03-.362-.235-.267l-1.454.67c-.2.092-.4-.125-.239-.265l2.094-1.854c.151-.132-.024-.344-.223-.27l-1.934.7c-.2.074-.374-.14-.223-.27l2.5-2.18c.142-.127-.006-.331-.205-.278l-2.393.642c-.208.056-.356-.171-.19-.288l2.215-1.584c.169-.12.015-.346-.193-.285l-2.218.644c-.2.059-.356-.153-.205-.278l2.673-2.213c.151-.125,0-.334-.2-.283l-1.871.476c-.2.051-.344-.158-.2-.28l3.358-2.788c.145-.117.009-.321-.187-.283l-2.061.418c-.2.038-.332-.171-.181-.288l2.293-1.8c.163-.13-.009-.351-.214-.278a12.746,12.746,0,0,0-4.07,2.09c-.121.12-.353.053-.353-.1l-.009-1.456c0-.191-.326-.232-.392-.046l-.969,2.7a.21.21,0,0,1-.38-.005l-.428-1.319c-.063-.188-.386-.155-.392.041l-.073,2.824c0,.163-.253.227-.362.092l-1.379-1.711c-.13-.16-.422-.043-.356.143l1.1,3.02c.063.181-.217.3-.35.15l-1.853-2.08c-.139-.155-.425-.023-.344.16.718,1.6,1.94,4.344,1.789,4.193-.127-.127-1.626-1.151-2.83-1.968-.187-.127-.429.081-.275.237l2.242,2.284c.126.13-.027.321-.214.267l-2.329-.637c-.205-.056-.353.165-.193.285l2.652,1.986c.157.12.015.339-.187.288l-3.3-.8c-.214-.053-.356.183-.175.3,1.126.69,2.957,1.808,3.645,2.162-.588-.148-2-.321-3.032-.435a.2.2,0,0,0-.344-.1l-.054.059-.088-.01c-.184-.02-.281.163-.166.272a24,24,0,0,0-1.838,2.083c.205-.657.622-2.533.869-3.687.039-.186-.257-.275-.368-.112l-1.729,2.5c-.106.153-.386.079-.368-.1l.293-2.982c.018-.181-.272-.255-.374-.094l-1.162,1.818a.209.209,0,0,1-.374-.069l-.245-2.959a.207.207,0,0,0-.4-.013c-.2,1.293-.447,2.908-.435,3.073.012.2-1.349-2.5-2.136-4.079-.09-.178-.407-.107-.38.087l.362,2.584c.027.186-.275.262-.374.094l-1.681-2.821c-.1-.173-.413-.089-.374.1l.4,2.042c.033.16-.2.262-.338.145l-2.362-2c-.16-.138-.422.028-.314.2l.77,1.2c.093.148-.1.308-.275.227l-2.912-1.393c-.2-.094-.4.122-.241.262l1.183,1.059c.129.115.015.3-.172.28a14.194,14.194,0,0,0-4.656.858c-.208.069-.147.328.075.326l3.132-.033c.205,0,.281.227.1.313l-1.832.9c-.175.084-.106.311.1.313l4.71.059c.208,0,.272.239.088.318l-1.744.746c-.187.079-.121.316.088.318l3.744.043c.214,0,.274.247.081.321l-2.133.825c-.2.076-.127.331.093.321l2.9-.145c.217-.01.3.237.1.318l-2.257.929c-.187.076-.13.313.078.318l3.594.12c.217.008.266.262.06.326l-1.976.619c-.2.064-.157.316.06.326l3.032.12c.229.01.263.28.042.331l-1.6.364c-.226.051-.181.328.051.328l3.811.01-3.156.509a.166.166,0,0,0,.006.331l3.3.428a.164.164,0,0,1,.03.326l-1.992.535c-.22.059-.166.331.063.328l2.411-.036c.214,0,.283.244.09.321l-1.545.614c-.193.076-.127.323.087.318l2.308-.033c.232,0,.284.275.06.331l-.932.232a.165.165,0,0,0,.03.328l2.963.341a.166.166,0,1,1,0,.331l-.477.061a.167.167,0,1,0,0,.333l2.142.252a.163.163,0,0,1,.054.318l-.911.349a.163.163,0,0,0,.057.318l1.385.137c-.018.028-.051.046-.045.081l.223,1.454c.027.173-.238.262-.359.12l-1.946-2.3c-.115-.137-.371-.061-.362.1l.084,1.467c.012.173-.256.244-.365.1l-1.539-2.073c-.109-.145-.375-.076-.368.092l.039,1.647c0,.168-.257.237-.365.094l-2.42-3.132c-.115-.153-.4-.061-.362.12l.3,1.581c.036.181-.244.27-.362.12L1930.5,312.1c-.118-.15-.4-.061-.365.117l.389,2.332c.027.173-.235.262-.359.122l-3.1-3.544c-.121-.135-.374-.056-.359.112a23.415,23.415,0,0,0,.41,2.989c-.389-.6-1.62-2.2-2.384-3.178-.124-.158-.411-.048-.359.132l.793,2.819c.048.173-.217.283-.35.143l-2.221-2.33c-.136-.14-.4-.025-.347.15l.639,1.991c.051.163-.178.283-.326.168l-2.595-2c-.178-.135-.437.059-.3.224.908,1.054,2.049,2.365,2.193,2.48.172.135-3.017-1.029-4.879-1.714-.211-.076-.383.16-.205.283l2.375,1.663c.169.12.015.351-.2.288l-3.521-1.069c-.217-.064-.371.176-.187.293l1.958,1.245c.154.1.067.306-.127.3l-3.346-.079c-.229-.005-.284.267-.066.328l1.542.425a.163.163,0,0,1-.012.323l-3.247.685a.167.167,0,1,0,.036.331l1.723.079c.187.008.253.206.106.3a10.446,10.446,0,0,0-2.673,3.33c-.093.168.16.323.32.191l2.245-1.846c.145-.12.386,0,.329.168l-.594,1.719c-.054.163.178.285.329.171l3.461-2.7c.154-.12.392.015.323.178l-.655,1.556c-.069.165.169.3.323.178l2.749-2.146c.157-.122.4.02.32.186l-.872,1.838c-.082.173.181.313.332.178l1.979-1.79c.151-.135.407,0,.332.173l-.875,1.986c-.072.165.163.3.317.186l2.7-2c.163-.122.407.036.311.2l-.926,1.6c-.1.165.145.321.307.2l2.3-1.678c.172-.125.416.051.3.216l-.863,1.194c-.121.166.139.344.308.209l2.77-2.208-1.874,2.2c-.13.153.094.341.275.234l2.742-1.609c.172-.1.389.064.286.219l-1,1.548c-.111.168.151.336.314.2l1.72-1.428c.154-.125.4.013.326.181l-.618,1.342c-.078.171.172.308.326.181l1.645-1.367c.166-.135.428.036.311.2l-.483.71c-.109.158.114.326.286.221l2.426-1.477c.187-.112.416.087.275.239l-.3.323c-.142.153.087.351.274.239l1.756-1.064c.163-.1.377.043.3.2l-.377.782c-.076.158.142.3.3.2l2.127-1.349c.166-.1.386.046.3.2l-.2.369-.5-.081c-.136-.023-.22.117-.121.2l.422.339a.19.19,0,0,0,.157.127l.289.232c.1.081.009.227-.13.2l-1.937-.418c-.136-.031-.229.109-.133.194l.95.807c.1.084,0,.221-.129.193l-2.975-.593c-.145-.031-.235.127-.115.2l1.041.672c.117.074.03.232-.115.2l-2.595-.517c-.142-.028-.232.127-.118.2l1.509,1.013c.112.074.033.224-.109.2l-3.548-.527c-.136-.02-.217.122-.115.2a21.5,21.5,0,0,0,1.889,1.332c-.531-.143-2.049-.448-2.984-.631-.148-.031-.232.137-.1.209l1.985,1.09c.121.069.051.229-.094.214l-2.426-.272c-.148-.018-.217.148-.09.214l1.445.738c.118.059.07.211-.069.214l-2.426.041a.117.117,0,1,0-.021.232c1.047.16,2.359.359,2.5.359.16,0-2.091.7-3.407,1.1-.148.046-.1.232.057.224l2.124-.122c.154-.01.205.168.064.221l-2.363.881c-.145.053-.084.237.07.222l1.684-.165c.133-.013.205.127.106.2l-1.717,1.306c-.118.089.009.247.151.191l1.011-.407c.127-.051.25.069.175.168l-1.234,1.645c-.085.112.084.237.205.15l.905-.652c.1-.071.242,0,.224.109a6.14,6.14,0,0,0,.54,2.737c.048.125.262.1.269-.031l.082-1.826c.006-.117.2-.153.259-.048l.673,1.1c.063.1.25.071.259-.046l.211-2.737c.009-.12.2-.15.262-.041l.549,1.041c.057.11.253.081.262-.041l.163-2.177c.009-.122.211-.15.265-.036l.6,1.271c.057.117.266.084.266-.046l-.018-1.691c0-.125.205-.163.262-.046l.682,1.347c.058.109.251.084.263-.036l.223-2.088c.012-.125.22-.145.266-.023l.438,1.171a.144.144,0,0,0,.269-.025l.2-1.759a.141.141,0,0,1,.269-.013l.241.942c.036.132.265.117.271-.018l.142-2.215.3,1.851a.144.144,0,0,0,.271.008l.462-1.9a.146.146,0,0,1,.269-.005l.368,1.176c.042.13.265.107.271-.025l.055-1.405c0-.125.208-.155.262-.041l.45.919c.054.117.259.087.263-.038l.054-1.344c.006-.135.232-.155.271-.025l.157.55a.144.144,0,0,0,.269-.005l.38-1.711a.142.142,0,0,1,.271.01l.034.28a.142.142,0,0,0,.271.008l.281-1.237a.146.146,0,0,1,.262-.02l.254.542a.144.144,0,0,0,.263-.023l.3-1.53a.145.145,0,0,1,.266-.018l.211.517a.144.144,0,0,0,.263-.015c.314-1.421,1.732-2.8,2.927-3.743h.078l-2.459,2.931c-.054.066.006.153.1.148l.95-.066c.112-.005.163.12.066.171l-1.545.835c-.094.051-.051.171.057.171h.953c.112,0,.151.127.054.173l-1.385.654c-.1.046-.063.168.048.173l1.068.025c.112,0,.148.125.054.171l-2.1,1.031c-.1.051-.048.183.067.173l1.035-.1c.118-.01.169.122.069.171l-1.828.9c-.1.051-.051.181.063.173l1.527-.117c.111-.008.163.117.069.168l-2.384,1.337c-.093.051-.048.171.064.168.555-.013,1.563-.043,1.949-.107-.4.163-1.47.687-2.127,1.013-.106.053-.042.188.078.171l1.847-.29c.114-.018.178.107.084.165l-1.572.962c-.1.059-.027.186.088.165l1.309-.242c.109-.02.178.089.1.153l-1.367,1.146c-.094.076.024.2.135.143.709-.392,1.59-.883,1.669-.945.091-.076-.752,1.365-1.246,2.2-.054.1.094.181.181.1l1.141-1.049c.081-.076.229,0,.181.1l-.787,1.6c-.048.1.1.176.184.094l.86-.871c.069-.069.2-.023.193.066l-.142,1.543c-.009.107.166.14.211.041l.317-.7a.117.117,0,0,1,.211.015l.356,1.518a.113.113,0,0,0,.214-.01l.1-.792c.009-.087.139-.112.2-.041a6.745,6.745,0,0,0,2.085,1.327c.108.048.217-.066.136-.143l-1.137-1.087c-.073-.071.012-.178.117-.148l1.1.321c.106.03.19-.074.121-.148l-1.657-1.673c-.073-.074.021-.181.127-.143l.99.344c.106.038.2-.069.127-.143l-1.319-1.329c-.076-.076.024-.183.13-.143l1.168.453c.111.041.208-.076.124-.148l-1.107-.965c-.082-.071.012-.188.123-.148l1.264.458c.1.038.2-.066.13-.143l-1.228-1.3c-.072-.079.033-.188.139-.137l1.011.471c.106.048.211-.059.139-.137l-1.026-1.108c-.076-.081.045-.191.148-.132l.751.433c.106.059.226-.056.145-.137L1947.355,329l1.379.924c.1.066.226-.033.16-.12l-.969-1.311c-.061-.081.051-.178.151-.127l.975.509c.106.053.223-.061.139-.14l-.881-.835c-.078-.074.021-.186.127-.145l.854.323c.109.041.205-.071.126-.145l-.842-.8c-.084-.081.033-.2.139-.14l.449.244c.1.053.214-.046.151-.127l-.893-1.161c-.067-.089.069-.188.163-.12l.2.145c.094.069.229-.031.163-.12l-.642-.84c-.06-.079.039-.173.139-.135l.495.2c.1.038.2-.059.139-.135l-.818-1.021c-.063-.079.039-.176.139-.132l.459.2c.1.046.2-.051.142-.127a4.891,4.891,0,0,1-.769-3.007c1.807,3.03,5.781,9.68,8.807,15.873q-16.742,1.6-33.378,3.822c-8.925,1.2-17.92,2.623-26.664,4.6,10.3-5.566,15.322-6.658,15.406-6.681a.757.757,0,0,0,.67-.9.9.9,0,0,0-1.062-.565c-.051.01-.232.051-.474.109-2.39-2.07-11.508-8.395-28.722-2.589-.872.293-1.753.609-2.637.934l-3.361,10.429-.423-8.957a106.851,106.851,0,0,0-15.675,7.975l1.258,13.6-.208.122-5.051-11.071a59.188,59.188,0,0,0-9.918,8.6l3.2,8.81c-.782.336-1.566.665-2.366.955l-4.475-5.008a22.36,22.36,0,0,0-2.927,6.783,45.421,45.421,0,0,1-5.489.232,215.655,215.655,0,0,1,5.814-23.509l21.043-52.53c2.54-5.161,4.221-8.26,4.312-8.425a.707.707,0,0,0-.435-1,.982.982,0,0,0-.287-.01,2.074,2.074,0,0,0-3.183-1.2,174.537,174.537,0,0,0-18.626,13.4l3.6,13.339-9.2-8.372c-5.468,5.189-10.3,10.933-13.008,16.769L1835.11,335l-12.594-9.561c-.006.239-.024.481-.018.721.5,19.419,11.053,24.639,14.106,25.749-1.418,5.3-2.652,10.656-3.621,15.982-6.656-.168-13.376-.764-18.515,2.432-3.584,2.23-5.289,5.673-6.912,9.212q-2.53-2.609-5.142-5.222a3.954,3.954,0,0,0,2.743-.265c12.842-6.7,6.249-22.859-5.633-35.315l-8.1,8.14s4.339-6.982,6.14-10.113a64.5,64.5,0,0,0-13.047-9.871c-.35-.2-.721-.369-1.077-.558l-7.963,13.787,4.119-15.633a84.379,84.379,0,0,0-19.16-5.464l-1.922,8.01-1.261-8.512c-4.294-.616-8.3-.952-11.722-1.136a2.31,2.31,0,0,0,.323-1.742,4.793,4.793,0,0,1-.317-1.334c.048-.94,1.111-1.566,1.817-2.294a3.669,3.669,0,0,0,.075-5.049,11.085,11.085,0,0,1-1.557-1.63c-1.017-1.747.706-4.3-1-5.607-1.216-.934-3.168-.374-4.544.384s-2.872,1.716-4.481,1.431a18.235,18.235,0,0,1-2.3-.861c-1.575-.5-3.322-.13-5-.056s-3.687-.374-4.236-1.716c-.4-.973.109-2.151-.552-3.017-1.566-2.047-5.953.927-8.108-.7-.368-.278-.606-.657-.953-.952-1.364-1.158-3.648-.586-5.489-.087s-4.4.581-5.135-.929c1.1-1.041,3.12-.509,4.728-.828,2.248-.44,3.566-2.541,5.769-3.124a9.289,9.289,0,0,0,2.849-.743,2.531,2.531,0,0,0,1-1.708,5.626,5.626,0,0,0-2.423-5.5,8.3,8.3,0,0,0-6.825-1.118c-1.421.4-2.764,1.181-4.255,1.09-1.026-.064-1.967-.545-3-.6a10.848,10.848,0,0,0-3.47.772c-1.147.323-2.583.392-3.385-.369-.561-.532-.646-1.334-1.2-1.874a4.051,4.051,0,0,0-1.566-.787l-5.214-1.747a12.192,12.192,0,0,0-3.874-.835,3.766,3.766,0,0,0-3.316,1.579c-.256.491-.311,1.072-.727,1.477-.715.7-2.079.5-3.005.008a12.077,12.077,0,0,0-2.767-1.456c-2.417-.575-5.108,1.543-7.326.553-1.026-.458-1.575-1.469-2.6-1.93-1.551-.7-3.443.117-4.8,1.057s-2.764,2.09-4.523,2.106c-.842.005-1.656-.257-2.5-.288a4,4,0,0,0-3.672,1.981c-.326.67-.549,1.568-1.394,1.7-.558.087-1.083-.247-1.65-.29-1.989-.15-2.444,2.979-4.442,3-.875.013-1.587-.629-2.453-.733a2.7,2.7,0,0,0-2.683,1.978c-.338,1.059-.157,2.595-.646,3.61-1.306.85-3.141.614-4.782.491s-3.636.071-4.378,1.311a4.363,4.363,0,0,1-.667,1.159c-.7.624-1.919.313-2.918.476-2.809.456-3.066,4.369-5.829,5-1.159.265-2.381-.168-3.579-.109a3.669,3.669,0,0,0-3.416,2.508,3.79,3.79,0,0,0-3.883.384,3.068,3.068,0,0,0-1.062,3.264,2.02,2.02,0,0,0,1.128,1.365c.936.382,2.016-.084,3.045-.209,2.637-.323,5.271,1.66,7.794.932,1.174-.339,2.094-1.227,3.322-1.357,1.478-.153,2.888.853,4.354.647,1.286-.181,2.148-1.217,3.337-1.665,2.538-.957,5.525,1,8.189.331a16.044,16.044,0,0,0,2.809-1.324,3.428,3.428,0,0,1,3.053-.148,1.891,1.891,0,0,1,.748,2.233,5.973,5.973,0,0,1-1.481,2.111,6.819,6.819,0,0,1-2.909,2.136c-1.768.532-3.723-.191-5.588-.015a40.891,40.891,0,0,0-4.3,1.138c-2.293.461-4.677-.115-7.027-.252s-5.1.387-6.131,2.177a16.584,16.584,0,0,0-4.635-.8,5.2,5.2,0,0,0-4.082,1.714,3.73,3.73,0,0,1,1.635,1.573,1.459,1.459,0,0,1-.634,1.887c-1.131.578-2.743-.3-3.871.283-.73.377-.957,1.232-1.687,1.609-.845.438-1.985.053-2.915.349-1.973.624-1.234,3.279-2.565,4.662-.718.746-2.079,1.164-2.188,2.121-.181,1.614,3.172,1.792,3.835,3.313.426.968-.425,2.157.208,3.04.622.868,2.2.787,3.09,1.467,1.295.988.579,3.043,1.88,4.025,1.231.932,3.2.165,4.387-.81s2.357-2.228,4.01-2.274a4.427,4.427,0,0,0,1.768-.12c1.155-.55.519-2.37,1.683-2.915.41-.191.923-.145,1.349-.313.709-.28.953-1.046,1.6-1.423,1.219-.715,2.743.328,3.95,1.057a9.594,9.594,0,0,0,4.722,1.324c-.169-1.744,2.136-2.938,4.194-3.15s4.245.092,6.128-.639c1.225-.474,2.184-1.344,3.394-1.841,2.184-.9,5-.514,6.891-1.8a17.816,17.816,0,0,1,2.275-1.8,10.092,10.092,0,0,1,2.26-.555c3.316-.7,5.851-3.435,5.875-6.314a64.283,64.283,0,0,1,12.018,7.913,7.035,7.035,0,0,1-1.653-.02c-.649-.1-1.258-.346-1.907-.451a9.2,9.2,0,0,0-4.592.853l-9.146,3.437a5.769,5.769,0,0,0-1.509.741c-.507.395-.827.947-1.379,1.3-.929.593-2.227.456-3.361.685-2.864.581-4.463,3.435-7.326,4.01-1.285.26-2.673.018-3.919.384s-2.139,1.884-1.1,2.569c1.107.728,2.725-.43,4.086-.132a6.218,6.218,0,0,1,1.273.565c2.972,1.377,6.6-.922,9.951-.509,1.388.173,2.879.8,4.1.216a3.53,3.53,0,0,1,1.138-.509c.908-.089,1.376.911,1.355,1.68s-.13,1.7.613,2.151l2.806-2.951A15.136,15.136,0,0,1,1667,336.35a8.691,8.691,0,0,0,1.928-.053l.154,46.788c-3.005.5-6,1.018-8.971,1.538-4.755.833-9.843,1.815-13.1,4.789-4.985,4.552-4.031,12.275-9.538,16.4-6.885,5.161-18.258,1.1-26.972,3.791-7.241,2.241-11.137,8.6-16.972,12.787-20.352,14.607-51.962-1.553-78.583,2.075-22.938,3.124-40.046,20.911-63.083,23.5-20.433,2.289-45.073-7.058-59.758,4.881-5.682,4.619-8.044,11.455-13.647,16.14-11.381,9.52-30.849,6.589-45.5.866s-29.368-13.777-45.5-12.461c-13.539,1.105-24.812,8.624-37,13.6s-25.937,10.521-34.85,2.044c-38.091-10.482-45.426-58-83.39-68.8-8.451-2.406-17.754-2.681-25.792-5.915-7.38-2.966-13.017-8.15-19.085-12.713-25.134-18.892-60.679-27.969-94.364-24.1-9.665,1.113-19.715,3.2-28.966.637-10.437-2.895-17.57-11.144-27.835-14.432-16.182-5.181-36.268,3.058-51.077-4.412-12.969-6.544-15.911-22.518-29.6-27.98-7.715-3.078-16.819-1.925-25.3-2.974-28.179-3.488-46.693-30.643-75.177-31.29-8.964-.2-17.633,2.358-26.127,4.733a722.169,722.169,0,0,1-86.655,18.561c-1.605.244-3.223.446-4.831.677l-2.254-59.46,2.182,7.178,2.857.583-2.619.2,2.649,8.713c2.83-3.547,3.53-6.684,3.1-9.357l2.468,2.719,3.733.153-2.848.825,2.921,3.221,2.691-.158-2.085.825,4.218,4.657c2.981-11.537-8.675-18.416-15.9-21.5,2.5.568,5.217,1.291,8.089,2.154l-.084-2.755,1.768,3.264c1.946.6,3.935,1.253,5.926,1.925-.024-2.121-.057-5.556.024-5.286.072.244,1.62,3.717,2.746,6.238,3.533,1.23,7.018,2.51,10.256,3.738-1.189-2.885-3.18-7.784-2.522-6.671.612,1.029,2.99,4.917,4.426,7.4,1.732.665,3.37,1.3,4.879,1.9-2.085-2.791-5.627-7.771-4.7-6.77,1.162,1.248,6.478,6.9,7.353,7.827,4.245,1.7,6.961,2.857,6.961,2.857-5.579-26.294-37.9-19.86-47.215-17.423a58.831,58.831,0,0,1,7.5-2.89c.175-.833.757-3,.757-3l.615,2.6a70.99,70.99,0,0,1,7.863-1.772l-1.454-4.909,4,4.527c3.038-.41,5.968-.634,8.7-.728l-2.45-4.769,4.918,4.718a86.434,86.434,0,0,1,15.005,1.092s-1.243-6.386-19.275-8.659c-12.317-1.553-21.1,5.991-25.433,10.931a11.464,11.464,0,0,0-.788-11.279c-5.283-8.657-14.2-14.253-22.8-13.9,0,0,1.014,1.069,2.589,2.834l5.7.369-4.179,1.357c.957,1.1,2.028,2.353,3.156,3.715l5.86.372-5.111.54c1.294,1.581,2.64,3.287,3.962,5.049l5.986.631-4.719,1.092a72.928,72.928,0,0,1,5.528,8.731c-6.475-7.605-22.524-21.67-45.613-9.65,0,0,3.02.326,7.773,1.13l8.123-3.053-5.5,3.516c2.212.4,4.689.9,7.335,1.5,2.891-.866,7.77-2.3,7.607-2.1-.145.181-2.423,1.752-4.128,2.915,2.435.6,4.969,1.271,7.552,2.037l6.02-1.161-3.395,1.968a108.49,108.49,0,0,1,15.057,5.976c-10.141-3.094-44.877-12.3-44.195,6.88,0,0,2.673-.451,6.855-1.105l.109-4.39,2.471,3.99c1.8-.278,3.781-.575,5.9-.884a28.283,28.283,0,0,1-1.343-2.717,31.7,31.7,0,0,0,3.057,2.467c2.35-.336,4.825-.682,7.35-1.016l-3.036-3.2,5.452,2.882c5.28-.677,10.66-1.293,15.437-1.693-8,2.238-24.323,7.8-23.774,18.151l5.356-3.687-1.2-2.437L613.434,257l2.948-2.029-1.421-2.129,2.67,1.268,2.725-1.874-2.284-2.017,3.367,1.271,9.372-6.447c-4.417,3.31-10.461,9.337-9.248,17.635l3.672-5.556-.944-1.365,1.605.362,2.761-4.178L626.6,250.7h2.878l4.351-6.589-2.293,45.278a9.6,9.6,0,0,0-2.707-2.434.161.161,0,0,1,.057-.311l1.7-.27a.167.167,0,1,0-.015-.334l-3.325-.318c-.2-.018-.244-.244-.063-.318l1.463-.593c.205-.084.109-.346-.121-.316l-3.3.448c-.19.025-.308-.171-.172-.285l1.747-1.451c.163-.137-.027-.359-.229-.27l-3.325,1.451c-.2.084-.389-.127-.238-.265l2.094-1.91c.157-.143-.051-.359-.251-.26-1.735.886-4.716,2.393-4.565,2.241.124-.127,1.05-1.556,1.786-2.7.112-.178-.175-.344-.329-.188l-2.26,2.274c-.127.127-.377.036-.35-.13l.326-2.047c.027-.181-.256-.265-.368-.109l-1.841,2.556c-.109.153-.389.074-.368-.1l.347-2.88c.024-.188-.278-.262-.374-.092-.606,1.057-1.578,2.78-1.868,3.414a23.578,23.578,0,0,0-.06-3.01c-.012-.168-.278-.219-.374-.071l-2.52,3.86c-.1.153-.374.092-.374-.084l.021-2.355c0-.178-.287-.234-.38-.074L609.62,285.4c-.091.163-.383.1-.377-.079l.051-1.6c0-.181-.287-.242-.38-.076l-1.907,3.374a.209.209,0,0,1-.377-.053l-.217-1.637a.211.211,0,0,0-.38-.051l-1.2,2.225a.209.209,0,0,1-.38-.056l-.145-1.461c-.015-.168-.281-.214-.374-.066l-1.569,2.5c-.1.155-.374.1-.374-.076l-.006-1.467c0-.036-.036-.051-.057-.076l1.349-.29a.163.163,0,0,0,.009-.323l-.956-.242a.163.163,0,0,1,0-.323l2.085-.489c.22-.051.178-.326-.051-.329l-.483-.008c-.229-.005-.269-.28-.048-.331l2.885-.667a.165.165,0,0,0-.021-.328l-.963-.127a.167.167,0,1,1,.009-.334l2.293-.221a.166.166,0,0,0,.039-.328l-1.626-.435a.164.164,0,0,1,.036-.326l2.4-.237a.166.166,0,1,0,.012-.331l-2.061-.308a.164.164,0,0,1-.021-.326l3.2-.792c.214-.053.178-.318-.045-.331l-3.2-.15,3.775-.435a.167.167,0,1,0,0-.334l-1.644-.181a.166.166,0,1,1-.009-.331l2.987-.458a.164.164,0,0,0,.009-.328l-2.058-.395a.164.164,0,0,1,.012-.328l3.542-.519a.163.163,0,0,0,.03-.323l-2.384-.67c-.208-.059-.169-.316.048-.328l2.894-.178c.22-.013.256-.275.045-.328l-2.245-.581a.164.164,0,0,1,.03-.326l3.705-.461a.165.165,0,0,0,.036-.326l-1.844-.545a.163.163,0,0,1,.036-.323l4.659-.583c.2-.025.235-.257.048-.321l-1.958-.69c-.187-.066-.151-.3.054-.321l3.111-.316a.166.166,0,0,0,.021-.331,14.412,14.412,0,0,0-4.749-.334c-.181.036-.323-.13-.214-.26l1.008-1.181c.133-.155-.1-.346-.281-.232l-2.67,1.7c-.157.1-.377-.036-.3-.194l.576-1.281c.081-.181-.205-.316-.347-.16l-2.028,2.246c-.118.13-.362.056-.356-.107l.078-2.068c.009-.193-.311-.242-.386-.061l-1.225,2.987c-.072.176-.383.135-.386-.053l-.045-2.6c0-.193-.329-.229-.389-.043-.537,1.652-1.463,4.479-1.481,4.28-.012-.163-.51-1.736-.911-3-.063-.2-.407-.148-.392.056l.22,2.961c.012.165-.244.244-.359.107l-1.436-1.67c-.127-.148-.4-.043-.356.135l.754,2.923c.045.173-.22.28-.35.137l-2.1-2.289c-.136-.148-.416-.025-.347.153.425,1.118,1.128,2.931,1.436,3.56a25.326,25.326,0,0,0-2.145-1.861c.1-.122-.03-.293-.211-.252l-.081.02-.063-.051a.2.2,0,0,0-.326.137c-1.008.229-2.378.558-2.939.771.628-.43,2.269-1.739,3.277-2.551.16-.13-.015-.349-.22-.272l-3.141,1.166c-.2.071-.371-.13-.232-.265l2.317-2.264c.142-.137-.042-.341-.235-.262l-2.209.891c-.178.071-.359-.1-.253-.242l1.868-2.513c.127-.171-.148-.351-.314-.206-1.065.945-2.393,2.129-2.5,2.266-.13.168.655-2.689,1.12-4.356.051-.188-.257-.29-.368-.12l-1.512,2.269c-.109.166-.4.076-.368-.109l.612-3.117c.036-.188-.274-.275-.374-.1l-1.1,1.849a.21.21,0,0,1-.374-.048l-.513-2.793a.205.205,0,0,0-.392.005l-.217,1.355a.212.212,0,0,1-.38.048l-1.382-2.572c-.094-.176-.407-.1-.38.092l.217,1.441c.024.158-.193.25-.332.143a13.5,13.5,0,0,0-4.363-1.619c-.214-.048-.35.191-.169.3l2.556,1.53c.169.1.069.321-.136.3l-2.109-.183c-.2-.018-.3.2-.139.3l3.766,2.388c.166.107.051.328-.154.3l-1.928-.265c-.205-.028-.317.2-.151.3l3,1.9c.169.107.048.334-.16.3l-2.3-.392c-.214-.038-.332.206-.148.306l2.444,1.324c.184.1.072.339-.142.306l-2.474-.369c-.205-.031-.32.188-.16.3l2.821,1.882c.172.115.033.344-.175.3l-2.031-.484c-.208-.048-.347.178-.178.293l2.369,1.607c.175.12.015.356-.2.288l-1.548-.5c-.217-.069-.377.178-.19.293l3.072,1.9-2.9-1.156c-.2-.081-.383.137-.226.27l2.369,1.986c.151.125,0,.336-.2.28l-1.985-.558c-.217-.064-.365.183-.175.3l1.973,1.171c.175.1.057.336-.154.3l-1.675-.272c-.211-.033-.326.2-.151.3l1.889,1.12c.19.112.036.362-.181.3l-.914-.275c-.2-.061-.362.153-.205.28l2.154,1.747c.166.135-.024.359-.229.27l-.428-.186c-.2-.089-.4.135-.229.27l1.557,1.268c.142.117.015.318-.181.285l-.978-.173c-.2-.036-.323.173-.175.288l1.023.8c-.033.015-.076.013-.094.043l-.836,1.288c-.1.153-.374.092-.374-.081l.036-2.829c0-.168-.256-.234-.368-.094l-.953,1.227c-.112.145-.38.069-.365-.1l.2-2.439c.015-.171-.247-.25-.362-.11l-1.116,1.352c-.115.137-.371.064-.362-.107l.232-3.733c.012-.181-.281-.244-.377-.084l-.863,1.428c-.1.163-.386.1-.374-.084l.2-3.257c.009-.178-.274-.244-.374-.087l-1.316,2.078c-.1.153-.374.1-.374-.079l-.033-4.4c0-.168-.262-.229-.368-.087a26.816,26.816,0,0,0-1.756,2.62c.106-.675.223-2.582.293-3.753.009-.188-.3-.244-.383-.071l-1.325,2.671c-.081.165-.371.122-.383-.056l-.169-2.987c-.012-.183-.308-.222-.386-.053l-.872,1.93a.211.211,0,0,1-.38-.028l-.7-2.905c-.048-.2-.4-.171-.4.033,0,1.3.006,2.931.042,3.094.045.193-1.723-2.33-2.749-3.809-.115-.168-.419-.061-.362.127l.757,2.523c.054.181-.232.29-.356.135l-2.1-2.615c-.13-.158-.422-.041-.356.145l.715,1.978c.057.158-.157.283-.311.183l-2.652-1.726c-.181-.117-.416.074-.284.232l.95,1.11c.118.137-.051.318-.235.255l-3.1-1.059c-.211-.071-.377.163-.2.285l1.337.919c.148.1.063.293-.124.3a13.735,13.735,0,0,0-4.484,1.365c-.2.089-.1.341.121.313l3.1-.377c.2-.025.311.194.148.3L564.1,276.38c-.16.1-.054.321.145.3l4.68-.458c.205-.02.308.206.136.306l-1.614.929c-.172.1-.069.326.136.306l3.72-.369c.211-.02.308.216.13.311l-1.988,1.052c-.187.1-.072.344.145.308l2.848-.463c.214-.033.329.2.148.306l-2.094,1.171c-.172.1-.078.323.127.308l3.582-.278c.217-.018.3.229.112.316l-1.865.83c-.19.087-.106.331.109.316l3.029-.214c.226-.015.3.25.091.323l-1.53.535c-.214.076-.13.349.1.323l3.781-.41-3.048.85c-.214.059-.166.323.057.328l3.337.061c.211,0,.272.244.081.321l-1.895.749c-.205.081-.112.346.115.318l2.387-.3c.211-.025.317.209.136.308l-1.433.777c-.181.1-.076.334.136.308l2.284-.288c.229-.028.323.242.109.321l-.887.334c-.2.071-.133.318.081.321l2.99.013c.229,0,.275.275.054.328l-.465.115c-.22.053-.175.326.054.328l2.164.013c.2,0,.272.221.1.311l-.851.446c-.172.089-.094.313.109.311l2.661-.033c.208,0,.281.229.1.316l-.419.2-.353-.318c-.094-.084-.259-.015-.235.1l.106.486a.142.142,0,0,0,.039.178l.069.334c.027.117-.151.186-.238.094l-1.276-1.3c-.088-.092-.263-.025-.241.092l.2,1.123c.021.115-.151.181-.238.094l-1.991-1.961c-.094-.094-.277-.013-.235.107l.374,1.062c.042.12-.139.2-.235.109L580,287.372c-.094-.094-.275-.015-.235.1l.513,1.568c.039.115-.133.2-.229.112l-2.5-2.192c-.1-.082-.262-.008-.232.1a16.882,16.882,0,0,0,.6,2.014c-.329-.377-1.343-1.38-1.97-1.994-.1-.1-.284,0-.229.12l.842,1.869c.054.115-.115.209-.22.125l-1.771-1.426c-.109-.087-.281.013-.223.127l.652,1.314c.054.109-.091.206-.205.14l-1.988-1.171c-.136-.079-.293.074-.178.176.733.652,1.656,1.464,1.765,1.53.133.079-2.175-.476-3.521-.8-.154-.038-.244.137-.112.209l1.8.957c.133.069.048.239-.1.211L569.924,290c-.154-.028-.235.15-.1.214l1.472.7a.113.113,0,0,1-.054.216l-2.3.2a.115.115,0,1,0-.009.229l1.1.173a.112.112,0,0,1,.024.221l-2.148.715c-.145.048-.1.234.06.224l1.189-.076c.127-.01.2.12.1.2a6.783,6.783,0,0,0-1.472,2.482c-.045.122.145.209.238.107l1.34-1.433c.087-.094.266-.028.244.089l-.223,1.22c-.021.117.151.183.241.094l2.082-2.108c.091-.094.268-.02.238.1l-.281,1.113c-.03.12.148.194.238.1l1.654-1.678c.094-.094.275-.018.238.1l-.4,1.327c-.036.125.157.2.247.094l1.165-1.375c.087-.1.278-.031.244.094l-.386,1.426c-.033.117.142.194.235.1l1.635-1.576c.1-.1.281-.008.232.112l-.462,1.166c-.048.12.133.206.232.112l1.394-1.321c.1-.1.29,0,.226.125l-.462.884c-.066.122.13.224.229.12l1.663-1.724-1.047,1.65c-.072.115.1.229.214.14l1.7-1.309c.106-.081.272.015.22.127l-.525,1.136c-.057.125.139.219.235.115l1.026-1.11c.091-.1.278-.023.241.1l-.281.965c-.033.122.151.2.241.1l.981-1.059c.1-.107.3-.01.235.115l-.256.522c-.054.117.115.214.223.13l1.5-1.194c.115-.092.293.028.211.143l-.166.242c-.081.117.1.234.211.145l1.089-.863c.1-.079.263,0,.226.115l-.172.563c-.036.115.127.2.226.112l1.316-1.085c.1-.084.268,0,.226.117l-.19.522c-.042.115.121.2.223.12a10.229,10.229,0,0,1,4.976-1.571l.066.038-4.034,1.148a.087.087,0,0,0-.024.165l.812.42c.1.051.051.176-.063.171l-1.831-.094c-.109-.005-.16.112-.072.168l.772.474c.091.056.033.178-.078.165l-1.578-.16c-.109-.01-.166.107-.078.165l.845.553c.088.056.03.173-.078.165l-2.414-.211c-.118-.008-.169.122-.066.173l.905.438c.1.048.051.181-.066.171l-2.106-.181c-.115-.008-.166.122-.066.171l1.312.665c.1.051.051.176-.063.171l-2.857-.1c-.109-.005-.157.115-.066.168a18.182,18.182,0,0,0,1.651.881c-.435-.066-1.666-.173-2.426-.237-.121-.01-.166.132-.057.176l1.7.685c.106.043.069.176-.048.176l-1.943,0c-.118,0-.151.135-.042.176l1.225.456c.1.036.081.16-.027.176l-1.9.242a.092.092,0,1,0,.009.183c.848.038,1.9.079,2.009.066.127-.015-1.56.731-2.547,1.166-.112.048-.051.191.072.171l1.66-.283c.118-.02.181.117.075.171l-1.75.9c-.109.056-.039.194.081.168l1.3-.278c.1-.02.178.081.109.15l-1.189,1.176c-.081.081.036.2.142.138l.745-.407c.091-.051.205.031.157.115l-.769,1.405c-.054.094.1.178.178.1l.634-.591a.112.112,0,0,1,.19.066,5,5,0,0,0,.763,2.108c.051.092.217.054.205-.048l-.16-1.444c-.009-.094.136-.14.2-.061l.664.8c.063.076.205.036.2-.059l-.172-2.174c-.006-.1.145-.135.2-.053l.561.771c.06.081.208.041.2-.056l-.139-1.729c-.006-.1.148-.135.205-.051l.628.947c.06.089.22.043.205-.059l-.223-1.329c-.018-.1.142-.145.2-.059l.7,1c.06.082.208.043.205-.051l-.084-1.663c0-.1.16-.135.208-.043l.489.884c.051.092.211.059.208-.041l-.057-1.405c0-.1.172-.132.214-.033l.3.723c.042.1.22.069.211-.038l-.163-1.759.471,1.433c.03.1.205.084.211-.018l.133-1.54a.113.113,0,0,1,.208-.028l.438.894c.045.1.22.061.208-.043l-.13-1.11c-.012-.1.145-.143.2-.056l.468.685c.057.087.214.043.2-.056l-.124-1.062c-.012-.107.163-.143.211-.043l.19.42c.042.092.205.071.211-.028l.091-1.38c.006-.107.184-.12.214-.018l.06.219c.03.1.208.089.214-.018l.069-1c.006-.092.151-.12.205-.038l.266.4c.051.081.2.051.2-.041l.054-1.232c0-.094.154-.122.205-.038l.229.39c.048.084.2.059.205-.036a5.2,5.2,0,0,1,1.479-2.808c-.691,3.531-2.245,11.521-4.273,18.274q-7.346.779-14.688,1.538c-13.8,1.431-27.992,2.844-41.44-.061-23.508-5.08-45.607-22.984-68.334-15.891-9.266,2.895-16.2,9.6-25.445,12.525-19.079,6.039-42.086-5.225-61.315-4.8l-1.43-94.317a4.332,4.332,0,0,1,2.529-.665c.492.069,1.056.28,1.448.018a.994.994,0,0,0,.353-.629q.941-3.59,1.877-7.183a4.113,4.113,0,0,1,1.415-2.544c.875-.606,2.513-.461,2.8.463.235.754-.507,1.449-.812,2.185-.851,2.057,1.747,3.921,2.39,6.032.166.545.2,1.118.419,1.65.661,1.591,2.867,2.406,4.867,2.337a19.523,19.523,0,0,0,5.712-1.454,12.274,12.274,0,0,1,5.814-.909,3.3,3.3,0,0,0,1.919,0c.905-.456.619-1.594.818-2.467.4-1.724,2.912-2.46,4.988-2.327s4.143.787,6.192.479c-.181-1.665,1.717-3.264,3.69-3.106a15.631,15.631,0,0,1,2.978.85,3.158,3.158,0,0,0,2.942-.362c1.186-1.146-.347-2.852-1.859-3.677s-3.385-2.006-2.863-3.46c.383-1.069,2.031-2,1.379-2.971-.38-.565-1.3-.626-1.97-.955-2.912-1.423.477-6.34-2.456-7.735a7.3,7.3,0,0,0-2.866-.311c-.972-.033-2.109-.382-2.317-1.186-.1-.395.054-.807-.024-1.2-.148-.746-1.1-1.22-1.991-1.273a10.629,10.629,0,0,0-2.646.372,14.468,14.468,0,0,1-5.012.084,1.831,1.831,0,0,1-1.168-.5c-.341-.44-.118-1.123-.591-1.461a1.651,1.651,0,0,0-.908-.2q-3.078-.057-6.149-.12c-.649-.514.1-1.461.96-1.663a13.675,13.675,0,0,0,2.607-.418c.791-.364,1.186-1.146,1.925-1.576,2.55-1.484,5.709,2.22,8.7,1.52.628-.148,1.174-.484,1.786-.675,1.81-.56,3.76.237,5.576.782s4.23.682,5.289-.677a1.944,1.944,0,0,1-1.518-2.22c.115-.934.658-1.8.836-2.729a7.214,7.214,0,0,0-.136-2.589c-.377-2.174-1.1-4.731-3.53-5.515,1.02-2.236-.407-5.046-3.026-5.966-1.08-.382-2.408-.535-3.047-1.362.205-.815,1.88-.537,2.429-1.23s-.543-1.533-1.515-1.747-2.221-.441-2.4-1.273c1.587-.532,1.2-2.661-.115-3.582s-3.117-1.222-4.445-2.131c-.6-.412-1.119-1.085-.836-1.7a3.346,3.346,0,0,1,.733-.8,2.611,2.611,0,0,0-.042-3.547,6.106,6.106,0,0,0-3.862-1.8c-1.545-.2-3.491-.5-3.814-1.79-.67-2.694-4.318-4.12-7.579-4.188-1.681-.038-3.826-.059-4.439-1.38-.338-.728,0-1.556-.154-2.327-.353-1.851-3.174-2.533-5.368-2.233s-4.366,1.159-6.545.794a3.609,3.609,0,0,0-3.1-3.419,4.311,4.311,0,0,0-4.526,1.983.944.944,0,0,0-.124.619c.25,1.143,2.691.125,3.669.947.679.565-.217,1.581-1.168,1.655a23.342,23.342,0,0,1-2.818-.384,11.942,11.942,0,0,0-3.126.593,3.4,3.4,0,0,1-3.008-.443c-.513-.489-.643-1.258-1.306-1.6-1.128-.578-2.4.588-3.708.741-1.7.2-3.087-1.357-4.807-1.372-1.747-.018-2.885,1.472-3.79,2.732s-2.2,3.073-3.871,2.643c-1.05.728-2.722.031-3.962.507a3.137,3.137,0,0,0-1.563,1.683,4.112,4.112,0,0,1-1.364,1.831c-.694.433-2.166.252-2.5-.423.084-.39-.622-.6-1-.372a1.7,1.7,0,0,0-.634,1.029,7.917,7.917,0,0,1-4.39,4.522c-1.249.542-2.782.937-3.355,2.019-.833,1.574.972,3.506.1,5.064-.413.738-1.331,1.176-1.925,1.82-2.088,2.274.5,5.966-1.418,8.341-.606.746-1.626,1.306-1.828,2.195-.419,1.843,2.891,2.92,3.069,4.789a9.681,9.681,0,0,0-.024,1.535c.45,1.729,3.76,1.349,5.135,2.684,1.678,1.627-.522,4.68,1.346,6.152.935.738,2.586.731,3.223,1.668.606.9-.124,2.108.419,3.035.775,1.324,3.316.97,4.5,2.055s.184,3.032-1.442,3.613a9.827,9.827,0,0,1-5.2-.115,3.41,3.41,0,0,1-1.663-.654c-1.047-.983.081-2.505.039-3.827-.045-1.482-1.97-2.7-3.672-2.322l-.308-1.77c-1.5-.685-3.265.626-3.841,1.983s-.643,2.933-1.762,4.02a7.273,7.273,0,0,0-1.068,1.031,2.463,2.463,0,0,0-.293,1.462,10.536,10.536,0,0,1-.045,2.908,2.8,2.8,0,0,1-2.1,2.118,5.144,5.144,0,0,0-1.6.308,1.87,1.87,0,0,0-.709.95l-1.566,3.537c-1.6-.927-4.191.278-4.116,1.912a1.869,1.869,0,0,0-2.489.362,3.545,3.545,0,0,0-.543,2.376c.027,1.787.235,3.873,2.007,4.85.386.214.854.382,1.056.733.528.927-1.285,1.82-1.038,2.826.172.7,1.225.95,2.07.886a6,6,0,0,1,2.51.008,6.288,6.288,0,0,1,1.261.827c1.937,1.293,5.329.244,5.814-1.8a1.8,1.8,0,0,0,2.532-.675,5.167,5.167,0,0,0,.151-2.64,2.279,2.279,0,0,1,1.138-2.34c.872-.39,2.052-.089,2.839-.588.606-.387.751-1.108,1.234-1.6,1.168-1.2,3.536-.558,5.19-1.235,2.061-.843,2.658-3.57,4.927-3.837s3.539,2.185,3.7,4.122a2.026,2.026,0,0,1-.29,1.5c-.923,1.146-3.075.3-4.662.649-1.792.4-2.483,2.253-2.453,3.817s.459,3.208-.3,4.634a1.534,1.534,0,0,1-.766.749c-.688.262-1.494-.163-2.236-.053-1.391.211-1.466,1.861-1.159,3.022s.332,2.788-1.032,3.089a11.33,11.33,0,0,1-1.472.028,2.287,2.287,0,0,0-2.016,2.505,6.115,6.115,0,0,0,1.7,3c1.391,1.645,3.624,3.5,5.787,2.635,1.352-.54,1.868-1.9,2.64-2.979s2.516-2.014,3.672-1.209c-.468-1.607,2.058-2.643,4.016-2.607s4.276.351,5.564-.9c1.512-1.464.492-4.206,2.387-5.309.462-.267,1.026-.379,1.491-.644,1.771-1.013,1.53-3.852,3.618-4.252s3.232,2.215,5.292,2.694a16.028,16.028,0,0,0,2.6.059,12.408,12.408,0,0,1,4.206,1.563,4.943,4.943,0,0,0,4.221.25l-1.092,94.869a27.8,27.8,0,0,0-9.13,3.659C345.812,318.5,348.6,340.686,332.421,349.6c-17.389,9.586-39.108-3.539-57.936-11.055-25.765-10.284-57.625-9.439-82.536,2.192-6.656,3.109-13.563,7.078-21.161,6.355-8.249-.787-14.716-6.987-23-7.45-11.167-.626-19.435,9.176-30.5,10.6-11.221,1.446-22.476-6.067-33.381-3.46-13.3,3.183-15.814,18.332-26.833,25.255-10.362,6.513-24.987,4.089-37.877,5.67s-26.462,13.563-18.092,21.8c-13.756,12.644-16.785,28.517-11.967,45.031s13.9,32.2,16.345,49.069c3.527,24.311-7.006,48.461-8.334,72.919-1.8,33.095,12.987,67.987-2.882,98.424-2.118,4.066-4.819,8.456-3.289,12.7,1.829,5.072,8.72,7.435,14.8,9.131,14.5,4.043,36.748,9.383,51.243,13.426H2313.364V335.7C2310.935,316.874,2304.378,298.417,2294.647,281.271ZM1955.342,316.5c.232-.076.462-.14.694-.2l-.492.583c-.081.1-.266.038-.247-.082ZM1940.08,305.63c-.121.143-.383.056-.359-.117l.561-3.773,3.491,2.4c.16.109.039.328-.163.3l-1.62-.26.072-.333c.039-.178-.232-.275-.356-.13l-.314.369-.525-.084c-.208-.036-.326.194-.154.3l.326.2Zm1.545,15.959-.83-.135c.214-.094.431-.183.661-.262l.284.194C1941.852,321.462,1941.767,321.613,1941.625,321.59Zm.148-5.785-.039.013-.767-.412.754.076C1941.927,315.5,1941.966,315.739,1941.773,315.8Zm-.106-9.319.414.252-.356.438c-.121.15-.4.053-.359-.125l.452-2.075,2.022,1.237c.175.107.054.339-.157.3l-.616-.109.094-.425c.039-.178-.238-.275-.359-.125l-.359.44-.619-.109C1941.613,306.147,1941.493,306.379,1941.667,306.486Zm2.921,4.328-.721-.059.232-.97.962.565Zm-.281-1.884.048-.2c.039-.168-.208-.275-.344-.148l-.335.311-.5-.031c-.2-.01-.293.209-.127.306l.2.117-.555.512c-.136.125-.377.023-.341-.143l.531-2.426,2.372,1.446c.16.1.069.313-.133.3Zm1.336,4.109-.486-.074.118-.7.661.44Zm5.1-.267-.042.013c-.19.066-.359-.127-.226-.262l.486-.494Zm.978,6.482a11.558,11.558,0,0,1,2.857.471Zm2.936,4.591c.057-.033.139-.036.157.041l.057.26C1954.8,324.044,1954.733,323.945,1954.66,323.846Zm.763,1.087.036-.122c.03-.1.211-.087.214.02l.021.5C1955.6,325.2,1955.514,325.065,1955.423,324.933ZM587.214,289.987l-.576-.522c.238.031.477.069.715.117l.094.3C587.482,290,587.31,290.076,587.214,289.987Zm4.158-4.6-.045-.008-.332-.713.561.435C591.706,285.215,591.571,285.427,591.372,285.383Zm-190.816-93.26.6.01a19.8,19.8,0,0,1,4.574.451,2.278,2.278,0,0,1,1.011.41.577.577,0,0,1,.079.863c-.422.565-1.72.183-2.088.774-.084.135-.1.3-.217.418a.859.859,0,0,1-.495.171,8.363,8.363,0,0,1-3.132-.234,2.118,2.118,0,0,1-1-.5C399.24,193.8,399.9,192.808,400.555,192.123Zm-7.4-31.638a1.235,1.235,0,0,1,.658-.117q.905.011,1.81.018a4.92,4.92,0,0,1,3.4-.708,1.937,1.937,0,0,1,1.376.733.745.745,0,0,1-.594,1.1,2.045,2.045,0,0,1-.628-.115c-1.647-.42-3.4.474-5.105.285a1.59,1.59,0,0,1-.963-.377A.526.526,0,0,1,393.157,160.485Zm-9.867-24.12-.232.145c.775.076,1.569.038,2.332.176a2.458,2.458,0,0,1,1.828,1.1,1.1,1.1,0,0,1-.908,1.52c-.812.064-1.376-.652-2.112-.95-1.243-.507-2.915.219-4.037-.461A14,14,0,0,1,383.29,136.365Zm-57.16,58.1c-.317.629-1.285.766-2.094.815l-4.369.26a2.094,2.094,0,0,1,2.2-2.106l.211-.1c-.015-.252.353-.377.649-.425a5.245,5.245,0,0,1,2.369-.025C325.846,193.111,326.444,193.844,326.13,194.466Zm21.83-34.472a15.847,15.847,0,0,1-4.294.751,4.857,4.857,0,0,1-1.653-.056c-.531-.145-1.011-.527-1.026-1-.024-.629.715-1.059,1.367-1.367.594-.278,1.186-.555,1.78-.835l-1.273.614,4.33.15c.742.025,1.723.25,1.708.876C348.887,159.543,348.407,159.825,347.96,159.993Zm6.6-21.861a14.16,14.16,0,0,1,3.748-1.3l-.422-.12a4.8,4.8,0,0,1,3.425-.1c.495.326.163,1.052-.4,1.278a6.427,6.427,0,0,1-1.85.2c-.782.066-1.521.334-2.293.456A2.756,2.756,0,0,1,354.556,138.132Zm10.368,62.61-4.807.382a2.064,2.064,0,0,1-1.017-.089c-.3-.138-.486-.507-.266-.731l2.23-.743a5.411,5.411,0,0,1-.76.084l.887-.125-.127.041a12.375,12.375,0,0,1,2.127-.334C364.172,199.232,365.28,199.97,364.924,200.742ZM601.6,292.912l.247-.222c.241.051.471.115.7.186l-.8.227C601.609,293.139,601.5,293,601.6,292.912Zm-4.71-16.866,3.084-2.77,1.147,3.677c.051.168-.2.285-.338.158l-1.129-1.016.293-.234c.154-.122,0-.336-.2-.28l-.51.143-.365-.331c-.145-.13-.4,0-.335.168l.124.323-1.566.438C596.9,276.375,596.751,276.174,596.893,276.047Zm4.541,10.852-.7.494-.042-.01a.164.164,0,0,1,0-.326Zm-2.29-9.046-.6.178-.425-.4c-.142-.135-.4-.008-.335.165l.157.412-.591.176c-.2.061-.359-.155-.2-.28l1.81-1.454.772,2.006c.066.173-.193.3-.338.165l-.419-.395.371-.3C599.5,278.01,599.346,277.793,599.144,277.852ZM596.13,280.7l2.124-1.7.905,2.345c.063.16-.163.288-.317.181l-.628-.446.178-.14c.148-.115.024-.321-.175-.288l-.489.084-.38-.27c-.154-.109-.383.023-.317.183l.078.194-.806.137C596.109,281.024,595.985,280.818,596.13,280.7Zm2.858,14.215-1.982-1.8A9.232,9.232,0,0,1,598.987,294.919Zm-2.4-12.575.863-.667.383.934-.706.14Zm.084,1.92.229.682-.471.127-.344-.3Zm-.4,14.134-.133.239c.012-.117.024-.232.033-.349C596.245,298.287,596.311,298.328,596.272,298.4Zm-.238,1.148.112-.081c.1-.069.232.033.163.122l-.338.418C595.991,299.851,596.015,299.7,596.033,299.545Zm34.66,6.421c-12.278,1.675-24.6,3.119-36.944,4.448a84.339,84.339,0,0,0,2.148-9.894l.643-.333c.1-.053.214.048.148.13l-.742.924c-.069.087.063.188.16.122l.887-.611c.09-.061.217.02.169.11l-.754,1.405c-.051.094.091.178.178.1L597.8,301.3l-1.135,1.479c-.069.089.069.191.163.12l.679-.512c.09-.071.229.023.166.115l-.842,1.212c-.06.087.063.178.157.12l.929-.581c.1-.059.22.036.16.122l-1.014,1.426c-.057.084.054.176.151.127l1.183-.6c.1-.051.214.053.142.135l-.947,1.077c-.069.081.045.188.148.132l1.086-.578c.1-.053.214.043.151.127l-1.1,1.464c-.06.079.048.176.148.127l.926-.451c.1-.048.208.048.148.127l-1.379,1.843c-.06.079.042.173.142.132l1.038-.44c.1-.043.2.053.139.132l-.956,1.2c-.066.084.057.186.157.125a6.332,6.332,0,0,0,1.862-1.546.115.115,0,0,1,.2.018l.223.777a.113.113,0,0,0,.214-.015l.115-1.546a.115.115,0,0,1,.205-.038l.425.659c.06.094.229.041.2-.064l-.38-1.515c-.024-.087.1-.148.178-.087l.99.769c.094.071.232-.023.169-.115l-1.032-1.5c-.06-.089.072-.183.166-.117l1.294.917c.1.066.232-.033.163-.122-.625-.779-1.684-2.113-1.578-2.05.084.053,1.038.443,1.8.751.118.048.217-.089.112-.155l-1.536-.983c-.087-.056-.033-.173.075-.165l1.337.094c.118.01.163-.125.06-.173l-1.708-.779c-.1-.046-.06-.178.057-.173l1.877.081c.121.005.163-.135.051-.176-.7-.25-1.85-.652-2.266-.769.389.02,1.394-.061,1.949-.109a.091.091,0,0,0,.036-.176l-2.574-1.057c-.1-.043-.069-.171.045-.176l1.527-.056c.118,0,.145-.137.039-.176l-1.952-.69c-.109-.041-.078-.176.039-.178l1.041-.02c.118,0,.148-.138.039-.176l-2.242-.789a.089.089,0,0,1,.024-.176l1.056-.145a.091.091,0,0,0,.024-.178l-1.476-.494a.089.089,0,0,1,.024-.176l.944-.107a.09.09,0,0,0,.033-.176l-1.663-.657c-.106-.041-.075-.171.039-.176l.914-.041a3.687,3.687,0,0,1,.2.372.144.144,0,0,0,.263-.013l.13-.537a.145.145,0,0,1,.265-.01l.54,1.482a.146.146,0,0,0,.266-.008l.166-.565a.145.145,0,0,1,.263-.008l.471,1.2c.048.125.272.092.268-.041l-.012-.283c0-.132.22-.165.268-.038l.646,1.655a.143.143,0,0,0,.266-.025l.072-.563c.015-.135.244-.14.272-.008l.262,1.329a.145.145,0,0,0,.269.01l.3-.962a.145.145,0,0,1,.269.01l.275,1.388a.142.142,0,0,0,.272-.005l.181-1.207a.144.144,0,0,1,.266-.025l.757,1.838c.051.122.266.092.269-.038l.012-1.871.486,2.182c.03.132.259.122.272-.013l.09-.962a.144.144,0,0,1,.272-.015l.477,1.721a.144.144,0,0,0,.269-.005l.25-1.209a.145.145,0,0,1,.272-.005l.543,2.042a.147.147,0,0,0,.268.005l.465-1.408a.144.144,0,0,1,.269.015l.244,1.678a.145.145,0,0,0,.272.015l.4-1.327a.145.145,0,0,1,.269.008l.5,2.139a.144.144,0,0,0,.266.01l.383-1.092a.145.145,0,0,1,.266.01l.637,2.691a.147.147,0,0,0,.266.018l.495-1.164a.146.146,0,0,1,.266.02l.365,1.8a.142.142,0,0,0,.269,0A6.033,6.033,0,0,0,615.8,303c-.039-.1.094-.191.2-.132l1,.545c.13.074.281-.069.178-.171l-1.482-1.495c-.091-.089.015-.222.148-.186l1.065.293c.151.041.25-.132.121-.206l-1.907-1.1c-.112-.064-.057-.211.075-.211l1.693-.025c.157,0,.187-.191.036-.227l-2.48-.611a.114.114,0,0,1,.027-.227l2.124-.115c.16-.01.178-.2.024-.229-1.37-.255-3.711-.7-3.548-.713.133-.015,1.4-.356,2.417-.634.157-.043.106-.242-.06-.227l-2.411.229c-.136.013-.208-.132-.1-.206l1.316-.891c.115-.079.021-.237-.124-.2l-2.36.542c-.142.031-.238-.12-.127-.2l1.8-1.3c.118-.087.009-.244-.136-.2-.9.288-2.357.759-2.86.96a19.8,19.8,0,0,0,1.666-1.53c.09-.089-.012-.219-.145-.183l-3.437.917c-.136.036-.238-.1-.139-.191l1.337-1.171c.1-.089-.009-.232-.148-.188l-2.489.8c-.139.043-.253-.1-.148-.191l.929-.782c.106-.089-.006-.237-.145-.191l-2.857.922c-.13.041-.241-.087-.157-.178l.812-.906c.085-.094-.03-.221-.16-.178l-1.856.631c-.133.043-.247-.087-.157-.181l.247-.262a.173.173,0,0,0,.136-.143l.368-.384c.084-.089-.021-.219-.151-.183l-.489.138-.256-.341c-.109-.148.087-.323.265-.237l2.323,1.1c.175.084.368-.081.269-.229l-.495-.733c-.1-.145.091-.311.266-.232l1.91.858c.2.092.4-.13.232-.267l-.341-.285c-.166-.138.03-.359.232-.267l2.634,1.192c.19.087.383-.107.253-.25l-.591-.649c-.142-.155.091-.354.278-.237l1.844,1.171c.172.109.4-.056.3-.214l-.824-1.263c-.1-.158.124-.323.3-.214l1.928,1.225c.181.115.413-.079.278-.234l-1.24-1.421c-.124-.143.066-.331.253-.25l2.969,1.291c.2.084.389-.127.235-.265l-2.2-1.976,3.09,1.882c.19.115.419-.089.272-.242l-1.041-1.087c-.145-.15.072-.351.262-.247l2.541,1.408c.181.1.4-.081.275-.234l-1.168-1.482c-.121-.153.094-.334.275-.232l2.99,1.686c.172.1.383-.064.287-.219l-1.18-1.871c-.1-.163.136-.326.3-.209l2.245,1.553c.169.12.407-.051.3-.211l-1.153-1.726c-.1-.155.115-.323.29-.219l3.06,1.821c.172.1.389-.056.293-.214l-.89-1.467c-.1-.155.121-.316.29-.214l3.853,2.286c.166.1.38-.048.3-.2l-.857-1.637c-.082-.158.136-.306.3-.2l2.3,1.449Zm3.192-63.03-.172.107.172-.117Zm1035.887,76.316c-.332.28-4.472-1.851-8.479-4.023a3.648,3.648,0,0,0,.528-.512c.757-1.052.848-2.35,1.433-3.475a5.548,5.548,0,0,1,2.791-2.467l.1-.094a10.181,10.181,0,0,1,1.044-.005C1668.487,312.958,1670.189,318.9,1669.773,319.252Zm3.28,1.66c-.769.756-1.91-6.075-2.725-11.87a9.715,9.715,0,0,1,1.2.316,7.294,7.294,0,0,0,2.221.738,4.175,4.175,0,0,0,.99-.076C1674.431,314.29,1673.87,320.108,1673.052,320.912Zm6.17-9.961c1.446,1.342,2.568,3.32,4.656,3.363a11.212,11.212,0,0,0,2.161-.367,5.845,5.845,0,0,1,5.772,2.3c1.515-1.51,4.4-1.3,6.243-.059l-10.953,5.3c-.069,0-.145-.015-.214-.015-3.7-.015-7.266,1.029-10.857,1.813Zm117.127,81.115a141.984,141.984,0,0,0-19.447-4.178l1.871,4.456q-1.521-.328-3.057-.726l-3.723-4.272a74.963,74.963,0,0,0-10.114-.221c-2.661-.973-5.268-1.945-7.752-2.831q-2.838-1.008-5.727-1.821c13.49.074,32.814,1.607,50.73,8.234A17.058,17.058,0,0,1,1796.35,392.067Zm10.017-10a14.175,14.175,0,0,0-4.125-4.379c-7.489-5.581-17.51-8.308-27.777-9.324l6.406,9.787L1769.1,367.98a125.99,125.99,0,0,0-24.241,1.4l7.715,6.587-13.035-5.64c-.932.188-1.831.382-2.673.581-8.8,2.052-9.646,5.405-8.681,7.975-16.61-1.449-33.894.272-50.851,2.872,0-6.195-.006-12.247-.006-17.927l24.229-18.694a15.48,15.48,0,0,1,4.728.2,7.592,7.592,0,0,0,3.28.349,5.528,5.528,0,0,0,1.6-.746q1.865-1.134,3.732-2.266a5.073,5.073,0,0,1,1.292-.621,4.972,4.972,0,0,1,3.491.723,8.164,8.164,0,0,0,3.343,1.276c1.237.064,2.619-.833,2.321-1.846s-1.862-1.293-2.592-2.129c-.987-1.128-.2-2.956-1.343-3.977-1.4-1.253-3.886,0-5.9-.275-1.735-.237-3.147-1.65-4.894-1.495-1.379.122-2.773,1.2-3.962.6-.443-.221-.712-.639-1.159-.855-1.654-.8-3.234,1.658-5.139,1.538-1.15-.074-2.182-1.1-3.253-.744-.464.155-.893.563-1.358.415-.32-.1-.453-.413-.688-.621a1.572,1.572,0,0,0-2.26.749,3.132,3.132,0,0,0,.562,2.381l-3.739-.252c.163.894.248,1.968-.585,2.533-1.391.947-6.56.364-3.277,2.89,1.931,1.484,5.932,1.953,8.379,2.539a10.09,10.09,0,0,0,2.728.379,15.723,15.723,0,0,0,2.767-.537c.392-.087.8-.076,1.2-.132l-23.508,15.272c0-11.4.012-21.031.033-26.961a9.735,9.735,0,0,1,7.9-1.334,20.084,20.084,0,0,1,5.688-3.646,4.554,4.554,0,0,1,1.533-.433c1.494-.087,2.4.44,3.337-.787.911-1.192.157-2.162-.808-3.1a9.665,9.665,0,0,0-4.149-2.185l7.935-5.235a3.693,3.693,0,0,1,.368.395c1.087,1.5,1.231,3.5,2.761,4.693,2.034,1.591,5.98.463,6.448-1.843a17.25,17.25,0,0,1,9.752,1.161,4.762,4.762,0,0,0,1.768.555c1.246.033,2.154-.937,3.229-1.467,2.867-1.421,6.8.351,9.761-.922,1.319-.568,2.347-1.708,3.82-1.828a3.227,3.227,0,0,1,.721.028.891.891,0,0,0-.413.16.65.65,0,0,0,.006.988,1.249,1.249,0,0,0,.45.84l50.139,42.74c6.572,6.134,13.107,12.5,19.214,18.839C1806.672,381.455,1806.515,381.76,1806.367,382.068Zm225.693-76.076-6.774-6.182a5.457,5.457,0,0,1,2.513-.535c1.391.01,2.924.178,4.04-.522.118-.071.223-.155.332-.237Z" transform="translate(13 -82.209)"/><path class="f" d="M1784.466,570.736c-4.475-5.008-9.45-10.192-16.466-12.263-9.21-2.722-20.052.522-28.812-3.106-7.195-2.981-11.07-9.854-17.91-13.38-11.323-5.838-25.679-.739-38.843.664s-30.793-6.8-25.776-17.162c-32.563,15.415-73,2.977-107.235-9.608-7.705-2.833-15.95-6.067-20-12.283-4.467-6.86-2.646-15.673-6.977-22.594-12.233-19.555-55.183-5.1-70.086-23.292-5.472-6.682-5.245-16.186-12.062-21.92-10.773-9.064-29.12-2.173-44.052-4.618-21.917-3.585-36.751-27.6-58.679-24.06-7.156,1.152-13.154,5.219-20.046,7.206-37.2,10.72-62.572-39.926-101.818-41.839-.142-.007-.287,0-.429-.007l-.473-1.927c-.034-.138.166-.224.281-.124l.929.817c.131.115.352-.018.266-.16L1215.008,369c-.073-.12.079-.251.221-.187l1.8.784c.168.073.326-.111.192-.222l-2.21-1.834c-.132-.109.016-.291.184-.226l2.32.9c.174.067.321-.127.176-.231-1.273-.923-3.449-2.513-3.267-2.453.15.049,1.723.3,2.98.486.195.031.274-.2.09-.264l-2.7-.915a.135.135,0,0,1,.031-.266l1.992-.311a.137.137,0,0,0,.008-.273l-2.86-.562a.136.136,0,0,1,0-.271l2.775-.513a.138.138,0,0,0-.01-.275c-1.144-.127-3-.326-3.667-.357.581-.1,2-.557,2.788-.817a.134.134,0,0,0-.029-.264l-4.246-.677a.135.135,0,0,1-.021-.269l2.2-.595a.136.136,0,0,0-.029-.271l-3.172-.349a.136.136,0,0,1-.026-.271l1.507-.382a.136.136,0,0,0-.026-.271l-3.635-.4c-.166-.018-.2-.206-.048-.264l1.468-.568c.153-.058.116-.249-.05-.264l-2.383-.222c-.171-.018-.2-.211-.047-.266l1.326-.475a.134.134,0,0,0-.037-.264l-2.733-.4a.135.135,0,0,1-.023-.269l1.315-.368a5.9,5.9,0,0,1,.46.477c.118.149.392.067.376-.111l-.066-.824c-.016-.182.266-.26.381-.107l1.489,1.978c.113.151.387.08.381-.1l-.026-.879c-.005-.175.266-.249.381-.1l1.25,1.583c.131.169.442.044.371-.149l-.147-.4c-.071-.193.239-.318.371-.149l1.723,2.193c.124.158.413.06.376-.124l-.163-.844c-.04-.2.292-.289.394-.1l1.008,1.845c.095.171.4.113.4-.075l-.019-1.5c0-.189.3-.246.4-.075l1.055,1.929c.1.182.426.1.392-.1l-.3-1.82c-.032-.184.25-.278.376-.124l1.97,2.422c.132.162.431.044.371-.144l-.863-2.73,1.736,3.015c.108.184.437.093.392-.109l-.321-1.434c-.045-.2.274-.291.387-.115l1.507,2.351c.108.167.41.089.389-.1l-.205-1.847c-.021-.191.282-.269.389-.1l1.76,2.795c.1.16.389.1.392-.082l.011-2.211c0-.191.313-.242.4-.064l1.152,2.362c.087.178.4.122.4-.071l-.047-2.065c-.005-.186.295-.249.395-.082l1.744,2.948c.1.164.39.109.392-.073l.042-1.72c0-.182.295-.238.392-.075l2.2,3.707a.22.22,0,0,0,.395-.064l.171-1.86a.218.218,0,0,1,.395-.062l1.384,2.5c.1.178.413.1.395-.089a9.428,9.428,0,0,0-1.152-4.08c-.1-.14.047-.313.234-.262l1.715.457c.226.062.376-.2.179-.311l-2.865-1.676c-.171-.1-.082-.329.126-.32l1.692.064c.239.009.3-.273.076-.34l-3.3-.966a.168.168,0,0,1,.011-.333l2.454-.606c.229-.058.181-.34-.055-.344l-3.9-.053c-.234,0-.284-.277-.066-.34l3.041-.884c.226-.067.163-.351-.076-.34-2.115.089-5.732.233-5.506.153.187-.064,1.876-.992,3.22-1.736.21-.118.042-.388-.192-.311l-3.4,1.146c-.192.067-.365-.122-.245-.264l1.5-1.745c.132-.153-.082-.349-.274-.253l-3.186,1.583c-.192.1-.4-.1-.279-.249l2-2.5c.129-.162-.1-.357-.292-.242-1.173.719-3.073,1.9-3.712,2.36a26.983,26.983,0,0,0,1.7-2.788c.087-.16-.126-.317-.3-.222l-4.572,2.5c-.182.1-.4-.073-.295-.231l1.4-2.156c.105-.164-.126-.337-.3-.227l-3.252,2c-.182.111-.416-.064-.3-.229l.984-1.452c.11-.162-.124-.34-.305-.226l-3.725,2.3c-.168.1-.392-.044-.316-.206l.758-1.594c.079-.166-.15-.313-.318-.2l-2.4,1.541c-.171.111-.4-.042-.316-.209l.239-.466a.239.239,0,0,0,.131-.253l.353-.684c.082-.162-.134-.313-.308-.215l-.645.364-.537-.413c-.229-.178-.026-.5.276-.433l3.9.821c.3.062.5-.244.287-.426l-1.068-.9c-.213-.18-.016-.484.279-.426l3.186.608c.34.064.516-.324.213-.468l-.634-.3c-.3-.142-.124-.533.215-.468l4.4.852c.316.06.508-.284.25-.451l-1.171-.748c-.279-.178-.034-.546.292-.437l3.244,1.086c.3.1.552-.215.326-.413l-1.794-1.561c-.226-.2.026-.513.326-.413l3.388,1.137c.321.107.568-.253.3-.435l-2.478-1.654c-.25-.166-.063-.5.247-.446l4.935.879c.331.06.508-.315.221-.464l-4.138-2.138,5.393,1.7c.329.1.566-.271.279-.444l-2.034-1.232c-.279-.171-.058-.537.268-.448l4.364,1.194c.313.087.54-.251.292-.433l-2.4-1.765c-.25-.182-.021-.519.292-.431l5.154,1.45c.3.082.529-.224.313-.415l-2.6-2.331c-.226-.2.039-.52.339-.406l4,1.509c.305.115.571-.211.337-.411l-2.494-2.127c-.226-.191.013-.508.316-.417l5.322,1.625c.295.091.537-.213.324-.408l-1.992-1.838c-.213-.2.026-.5.324-.411l6.7,2.036c.287.087.526-.2.334-.4l-2.021-2.1c-.194-.2.055-.493.342-.4l4.409,1.456c.313.1.56-.238.308-.426-1.463-1.1-4.036-2.866-6.035-3.31-.276-.06-.321-.368-.066-.475l2.341-.961c.31-.129.163-.524-.176-.479l-5,.655c-.3.04-.471-.275-.242-.442l1.85-1.356c.263-.193-.005-.544-.321-.422l-4.6,1.765c-.268.1-.531-.144-.387-.36l1.86-2.7c.173-.253-.21-.513-.463-.315l-4.159,3.232c-.247.193-.626-.051-.471-.3l2.147-3.49c.16-.26-.245-.5-.484-.293-2.112,1.876-5.74,5.077-5.6,4.8.121-.229.795-2.622,1.323-4.54.084-.3-.413-.44-.566-.162l-2.218,4.071a.317.317,0,0,1-.571-.073l-.495-3.09a.315.315,0,0,0-.587-.036l-1.471,4.344a.317.317,0,0,1-.587-.027l-.858-4.313a.313.313,0,0,0-.592-.009c-.379,1.745-.979,4.58-1.1,5.6a36.446,36.446,0,0,0-1.51-4.362.318.318,0,0,0-.576.022l-1.847,6.469a.319.319,0,0,1-.584.007L1218.9,331a.316.316,0,0,0-.587.02l-1.042,4.844a.317.317,0,0,1-.589.016l-.684-2.353a.315.315,0,0,0-.587.016l-1.184,5.559a.319.319,0,0,1-.576.049l-1.092-2.311a.318.318,0,0,0-.576.053l-.7,3.647a.317.317,0,0,1-.579.047l-.9-2.085a.319.319,0,0,0-.576.033l-1.1,4.167a.318.318,0,0,1-.584.013l-.7-2.136c-.018-.051-.079-.06-.121-.091l1.831-.877c.266-.127.163-.466-.142-.473l-1.51-.033c-.3-.007-.405-.34-.145-.471l2.8-1.412c.3-.151.108-.535-.226-.464l-.708.151c-.337.071-.526-.315-.226-.464l3.883-1.945c.279-.14.137-.5-.187-.471l-1.457.14c-.347.031-.471-.377-.145-.488l3.236-1.1c.3-.1.224-.477-.1-.488l-2.575-.089c-.323-.011-.4-.386-.1-.488l3.38-1.148c.324-.109.205-.515-.139-.488l-3.144.244c-.318.024-.458-.329-.187-.468l4.293-2.233c.29-.151.111-.524-.218-.464l-4.746.859,5.3-1.9c.321-.118.187-.526-.161-.486l-2.481.289c-.339.04-.481-.355-.171-.48l4.138-1.672c.295-.12.184-.495-.145-.484l-3.181.12c-.329.011-.439-.366-.142-.484l4.919-1.947c.282-.113.2-.468-.11-.484l-3.791-.173c-.329-.016-.395-.4-.084-.493l4.133-1.237c.313-.093.242-.484-.092-.493l-3.544-.089c-.321-.009-.405-.377-.11-.486l5.183-1.918c.287-.107.213-.468-.1-.486l-2.946-.173c-.313-.018-.387-.377-.1-.484l6.514-2.42a.247.247,0,0,0-.082-.484l-3.178-.344c-.308-.033-.363-.388-.076-.486l4.383-1.51c.313-.107.213-.5-.124-.488-1.96.053-5.267.273-7.077,1.112-.25.115-.534-.08-.434-.306l.91-2.058c.121-.273-.311-.475-.521-.244l-3.083,3.379c-.184.2-.566.075-.539-.178l.234-2.06c.034-.291-.447-.391-.579-.118l-1.891,3.956a.322.322,0,0,1-.573-.035l-.86-3.039a.312.312,0,0,0-.592.042l-.373,4.762c-.021.282-.495.326-.589.053l-1.294-3.776c-.095-.282-.589-.224-.589.069,0,2.586-.013,7.017-.132,6.733-.1-.233-1.565-2.36-2.746-4.058-.184-.264-.66-.078-.545.211l1.718,4.24c.1.24-.237.439-.471.28l-2.883-1.951c-.252-.171-.6.073-.455.315l2.483,4c.15.24-.19.482-.447.32l-4.143-2.626c-.271-.171-.621.1-.437.337,1.15,1.485,3.033,3.889,3.778,4.7A42.929,42.929,0,0,0,1198,320.6c.081-.211-.179-.417-.424-.3l-.113.055-.116-.051c-.25-.111-.5.1-.41.309a42.36,42.36,0,0,0-3.915,2.113c.708-.837,2.483-3.3,3.567-4.817.174-.244-.189-.5-.45-.324l-4.028,2.755c-.25.171-.6-.062-.46-.306l2.3-4.08c.142-.246-.221-.48-.468-.3l-2.794,2.04c-.226.167-.571-.022-.484-.266l1.531-4.289c.1-.293-.382-.464-.552-.2-1.108,1.734-2.478,3.9-2.568,4.142-.1.286-.316-4.14-.429-6.724-.01-.3-.508-.337-.592-.051l-1.126,3.814a.314.314,0,0,1-.592-.036l-.582-4.746a.313.313,0,0,0-.595-.024l-.726,3.066a.319.319,0,0,1-.568.053l-2.068-3.9c-.142-.266-.618-.153-.571.138l.324,2.051c.04.251-.337.391-.531.2l-3.231-3.281c-.218-.224-.639-.009-.508.26l1,2.029c.108.222-.166.428-.421.32-1.847-.784-5.159-.9-7.121-.89-.334,0-.418.4-.1.493l4.449,1.37a.247.247,0,0,1-.055.488l-3.16.444a.247.247,0,0,0-.063.486l6.616,2.213c.292.1.234.46-.079.488l-2.936.264c-.31.029-.371.391-.079.488l5.264,1.754c.3.1.229.471-.089.491l-3.538.2c-.332.02-.387.413-.068.495l4.183,1.106c.313.082.266.468-.063.5l-3.778.293c-.313.024-.379.384-.092.486l5,1.791c.3.109.211.491-.118.488l-3.186-.02c-.326,0-.421.377-.121.486l4.209,1.543c.313.115.189.515-.15.486l-2.494-.211c-.35-.031-.466.382-.137.488l5.378,1.736-4.78-.708c-.331-.049-.495.331-.2.471l4.391,2.1c.276.131.153.488-.166.473l-3.154-.144c-.345-.016-.445.393-.118.493l3.431,1.041c.305.091.245.471-.079.491l-2.568.169c-.324.02-.384.4-.079.491l3.281,1c.331.1.226.515-.124.493l-1.463-.093c-.323-.02-.45.346-.166.477l3.967,1.82c.305.14.131.531-.208.471l-.71-.129c-.339-.062-.513.331-.208.471l2.865,1.323c.266.122.176.46-.124.477l-1.51.078c-.3.016-.389.36-.118.48l1.865.817c-.039.033-.1.042-.113.1l-.608,2.156a.317.317,0,0,1-.584,0l-1.286-4.129a.32.32,0,0,0-.579-.013l-.81,2.109a.316.316,0,0,1-.579-.029l-.86-3.621a.319.319,0,0,0-.578-.036l-.989,2.342a.317.317,0,0,1-.576-.031l-1.426-5.517a.317.317,0,0,0-.589,0l-.581,2.373a.314.314,0,0,1-.587,0l-1.255-4.808a.316.316,0,0,0-.587,0l-.934,3.47a.316.316,0,0,1-.581.011l-2.131-6.407a.32.32,0,0,0-.578,0,36.128,36.128,0,0,0-1.315,4.407c-.171-1.019-.9-3.836-1.352-5.568a.314.314,0,0,0-.592.029l-.666,4.338a.315.315,0,0,1-.584.044l-1.663-4.3a.314.314,0,0,0-.584.055l-.358,3.1a.317.317,0,0,1-.568.089l-2.394-4c-.166-.273-.655-.115-.56.18.615,1.9,1.394,4.271,1.523,4.493.158.271-3.609-2.815-5.8-4.622-.247-.206-.642.051-.471.306l2.3,3.419c.166.249-.2.5-.458.32l-4.3-3.1c-.26-.189-.631.082-.447.329l1.975,2.644c.155.209-.1.464-.368.368l-4.68-1.621c-.321-.111-.571.249-.3.433l1.91,1.3c.234.16.076.477-.224.448l-5.019-.5c-.342-.036-.473.366-.158.484l2.383.888a.244.244,0,0,1-.045.477c-1.978.506-4.473,2.349-5.888,3.5-.242.2.021.528.329.415l4.341-1.594c.284-.1.547.178.36.386l-1.928,2.16c-.184.2.071.484.353.386l6.6-2.242c.292-.1.547.2.342.4l-1.91,1.9c-.2.2.05.5.342.4l5.246-1.789c.3-.1.552.206.334.406l-2.4,2.2c-.224.206.058.522.355.4l3.936-1.632c.294-.122.573.184.358.4l-2.5,2.411c-.2.2.04.495.332.4l5.088-1.609c.308-.1.55.231.31.422l-2.323,1.838c-.24.189,0,.519.31.424l4.309-1.332c.321-.1.558.262.287.44l-1.978,1.3c-.276.182-.023.548.3.435l5.314-1.869L1165.647,344c-.281.158-.089.526.24.457l4.893-1.035c.308-.064.51.266.268.44l-2.4,1.729c-.263.189,0,.544.316.426l3.336-1.241c.3-.111.563.2.345.4l-1.723,1.616c-.216.2.047.513.344.4l3.191-1.188c.321-.118.584.242.313.428l-1.137.784c-.25.175-.045.513.269.442l4.362-.988c.337-.076.531.309.234.462l-.621.322c-.295.153-.1.535.234.462l3.159-.708c.289-.067.5.231.3.417l-1.029.935c-.208.189.01.486.3.415l3.865-.943c.3-.073.516.24.295.426l-.516.428-.663-.344c-.176-.093-.387.067-.3.224l.384.673a.242.242,0,0,0,.139.249l.263.46c.092.162-.134.322-.308.22l-2.47-1.467c-.174-.1-.4.053-.311.215l.826,1.567c.087.162-.132.315-.305.218l-3.825-2.187c-.184-.107-.41.078-.292.237l1.047,1.419c.118.162-.108.344-.292.237l-3.339-1.9c-.184-.1-.408.073-.295.235l1.489,2.109c.11.158-.1.333-.284.24l-4.677-2.349c-.179-.089-.384.076-.289.231a27.616,27.616,0,0,0,1.826,2.733c-.66-.442-2.61-1.558-3.815-2.24-.192-.111-.418.091-.282.249l2.113,2.437c.131.151-.071.346-.266.258l-3.251-1.481c-.2-.091-.4.111-.263.262l1.571,1.7c.129.138-.037.331-.234.273l-3.451-1.039c-.234-.071-.392.2-.179.315,1.379.7,3.107,1.576,3.3,1.636.231.071-3.394.04-5.509.018-.239,0-.292.282-.06.342l3.075.786c.224.058.184.333-.047.344l-3.9.175a.173.173,0,1,0-.039.344l2.478.528a.169.169,0,0,1,.024.333l-3.251,1.068c-.224.073-.147.355.092.337l1.686-.118c.208-.013.308.209.142.315l-1.957,1.237c-9.768-.821-20.328-8.256-25.618-16.248-7.661-11.57-14-26.346-29.259-29.505-15.1-3.126-30.551,7.526-45.73,4.691-9.381-1.751-16.292-8.22-24.169-12.867a50.457,50.457,0,0,0-8.129-3.816l-.692-45.682a3.761,3.761,0,0,1,2.2-.579c.429.06.921.244,1.263.013a.867.867,0,0,0,.308-.548q.816-3.13,1.636-6.26a3.585,3.585,0,0,1,1.234-2.22c.763-.528,2.191-.4,2.444.4.205.657-.442,1.263-.708,1.9-.742,1.794,1.523,3.419,2.083,5.259.145.475.174.975.366,1.439.576,1.39,2.5,2.1,4.244,2.04a17.091,17.091,0,0,0,4.98-1.268,10.731,10.731,0,0,1,5.069-.795,2.861,2.861,0,0,0,1.673,0c.789-.4.539-1.39.713-2.151.344-1.5,2.539-2.142,4.349-2.029s3.609.686,5.4.42c-.158-1.454,1.5-2.846,3.217-2.708a13.471,13.471,0,0,1,2.6.741,2.76,2.76,0,0,0,2.565-.317c1.031-1-.3-2.484-1.621-3.2s-2.952-1.752-2.5-3.019c.334-.932,1.771-1.74,1.2-2.588-.332-.5-1.134-.548-1.718-.832-2.539-1.243.416-5.53-2.141-6.746a6.448,6.448,0,0,0-2.5-.271c-.847-.029-1.839-.333-2.02-1.035-.09-.342.047-.7-.021-1.048-.129-.653-.955-1.063-1.736-1.11a9.265,9.265,0,0,0-2.307.322,12.561,12.561,0,0,1-4.37.073,1.6,1.6,0,0,1-1.018-.44c-.3-.382-.1-.977-.516-1.274a1.42,1.42,0,0,0-.792-.169l-5.364-.107c-.566-.448.092-1.274.839-1.447a12.1,12.1,0,0,0,2.273-.366c.687-.315,1.034-1,1.678-1.374,2.223-1.294,4.977,1.936,7.579,1.328.55-.129,1.026-.424,1.56-.591,1.578-.486,3.278.209,4.861.682s3.686.595,4.612-.588a1.7,1.7,0,0,1-1.323-1.936c.1-.817.574-1.572.729-2.382a6.284,6.284,0,0,0-.118-2.258c-.329-1.894-.958-4.122-3.078-4.808.889-1.947-.355-4.4-2.639-5.2-.942-.331-2.1-.464-2.657-1.188.179-.71,1.636-.468,2.118-1.072s-.474-1.334-1.321-1.521-1.936-.384-2.1-1.112c1.384-.464,1.044-2.32-.1-3.123s-2.718-1.066-3.875-1.856c-.526-.362-.976-.948-.729-1.478a2.926,2.926,0,0,1,.639-.7,2.28,2.28,0,0,0-.037-3.095,5.335,5.335,0,0,0-3.367-1.565c-1.347-.171-3.044-.435-3.325-1.558-.584-2.349-3.765-3.592-6.608-3.654-1.466-.031-3.336-.051-3.87-1.2-.295-.635,0-1.356-.134-2.031-.308-1.614-2.768-2.207-4.68-1.947s-3.807,1.01-5.709.693a3.141,3.141,0,0,0-2.7-2.981,3.764,3.764,0,0,0-3.946,1.729.826.826,0,0,0-.108.539c.218,1,2.347.109,3.2.826.592.493-.19,1.379-1.018,1.443a20.343,20.343,0,0,1-2.457-.333,10.321,10.321,0,0,0-2.725.517,2.979,2.979,0,0,1-2.625-.386c-.445-.428-.558-1.1-1.136-1.392-.984-.5-2.094.513-3.233.646-1.484.175-2.691-1.183-4.191-1.2-1.523-.016-2.515,1.285-3.3,2.382s-1.92,2.682-3.375,2.3c-.915.637-2.373.027-3.454.444a2.723,2.723,0,0,0-1.363,1.465,3.586,3.586,0,0,1-1.189,1.6c-.605.38-1.889.22-2.178-.366.074-.34-.542-.524-.876-.326a1.481,1.481,0,0,0-.552.9,6.891,6.891,0,0,1-3.828,3.943c-1.089.475-2.428.817-2.925,1.763-.726,1.37.844,3.057.084,4.413-.36.644-1.16,1.026-1.679,1.589-1.82,1.98.439,5.2-1.236,7.27-.529.653-1.418,1.139-1.594,1.914-.366,1.607,2.52,2.546,2.675,4.178a8.433,8.433,0,0,0-.021,1.339c.392,1.505,3.278,1.174,4.478,2.338,1.463,1.421-.455,4.08,1.173,5.366.815.642,2.254.635,2.81,1.454.529.781-.108,1.836.366,2.644.676,1.157,2.891.848,3.928,1.794s.16,2.642-1.258,3.15a8.613,8.613,0,0,1-4.535-.1,3,3,0,0,1-1.45-.573c-.915-.857.071-2.182.034-3.334-.039-1.292-1.718-2.355-3.2-2.027-.089-.513-.179-1.028-.268-1.541-1.31-.6-2.846.546-3.349,1.729s-.56,2.555-1.536,3.505a6.206,6.206,0,0,0-.931.9,2.136,2.136,0,0,0-.255,1.276,9.188,9.188,0,0,1-.039,2.535A2.432,2.432,0,0,1,975,238.279a4.614,4.614,0,0,0-1.4.269,1.615,1.615,0,0,0-.618.828l-1.366,3.083c-1.392-.808-3.654.244-3.588,1.669a1.63,1.63,0,0,0-2.173.313,3.113,3.113,0,0,0-.471,2.073c.024,1.558.205,3.374,1.75,4.229.337.186.744.333.921.639.461.806-1.121,1.585-.9,2.464.15.61,1.068.826,1.8.773a5.194,5.194,0,0,1,2.189,0,5.579,5.579,0,0,1,1.1.721c1.689,1.13,4.643.215,5.07-1.567a1.57,1.57,0,0,0,2.207-.588,4.513,4.513,0,0,0,.131-2.3,1.99,1.99,0,0,1,.992-2.04c.76-.337,1.789-.076,2.475-.511.529-.337.655-.966,1.076-1.4,1.018-1.046,3.083-.486,4.525-1.077,1.8-.735,2.318-3.112,4.3-3.345s3.086,1.9,3.228,3.592a1.762,1.762,0,0,1-.255,1.308c-.8,1-2.678.262-4.062.568-1.563.346-2.165,1.965-2.139,3.328s.4,2.8-.263,4.038a1.32,1.32,0,0,1-.668.653c-.6.229-1.3-.142-1.952-.044-1.21.182-1.276,1.621-1.008,2.633s.289,2.433-.9,2.693a9.522,9.522,0,0,1-1.284.024,2,2,0,0,0-1.757,2.184,5.348,5.348,0,0,0,1.481,2.615c1.213,1.432,3.16,3.048,5.046,2.3,1.178-.471,1.628-1.656,2.3-2.6s2.194-1.756,3.2-1.055c-.408-1.4,1.792-2.3,3.5-2.273s3.728.309,4.851-.779c1.318-1.276.429-3.67,2.081-4.629.4-.235.894-.333,1.3-.564,1.544-.884,1.334-3.359,3.154-3.705s2.818,1.931,4.614,2.346a13.951,13.951,0,0,0,2.263.053,10.8,10.8,0,0,1,3.67,1.361,4.3,4.3,0,0,0,3.678.22l-.5,43.813c-18.815-5.057-42.144-2.171-57.51,7.419-2.344,8.342-14.548,11.579-24.7,11.259s-20.772-2.608-30.175.642c-8.716,3.01-14.572,10.247-23.2,13.437-17.8,6.578-38.667-6.387-57.361-1.909-7.624,1.827-13.917,6.373-21.259,8.889-5.84,2-12.173,2.655-18.494,2.91l-1.644-43.375,1.976,6.491,2.583.531-2.368.182,2.4,7.881c2.56-3.208,3.194-6.045,2.8-8.465l2.231,2.46,3.378.14-2.576.746,2.641,2.915,2.433-.144-1.886.746,3.817,4.213c2.7-10.438-7.848-16.663-14.382-19.449,2.257.511,4.717,1.165,7.319,1.945l-.076-2.491,1.6,2.955c1.76.544,3.559,1.132,5.364,1.74-.024-1.92-.053-5.028.021-4.784.066.224,1.465,3.365,2.486,5.645,3.194,1.114,6.348,2.271,9.276,3.381-1.076-2.608-2.875-7.042-2.281-6.036.552.932,2.707,4.451,4.007,6.693,1.565.6,3.046,1.179,4.412,1.718-1.886-2.524-5.091-7.031-4.249-6.125,1.05,1.13,5.859,6.24,6.65,7.082,3.841,1.541,6.3,2.584,6.3,2.584-5.046-23.791-34.292-17.966-42.716-15.762a53.018,53.018,0,0,1,6.782-2.617c.158-.753.684-2.717.684-2.717l.558,2.349a65.327,65.327,0,0,1,7.114-1.6l-1.315-4.44,3.617,4.094c2.749-.371,5.4-.573,7.874-.657l-2.215-4.316,4.449,4.269a78.243,78.243,0,0,1,13.575.988s-1.126-5.776-17.439-7.834c-11.144-1.4-19.091,5.421-23.011,9.89a10.367,10.367,0,0,0-.71-10.205c-4.78-7.832-12.843-12.9-20.625-12.58,0,0,.916.968,2.339,2.564l5.159.335-3.78,1.228c.865.992,1.836,2.129,2.857,3.361l5.3.335-4.625.488c1.171,1.432,2.389,2.973,3.586,4.569l5.417.571-4.27.988a66.082,66.082,0,0,1,5,7.9c-5.859-6.882-20.378-19.606-41.268-8.731,0,0,2.733.3,7.035,1.023l7.348-2.764-4.975,3.181c2,.368,4.241.817,6.637,1.354,2.615-.784,7.027-2.085,6.879-1.9-.129.164-2.189,1.585-3.733,2.637,2.2.539,4.5,1.15,6.832,1.843l5.448-1.05-3.073,1.783a98.138,98.138,0,0,1,13.622,5.406c-9.176-2.8-40.6-11.131-39.985,6.222,0,0,2.418-.406,6.2-1l.1-3.969,2.236,3.607c1.628-.249,3.42-.52,5.333-.8A25.157,25.157,0,0,1,759.165,298a28.8,28.8,0,0,0,2.765,2.233c2.126-.306,4.367-.617,6.651-.921l-2.747-2.895,4.933,2.608c4.778-.613,9.644-1.17,13.967-1.532-7.242,2.025-22.006,7.059-21.509,16.423l4.846-3.334-1.089-2.207,1.642,1.825,2.665-1.834L770,306.446l2.415,1.146,2.462-1.694-2.065-1.827,3.049,1.15,8.476-5.832c-4,2.995-9.463,8.447-8.366,15.955l3.32-5.026-.852-1.234,1.452.326,2.5-3.781-1.868-1.119h2.6l3.938-5.961L784.8,343.36c-11.041.18-22.085-.262-33.121-.657q-38.072-1.365-76.187-1.634l14.064-13.122a16.274,16.274,0,0,0,3.657-.866,7.589,7.589,0,0,1,2.212-.559c2.26-.089,4.728,1.836,6.485.635,1.229-.839.868-2.54,1.747-3.647a4.394,4.394,0,0,1,3.573-1.2c1.336.051,2.647.386,3.986.415,4.183.084,10.991-7.3,5.414-7.621a5.972,5.972,0,0,0-2.073.5,6.041,6.041,0,0,1-5.627-1.174,3.565,3.565,0,0,0-1.323-.994c-1.3-.393-2.894.921-3.983.209a3.211,3.211,0,0,1-.739-.923,3.318,3.318,0,0,0-4.244-.564,6.929,6.929,0,0,1-1.055.781c-.947.442-2.107-.024-3.188-.047-3.07-.062-5.146,3.412-8.195,3.108a6.465,6.465,0,0,0-2.468-.215,3.481,3.481,0,0,0-1.381,1.061c-1.344,1.33-3.37,2.1-4.583,3.523s-.868,4.016,1.189,4.227c.939.1,1.876-.364,2.81-.235,1.473.2,2.1,1.656,3.162,2.544a4.689,4.689,0,0,0,2.21.975l-19.16,13.146-.2,0V317.937c1.51.051,2.891-.189,3.72-1.212-.226-.451-.45-.9-.676-1.35a15.981,15.981,0,0,0,5.041.444c1.681-.209,3.359-1.086,3.857-2.457a3.535,3.535,0,0,1,.45-1.125c.805-1,2.628-.435,4.054-.539a3.193,3.193,0,0,0,2.915-2.222,2.9,2.9,0,0,0-1.615-2.964c6.819-1.863,1.231-7.024-3.565-4.02a6.913,6.913,0,0,1-1.915,1.088c-2.418.622-4.793-2.453-7.058-1.51-.884.368-1.326,1.245-2.168,1.678a4.406,4.406,0,0,1-3.039.062v-13.7c.06.038.084.082.06.129,1.684.724-.029,3.2,1.173,4.435.71.728,2.057.619,3.131.351a5.311,5.311,0,0,1,3.257-.206c1,.422,1,2.051-.116,2.053a15.469,15.469,0,0,0,8.463-.48c1.568-.557,3.331-1.379,4.846-.728,1.134.486,1.815,1.723,3.083,1.8a14.016,14.016,0,0,0,2.244-.444c3.291-.34,4.407,5.055,7.669,4.558.8-.12,1.481-.619,2.289-.713a5.161,5.161,0,0,1,2.681.733,23.122,23.122,0,0,0,16.426.923c2.057-.67,4.293-2.5,3.149-4.089,2.31-.983,5.306-.084,7.566-1.146,2.083-.975,3.667-3.53,5.909-2.848a10.706,10.706,0,0,1-.281-9.632,6.991,6.991,0,0,0-3.236-.075c1.065-1.694-1.647-3.945-3.638-3.017a11.333,11.333,0,0,1-1.468.779c-1.515.464-2.917-.855-3.73-2.029s-1.994-2.571-3.583-2.333c-1.471.22-2.541,1.825-3.975,1.476-.771-.186-1.181-.866-1.671-1.4a5.9,5.9,0,0,0-6.458-1.128,12.511,12.511,0,0,1-1.594.757,7.038,7.038,0,0,1-3.488-.211,36.659,36.659,0,0,0-15.358-.016q-.02-1.279-.039-2.557c2.126.8,4.809-1.343,3.972-3.177l7.329-.793c.879-.1,2.023-.457,1.91-1.2-.058-.371-.442-.65-.542-1.014-.263-.975,1.384-1.374,2.549-1.55a8.14,8.14,0,0,0,5.5-3.272,9.966,9.966,0,0,0-7.74-2.921,29.157,29.157,0,0,1-4.02.3c-1.7-.135-3.236-.968-4.935-1.088-2.118-.151-4.1.81-6.159,1.225a5.821,5.821,0,0,1-5.84-2.564c-.821-1.525-1.663-3.139-3.362-2.846-1.628.282-3.252,1.807-4.6.986-.484-.3-.7-.815-1.126-1.17-1.515-1.261-3.883.3-5.948.726-1.918.4-3.891-.278-5.853-.484s-4.425.4-4.8,2.038c-1.3.724-2.957-.151-4.315-.8s-3.6-.781-3.978.495c-.171.579.184,1.2,0,1.776-.4,1.237-2.483,1.072-3.988.919-3.538-.36-6.992.91-10.236,2.151-.731.28-1.531.619-1.8,1.257-.255.606.042,1.348-.384,1.88a2.565,2.565,0,0,1-1.939.586q-2.892.073-5.782.149c-1.008.695.363,2.018.239,3.11-.131,1.145-1.839,1.618-3.2,1.549s-2.841-.382-4,.22c-1.35.7-1.634,2.327-2.912,3.115-1.213.75-2.889.506-4.372.724s-3.036,1.587-2.147,2.611c-2.639-.211-5.569-.353-7.648,1.034a6.485,6.485,0,0,0-2.523,5.739,90.8,90.8,0,0,1,17.726.932c4.951-1.094,10.323-2.169,15.064-.537,2,.688,4.049,1.86,6.125,1.361a7.793,7.793,0,0,1-6.59,2.593c-1.592-.138-3.278-.719-4.72-.133a14.292,14.292,0,0,0-1.923,1.243c-2.8,1.685-6.843.162-10.065,1.172-1.636.511-3.052,1.669-4.8,1.647-2.152-.027-4.2-1.871-6.151-1.1-1.171.462-1.684,1.714-2.86,2.169-.779.3-1.755.211-2.433.655-1.01.662-.623,2.136.408,2.773a7.245,7.245,0,0,0,3.683.7l2.91.04c-.647,1.21-2.549,1.527-4.094,1.288a39.5,39.5,0,0,0-4.57-.93c-1.568-.062-3.391.764-3.412,2.089-.008.473.213.968,0,1.407-.4.839-1.813.708-2.873.832a3.456,3.456,0,0,0-3,2.382,2.919,2.919,0,0,0,1.676,3.174c1.407.7,3.588.793,3.978,2.131.358,1.234-1.265,2.671-.331,3.667a1.982,1.982,0,0,0,.981.5c2.815.677,5.5-1.574,8.426-1.627,2.381-.042,4.841,1.365,7,.515,1.457-.575,2.215-2.022,3.665-2.613,1.663-.677,3.6-.031,5.425.224s4.246-.331,4.357-1.885a12.232,12.232,0,0,0,5.38.477,21.9,21.9,0,0,0,6.316-2.164q4.66-2.188,9.318-4.378a12.728,12.728,0,0,0,3.915-2.42,4.285,4.285,0,0,1,.939-.881,4.689,4.689,0,0,1,2.552-.244,12.941,12.941,0,0,0,7.721-2,3.083,3.083,0,0,1-2.968-2.555,2.948,2.948,0,0,1,2.631-2.806c1.2-.182,2.575.178,3.746.1l-.181,11.963a8.426,8.426,0,0,1-4.4,1.321c-1.613-.133-3.238-1.177-4.706-.6-1.891.746-1.839,3.619-3.9,3.889-1.289.169-2.67-.9-3.788-.335-.476.24-.708.706-1.089,1.046-1.784,1.583-5.922-.084-7.077,1.871a1.715,1.715,0,0,1,1.626,1.656,14.314,14.314,0,0,0-11.641,4.631q9.577,1.405,19.26,2.227a3.48,3.48,0,0,0,1.465,3.126c1.1.7,2.981.535,3.549-.526.313-.584.182-1.27.4-1.885.016-.047.047-.084.068-.131l9.786,13.153-.108,7.037q-34.406-.063-68.807.737c-12.762.3-27.952,1.94-33.689,11.566-2.081,3.487-2.528,7.6-5,10.9-9.444,12.631-32.661,1.929-50.132,4.324-9.176,1.256-16.8,6.413-24.947,10.19-27.839,12.9-65.379,8.644-88.193-10-5.49-4.484-10.252-9.734-16.75-13.126-5.806-3.03-12.625-4.367-19.381-5.21-37.646-4.7-75.566,4.473-112.07,13.548q-16.5,4.106-33,8.207c-14.072,3.5-28.686,7.25-39.456,15.659-17.389,13.577-25.871,39.18-49.529,40.243-7.092.318-14.019-1.936-21.12-2.113-20.754-.522-35.7,15.662-49.708,28.6S11.41,478.9-5.069,468.237V663.869L747.508,777.086l1102.03-115.592A512.063,512.063,0,0,0,1784.466,570.736ZM1209.4,349.1c.373,0,.736.011,1.1.036l-1.063.6c-.179.1-.4-.067-.3-.229ZM1048.466,241.018l.526.009a17.389,17.389,0,0,1,3.988.4,1.915,1.915,0,0,1,.879.357.5.5,0,0,1,.071.753c-.368.493-1.5.158-1.82.673-.074.12-.087.264-.189.364a.734.734,0,0,1-.432.149,7.291,7.291,0,0,1-2.731-.2,1.831,1.831,0,0,1-.874-.437C1047.321,242.477,1047.9,241.618,1048.466,241.018Zm-6.448-27.585a1.076,1.076,0,0,1,.573-.1q.789.007,1.579.016a4.266,4.266,0,0,1,2.965-.617,1.681,1.681,0,0,1,1.2.639.647.647,0,0,1-.518.955,1.783,1.783,0,0,1-.547-.1c-1.437-.366-2.965.415-4.451.249a1.388,1.388,0,0,1-.839-.329A.459.459,0,0,1,1042.018,213.433Zm-8.6-21.029-.2.127c.676.067,1.368.033,2.033.153a2.15,2.15,0,0,1,1.594.964.956.956,0,0,1-.795,1.325c-.7.055-1.2-.566-1.839-.828-1.084-.442-2.541.191-3.52-.4A12.341,12.341,0,0,1,1033.413,192.4Zm-49.834,50.657c-.276.548-1.121.67-1.826.71q-1.906.117-3.809.229a1.823,1.823,0,0,1,1.918-1.838l.181-.087c-.01-.222.31-.329.568-.373a4.626,4.626,0,0,1,2.062-.022C983.331,241.882,983.849,242.519,983.578,243.061Zm19.034-30.053a13.816,13.816,0,0,1-3.744.653,4.179,4.179,0,0,1-1.442-.049c-.463-.124-.881-.46-.894-.868-.024-.548.623-.923,1.192-1.19.518-.244,1.034-.486,1.552-.728l-1.11.533q1.886.067,3.775.131c.644.022,1.5.22,1.486.766C1003.419,212.614,1003,212.861,1002.612,213.007Zm5.751-19.06a12.287,12.287,0,0,1,3.265-1.132l-.366-.1a4.171,4.171,0,0,1,2.986-.084c.431.282.142.917-.35,1.114a5.679,5.679,0,0,1-1.612.178c-.684.056-1.326.291-2,.4A2.394,2.394,0,0,1,1008.363,193.947Zm9.039,54.588-4.191.331a1.827,1.827,0,0,1-.886-.076c-.266-.122-.424-.442-.232-.639l1.944-.646a4.406,4.406,0,0,1-.663.071l.774-.107-.111.035a10.794,10.794,0,0,1,1.855-.293C1016.747,247.216,1017.709,247.862,1017.4,248.535ZM661.059,327.7l-8.766-8.005a7.223,7.223,0,0,1,3.278-.653c1.792.016,3.77.231,5.209-.67.147-.093.287-.2.426-.306Zm126.066-30.22-.155.1.155-.107ZM1190.8,341.51c.279.122.179.473-.131.48h-.066l-.823-.928Zm-4,7.95.276.4c.108.158-.105.333-.289.238l-1.089-.568C1186.064,349.493,1186.43,349.467,1186.8,349.46Zm-3.752,22.619c-.366-.135-.729-.271-1.086-.424.05.007.1.024.142-.016l.892-.846c.11-.1.313-.022.287.115Zm.668.242.058-.1a.177.177,0,0,1,.308.033,2.175,2.175,0,0,0,.1.213C1184.028,372.421,1183.876,372.372,1183.721,372.321ZM1181,362.8a.138.138,0,0,0,0,.275l2.8.426a.136.136,0,0,1,.013.271l-2.833.65a.136.136,0,0,0,.021.271l2,.251a.135.135,0,0,1,.042.264l-2.657,1c-.182.069-.095.3.1.264,1.25-.233,2.81-.528,2.957-.582.179-.064-1.926,1.592-3.157,2.555-.14.109.016.3.187.224l2.281-.968c.163-.069.321.106.192.22l-2.128,1.9c-.129.118.037.3.2.217l1.768-.841c.139-.067.3.058.229.18l-1.178,2.118c-.029.053.01.089.042.127-5.6-2.411-10.036-6.942-9.913-11.626l.847-1.472c.1-.173.408-.107.395.084l-.126,1.854c-.013.189.295.258.395.087l1.4-2.4c.105-.18.426-.093.392.1l-.26,1.443c-.034.2.3.284.4.1l1.6-3.068-.742,2.757c-.053.191.252.3.376.131l1.865-2.48c.116-.158.405-.073.381.111l-.226,1.829c-.026.2.305.273.4.087l.968-1.96c.087-.173.392-.124.4.062l.047,1.5c.008.189.313.238.4.064l.926-1.876c.095-.189.429-.113.4.089l-.126.848c-.029.186.266.275.381.113l1.626-2.244c.124-.173.439-.06.376.135l-.129.411c-.063.2.253.309.376.135l1.181-1.621c.108-.151.382-.087.384.089l.013.879c0,.18.279.24.387.087l1.4-2.022c.108-.158.395-.087.387.093l-.032.826c-.005.18.271.251.381.1,1.347-1.867,4.228-3.179,6.511-3.963l.113.036-5.338,3.028a.132.132,0,0,0,.047.249l1.381.34a.135.135,0,0,1-.013.269l-2.715.482a.135.135,0,0,0-.024.266l1.347.433a.135.135,0,0,1-.034.266l-2.373.3a.135.135,0,0,0-.039.266l1.494.52a.135.135,0,0,1-.037.266l-3.617.508a.136.136,0,0,0-.016.271l1.523.333a.137.137,0,0,1-.013.273l-3.154.446a.137.137,0,0,0-.016.273l2.225.524a.136.136,0,0,1-.008.271l-4.214.808a.134.134,0,0,0-.018.266c.794.235,2.236.646,2.823.73C1183.978,362.373,1182.131,362.633,1181,362.8Zm4.572,10.056a.154.154,0,0,1,.25-.124l.35.246C1185.967,372.933,1185.767,372.9,1185.567,372.851Zm1.855.36c-.045-.007-.089-.018-.134-.024l-1.136-2.773c-.058-.138.142-.246.268-.146l1.179.935c.126.1.326-.011.268-.149l-1.018-2.471c-.058-.14.15-.249.274-.144l1.365,1.17c.126.109.339-.013.268-.153l-.952-1.863c-.071-.14.137-.26.266-.155l1.494,1.221c.124.1.324,0,.271-.142l-.905-2.393c-.055-.147.166-.249.284-.133l1.129,1.123c.116.115.337.013.284-.131l-.747-2.027c-.055-.151.184-.251.292-.12l.789.948c.111.133.355.027.289-.127l-1.068-2.506,1.36,1.929c.095.133.339.055.3-.1l-.537-2.289c-.034-.144.187-.229.292-.111l1.057,1.157c.116.127.353.016.284-.135l-.713-1.574c-.066-.14.142-.255.268-.149l1,.841c.126.1.334-.009.271-.149l-.684-1.507c-.069-.151.173-.262.287-.131l.476.546c.108.12.332.033.295-.113l-.521-2.04c-.042-.158.213-.238.305-.1l.192.3c.09.14.345.06.306-.1l-.374-1.478c-.034-.138.163-.226.279-.127l.579.5c.116.1.316.009.279-.129l-.508-1.809c-.04-.14.171-.233.284-.124l.518.488c.11.107.318.02.281-.12a7.282,7.282,0,0,1,.823-4.593c.526,4.258,1.581,12.771,2.118,21.353A52.792,52.792,0,0,1,1187.422,373.211Zm9.829-33.7.613-.939.655.919-.626.344Zm.563-3.3-.981-.411.944-1.261,1,1.23Zm1.923-2.351-1.126-.437.194-.262c.163-.218-.118-.477-.389-.362l-.674.286-.684-.264c-.276-.109-.545.16-.374.373l.208.255-1.108.473c-.271.115-.55-.14-.392-.36l2.292-3.186,2.431,3.112C1200.281,333.705,1200.013,333.969,1199.737,333.863Zm-1.3-5.463-.787.46-.805-.435c-.274-.149-.592.124-.413.353l.426.546-.781.457c-.266.155-.6-.107-.429-.34l1.955-2.728,2.073,2.664c.179.229-.14.5-.413.353l-.8-.431.4-.559C1199.034,328.5,1198.7,328.242,1198.437,328.4Zm2.042-1.634-2.126-1.1.316-.44c.166-.233-.155-.493-.424-.342l-.673.377-.689-.357c-.273-.142-.584.129-.408.355l.334.431-2.076,1.163c-.258.147-.576-.1-.431-.329l3.186-5.077,3.407,4.973C1201.052,326.65,1200.744,326.9,1200.479,326.766Zm4.569,14.523,1-.479-.781.952h-.066C1204.89,341.766,1204.777,341.417,1205.048,341.288Zm1.229,12.028-3.741-1.956A15.693,15.693,0,0,1,1206.277,353.316Zm-2.394,6.378c-.037-.175-.076-.349-.113-.522.1-.022.221.013.2.127Zm.276,1.359.126-.155c.108-.133.355-.031.292.122l-.292.724C1204.243,361.512,1204.2,361.281,1204.159,361.052Zm6.916,11.433c-1.8.062-3.6.182-5.406.333-.266-3.408-.66-6.933-1.244-10.3l.779-.7c.121-.111.332,0,.276.14l-.645,1.6c-.06.151.179.255.29.124l1-1.19c.1-.12.324-.042.3.1l-.437,2.3c-.029.155.218.227.308.089l1.273-1.969-.955,2.537c-.061.153.19.253.295.118l.744-.975c.1-.133.347-.04.3.113l-.655,2.047c-.047.147.176.242.289.122l1.079-1.157c.11-.12.337-.024.287.124l-.8,2.42c-.045.138.161.237.279.133l1.442-1.265c.124-.111.337,0,.271.147l-.868,1.889c-.066.144.15.258.274.144l1.313-1.21c.118-.109.332-.007.279.135l-.907,2.5c-.052.138.153.242.274.138l1.139-.97c.121-.1.324,0,.274.138Zm2.762-.027a3.006,3.006,0,0,0,.226-.537.176.176,0,0,1,.308-.042l.384.593C1214.45,372.463,1214.145,372.463,1213.837,372.458Z" transform="translate(320.999 -62.894)"/></g><path class="g" d="M248.384,502.215c-.784-5.345-4.909-10.272-10.233-11.189-4.635-.8-10.966,2.557-12.922,6.982a7.864,7.864,0,0,0-2.973-7.218,8.261,8.261,0,0,0-9.841.314c1.6-6.361.44-13.526-3.7-18.611s-11.37-7.687-17.631-5.731-12.211,9.716-11.029,16.169a5.536,5.536,0,0,0-10.68-.413,4.974,4.974,0,0,0-5.946-1.932,7.873,7.873,0,0,0-3.982,4.717,5.631,5.631,0,0,0-2.681-4.233c-1.966-1.141-2.947-1.381-4.655.118.185-4.815.359-9.729-.977-14.359s-4.469-9.013-9.026-10.581-9.916.38-11.36,4.979a9.75,9.75,0,0,0-19.22,2.419,4.785,4.785,0,0,0-6.118-2.955c-2.365.954-4.431,3.492-3.256,5.754a30.857,30.857,0,0,0-27.225,8.31c-6.987,6.982-8.712,17.484-6.828,27.18-3.416-2.457-7.736-.788-8.5,3.091-.082-2.545-3.787-4.346-6.369-3.23-2.883,1.245-3.444,5.113-5.853,7.128a20.234,20.234,0,0,1-5.739,3.2c-5.783.9-11.4,1.868-16.792,2.906.115,0,.253,0,.377,0l-.377,0h1.342c10.028.152,40.548,3.684,48.173,5.777,8,2.2,16.3.073,23.894-3.272a6.766,6.766,0,0,0,9.317,1.088c1.928,1.776,6.24,1.208,8.438-.22,9.917,3.624,21.821,4.057,31.616.116a12.813,12.813,0,0,0,17.11.515c2.014,2.625,6.235,3.462,8.885,1.48a73.436,73.436,0,0,0,53.907-2.142,13.4,13.4,0,0,0,9.979,2.918c2.966-.357,6.007-1.981,7.049-4.781a5.337,5.337,0,0,0-.713-4.784C246.571,508.929,248.948,506.059,248.384,502.215Z" transform="translate(272.71 -277.549)"/><path class="g" d="M730.948,472.64a11,11,0,0,0,.61-6.2c-1.009-4.672-6.412-8.282-11.136-9.012a5.265,5.265,0,0,0-.906-6.964c-2.015-1.62-4.984-2.722-6.687-.777,1.287-3.716,2.567-7.856,1.017-11.47s-6.048-6.977-8-3.564c2.828-8.179,3.95-17.114,1.992-25.544s-7.236-16.277-14.921-20.257-17.759-3.541-24.428,1.974-7.091,15.682-2.257,22.86a8.753,8.753,0,0,0-7.385,15.547,4.339,4.339,0,0,0-4.523,2.607c-.526,1.321-.049,3.724.88,5.282a21.678,21.678,0,0,0-23.38-5.273c-8.358,3.4-12.685,10.389-11.75,19.363a18.676,18.676,0,0,0-22.105-2.759c-6.869,4.093-9.591,13.835-7.305,21.5-1.759-2.4-6.079-1.479-7.723,1a2.644,2.644,0,0,0-2.894-1.934c-1.26.206-1.309,1.485-1.19,2.757a8.355,8.355,0,0,0-7.913-4.729c-3.26.205-7.258,2.067-8.238,5.183-17.727-4.763-37.277,6.955-55.634,6.955h15.856c5.646,2.489,11.444,4.811,17.575,5.232,6.7.461,13.346-1.386,19.686-3.61.991,1.514,3.371,2.18,5.165,1.95a4.963,4.963,0,0,0,3.98-3.266,11.887,11.887,0,0,0,12.856,2.2,49.181,49.181,0,0,0,35.888-1.3,34.231,34.231,0,0,0,28.566.63c3.685,3.8,10.391,2.916,14.174-.79,7.657,1.291,15.607,2.95,23.307,1.948,5,2.226,12.328.824,16.966-2.07a17.454,17.454,0,0,0,17,1.467,13.447,13.447,0,0,0,8.184.873,7.32,7.32,0,0,0,5.463-5.352A6.73,6.73,0,0,0,730.948,472.64Z" transform="translate(1084.058 -287.738)"/><path class="g" d="M622.022,397.365c-3.044-1.192-8.123-.465-8.859,2.72a4.839,4.839,0,0,0-6.151-5.924c.366-2.15-1.525-3.812-3.7-4.012a12.964,12.964,0,0,0,1.825-4.247,4.4,4.4,0,0,0-1.363-4.209,2.28,2.28,0,0,0-3.554.813,15.283,15.283,0,0,0-18.637-5.937c-6.52,2.874-10.321,10.46-8.271,17.285a2.851,2.851,0,0,0-2.392,4.024,2.986,2.986,0,0,0-3.581,1.093,2.748,2.748,0,0,0,0,2.49,4.782,4.782,0,0,0-4.083-1.1,7.29,7.29,0,0,0-4.658,3.8,18.4,18.4,0,0,0-1.735,5.427c-4.281-2.156-9.443-.759-13.911.977s-8.22,3.194-13.013,3.194c20.344,3.446,20.344,3.446,24.8,1.653,9.439,4.55,21.259,4.573,31.167,1.163,1.155,1.876,3.7,2.383,5.882,2.1s4.27-1.157,6.467-1.324c1.74-.131,3.492.188,5.233.068s3.268-.522,4.085-2.064a15.249,15.249,0,0,0,11.29,1.237,5.412,5.412,0,0,0,3.2-2.009,2.774,2.774,0,0,0,.376-1.915c2.1-1.976,3.932-4.643,4.142-7.363C626.841,402.04,625.065,398.557,622.022,397.365Z" transform="translate(759.445 -271.2)"/><path class="g" d="M414,226.969c-5.883-.95-25.7-5.363-37.476-11.451-3.3-1.708-8.932-5.737-12.577-6.463-.521-.1-1.074-.177-1.642-.235a30.184,30.184,0,0,0,1.91-12.561c-.229-3.516-1.2-7.2-3.781-9.6s-6.58-2.751-8.988-.178A19.938,19.938,0,0,0,339.4,164.7c-8.427-3.215-18.658,1.581-23.242,9.348,1.62-4.207,2.807-8.858,1.562-13.191s-5.7-8-10.079-6.946c-1.276-2.491-2.72-5.15-5.25-6.346s-6.952-.351-7.076,2.445a6.9,6.9,0,0,0-5.071-6.212c-2.779-.7-5.082,1.182-6.541,3.647-1.781-5.444-4.4-10.739-8.487-14.751s-9.8-6.614-15.5-6.04-11.118,4.76-12.233,10.379a5.441,5.441,0,0,0-5.379.2c-1.588,1.009-1.226,2.717-1.125,4.6a26.61,26.61,0,0,0-29.592,35.382,11.566,11.566,0,0,0-18.034,6.931,5.022,5.022,0,0,0-5.146-3.673c-2.286.2-3.581.782-3.731,3.072-8.583-13.009-26.4-19.047-41.128-13.936S118.971,190.53,120.3,206.058a23.911,23.911,0,0,0-33.172,7.712c-1.792,2.923-2.91,6.745-1.195,9.713a10.614,10.614,0,0,0-12.847,1.5c-7.861-3.189-9.214-1.179-16.951,2.3-11.6,5.217-22.8,5.217-31.281,5.217H50.032c27.5,0,39.879,7.163,57.055,2.712a132.752,132.752,0,0,0,71.967-.637,28.162,28.162,0,0,0,25.072.125,113.742,113.742,0,0,0,58.394-1.241c4.151,2.154,9.364,1.7,13.566-.349,13.591,4.837,28.433,4.818,42.467,1.478,7.778,3.873,16.776,3.437,24.57-.4a75.051,75.051,0,0,0,39.878.2,33.311,33.311,0,0,0,18.591-.188,44.735,44.735,0,0,1,9.4-1.692h75.542C462.331,231.534,438.093,229.807,414,226.969Z" transform="translate(615.15 -42.575)"/></g></svg>