<svg width="18" height="17" viewBox="0 0 18 17" fill="none" xmlns="http://www.w3.org/2000/svg">
<path d="M2.68567 10.209V15.3893C2.68567 15.542 2.74631 15.6884 2.85426 15.7963C2.9622 15.9043 3.10861 15.9649 3.26126 15.9649H14.7732C14.9258 15.9649 15.0722 15.9043 15.1802 15.7963C15.2881 15.6884 15.3488 15.542 15.3488 15.3893V10.209" stroke="#FA3434" stroke-width="1.5" stroke-linecap="round" stroke-linejoin="round"/>
<path d="M10.1685 10.209V15.9649" stroke="#FA3434" stroke-width="1.5" stroke-linecap="round" stroke-linejoin="round"/>
<path d="M2.68567 11.9355H10.1684" stroke="#FA3434" stroke-width="1.5" stroke-linecap="round" stroke-linejoin="round"/>
<path d="M1.53461 5.02916L3.26139 1H14.7733L16.5001 5.02916H1.53461Z" stroke="#FA3434" stroke-width="1.5" stroke-linecap="round" stroke-linejoin="round"/>
<path d="M6.42709 5.0293V6.18049C6.42709 6.79112 6.18452 7.37673 5.75274 7.80851C5.32096 8.24029 4.73534 8.48287 4.12471 8.48287H3.80238C3.19175 8.48287 2.60613 8.24029 2.17435 7.80851C1.74257 7.37673 1.5 6.79112 1.5 6.18049V5.0293" stroke="#FA3434" stroke-width="1.5" stroke-linecap="round" stroke-linejoin="round"/>
<path d="M11.6074 5.0293V6.18049C11.6074 6.79112 11.3648 7.37673 10.9331 7.80851C10.5013 8.24029 9.91567 8.48287 9.30504 8.48287H8.72944C8.11881 8.48287 7.53319 8.24029 7.10141 7.80851C6.66963 7.37673 6.42706 6.79112 6.42706 6.18049V5.0293" stroke="#FA3434" stroke-width="1.5" stroke-linecap="round" stroke-linejoin="round"/>
<path d="M16.5 5.0293V6.18049C16.5 6.79112 16.2574 7.37673 15.8256 7.80851C15.3938 8.24029 14.8082 8.48287 14.1976 8.48287H13.9098C13.2992 8.48287 12.7136 8.24029 12.2818 7.80851C11.85 7.37673 11.6074 6.79112 11.6074 6.18049V5.0293" stroke="#FA3434" stroke-width="1.5" stroke-linecap="round" stroke-linejoin="round"/>
</svg>
