<?xml version="1.0" encoding="utf-8"?>
<!-- Generator: Adobe Illustrator 21.0.2, SVG Export Plug-In . SVG Version: 6.00 Build 0)  -->
<svg version="1.1" id="Layer_3" xmlns="http://www.w3.org/2000/svg" xmlns:xlink="http://www.w3.org/1999/xlink" x="0px" y="0px"
	 viewBox="0 0 126 100" style="enable-background:new 0 0 126 100;" xml:space="preserve">
<style type="text/css">
	.st0{fill:#0497CA;}
	.st1{fill:#94C83D;}
</style>
<g>
	<g>
		<path class="st0" d="M91.7,28.9h19.9c4.4,0,7.8,1,10,2.9c2.2,1.9,3.4,4.7,3.4,8.3c0,1.8-0.3,3.4-0.8,4.9c-0.6,1.5-1.4,2.8-2.5,3.8
			c-1.1,1.1-2.5,1.9-4.1,2.5s-3.5,0.9-5.6,0.9H98.9v14.5h-7.1V28.9H91.7z M111.3,46c1.3,0,2.3-0.2,3.1-0.5c0.8-0.3,1.5-0.7,2-1.3
			c0.5-0.5,0.9-1.2,1.1-1.9s0.3-1.5,0.3-2.3s-0.1-1.5-0.4-2.1c-0.2-0.6-0.6-1.2-1.1-1.6c-0.5-0.5-1.1-0.8-1.8-1.1
			c-0.7-0.3-1.5-0.4-2.5-0.4H98.9V46H111.3z"/>
	</g>
	<path class="st0" d="M59.4,56c-0.8,1-1.6,1.9-2.6,2.5c-1,0.7-2.1,1.2-3.3,1.5s-2.5,0.5-3.8,0.5c-1.5,0-2.9-0.2-4.2-0.5
		c-1.2-0.3-2.3-0.8-3.3-1.4c-0.9-0.6-1.8-1.3-2.4-2.1c-0.7-0.8-1.1-1.3-1.5-2.3c-0.4-0.9-0.8-1.9-1-3c-0.2-1-0.3-2.1-0.3-3.1
		c0-2.3,0.3-4.2,0.9-5.9c0.6-1.7,1.5-3.1,2.6-4.2c1.1-1.1,2.5-2,4.1-2.5c1.6-0.6,3.4-0.8,5.4-0.8c1.5,0,2.9,0.2,4.2,0.5
		c1.3,0.4,2.4,0.9,3.3,1.5c0.9,0.6,1.7,1.4,2.4,2.3c0.6,0.9,1.1,1.9,1.4,3h6.8c-0.3-1.7-0.8-3.2-1.5-4.5s-1.5-2.5-2.5-3.4
		c-1-1-2.1-1.8-3.3-2.4c-1.2-0.7-2.4-1.2-3.7-1.6s-2.5-0.7-3.8-0.9c-1.3-0.2-2.5-0.3-3.6-0.3c-2.1,0-4,0.2-5.8,0.7
		c-1.8,0.4-3.4,1.1-4.8,1.9c-1.4,0.8-2.7,1.8-3.8,2.9c-1.1,1.1-2,2.4-2.8,3.8c-0.7,1.4-1.3,2.9-1.7,4.5c-0.4,1.6-0.6,3.3-0.6,5
		c0,2.3,0.3,4.4,0.8,6.3c0.5,1.9,1.3,3.5,2.2,4.9c0.9,1.4,2,2.6,3.3,3.6s2.6,1.8,4,2.4s2.9,1.1,4.5,1.4s3.1,0.4,4.6,0.4
		c2.5,0,4.7-0.4,6.8-1.1s3.9-1.7,5.5-3s2.9-2.7,4-4.4c0.7-1.1,1.3-2.6,1.7-4h-7.2C60.2,54.8,59.8,55.5,59.4,56z"/>
	<path class="st0" d="M9,60.5c0.5-0.6,1.1-1.2,1.8-1.7s1.4-1,2.3-1.5c0.8-0.5,1.7-0.9,2.5-1.4c0.9-0.4,1.8-0.9,2.7-1.3
		c1-0.5,2.1-1,3.1-1.5s2-1,3-1.6s1.8-1.2,2.7-1.9c0.8-0.7,1.5-1.5,2.2-2.3c0.6-0.9,1.1-1.8,1.4-2.9c0.3-1,0.5-2.2,0.5-3.5
		c0-1.7-0.3-3.3-0.9-4.8s-1.5-2.7-2.7-3.8c-1.2-1.1-2.8-1.9-4.6-2.5s-4-0.9-6.6-0.9c-2.7,0-5,0.3-6.9,1c-2,0.7-3.6,1.7-4.9,2.9
		c-1.3,1.3-2.2,2.8-2.9,4.5c-0.5,1.4-0.8,3-0.9,4.7h6.9c0.1-0.8,0.3-1.6,0.5-2.4c0.4-1,0.9-1.9,1.7-2.7c0.7-0.8,1.7-1.3,2.8-1.8
		c1.1-0.4,2.5-0.6,4-0.6c1,0,1.9,0.1,2.8,0.3s1.7,0.6,2.4,1.1c0.7,0.5,1.2,1.2,1.6,2s0.6,1.8,0.6,2.9c0,1-0.3,1.9-0.8,2.7
		s-1.2,1.5-2.1,2.2s-1.8,1.3-3,1.9c-1.1,0.6-2.3,1.2-3.4,1.7c-1,0.5-2.1,1-3.2,1.6s-2.2,1.3-3.3,2s-2.1,1.6-3.1,2.5s-1.8,1.9-2.6,3
		S1.2,60.7,0.7,62s-0.8,2.8-0.8,4.4h61.8v-6.2H9V60.5z"/>
	<path class="st1" d="M71.4,58.8c0.7-0.5,1.4-1,2.3-1.5c0.8-0.5,1.7-0.9,2.5-1.4c0.9-0.4,1.8-0.9,2.7-1.3c1-0.5,2.1-1,3.1-1.5
		s2-1,3-1.6s1.8-1.2,2.7-1.9c0.8-0.7,1.5-1.5,2.2-2.3c0.6-0.9,1.1-1.8,1.4-2.9c0.3-1,0.5-2.2,0.5-3.5c0-1.7-0.3-3.3-0.9-4.8
		s-1.5-2.7-2.7-3.8c-1.2-1.1-2.8-1.9-4.6-2.5c-1.9-0.6-4-0.9-6.6-0.9c-2.7,0-4.8,0.4-6.8,1.1s-3.6,1.7-4.9,2.9
		c-1.3,1.3-2.2,2.8-2.9,4.5c-0.5,1.4-0.8,3-0.9,4.6h6.8c0.1-0.8,0.3-1.6,0.5-2.3c0.4-1,0.9-1.9,1.7-2.7c0.7-0.8,1.7-1.3,2.8-1.8
		c1.1-0.4,2.5-0.6,4-0.6c1,0,1.9,0.1,2.8,0.3s1.7,0.6,2.4,1.1c0.7,0.5,1.2,1.2,1.6,2s0.6,1.8,0.6,2.9c0,1-0.3,1.9-0.8,2.7
		s-1.2,1.5-2.1,2.2s-1.8,1.3-3,1.9c-1.1,0.6-2.3,1.2-3.4,1.7c-1,0.5-2.1,1-3.2,1.6s-2.2,1.3-3.3,2c-1.1,0.7-2.1,1.6-3.1,2.5
		s-1.8,1.9-2.6,3s-1.4,2.3-1.9,3.6s-0.8,2.8-0.8,4.4h31.1v-6.2H69.7C70.2,59.9,70.7,59.3,71.4,58.8z"/>
</g>
</svg>
