<?xml version="1.0" standalone="no"?>
<!DOCTYPE svg PUBLIC "-//W3C//DTD SVG 1.1//EN" "http://www.w3.org/Graphics/SVG/1.1/DTD/svg11.dtd" >
<svg xmlns="http://www.w3.org/2000/svg">
<metadata>Generated by IcoMoon</metadata>
<defs>
<font id="icomoon" horiz-adv-x="1024">
<font-face units-per-em="1024" ascent="960" descent="-64" />
<missing-glyph horiz-adv-x="1024" />
<glyph unicode="&#x20;" horiz-adv-x="512" d="" />
<glyph unicode="&#xe100;" glyph-name="icon-product" d="M511.965 960c-282.722 0-511.965-229.208-511.965-511.965s229.243-512 511.965-512 511.965 229.243 511.965 512-229.208 511.965-511.965 511.965zM511.965-2.543c-248.44 0-450.543 202.173-450.543 450.578 0 248.475 202.103 450.578 450.543 450.578 248.37 0 450.543-202.103 450.543-450.578 0-248.405-202.173-450.578-450.543-450.578zM696.44 484.024h-148.486v148.451c0 19.858-16.131 35.989-35.989 35.989s-35.989-16.131-35.989-35.989v-148.451h-148.486c-19.858 0-35.989-16.131-35.989-35.989s16.131-36.024 35.989-36.024h148.486v-148.486c0-19.893 16.131-35.989 35.989-35.989s35.989 16.096 35.989 35.989v148.486h148.486c19.858 0 35.989 16.131 35.989 35.989s-16.096 36.024-35.989 36.024z" />
<glyph unicode="&#xe101;" glyph-name="icon-listing" d="M511.93 960c-282.703 0-511.93-229.193-511.93-511.895 0-282.807 229.228-512.070 511.93-512.070s511.93 229.263 511.93 512.070c0.035 282.703-229.193 511.895-511.93 511.895zM511.93-2.478c-248.423 0-450.513 202.090-450.513 450.582 0 248.318 202.090 450.478 450.513 450.478 248.353 0 450.513-202.159 450.513-450.478 0-248.493-202.159-450.582-450.513-450.582zM799.963 644.899c0-23.515-19.126-42.606-42.606-42.606h-324.507c-23.585 0-42.571 19.091-42.571 42.606v0c0 23.515 18.986 42.606 42.571 42.606h324.507c23.48 0 42.606-19.091 42.606-42.606v0zM799.963 442.67c0-23.48-19.126-42.571-42.606-42.571h-324.507c-23.585 0-42.571 19.091-42.571 42.571v0c0 23.48 18.986 42.606 42.571 42.606h324.507c23.48 0 42.606-19.126 42.606-42.606v0zM799.963 240.65c0-23.62-19.126-42.606-42.606-42.606h-324.507c-23.585 0-42.571 18.986-42.571 42.606v0c0 23.48 18.986 42.536 42.571 42.536h324.507c23.48-0.035 42.606-19.091 42.606-42.536v0zM258.63 636.921l-23.097 23.097-11.601-11.705 34.698-34.663 72.74 72.705-11.705 11.601zM258.63 429.327l-23.097 23.062-11.601-11.601 34.698-34.733 72.74 72.74-11.705 11.566zM258.63 221.768l-23.097 23.027-11.601-11.67 34.698-34.663 72.74 72.74-11.705 11.601z" />
<glyph unicode="&#xe102;" glyph-name="icon-shop" d="M481.641 342.813c0-5.643-4.563-10.207-10.207-10.207h-72.459c-5.504 0-10.137 4.563-10.137 10.207v86.532c0 5.643 4.633 10.137 10.137 10.137h72.459c5.643 0 10.207-4.494 10.207-10.137v-86.532zM745.696 557.82l-71.17 109.001h0.070c0 0-12.123 22.574-44.172 22.574h-237.058c-31.979 0-44.172-22.574-44.172-22.574h0.070l-71.239-109.001c0 0-19.543-29.053 7.768-29.053h452.169c27.346 0 7.803 29.053 7.734 29.053zM331.637 567.957l51.453 79.008c1.15 1.289 4.076 3.344 10.346 3.344h237.058c5.365 0 9.65-1.916 9.65-1.916l0.732-1.498 51.557-78.938h-360.795zM686.371 503.058h-348.881c-7.002 0-12.576-5.643-12.576-12.576v-208.736c0-7.002 5.574-12.576 12.576-12.576h348.916c7.002 0 12.645 5.574 12.645 12.576v208.736c-0.035 6.932-5.678 12.576-12.68 12.576zM659.896 308.256h-295.896v155.612h295.896v-155.612zM754.614 219.599c0-7.211-5.852-12.994-13.063-12.994h-459.311c-7.211 0-13.063 5.783-13.063 12.994v13.063c0 7.211 5.852 13.063 13.063 13.063h459.346c7.211 0 13.063-5.852 13.063-13.063v-13.063zM511.913 960c-282.693 0-511.913-229.22-511.913-511.983s229.22-511.983 511.913-511.983 511.913 229.22 511.913 511.983-229.185 511.983-511.913 511.983zM511.913-2.55c-248.414 0-450.497 202.152-450.497 450.567s202.083 450.462 450.497 450.462c248.345 0 450.497-202.083 450.497-450.497s-202.152-450.532-450.497-450.532z" />
<glyph unicode="&#xe103;" glyph-name="icon-tax" d="M511.93 960c-282.703 0-511.93-229.193-511.93-511.895 0-282.807 229.228-512.070 511.93-512.070s511.93 229.263 511.93 512.070c0.035 282.703-229.193 511.895-511.93 511.895zM511.93-2.478c-248.423 0-450.513 202.090-450.513 450.582 0 248.318 202.090 450.478 450.513 450.478 248.353 0 450.513-202.159 450.513-450.478 0-248.493-202.159-450.582-450.513-450.582zM281.135 346.555l-11.845 11.845c-24.49 24.56-24.49 64.309 0 88.8l236.718 236.753c24.56 24.525 64.309 24.56 88.869 0.035l11.845-11.845-325.587-325.587zM338.86 288.864l90.228-90.263c24.56-24.56 64.309-24.56 88.8 0l236.787 236.718c24.49 24.525 24.56 64.309 0 88.869l-90.332 90.228-325.482-325.552zM718.375 464.199l-114.649-114.649-31.109 31.109 114.649 114.649 31.109-31.109z" />
<glyph unicode="&#xe104;" glyph-name="icon-vacation" d="M473.559 635.992c0 0-126.21 64.307-214.937-91.932 0 0 86.219 26.858 123.702-8.43 0 0-97.436-39.051-38.703-218.943 0 0 50.826 106.807 155.403 131.505 0 0 50.756-173.97 28.252-298.892h126.21c0 0-4.494 214.868-88.448 317.25 0 0 54.692 48.77 200.237 0 0 0-39.33 132.411-190.517 122.413 0 0 19.996 120.706 144.917 125.409-0.035 0-171.218 111.057-246.115-78.381zM511.913 960c-282.693 0-511.913-229.22-511.913-511.983s229.22-511.983 511.913-511.983 511.913 229.22 511.913 511.983-229.185 511.983-511.913 511.983zM511.913-2.55c-248.414 0-450.497 202.152-450.497 450.567s202.083 450.462 450.497 450.462c248.345 0 450.497-202.083 450.497-450.497s-202.152-450.532-450.497-450.532z" />
<glyph unicode="&#xe105;" glyph-name="icon-team" d="M511.948 960c-282.712 0-511.948-229.236-511.948-512.017s229.236-511.948 511.948-511.948 511.948 229.166 511.948 511.948-229.201 512.017-511.948 512.017zM511.948-2.545c-248.431 0-450.528 202.166-450.528 450.528 0 248.431 202.097 450.528 450.528 450.528 248.362 0 450.528-202.097 450.528-450.528 0-248.362-202.166-450.528-450.528-450.528zM627.088 453.626c0-87.179-51.534-157.852-115.106-157.852s-115.106 70.673-115.106 157.852c0 87.179 51.534 157.852 115.106 157.852s115.106-70.673 115.106-157.852zM388.377 359.668c-12.472 27.557-19.649 59.678-19.649 93.959 0 63.475 24.631 119.704 62.117 153.219l0.174-0.139c-21.112 34.281-52.71 55.985-87.932 55.985-63.545 0-115.071-70.617-115.071-157.852 0-87.165 51.526-157.852 115.071-157.852 15.921 0 31.041 4.424 44.802 12.368l0.488 0.314zM149.979 282.013c15.259 7.769 63.162 31.18 101.797 39.402 17.489 3.658 27.487 11.845 33.061 20.694l0.279 0.488c0 0 17.977-31.354 57.971-31.354 32.225 0 50.132 20.346 55.915 28.254 1.359 1.986 2.055 3.135 2.055 3.135l0.348-0.488c5.574-8.849 15.503-17.001 32.992-20.694 1.568-0.348 3.135-0.697 4.703-1.080v0l-9.197-14.423c-2.439-3.867-7.49-6.584-15.12-8.222-44.767-9.441-98.941-36.685-111.447-43.199-20.903-6.793-54.696-30.344-65.705-81.661l-2.195-11.009h-0.139c-35.396 34.141-64.486 74.902-85.319 120.157zM788.563 161.647l-2.23 11.148c-10.939 51.317-44.802 74.833-65.74 81.661-12.507 6.55-66.68 33.758-111.413 43.199-7.63 1.637-12.681 4.355-15.155 8.222l-9.162 14.423c1.603 0.418 3.17 0.732 4.668 1.080 17.524 3.658 27.487 11.845 33.061 20.694l0.279 0.488c0 0 0.697-1.15 2.125-3.135 5.748-7.908 23.69-28.254 55.881-28.254 40.029 0 58.006 31.354 58.006 31.354l0.279-0.488c5.574-8.849 15.503-17.001 33.061-20.694 38.566-8.222 86.364-31.563 101.693-39.332l0.105-0.070c-20.903-45.255-50.028-86.016-85.458-120.296zM635.554 359.668c12.472 27.557 19.614 59.678 19.614 93.959 0 63.475-24.596 119.704-62.117 153.219l-0.139-0.139c21.112 34.281 52.675 55.985 87.932 55.985 63.545 0 115.071-70.617 115.071-157.852 0-87.165-51.526-157.852-115.071-157.852-15.886 0-31.076 4.424-44.802 12.368l-0.488 0.314zM265.92 164.434l0.523 2.439c11.113 51.979 48.808 61.385 48.808 61.385s60.061 31.981 106.675 41.841c17.524 3.728 27.453 11.915 33.027 20.694l0.314 0.557c0 0 17.977-31.354 58.006-31.354 39.994 0 57.971 31.354 57.971 31.354l0.279-0.557c5.574-8.779 15.538-16.931 33.061-20.694 46.614-9.859 106.709-41.841 106.709-41.841s37.66-9.406 48.774-61.385l0.488-2.439 6.654-21.983c-69.189-57.901-158.2-92.739-255.225-92.739-96.049 0-184.259 34.141-253.135 91.032l7.072 23.69z" />
<glyph unicode="&#xe106;" glyph-name="icon-setting" d="M511.948 960c-282.712 0-511.948-229.166-511.948-511.878 0-282.852 229.236-512.087 511.948-512.087s511.948 229.236 511.948 512.087c0.035 282.712-229.201 511.878-511.948 511.878zM511.948-2.476c-248.431 0-450.528 202.097-450.528 450.598 0 248.292 202.097 450.458 450.528 450.458 248.362 0 450.528-202.166 450.528-450.458 0-248.501-202.166-450.598-450.528-450.598zM621.27 758.461c-104.375 0-188.963-84.587-188.963-188.893 0-21.704 3.623-42.537 10.347-61.838l-233.451-233.521v-112.527h113.782v66.611h66.297v66.959h67.064l97.686 97.721c20.903-7.978 43.548-12.333 67.273-12.333 104.34 0 188.928 84.587 188.928 188.963-0.035 104.271-84.622 188.858-188.963 188.858zM677.011 561.486c-30.832 0-55.846 25.049-55.846 55.881s25.014 55.811 55.846 55.811 55.846-24.979 55.846-55.811-25.049-55.881-55.846-55.881z" />
<glyph unicode="&#xe107;" glyph-name="icon-createPage" d="M511.966 960c-282.71 0-511.966-229.256-511.966-511.966 0-282.779 229.256-512.034 511.966-512.034 282.676 0 512 229.256 512 512.034 0 282.71-229.324 511.966-512 511.966zM511.966-2.586c-248.4 0-450.517 202.083-450.517 450.62 0 248.4 202.117 450.552 450.517 450.552 248.435 0 450.552-202.151 450.552-450.552 0-248.538-202.117-450.62-450.552-450.62zM511.966 49.907v0 0zM207.469 674.168v-482.425c73.113-86.7 182.458-141.87 304.496-141.87 122.004 0 231.417 55.135 304.462 141.87v482.425h-608.959zM456.522 354.369v-132.915h-195.186v132.915h195.186zM261.061 620.474h501.021v-221.639h-501.021v221.639zM701.045 132.765h-376.718l-63.267 44.156h500.815l-60.831-44.156zM762.219 221.455h-263.874v132.915h263.874v-132.915z" />
<glyph unicode="&#xe108;" glyph-name="icon-media" d="M511.93 960c-282.703 0-511.93-229.193-511.93-511.895 0-282.807 229.228-512.070 511.93-512.070 282.668 0 511.895 229.263 511.895 512.070 0.035 282.703-229.193 511.895-511.895 511.895zM511.93-2.478c-248.423 0-450.513 202.090-450.513 450.582 0 248.318 202.090 450.478 450.513 450.478 248.318 0 450.478-202.159 450.478-450.478 0-248.493-202.159-450.582-450.478-450.582zM415.989 613.929l287.371-165.894-287.371-165.964z" />
<glyph unicode="&#xe109;" glyph-name="icon-curency" d="M511.913 960c-282.693 0-511.913-229.22-511.913-511.913 0-282.763 229.22-512.052 511.913-512.052s511.913 229.29 511.913 512.052c0.035 282.693-229.185 511.913-511.913 511.913zM511.913-2.48c-248.414 0-450.497 202.083-450.497 450.567 0 248.345 202.083 450.497 450.497 450.497 248.345 0 450.497-202.152 450.497-450.497 0-248.484-202.152-450.567-450.497-450.567zM312.721 321.528v-35.393h-55.354v34.975c-25.57 3.135-48.352 11.775-66.432 22.399l20.449 44.764c27.067-16.477 47.168-22.399 73.817-22.399 22.783 0 40.061 6.34 40.061 28.705 0 46.75-130.007 14.143-130.007 111.51 0 39.33 26.754 60.963 62.077 67.965v35.776h55.354v-34.975c22.783-3.135 42.465-9.789 58.942-17.697l-16.512-43.963c-17.279 8.639-39.678 16.861-65.596 16.861-23.967 0-38.912-5.504-38.912-23.619 0-49.049 130.007-9.789 130.007-106.807 0.070-49.815-29.785-71.448-67.895-78.102zM800.284 449.585c21.215-10.625 32.606-27.904 32.606-56.539 0-43.196-22.399-64.83-68.731-69.184v-37.692h-55.389v36.961h-58.942v250.644h58.942v36.125h55.389v-36.961c43.196-4.703 65.596-27.067 65.596-66.014-0.035-26.719-10.242-44.764-29.471-57.34zM705.217 471.566h33.756c23.967 0 35.393 8.291 35.393 30.69 0 18.428-12.193 24.768-37.309 24.768h-31.805v-55.459zM705.217 424.817v-54.971h33.756c25.953 0 38.494 6.654 38.494 28.705 0 19.996-12.541 26.266-38.877 26.266h-33.373zM492.196 687.514h39.469v-478.993h-39.469v478.993z" />
<glyph unicode="&#xe10a;" glyph-name="icon-prod-option" d="M511.913 960c-282.693 0-511.913-229.22-511.913-511.913 0-282.763 229.22-512.052 511.913-512.052s511.913 229.29 511.913 512.052c0.035 282.693-229.185 511.913-511.913 511.913zM511.913-2.48c-248.414 0-450.497 202.083-450.497 450.567 0 248.345 202.083 450.497 450.497 450.497 248.345 0 450.497-202.152 450.497-450.497 0-248.484-202.152-450.567-450.497-450.567zM684.35 529.185l-172.437-232.007-172.333 232.007z" />
<glyph unicode="&#xe10b;" glyph-name="icon-seo" d="M511.913 960c-282.693 0-511.913-229.22-511.913-511.913 0-282.763 229.22-512.052 511.913-512.052s511.913 229.29 511.913 512.052c0.035 282.693-229.185 511.913-511.913 511.913zM511.913-2.48c-248.414 0-450.497 202.083-450.497 450.567 0 248.345 202.083 450.497 450.497 450.497 248.345 0 450.497-202.152 450.497-450.497 0-248.484-202.152-450.567-450.497-450.567zM816.065 278.924c-2.439-4.842-4.877-9.51-11.008-10.625-5.609-1.010-10.172 0.732-14.178 4.494-17.731 16.547-35.498 33.059-53.090 49.746-1.672 1.568-2.439 4.076-3.623 6.201-1.498 2.508-2.439 5.574-4.494 7.559-10.137 9.789-20.588 19.195-30.76 28.914-2.229 2.195-3.553 2.195-5.992 0.279-21.424-16.268-45.6-24.002-72.528-22.399-28.252 1.777-52.219 13.063-71.588 33.547-22.26 23.619-31.84 51.905-28.879 84.094 2.891 31.352 17.383 56.817 42.639 75.872 25.047 18.916 53.438 25.395 83.92 19.787 33.164-6.131 58.559-24.49 74.827-54.239 15.258-27.834 17.383-57.166 7.246-87.229-4.145-12.193-10.486-23.27-19.195-33.617 3.902-3.658 7.699-7.35 11.566-10.938 6.828-6.41 13.551-12.924 20.623-19.055 2.578-2.195 5.992-3.414 9.022-4.982 2.404-1.289 5.191-2.125 7.141-3.867 17.244-15.85 34.453-31.84 51.487-47.969 2.822-2.717 4.633-6.549 6.863-9.789 0-1.881 0-3.867 0-5.783zM627.254 529.917c-43.614 0.348-79.077-34.836-79.739-79.112-0.627-43.127 35.463-79.461 79.112-79.67 43.614-0.279 79.53 35.393 79.739 79.112 0.209 43.684-35.184 79.356-79.112 79.67zM207.796 368.348c1.916 6.932 3.867 13.865 5.783 20.832 0.941 3.623 1.846 7.141 2.578 10.068 10.451-2.996 20.205-6.34 30.238-8.57 10.938-2.439 22.086-3.205 33.024 0.801 6.863 2.508 11.67 6.793 13.063 14.213 1.533 7.838-1.080 14.631-7.873 18.289-10.451 5.713-21.529 10.207-32.432 15.188-14.631 6.584-28.113 14.422-36.229 29.192-8.674 15.85-6.549 38.912 4.459 53.194 11.461 14.91 27.381 21.633 45.043 24.072 19.613 2.717 39.051 0.941 57.828-6.061 1.637-0.697 3.205-1.428 5.156-2.299-3.066-11.287-6.131-22.33-8.918-32.537-10.625 2.439-20.832 5.574-31.283 6.793-7.35 0.801-15.154-0.279-22.434-1.846-7.281-1.637-12.227-6.723-12.75-14.701-0.523-8.221 4.32-13.481 11.147-16.686 11.078-5.225 22.469-9.789 33.617-14.91s21.285-11.496 28.844-21.563c12.68-16.861 11.566-41.699 2.055-57.34-9.859-16.199-25.256-24.141-43.127-27.764-26.824-5.365-52.811-2.195-77.823 8.639 0.035 1.010 0.035 1.951 0.035 2.996zM407.022 509.259c0-10.137 0-19.647 0-29.123 0-9.789 0-9.789 9.719-9.789 17.975 0 35.916-0.070 53.891 0.139 3.867 0 5.504-0.801 5.295-5.086-0.314-8.221-0.244-16.477 0-24.768 0.139-3.658-1.15-4.703-4.738-4.633-19.578 0.139-39.19 0.070-58.768 0.070-1.637 0-3.205-0.209-5.086-0.279 0-14.631 0-28.983 0-43.963 25.186 0 50.477 0 76.082 0 0.279-1.707 0.557-2.996 0.557-4.215 0.070-8.848-0.070-17.766 0.070-26.684 0.070-2.926-0.941-4.145-3.902-4.006-2.752 0.139-5.504 0.070-8.256 0.070-33.547 0-67.024 0-100.571 0-1.916 0-3.797 0-5.992 0 0 62.391 0 124.155 0 186.442 38.145 0 76.221 0 114.505 0 0-11.287 0-22.469 0-34.139-24.176-0.035-48.178-0.035-72.807-0.035z" />
<glyph unicode="&#xe10c;" glyph-name="icon-multLang" d="M514.491 960c-282.747 1.428-513.097-226.658-514.491-509.37-1.394-282.852 226.727-513.237 509.439-514.595s513.097 226.727 514.491 509.579c1.359 282.712-226.727 513.028-509.439 514.386zM509.753-2.476c-248.431 1.219-449.518 204.257-448.298 452.758 1.219 248.362 204.291 449.483 452.723 448.263 248.362-1.219 449.483-204.326 448.298-452.688-1.219-248.501-204.361-449.552-452.723-448.333zM396.32 358.239h-112.806l-24.387-68.178h-68.631l115.524 315.913h67.691l115.524-315.913h-68.596l-24.317 68.178zM303.824 411.925h71.767l-36.092 102.006-35.674-102.006zM748.29 474.111c0 42.189-18.708 51.839-47.066 51.839-9.65 0-20.52-1.219-30.797-2.369l16.897-32.609c-27.766-17.489-31.389-36.197-31.389-81.452v-119.495h-85.040v128.518c0 51.317 3.623 63.963 30.17 85.667l-39.855 76.609c54.313 11.497 98.348 16.862 134.545 16.862 104.375 0 137.541-40.412 137.541-121.237v-186.454h-85.040v184.12z" />
<glyph unicode="&#xe10d;" glyph-name="icon-menuMgt" d="M511.983 960c-282.731 0-511.983-229.251-511.983-511.983 0-282.801 229.251-511.983 511.983-511.983s511.983 229.181 511.983 511.983c0.035 282.731-229.216 511.983-511.983 511.983zM511.983-2.611c-248.448 0-450.559 202.18-450.559 450.628s202.11 450.524 450.559 450.524c248.379 0 450.559-202.11 450.559-450.559s-202.18-450.593-450.559-450.593zM701.376 598.738c0 22.054-17.908 39.997-39.997 39.997h-298.793c-22.054 0-39.927-17.978-39.927-39.997v0c0-22.124 17.908-39.997 39.927-39.997h298.793c22.089-0.035 39.997 17.873 39.997 39.997v0zM701.376 448.017c0 22.054-17.908 39.997-39.997 39.997h-298.793c-22.054 0-39.927-17.978-39.927-39.997v0c0-22.124 17.908-39.997 39.927-39.997h298.793c22.089-0.035 39.997 17.873 39.997 39.997v0zM701.376 297.297c0 22.054-17.908 39.997-39.997 39.997h-298.793c-22.054 0-39.927-17.978-39.927-39.997v0c0-22.124 17.908-39.997 39.927-39.997h298.793c22.089-0.035 39.997 17.873 39.997 39.997v0z" />
<glyph unicode="&#xe10e;" glyph-name="icon-report" d="M511.948 960c-282.712 0-511.948-229.166-511.948-511.878 0-282.852 229.236-512.087 511.948-512.087s511.948 229.236 511.948 512.087c0.035 282.712-229.201 511.878-511.948 511.878zM511.948-2.476c-248.431 0-450.528 202.097-450.528 450.598 0 248.292 202.097 450.458 450.528 450.458 248.362 0 450.528-202.166 450.528-450.458 0-248.501-202.166-450.598-450.528-450.598zM259.371 403.947h124.651v-168.129h-124.651v168.129zM449.622 493.899h124.651v-258.082h-124.651v258.082zM639.874 660.217h124.651v-424.399h-124.651v424.399z" />
<glyph unicode="&#xe10f;" glyph-name="Icon-shipping" d="M511.965 960c-282.722 0-511.965-229.313-511.965-511.965 0-282.792 229.243-512 511.965-512s511.965 229.208 511.965 512c0.035 282.652-229.208 511.965-511.965 511.965zM511.965-2.578c-248.44 0-450.543 202.103-450.543 450.613 0 248.37 202.103 450.543 450.543 450.543 248.37 0 450.543-202.173 450.543-450.543 0-248.51-202.173-450.613-450.543-450.613zM816.218 438.663c0 0-34.909 6.306-34.108 19.475v63.199c0 0 5.574 65.219-56.126 90.896l4.843 12.473c0 0 14.563 26.408-17.35 26.408h-374.21c0 0-26.339 4.111-47.173-51.388h169.111l-11.706-33.655h-169.076l-13.204-38.045h117.653l-10.765-32.157h-117.862l-13.866-39.159h72.605l-11.009-32.645h-72.605l-35.048-100.372c0 0-14.563-29.126 9.058-29.126h35.327c0 0 16.932 57.346 83.475 57.346 0 0 48.845-6.097 31.112-57.346h264.501c0 0 18.047 60.83 68.738 60.83 50.622 0 54.106-26.373 43.689-60.76 0 0 56.266-3.101 69.47 29.544l26.339 72.187c-0.035 0 14.528 31.913-11.811 42.295zM755.771 462.981h-80.514l31.216 94.415c75.706 0 49.298-94.415 49.298-94.415zM655.364 327.877c21.204 18.132 48.733 20.739 61.488 5.824s5.906-41.706-15.298-59.839c-21.204-18.132-48.733-20.739-61.488-5.824s-5.906 41.706 15.298 59.839zM272.514 321.568c-21.148-18.151-27.976-44.873-15.26-59.784 12.786-14.946 40.274-12.333 61.457 5.853 21.148 18.116 28.046 44.838 15.295 59.819-12.821 14.876-40.309 12.229-61.492-5.888z" />
<glyph unicode="&#xe110;" glyph-name="icon-mngProd" d="M511.965 960c-282.722 0-511.965-229.208-511.965-511.965s229.243-512 511.965-512 511.965 229.243 511.965 512-229.208 511.965-511.965 511.965zM511.965-2.543c-248.44 0-450.543 202.173-450.543 450.578 0 248.475 202.103 450.578 450.543 450.578 248.37 0 450.543-202.103 450.543-450.578 0-248.405-202.173-450.578-450.543-450.578zM279.447 684.142h213.391v-213.391h-213.391v213.391zM538.478 631.081h160.366v-160.331h-160.366v160.331zM279.447 425.215h213.391v-213.391h-213.391v213.391zM538.478 425.215h213.357v-213.391h-213.357v213.391z" />
<glyph unicode="&#xe111;" glyph-name="icon-subscribe" d="M511.93 960c-282.703 0-511.93-229.193-511.93-511.895 0-282.807 229.228-512.070 511.93-512.070s511.93 229.263 511.93 512.070c0.035 282.703-229.193 511.895-511.93 511.895zM511.93-2.478c-248.423 0-450.513 202.090-450.513 450.582 0 248.318 202.090 450.478 450.513 450.478 248.353 0 450.513-202.159 450.513-450.478 0-248.493-202.159-450.582-450.513-450.582zM737.152 624.937c-28.323 24.351-65.807 38.843-103.362 36.37-51.176-3.449-92.806-37.624-121.86-77.721-29.054 40.097-70.684 74.307-121.86 77.721-37.554 2.473-75.039-12.019-103.362-36.37-74.516-64.449-47.971-187.946 5.365-256.401 14.562-18.603 31.214-35.569 49.12-50.932 106.218-92.214 170.702-152.83 170.702-152.83s64.518 60.582 170.771 152.83c17.837 15.363 34.489 32.329 49.051 50.932 53.405 68.455 79.986 191.952 5.435 256.401z" />
<glyph unicode="&#xe112;" glyph-name="icon-reqoffer" d="M511.93 960c-282.703 0-511.93-229.193-511.93-511.895 0-282.807 229.228-512.070 511.93-512.070s511.93 229.263 511.93 512.070c0.035 282.703-229.193 511.895-511.93 511.895zM511.93-2.478c-248.423 0-450.513 202.090-450.513 450.582 0 248.318 202.090 450.478 450.513 450.478 248.353 0 450.513-202.159 450.513-450.478 0-248.493-202.159-450.582-450.513-450.582zM511.93 678.795c-151.402 0-274.133-89.705-274.133-200.383 0-83.33 69.604-154.676 168.611-184.95l-44.835-76.258c0 0 91.029 22.017 160.041 61.209 146.838 3.728 264.483 91.726 264.483 199.999-0.035 110.677-122.766 200.383-274.168 200.383zM569.028 388.882c-10.939-12.437-26.197-19.996-45.846-22.853v-28.113h-21.773v27.312c-17.349 2.16-31.423 8.64-42.257 19.474-10.834 10.869-17.697 26.093-20.763 45.811l39.261 4.285c1.637-8.082 4.633-14.945 9.058-20.798 4.424-5.783 9.336-10.033 14.701-12.681l21.773-2.090c7.629 1.463 13.691 4.947 18.429 10.486 4.703 5.539 7.002 12.088 7.002 19.613 0 6.654-1.916 12.437-5.922 17.314-3.937 4.877-10.486 8.605-19.544 11.252l-21.773 6.41c-19.613 5.644-34.105 14.109-43.198 25.536-9.197 11.392-13.761 25.152-13.761 41.386 0 16.443 5.226 30.239 15.572 41.421 10.347 11.148 24.142 17.628 41.386 19.369v14.875h21.773v-14.875c15.99-1.986 28.636-7.385 38.042-16.373 9.511-8.918 15.502-20.972 18.115-36.022l-38.042-4.877c-2.299 11.775-8.291 19.787-18.115 23.933l-21.773 0.523c-5.922-2.021-10.556-5.435-14.144-10.242-3.484-4.842-5.226-10.103-5.226-15.886 0-5.33 1.637-10.312 4.912-14.841 3.135-4.564 8.013-8.222 14.492-11.043l21.773-7.246c24.142-6.515 40.481-14.91 49.26-25.327 8.709-10.416 13.064-23.689 13.064-39.888 0-18.080-5.539-33.374-16.478-45.846z" />
<glyph unicode="&#xe113;" glyph-name="card" d="M59.312 262.246l-23.218 23.19c-48.127 48.208-48.127 126.128-0.055 174.172l464.296 464.296c48.127 48.127 126.128 48.154 174.227 0.082l23.218-23.245-638.469-638.496zM172.399 149.132l177.010-177.010c48.099-48.181 126.073-48.181 174.145 0l464.351 464.242c48.072 48.127 48.181 126.128 0 174.309l-177.064 176.928-638.441-638.469zM916.779 492.948l-224.809-224.836-60.949 60.977 224.809 224.836 60.949-60.977z" />
<glyph unicode="&#xe114;" glyph-name="document" horiz-adv-x="819" d="M762.923 960h-707.077c-30.903 0-55.847-24.998-55.847-55.847v-912.252c0-30.848 24.943-55.902 55.847-55.902h707.077c30.848 0 55.847 25.054 55.847 55.902v912.252c0 30.848-24.998 55.847-55.847 55.847zM734.889 19.77h-651.064v856.516h651.12v-856.516zM146.073 482.766h519.119v-83.825h-519.119v83.825zM146.073 677.125h519.119v-83.825h-519.119v83.825zM146.073 288.352h519.119v-83.715h-519.119v83.715z" />
<glyph unicode="&#xe115;" glyph-name="email" horiz-adv-x="1557" d="M0 579.039v-591.434c0-28.517 23.089-51.605 51.605-51.605h1454.196c28.517 0 51.605 23.089 51.605 51.605v591.434l-778.742-270.641-778.665 270.641zM1557.407 723.228v185.167c0 28.517-23.089 51.605-51.605 51.605h-1454.196c-28.517 0-51.605-23.089-51.605-51.605v-185.091l778.742-270.641 778.665 270.564z" />
<glyph unicode="&#xe116;" glyph-name="info" d="M512 960c-282.726 0-512-229.274-512-512 0-282.778 229.274-512 512-512 282.778 0 512 229.222 512 512 0 282.726-229.222 512-512 512zM474.624 788.48h132.301v-128.41h-132.301v128.41zM608.819 107.469h-137.165v370.688h-56.474v115.814h129.382c48.691 0 64.205-7.782 64.205-53.555v-432.947z" />
<glyph unicode="&#xe117;" glyph-name="settingshop" horiz-adv-x="1190" d="M886.89 960h-591.318l-295.572-511.899 295.601-512.101h591.318l295.601 512.101-295.63 511.899zM591.347 203.995c-134.718 0-244.077 109.273-244.077 244.135 0 134.776 109.359 243.933 244.077 243.933 134.833 0 244.019-109.158 244.019-243.933-0.029-134.862-109.215-244.135-244.019-244.135z" />
<glyph unicode="&#xe118;" glyph-name="shop" horiz-adv-x="1160" d="M391.12 792.692c0-28.723 0-56.017 0-85.083-45.871 0-90.999-0.029-136.042 0-50.244 0-100.431-0.4-150.646 0.4-14.947 0.2-18.406-5.344-18.377-19.435 0.429-215.123 0.543-430.275 0-645.427-0.057-16.891 4.573-21.235 21.321-21.207 314.982 0.543 629.993 0.457 944.976 0.486 22.035 0 22.15-0.086 22.15 21.292 0.057 215.152-0.086 430.332 0.343 645.455 0.029 14.662-4.459 18.892-18.92 18.777-88.799-0.543-177.626-0.257-266.425-0.229-6.030 0-12.061 0-19.32 0 0 28.466 0 56.16 0 85.626 6.030 0 11.375 0 16.748 0 89.913 0 179.855 0.057 269.769-0.029 65.935-0.029 103.66-38.24 103.603-103.66-0.2-217.895-0.086-435.819-0.086-653.744 0-60.561-38.326-99.288-99.145-99.316-319.955-0.086-639.939 0.572-959.895-0.6-58.161-0.2-101.631 45.557-101.174 101.917 1.743 217.895 0.657 435.791 0.6 653.715 0 62.591 37.897 101.345 100.688 101.603 92.143 0.429 184.257 0.171 276.428 0.143 3.801 0 7.574-0.372 13.404-0.686zM593.725 81.445c-157.248 0-312.553 0-470.173 0 3.687 23.407 5.659 45.9 11.003 67.621 6.145 24.779 24.15 40.441 47.786 48.844 26.408 9.374 53.416 17.262 79.882 26.522 17.863 6.259 31.81 16.719 37.354 36.554 2.801 10.089 1.172 16.748-5.144 25.322-34.153 46.386-49.615 98.402-39.241 155.734 10.832 59.704 52.13 90.371 113.549 87.084 51.616-2.715 90.199-41.155 95.629-96.858 5.059-52.502-8.317-100.602-38.783-143.673-10.946-15.49-11.289-32.896 3.144-46.357 9.317-8.746 21.464-15.433 33.467-20.035 21.035-8.088 42.985-13.833 64.506-20.635 36.926-11.661 58.075-36.354 62.048-75.28 1.372-14.204 3.144-28.409 4.973-44.842zM716.306 748.678c0-45.785 0.114-91.542-0.029-137.328-0.143-40.984-28.037-70.222-69.136-70.993-44.099-0.829-88.227-0.943-132.355 0-43.185 0.886-70.079 29.809-70.107 73.308-0.029 90.456-0.057 180.913 0.029 271.34 0.029 47.5 27.437 74.852 74.88 74.909 41.899 0.057 83.826 0.143 125.724 0 42.013-0.171 70.593-28.466 70.85-70.622 0.314-46.843 0.057-93.714 0.057-140.615 0.086 0 0.086 0 0.086 0zM580.893 728.043c-35.554-0.057-62.962-27.18-63.191-62.562-0.2-34.725 28.237-63.105 63.105-62.876 34.754 0.257 62.705 28.78 62.391 63.705-0.314 34.153-28.18 61.819-62.305 61.733zM659.831 222.831c0 25.093 0 49.044 0 73.88 115.807 0 230.642 0 346.306 0 0-24.951 0-48.872 0-73.88-115.378 0-229.756 0-346.306 0zM1006.166 160.783c0-24.808 0-48.758 0-73.851-115.721 0-230.528 0-346.335 0 0 24.893 0 48.844 0 73.851 115.607 0 230.471 0 346.335 0zM1006.195 432.552c0-24.55 0-48.129 0-73.194-115.035 0-229.928 0-346.106 0 0 24.207 0 48.158 0 73.194 115.407 0 230.271 0 346.106 0z" />
<glyph unicode="&#xe119;" glyph-name="shop-info" horiz-adv-x="1029" d="M450.642 224.975c0-12.006-9.627-21.633-21.633-21.633h-153.644c-11.785 0-21.522 9.627-21.522 21.633v183.466c0 12.006 9.738 21.633 21.522 21.633h153.644c12.006 0 21.633-9.627 21.633-21.633v-183.466zM1010.721 680.984l-150.989 231.158h0.111c0 0-25.727 47.858-93.669 47.858h-502.705c-67.887 0-93.614-47.858-93.614-47.858h0.111l-151.044-231.158c0 0-41.385-61.579 16.432-61.579h959.046c57.817 0 16.432 61.579 16.322 61.579zM132.399 702.396l109.161 167.587c2.434 2.711 8.576 7.027 21.91 7.027h502.705c11.453 0 20.526-3.984 20.526-3.984l1.604-3.264 109.382-167.365h-765.289zM884.796 564.686h-740.004c-14.828 0-26.668-11.895-26.668-26.668v-442.619c0-14.938 11.895-26.668 26.668-26.668h740.004c14.828 0 26.778 11.785 26.778 26.668v442.619c0.055 14.828-11.951 26.668-26.778 26.668zM828.639 151.722h-627.524v329.973h627.524v-329.973zM1029.477-36.336c0-15.326-12.338-27.664-27.664-27.664h-974.15c-15.215 0-27.664 12.338-27.664 27.664v27.664c0 15.215 12.449 27.664 27.664 27.664h974.15c15.326 0 27.664-12.449 27.664-27.664v-27.664z" />
<glyph unicode="&#xe120;" glyph-name="shop-req" horiz-adv-x="1091" d="M548.838 960c-303.13 0-548.838-210.006-548.838-469.058 0-168.412 104.171-315.656 260.136-398.395l-1.744 0.423-73.147-156.969 363.593 85.884c303.104 0 548.838 210.006 548.838 469.058s-245.76 469.058-548.838 469.058zM593.55 264.631h-89.451v88.156h89.451v-88.156zM593.55 398.452h-89.451v310.133h89.451v-310.133z" />
<glyph unicode="&#xe900;" glyph-name="close" d="M961.246 960h-898.543c-34.649 0-62.703-28.054-62.703-62.703v-898.543c0-34.598 28.054-62.703 62.703-62.703h898.492c34.649 0 62.703 28.105 62.703 62.703v898.543c0.051 34.649-28.003 62.703-62.652 62.703zM923.604 36.396h-823.258v823.208h823.258v-823.208zM726.972 285.687l-162.288 162.338 162.237 162.237-52.659 52.709-162.288-162.237-162.237 162.237-52.709-52.709 162.237-162.237-162.288-162.338 52.709-52.659 162.288 162.288 162.338-162.288z" />
<glyph unicode="&#xe901;" glyph-name="copy" d="M961.246 960h-898.543c-34.649 0-62.703-28.105-62.703-62.703v-898.543c0-34.649 28.054-62.703 62.703-62.703h898.492c34.649 0 62.703 28.105 62.703 62.703v898.543c0.051 34.598-28.003 62.703-62.652 62.703zM923.604 36.396h-823.258v823.208h823.258v-823.208zM603.036 188.994c-81.271 0-162.592 0-243.863 0-0.761 0.304-1.471 0.761-2.283 0.913-34.903 6.392-58.137 34.040-58.29 69.653-0.051 14.61 0 29.373-0.051 43.984 0 87.003-0.101 174.006 0.051 261.010 0.051 37.693 31.149 68.436 68.74 68.486 55.702 0.101 111.303 0 166.955 0 14.661 0 27.395-5.327 37.794-15.574 25.315-24.96 50.426-50.173 75.487-75.437 10.806-10.856 16.285-24.148 16.285-39.57 0-66.051 0-132.154 0-198.256 0-1.674 0.101-3.247 0.254-5.225 1.573 0.355 2.739 0.507 3.805 0.913 14.509 5.276 22.981 18.466 22.981 35.156-0.051 31.859-0.051 63.718-0.051 95.627 0 68.284 0.101 136.516-0.051 204.851-0.152 22.524-14.864 36.831-37.389 36.831-78.734 0.051-157.468 0-236.202 0.051-11.262 0-20.647-3.906-28.105-12.48-1.015-1.167-2.689-2.334-4.058-2.334-11.77-0.203-23.59-0.101-35.664-0.101 0.406 1.623 0.659 2.942 1.116 4.211 7.052 17.908 19.024 31.301 36.678 39.063 6.24 2.79 13.038 4.211 19.582 6.291 85.989 0 172.028 0 258.017 0 0.609-0.304 1.167-0.71 1.776-0.812 35.867-6.747 58.797-34.243 58.797-70.769 0.051-101.005 0.051-201.959 0-302.964 0-33.432-23.235-61.739-56.362-68.233-4.363-0.862-5.276-2.435-5.327-6.544-0.152-29.88-18.669-55.449-47.078-65.138-4.414-1.471-8.979-2.435-13.545-3.602zM333.149 411.347c0.051 0 0.051 0 0.051 0 0-3.044 0-6.037 0-9.081 0-46.216 0-92.381-0.051-138.596 0-7.508 0.507-14.864 4.312-21.561 7.001-12.125 17.502-18.314 31.504-18.365 35.765-0.051 71.48-0.051 107.245-0.051 39.215 0 78.531-0.051 117.848 0.101 14.661 0.051 25.822 6.849 31.656 20.242 2.638 5.935 3.45 13.038 3.45 19.633 0.304 57.681 0.152 115.311 0.152 172.941 0 21.763 0.051 43.527 0 65.29 0 6.95-0.659 7.61-7.407 7.61-11.465 0-22.93-0.152-34.395 0-29.018 0.254-50.325 21.662-50.579 50.629-0.051 10.603 0 21.205 0.051 31.808 0 6.646 0.051 6.595-6.646 6.595-53.318 0-106.585-0.101-159.802 0-22.119 0-37.338-14.763-37.338-36.932-0.051-50.122-0.051-100.193-0.051-150.264zM481.638 328.504c29.88 0 59.761 0.051 89.59 0 15.473-0.051 25.518-12.429 21.611-26.38-2.587-8.878-11.009-14.661-21.814-14.661-34.953-0.051-69.856-0.051-104.759-0.051-25.010 0-49.919-0.051-74.879 0.051-13.342 0.051-22.524 8.776-22.322 20.85 0.203 11.668 9.284 20.089 22.068 20.089 28.206 0.101 56.311 0.051 84.517 0.051 1.928 0.051 3.957 0.051 5.986 0.051zM481.638 416.674c30.388 0 60.725 0 91.062 0 11.668 0 20.901-8.827 21.003-20.089 0.051-11.211-9.132-20.394-20.749-20.394-61.181-0.101-122.363-0.101-183.595 0-11.414 0-20.292 9.030-20.292 20.191-0.101 11.414 8.827 20.292 20.546 20.292 30.692 0.051 61.333 0 92.026 0zM442.169 505.402c17.553 0 35.106 0.051 52.659 0 10.248-0.051 17.959-6.088 20.495-15.524 2.334-8.624-1.42-17.908-9.69-22.322-3.145-1.725-7.001-2.892-10.552-2.892-34.903-0.254-69.805-0.203-104.708-0.101-9.030 0-16.082 3.856-19.684 12.429-3.196 7.61-2.131 14.915 3.297 21.256 4.312 5.022 10.045 7.153 16.589 7.153 17.198 0 34.395 0 51.593 0z" />
<glyph unicode="&#xe902;" glyph-name="detail" d="M961.198 960h-898.498c-34.647 0-62.7-28.154-62.7-62.751v-898.498c0-34.647 28.053-62.751 62.7-62.751h898.448c34.647 0 62.7 28.103 62.7 62.751v898.498c0.051 34.597-28.002 62.751-62.649 62.751zM923.558 36.442h-823.218v823.167h823.218v-823.167zM363.062 660.044c0-16.081-13.088-29.169-29.169-29.169h-49.866c-16.081 0-29.169 13.088-29.169 29.169v49.815c0 16.132 13.088 29.169 29.169 29.169h49.815c16.081 0 29.169-13.037 29.169-29.169v-49.815zM769.040 660.044c0-16.081-13.037-29.169-29.118-29.169h-284.484c-16.132 0-29.169 13.088-29.169 29.169v49.815c0 16.132 13.037 29.169 29.169 29.169h284.433c16.081 0 29.118-13.037 29.118-29.169v-49.815zM363.062 424.006c0-16.081-13.088-29.169-29.169-29.169h-49.866c-16.081 0-29.169 13.037-29.169 29.169v49.815c0 16.132 13.088 29.169 29.169 29.169h49.815c16.081 0 29.169-13.037 29.169-29.169v-49.815zM769.040 424.006c0-16.081-13.037-29.169-29.118-29.169h-284.484c-16.132 0-29.169 13.037-29.169 29.169v49.815c0 16.132 13.037 29.169 29.169 29.169h284.433c16.081 0 29.118-13.037 29.118-29.169v-49.815zM363.062 187.866c0-16.081-13.088-29.169-29.169-29.169h-49.866c-16.081 0-29.169 13.088-29.169 29.169v49.866c0 16.081 13.088 29.118 29.169 29.118h49.815c16.081 0 29.169-13.037 29.169-29.118v-49.866zM769.040 187.866c0-16.081-13.037-29.169-29.118-29.169h-284.484c-16.132 0-29.169 13.088-29.169 29.169v49.866c0 16.081 13.037 29.118 29.169 29.118h284.433c16.081 0 29.118-13.037 29.118-29.118v-49.866z" />
<glyph unicode="&#xe903;" glyph-name="edit" d="M961.246 960h-898.543c-34.649 0-62.703-28.105-62.703-62.703v-898.543c0-34.649 28.054-62.703 62.703-62.703h898.543c34.649 0 62.703 28.105 62.703 62.703v898.543c0 34.598-28.054 62.703-62.703 62.703zM923.604 36.396h-823.258v823.208h823.258v-823.208zM607.181 643.261l100.311-100.283-320.719-320.81-100.311 100.283 320.719 320.81zM361.355 196.35l-137.277-36.78 36.78 137.328zM732.298 569.272l58.898 59c11.617 11.567 11.617 30.337 0 41.904l-57.63 57.579c-11.567 11.567-30.337 11.567-41.904 0l-58.898-58.949 99.534-99.534z" />
<glyph unicode="&#xe904;" glyph-name="view" d="M961.246 960h-898.543c-34.649 0-62.703-28.105-62.703-62.754v-898.492c0-34.649 28.054-62.703 62.703-62.703h898.543c34.649 0 62.703 28.105 62.703 62.703v898.492c0 34.649-28.054 62.754-62.703 62.754zM923.604 36.396h-823.258v823.208h823.258v-823.208zM528.969 635.273h-34.040c0 0-210.38-5.631-305.247-187.247 94.816-181.616 305.247-187.247 305.247-187.247h33.99c0 0 210.431 5.631 305.298 187.247-94.765 181.616-305.247 187.247-305.247 187.247zM511.975 290.253c-87.105 0-157.722 70.617-157.722 157.722s70.617 157.722 157.722 157.722c87.155 0 157.773-70.617 157.773-157.722s-70.617-157.722-157.773-157.722zM511.975 570.692c-67.726 0-122.616-54.941-122.616-122.718 0-67.675 54.941-122.667 122.616-122.667 67.776 0 122.718 54.941 122.718 122.667 0 67.827-54.941 122.718-122.718 122.718zM565.699 478.312c-10.501 0-19.024 8.472-19.024 18.973s8.523 19.024 19.024 19.024 19.024-8.472 19.024-19.024-8.523-18.973-19.024-18.973z" />
</font>
</defs>
</svg>
