<?xml version="1.0" standalone="no"?>
<!DOCTYPE svg PUBLIC "-//W3C//DTD SVG 1.1//EN" "http://www.w3.org/Graphics/SVG/1.1/DTD/svg11.dtd" >
<svg xmlns="http://www.w3.org/2000/svg">
<metadata>Generated by IcoMoon</metadata>
<defs>
<font id="spinshopping" horiz-adv-x="1024">
<font-face units-per-em="1024" ascent="960" descent="-64" />
<missing-glyph horiz-adv-x="1024" />
<glyph unicode="&#x20;" horiz-adv-x="512" d="" />
<glyph unicode="&#xe913;" glyph-name="player" d="M512 960c-282.77 0-512-229.254-512-512 0-282.77 229.23-512 512-512s512 229.23 512 512c0 282.746-229.23 512-512 512zM512 9.143c-242.371 0-438.857 196.486-438.857 438.857s196.486 438.857 438.857 438.857c242.347 0 438.857-196.486 438.857-438.857s-196.51-438.857-438.857-438.857zM381.952 652.093l353.524-204.093-353.524-204.117z" />
<glyph unicode="&#xe914;" glyph-name="add1" d="M512.024 960c-282.826 0-512.024-229.245-512.024-511.976 0-282.779 229.197-512.071 512.024-512.071s512.024 229.245 512.024 512.071c-0.047 282.732-229.245 511.976-512.024 511.976zM776.627 411.248h-227.876v-227.876h-73.551v227.876h-227.876v73.504h227.876v227.923h73.551v-227.923h227.876v-73.504z" />
<glyph unicode="&#xe915;" d="M1020.429 448.021c0-280.809-227.641-508.45-508.45-508.45s-508.45 227.641-508.45 508.45c0 280.809 227.641 508.45 508.45 508.45s508.45-227.641 508.45-508.45z" />
<glyph unicode="&#xe916;" d="M813.297 500.796h-248.488v248.516h-105.62v-248.516h-248.516v-105.605h248.516v-248.516h105.62v248.516h248.488z" />
<glyph unicode="&#xe917;" glyph-name="add3" d="M512.026 960c-282.794 0-512.026-229.232-512.026-511.974 0-282.768 229.232-512 512.026-512 282.768 0 511.974 229.232 511.974 512 0.026 282.742-229.206 511.974-511.974 511.974zM834.628 402.044c0-11.333-9.17-20.477-20.451-20.477h-235.745v-235.719c0-11.307-9.144-20.425-20.425-20.425h-91.964c-11.307 0-20.425 9.144-20.425 20.425v235.719h-235.745c-11.281 0-20.425 9.17-20.425 20.477v91.964c0 11.281 9.17 20.425 20.425 20.425h235.745v235.719c0 11.307 9.144 20.425 20.425 20.425h91.964c11.307 0 20.425-9.144 20.425-20.425v-235.719h235.745c11.307 0 20.451-9.17 20.451-20.425v-91.964z" />
<glyph unicode="&#xe918;" d="M1020.818 448.006c0-281.009-227.803-508.812-508.812-508.812s-508.812 227.803-508.812 508.812c0 281.009 227.803 508.812 508.812 508.812s508.812-227.803 508.812-508.812z" />
<glyph unicode="&#xe919;" d="M813.585 505.511h-244.061v244.074c0 31.742-25.762 57.504-57.504 57.504-31.768 0-57.504-25.762-57.504-57.504v-244.074h-244.074c-31.742 0-57.504-25.736-57.504-57.504 0-31.742 25.762-57.504 57.504-57.504h244.087v-244.074c0-31.742 25.736-57.504 57.504-57.504 31.742 0 57.504 25.762 57.504 57.504v244.074h244.061c31.755 0 57.504 25.762 57.504 57.504-0.013 31.768-25.762 57.504-57.517 57.504z" />
<glyph unicode="&#xe91c;" glyph-name="add5" d="M1024.206 375.063c0-17.969-14.608-32.508-32.508-32.508h-374.253v-374.116c0-17.969-14.471-32.439-32.508-32.439h-145.874c-17.9 0-32.439 14.471-32.439 32.439v374.116h-374.047c-17.969 0-32.577 14.539-32.577 32.508v146.011c0 17.831 14.608 32.371 32.577 32.371h374.116v374.116c0 17.969 14.539 32.439 32.371 32.439h145.874c18.037 0 32.508-14.471 32.508-32.439v-374.116h374.253c17.9 0 32.508-14.539 32.508-32.439v-145.943z" />
<glyph unicode="&#xe91d;" glyph-name="rank3" d="M957.676 960l-459.225-225.044-459.067 225.044v-168.33l459.067-225.201 459.225 225.201zM957.676 659.574l-459.225-225.28-459.067 225.28v-168.487l459.067-225.28 459.225 225.28zM957.676 358.912l-459.225-225.201-459.067 225.201v-168.33l459.067-225.201 459.225 225.201z" />
<glyph unicode="&#xe91e;" glyph-name="rank2" d="M994.816 832l-497.408-243.968-497.408 243.968v-182.528l497.408-243.968 497.408 243.968zM994.816 506.368l-497.408-244.053-497.408 244.053v-182.357l497.408-244.053 497.408 244.053z" />
<glyph unicode="&#xe91f;" glyph-name="rank1" d="M994.816 661.333l-497.493-243.968-497.323 243.968v-182.357l497.323-243.968 497.493 243.968z" />
<glyph unicode="&#xe920;" glyph-name="reply" horiz-adv-x="1026" d="M441.389 447.911c0 0 513.959 51.111 582.433-512 0 0 63.221 852.502-582.433 852.502v171.498l-441.389-341.927 441.389-341.571v171.498z" />
<glyph unicode="&#xe921;" d="M1002.554 447.957c0-270.902-219.609-490.511-490.511-490.511s-490.511 219.609-490.511 490.511c0 270.902 219.609 490.511 490.511 490.511s490.511-219.609 490.511-490.511z" />
<glyph unicode="&#xe922;" d="M693.269 710.705l81.574-81.62-443.97-443.719-81.574 81.62 443.97 443.719z" />
<glyph unicode="&#xe923;" d="M774.803 266.875l-81.597-81.597-443.845 443.845 81.597 81.597 443.845-443.845z" />
<glyph unicode="&#xe924;" glyph-name="remove" d="M1024 65.365l-382.635 382.635 382.498 382.566-129.297 129.434-382.566-382.635-382.566 382.498-129.365-129.297 382.498-382.566-382.566-382.635 129.434-129.365 382.566 382.566 382.566-382.566z" />
<glyph unicode="&#xe925;" glyph-name="remove2" d="M865.016 960.009l158.982-158.982-864.978-864.978-158.982 158.982 864.978 864.978zM1023.934 94.941l-159.047-159.002-864.813 865.058 159.047 159.002 864.813-865.058z" />
<glyph unicode="&#xe926;" d="M1016.561 447.993c0-278.666-225.903-504.569-504.569-504.569s-504.569 225.903-504.569 504.569c0 278.666 225.903 504.569 504.569 504.569s504.569-225.903 504.569-504.569z" />
<glyph unicode="&#xe927;" d="M410.156 157.079l-57.472 57.472 233.442 233.442-233.442 233.442 57.472 57.472 290.899-290.914z" />
<glyph unicode="&#xe928;" d="M1016.591 448c0-278.67-225.906-504.576-504.576-504.576s-504.576 225.906-504.576 504.576c0 278.67 225.906 504.576 504.576 504.576s504.576-225.906 504.576-504.576z" />
<glyph unicode="&#xe929;" d="M613.867 738.918l57.458-57.472-233.445-233.445 233.445-233.445-57.458-57.487-290.918 290.933z" />
<glyph unicode="&#xe92a;" d="M1024 448c0-282.77-229.23-512-512-512s-512 229.23-512 512c0 282.77 229.23 512 512 512s512-229.23 512-512z" />
<glyph unicode="&#xe92b;" d="M960.497 448c0-247.682-200.786-448.467-448.467-448.467s-448.467 200.786-448.467 448.467c0 247.682 200.786 448.467 448.467 448.467s448.467-200.786 448.467-448.467z" />
<glyph unicode="&#xe92c;" d="M600.079 752.928l-304.928-304.928 304.928-304.928 69.034 69.004-235.924 235.924 235.924 235.864z" />
<glyph unicode="&#xe92d;" d="M1024 448c0-282.77-229.23-512-512-512s-512 229.23-512 512c0 282.77 229.23 512 512 512s512-229.23 512-512z" />
<glyph unicode="&#xe92e;" d="M960.467 448c0-247.682-200.786-448.467-448.467-448.467s-448.467 200.786-448.467 448.467c0 247.682 200.786 448.467 448.467 448.467s448.467-200.786 448.467-448.467z" />
<glyph unicode="&#xe92f;" d="M423.951 143.072l304.928 304.928-304.928 304.928-69.034-69.064 235.924-235.864-235.924-235.924z" />
<glyph unicode="&#xe930;" glyph-name="gototop" d="M314.368 297.329l197.591 342.303 197.673-342.303zM512 960c-282.767 0-512-229.192-512-512 0-282.767 229.233-512 512-512s512 229.233 512 512c0 282.808-229.233 512-512 512zM512 17.92c-237.158 0-430.080 192.963-430.080 430.080 0 237.158 192.922 430.080 430.080 430.080 237.138 0 430.080-192.922 430.080-430.080 0-237.117-192.942-430.080-430.080-430.080z" />
<glyph unicode="&#xe936;" glyph-name="doc" d="M682.837 960h-563.371v-1024h783.155v804.25l-219.785 219.75zM834.355 4.267h-646.622v887.467h466.842v-179.814h179.814v-707.652z" />
<glyph unicode="&#xe937;" glyph-name="attached" d="M748.057 959.961c2.364-5.427 7.869-4.264 12.055-5.427 92.291-24.458 150.743-82.407 168.457-176.481 13.915-73.841-8.566-138.844-61.708-191.83-106.516-106.090-213.731-211.405-320.673-317.069-48.064-47.522-96.012-95.276-144.464-142.487-55.739-54.344-136.867-59.964-197.063-14.225-67.522 51.32-77.213 150.549-18.683 212.141 48.762 51.165 99.927 99.888 150.201 149.58 86.438 85.547 173.070 170.938 259.663 256.407 10.814 10.737 10.814 10.737 21.668 0.039 11.125-11.008 21.939-22.365 33.529-32.947 6.667-6.008 6.047-9.807-0.078-15.931-78.221-76.825-156.17-154.038-234.158-231.057-57.6-56.941-115.315-113.726-172.837-170.705-31.125-30.815-32.172-76.127-2.791-105.431 28.916-28.839 75.779-28.49 106.051 1.279 123.61 121.982 247.104 244.003 370.598 366.102 34.149 33.684 68.802 66.98 102.291 101.322 49.421 50.894 53.53 130.704 10.582 186.946-53.685 70.391-157.255 78.802-220.669 16.978-85.081-83.143-169.504-166.984-254.159-250.67-73.724-72.833-147.642-145.433-220.979-218.77-40.196-40.079-61.011-89.461-62.522-146.169-2.868-110.276 77.6-205.862 186.908-221.599 73.22-10.504 137.797 9.342 190.706 61.398 139.619 137.022 278.54 274.78 417.655 412.306 32.017 31.629 64.266 63.065 95.935 94.927 6.667 6.628 10.582 6.318 16.9-0.155 14.148-14.574 29.071-28.451 43.607-42.638 0-0.698 0-1.279 0-1.977-3.721-3.333-7.558-6.434-11.125-9.962-167.527-165.473-335.132-330.79-502.465-496.534-45.894-45.467-99.539-75.352-163.147-86.942-3.411-0.659-7.636-0.116-9.225-4.574-28.683 0-57.328 0-86.012 0-2.132 5.155-7.21 4.031-11.202 4.923-123.688 24.962-211.211 112.176-236.367 235.747-0.736 3.605-0.233 7.675-4.535 9.497 0 27.986 0 56.010 0 84.074 4.923 1.783 4.147 6.434 4.845 10.117 11.745 61.514 40.971 113.494 85.391 157.294 153.379 151.363 306.758 302.766 459.982 454.439 32.327 31.978 70.042 53.723 114.618 63.336 3.411 0.775 7.558 0.271 9.148 4.729 24.691 0 49.382 0 74.073 0z" />
<glyph unicode="&#xe938;" glyph-name="checked" d="M512.011 954.273c-279.602 0-506.284-226.66-506.284-506.284 0-279.602 226.682-506.284 506.284-506.284s506.284 226.682 506.284 506.284c-0.023 279.625-226.682 506.284-506.284 506.284zM378.751 153.313c-10.996-11.042-28.911-11.042-39.953 0l-205.102 205.057c-10.996 11.042-10.996 28.957 0 39.953l37.983 37.983c11.042 10.996 28.911 10.996 39.953 0l147.166-147.166 453.525 453.594c11.042 10.996 28.957 10.996 39.953 0l37.983-37.983c11.042-11.019 10.996-28.911 0-39.93l-511.507-511.507z" />
<glyph unicode="&#xe939;" glyph-name="cart-remove" d="M191.527 792.182c-19.85 0-35.682 0-53.681 0 0 12.012 0 22.174 0 35.84 68.096 0 136.468 0 209.25 0 0 18.708-0.394 34.304 0 50.018 1.3 51.358 30.996 81.014 82.826 81.487 56.911 0.591 113.703 0.67 170.614-0.039 49.94-0.67 79.675-30.523 81.172-80.148 0.473-15.675 0.079-31.508 0.079-50.294 71.838 0 140.327 0 209.92 0 0-12.761 0-22.37 0-35.367-16.069-0.788-32.453-1.615-51.751-2.599-3.545-39.306-7.404-77.745-10.476-116.224-16.778-211.692-32.926-423.503-49.979-635.156-5.514-68.096-31.429-90.782-99.722-90.782-111.695 0-223.547-0.079-335.242 0.079-59.707 0.079-87.079 27.215-91.766 85.74-14.454 183.966-30.169 367.616-45.292 551.503-5.514 67.426-10.476 134.892-15.951 205.942zM229.455 790.646c2.914-40.212 5.238-76.997 8.231-113.703 17.369-212.598 35.092-425.236 52.303-637.834 3.308-40.212 14.927-52.539 56.241-52.697 112.679-0.276 225.477-0.276 338.196 0 41.866 0.079 52.894 10.122 56.438 52.066 15.321 185.777 30.366 371.594 45.253 557.332 5.199 64.315 9.649 128.67 14.572 194.796-191.527 0.039-379.628 0.039-571.234 0.039zM643.308 830.582c0 17.841-0.158 33.595 0.079 49.31 0.473 25.521-13.233 40.763-37.218 41.393-61.676 1.378-123.471 1.142-185.068-0.315-21.228-0.473-34.855-14.139-35.84-36.628-0.709-17.526-0.118-35.092-0.118-53.76 86.686 0 170.102 0 258.166 0zM644.608 704.354c11.54 0 21.937 0 37.376 0-9.216-209.369-18.314-417.674-27.609-629.169-10.752-0.63-21.228-1.142-37.376-2.009 9.216 210.905 18.393 420.155 27.609 631.178zM411.924 74.673c-14.769 0-24.537 0-37.376 0-9.255 209.132-18.55 417.989-27.845 629.209 13.076 0 23.473 0 37.14 0 9.295-208.699 18.629-417.319 28.081-629.209zM529.014 74.949c-10.634 0-19.22 0-29.775 0 0 210.078 0 419.013 0 629.524 10.004 0 18.55 0 29.775 0 0-209.211 0-417.989 0-629.524z" />
<glyph unicode="&#xe93a;" glyph-name="cart-checkout" d="M756.584 545.621v0.152h-0.038zM280.5 545.621l0.038 0.152h-0.038zM830.464 586.24c-23.287 99.745-96.711 297.908-311.903 297.908s-288.654-198.163-311.941-297.908h-206.62l140.895-479.118c10.050-47.18 85.182-101.641 377.666-101.641s367.616 54.462 377.628 101.641l140.933 479.118h-206.658zM856.86 116.603c0 0-10.126-70.656-338.299-70.656-328.211 0-338.337 70.656-338.337 70.656l-126.217 429.17h185.647c11.416 67.319 66.295 297.908 278.907 297.908s267.492-230.59 278.907-297.908h185.685l-126.293-429.17zM518.561 803.328c-175.9 0-225.963-191.412-237.985-257.555h475.97c-12.060 66.143-62.123 257.555-237.985 257.555zM331.511 586.24c21.845 74.904 72.59 176.735 187.051 176.735s165.167-101.869 187.051-176.735h-374.101z" />
<glyph unicode="&#xe943;" glyph-name="setting" d="M757.312 896h-504.896l-252.416-437.184 252.416-436.992h504.832l252.352 436.992-252.288 437.184zM504.896 250.496c-115.072 0-208.384 93.312-208.384 208.32 0 115.264 93.312 208.384 208.384 208.384 115.136 0 208.32-93.12 208.32-208.384 0-115.008-93.184-208.32-208.32-208.32z" />
<glyph unicode="&#xe94a;" glyph-name="checkbox" d="M325.312 48.256l-325.312 325.312 90.56 90.432 234.752-234.752 634.688 634.752 90.56-90.432z" />
<glyph unicode="&#xe94b;" glyph-name="export-pdf" horiz-adv-x="1026" d="M749.313 334.966c-204.705 160.375-329.027 350.52-329.027 350.52h0.043c8.277 70.633 9.23 132.512-0.26 174.978-29.033 129.652-117.736 95.462-117.736 95.462-148.415-57.979 37.57-293.407 37.57-293.407-36.79-280.234-131.385-467.432-131.385-467.432-315.594-134.722-179.138-237.248-179.138-237.248 101.659-67.383 165.662 30.116 227.714 168.652v0c234.518 117.346 480.129 131.732 480.129 131.732 37.353-51.219 257.787-187.632 286.777-32.413s-274.687 109.156-274.687 109.156zM82.159 10.836c-24.006 22.186 70.026 75.053 70.026 75.053s-46.020-97.239-70.026-75.053zM324.52 887.721c25.61 11.917 23.876-98.929 23.876-98.929s-49.486 87.012-23.876 98.929zM297.957 222.084v0 0c1.43 3.553 2.903 7.020 4.42 10.53 40.473 96.719 78.173 226.111 101.269 346.533v0 0 0c0.303-0.347 135.762-163.755 255.318-261.167-0.043 0-234.041-26.26-361.006-95.896v0zM954.061 239.417c-11.917-30.723-97.239 23.876-97.239 23.876s109.156 6.847 97.239-23.876z" />
<glyph unicode="&#xe94c;" glyph-name="upload-image" d="M682.743 207.246c0-92.413-74.916-167.329-167.329-167.329s-167.329 74.916-167.329 167.329c0 92.413 74.916 167.329 167.329 167.329s167.329-74.916 167.329-167.329zM587.7 474.207v51.352c85.182 29.772 146.356 110.895 146.356 206.355 0 120.756-97.925 218.605-218.681 218.605s-218.567-97.849-218.567-218.605c0-95.497 61.175-176.583 146.432-206.355v-51.352h-357.907v-527.019h860.312v527.019h-357.945zM356.352 731.913c0 87.761 71.263 159.023 159.023 159.023 87.836 0 159.023-71.263 159.023-159.023 0-87.836-71.187-159.023-159.023-159.023-87.761 0-159.023 71.187-159.023 159.023zM515.413 5.101c-111.54 0-202.069 90.453-202.069 202.069s90.529 202.069 202.069 202.069c111.616 0 202.145-90.453 202.145-202.069s-90.529-202.069-202.145-202.069zM647.13 731.913c0-72.745-58.972-131.717-131.717-131.717s-131.717 58.972-131.717 131.717c0 72.745 58.972 131.717 131.717 131.717s131.717-58.972 131.717-131.717z" />
<glyph unicode="&#xe94d;" glyph-name="search" d="M670.29 844.875c-153.314 153.5-401.975 153.5-555.289 0-153.376-153.252-153.376-401.913 0-555.289 142.243-142.181 366.461-152.194 520.521-30.476l323.11-323.11 65.244 65.244-323.048 323.172c121.78 154.122 111.705 378.216-30.538 520.459zM620.533 339.53c-125.823-125.823-329.889-125.823-455.712 0-125.823 125.761-125.823 329.765 0 455.588s329.827 125.823 455.588 0c125.885-125.823 125.885-329.827 0.124-455.588z" />
<glyph unicode="&#xe94e;" glyph-name="currency-baht" d="M790.575 399.267c-26.717 35.188-64.977 60.090-114.735 74.705 38.54 19.037 67.351 44.079 86.388 75.171 19.084 30.999 28.625 64.186 28.625 99.281 0 37.841-10.752 74.007-32.256 108.637s-51.247 60.183-89.228 76.893c-37.609 16.477-87.366 24.855-149.271 25.041v54.644c0 25.647-20.759 46.359-46.406 46.359s-46.359-20.713-46.359-46.359v-54.737h-171.52c-25.6 0-46.359-20.666-46.359-46.359v-729.926c0-25.647 20.759-46.452 46.359-46.452 0 0 94.813 0 171.52 0v-54.691c0-25.6 20.759-46.313 46.406-46.313s46.406 20.713 46.406 46.313v54.691h3.025c52.364 0 96.582 4.655 132.701 13.731 36.119 9.169 66.095 22.714 90.112 40.727 23.924 18.013 44.032 43.473 60.323 76.614 16.244 33.094 24.343 68.887 24.343 107.473 0.047 47.942-13.312 89.367-40.076 124.556zM298.636 766.278h194.653c60.276 0 102.772-3.91 127.581-11.729s43.846-22.342 57.204-43.473c13.359-21.225 20.061-45.708 20.061-73.542 0-29.37-7.168-53.807-21.457-73.263-14.336-19.456-35.607-33.373-63.814-41.705-21.364-6.563-56.646-9.728-105.844-9.728h-208.384v253.44zM713.449 189.161c-16.337-22.295-40.681-38.167-72.937-47.756-24.39-7.401-64.745-11.078-120.972-11.078h-220.905v289.699h205.219c68.887 0 117.481-4.468 145.827-13.405 28.3-8.937 50.129-25.507 65.396-49.664 15.22-24.204 22.9-52.177 22.9-84.015-0.047-33.652-8.192-61.58-24.529-83.782z" />
<glyph unicode="&#xe94f;" glyph-name="currency-usd" d="M752.687 378.461c-19.13 32.721-48.733 59.811-88.855 81.268-21.969 11.543-58.833 24.623-110.406 39.284v254.278c29.789-5.725 53.9-16.989 72.099-34.257 27.089-25.74 43.008-63.86 47.709-114.223 0 0 0.372-30.999 46.732-30.999 0 0 43.846 3.631 40.727 38.633-1.583 46.732-12.847 88.623-33.885 125.533-20.992 37.004-50.967 64.977-90.019 84.015-25.228 12.381-53.062 20.573-83.363 24.902v66.746c0 25.647-20.759 46.359-46.359 46.359s-46.406-20.713-46.406-46.359v-65.676c-30.534-3.863-59.066-11.962-85.457-24.623-37.935-18.060-66.793-44.637-86.528-79.593-19.735-35.002-29.649-72.611-29.649-112.826 0-36.585 8.052-69.632 24.25-99.142 16.151-29.603 40.634-54.319 73.588-74.24 21.225-13.033 55.994-26.857 103.796-41.286v-287.884c-15.453 3.91-30.208 9.216-44.125 16.244-31.325 15.825-54.412 36.445-69.353 61.999-14.848 25.553-24.343 58.275-28.393 98.071-8.518 48.361-51.712 37.283-51.712 37.283-34.071-7.68-34.351-45.894-34.351-45.894 1.257-53.341 13.871-101.097 37.841-143.267 23.971-42.263 57.065-73.914 99.188-94.906 26.345-13.079 56.646-22.202 90.903-27.089v-49.338c0-25.6 20.806-46.313 46.406-46.313s46.406 20.713 46.406 46.313v46.127c38.586 3.072 73.914 13.079 105.937 30.022 39.331 20.852 69.492 50.083 90.484 87.552 20.992 37.562 31.511 77.452 31.511 119.901-0.047 42.729-9.588 80.57-28.719 113.385zM373.76 567.343c-17.873 18.479-26.764 42.077-26.764 70.656 0 33.001 12.614 61.114 37.841 84.527 17.78 16.477 43.194 26.996 75.823 31.93v-229.376c-44.777 14.289-73.775 28.393-86.9 42.263zM673.932 188.183c-12.986-20.899-32.861-37.283-59.439-49.292-18.385-8.285-38.772-13.545-61.068-16.151v266.612c28.067-8.564 47.849-15.36 59.159-20.433 28.858-12.707 49.478-28.346 62.045-47.011 12.521-18.711 18.804-40.541 18.804-65.489 0-24.669-6.47-47.43-19.503-68.236z" />
<glyph unicode="&#xe950;" glyph-name="currency-eur" d="M880.407 52.922l-13.591-5.818c-40.448-17.361-86.947-25.926-140.707-25.926-72.797 0-137.356 15.919-197.167 48.733-56.553 30.999-99.188 75.45-130.188 136.099-11.357 21.83-20.48 45.568-27.927 70.656h429.196c29.882 0 54.086 24.204 54.086 54.086 0 29.836-24.25 54.086-54.086 54.086h-448.559c-1.35 16.803-2.188 33.932-2.188 51.712 0 17.734 0.838 34.909 2.188 51.712h448.559c29.882 0 54.086 24.204 54.086 54.086s-24.25 54.039-54.086 54.039h-429.196c7.354 25.135 16.524 48.78 27.927 70.703 30.999 60.509 73.635 105.1 130.188 136.099 59.811 32.721 124.369 48.64 197.167 48.64 53.76 0 100.259-8.471 140.707-25.926l13.591-5.725c28.951-7.261 58.321 10.38 65.583 39.331 7.168 29.044-10.426 58.415-39.424 65.583l-13.359 6.749c-49.85 18.804-105.565 28.16-167.098 28.16-90.624 0-173.708-20.666-249.204-61.999-75.45-41.286-133.632-101.841-174.452-181.527-18.991-37.004-33.42-77.126-43.52-120.087h-134.982c-29.929 0-54.132-24.111-54.132-54.039s24.204-54.086 54.086-54.086h119.11c-1.071-16.896-1.862-34.071-1.862-51.712 0-17.734 0.791-34.863 1.862-51.712h-119.11c-29.882 0-54.086-24.297-54.086-54.132 0-29.929 24.204-54.086 54.086-54.086h134.982c10.147-42.961 24.529-83.084 43.567-120.087 40.82-79.639 99.002-140.195 174.452-181.481s158.534-62.045 249.204-62.045c61.533 0 117.295 9.356 167.145 28.16l13.359 6.749c28.998 7.261 46.592 36.631 39.424 65.629-7.308 28.951-36.678 46.639-65.629 39.377z" />
<glyph unicode="&#xe951;" glyph-name="currency-won" d="M957.58 455.587h-155.183l40.681 137.449v0.093h114.502c25.6 0 46.406 20.713 46.406 46.359s-20.806 46.359-46.406 46.359l-87.040 0.047 32.908 111.43c7.261 24.529-6.749 50.362-31.279 57.53l-5.911 1.815c-24.576 7.261-50.362-6.796-57.623-31.372l-41.286-139.45-189.254-0.047-27.369 143.407c-4.468 23.319-25.647 39.191-48.78 37.562-23.040 1.629-44.218-14.243-48.687-37.562l-27.369-143.36h-189.3l-41.286 139.45c-7.215 24.529-33.047 38.633-57.577 31.372l-5.911-1.815c-24.529-7.168-38.633-33.001-31.372-57.53l32.954-111.43v-0.047h-87.040c-25.647 0-46.359-20.713-46.359-46.359s20.713-46.359 46.359-46.359h114.455l40.727-137.542h-155.183c-25.647 0-46.359-20.806-46.359-46.452 0-25.553 20.713-46.359 46.359-46.359h182.598l81.967-276.992 6.004-11.962c5.818-13.871 18.246-24.576 34.071-27.695l6.097-1.117c25.181-4.794 49.478 11.683 54.272 36.864l53.527 280.902h74.1l53.62-280.902c4.841-25.181 29.091-41.658 54.179-36.864l6.097 1.117c15.872 3.072 28.253 13.824 34.118 27.695l6.051 11.962 81.92 277.085v-0.093h182.598c25.6 0 46.406 20.806 46.406 46.359 0 25.647-20.806 46.452-46.406 46.452zM364.218 362.775l-12.614-66.001v0.093l-19.549 65.908h32.163zM381.952 455.587v0h-77.265l-40.681 137.542h144.198l-26.252-137.542zM521.309 455.587h-38.679l19.316 101.283 19.363-101.283zM671.837 362.775l-19.456-65.908-0.093-0.093-12.614 66.001h32.163zM699.252 455.587h-77.265l-26.205 137.542h144.151l-40.681-137.542z" />
<glyph unicode="&#xe960;" glyph-name="help" d="M775.168 725.572c0-75.298-45.466-159.812-136.67-253.201-62.396-62.669-94.003-126.225-95.3-190.464 0-20.958 4.642-50.108 14.541-87.791h-119.33c-13.995 41.779-20.958 73.318-20.958 94.14 0 68.267 38.025 146.432 114.142 234.359 75.981 87.927 114.005 154.146 114.005 198.793 0 79.599-48.811 119.194-146.432 119.194-60.006 0-117.76-20.207-173.739-60.553l-52.361 102.4c81.988 51.678 161.997 77.551 239.616 77.551 79.326 0 142.95-21.299 190.805-63.966 47.855-42.394 71.68-99.396 71.68-170.462zM605.867 30.891c0-27.853-9.762-51.61-29.355-71.066-19.593-19.524-43.213-29.491-71.066-29.491-27.989 0-51.61 9.967-71.202 29.491-19.456 19.456-29.355 43.213-29.355 71.066 0 27.989 9.899 51.678 29.355 71.066 19.593 19.593 43.213 29.491 71.202 29.491 27.853 0 51.473-9.899 71.066-29.491 19.593-19.456 29.355-43.076 29.355-71.066z" />
</font>
</defs>
</svg>
